<?xml version="1.0" encoding="UTF-8" standalone="no"?>
<!DOCTYPE svg PUBLIC "-//W3C//DTD SVG 1.1//EN"
 "http://www.w3.org/Graphics/SVG/1.1/DTD/svg11.dtd">
<!-- Generated by graphviz version 2.43.0 (0)
 -->
<!-- Title: %3 Pages: 1 -->
<svg width="3000pt" height="259pt"
 viewBox="0.00 0.00 720.00 62.11" xmlns="http://www.w3.org/2000/svg" xmlns:xlink="http://www.w3.org/1999/xlink">
<g id="graph0" class="graph" transform="scale(1.27 1.27) rotate(0) translate(4 200)">
<title>%3</title>
<polygon fill="white" stroke="transparent" points="-4,4 -4,-200 2361,-200 2361,4 -4,4"/>
<g id="clust1" class="cluster">
<title>cluster_l1_g0</title>
</g>
<g id="clust2" class="cluster">
<title>cluster_l2_g0</title>
</g>
<g id="clust3" class="cluster">
<title>cluster_l2_g1</title>
</g>
<g id="clust4" class="cluster">
<title>cluster_l2_g2</title>
</g>
<g id="clust5" class="cluster">
<title>cluster_l2_g3</title>
</g>
<g id="clust6" class="cluster">
<title>cluster_l2_g4</title>
</g>
<g id="clust7" class="cluster">
<title>cluster_l2_g5</title>
</g>
<!-- title -->
<g id="node1" class="node">
<title>title</title>
<path fill="lightgrey" stroke="transparent" d="M1125,-196C1125,-196 785,-196 785,-196 779,-196 773,-190 773,-184 773,-184 773,-172 773,-172 773,-166 779,-160 785,-160 785,-160 1125,-160 1125,-160 1131,-160 1137,-166 1137,-172 1137,-172 1137,-184 1137,-184 1137,-190 1131,-196 1125,-196"/>
<text text-anchor="middle" x="955" y="-181.4" font-family="Arial Bold" font-size="12.00">build_stairs_seed42</text>
<text text-anchor="middle" x="955" y="-168.4" font-family="Arial Bold" font-size="12.00">Arrange the blocks to form climbable stairs and then climb t...</text>
</g>
<!-- node_0 -->
<g id="node2" class="node">
<title>node_0</title>
<path fill="#ff6b6b" stroke="black" d="M1255,-196C1255,-196 1171,-196 1171,-196 1165,-196 1159,-190 1159,-184 1159,-184 1159,-172 1159,-172 1159,-166 1165,-160 1171,-160 1171,-160 1255,-160 1255,-160 1261,-160 1267,-166 1267,-172 1267,-172 1267,-184 1267,-184 1267,-190 1261,-196 1255,-196"/>
<text text-anchor="middle" x="1213" y="-175.8" font-family="Arial" font-size="9.00">build_stairs_seed42</text>
</g>
<!-- node_1 -->
<g id="node3" class="node">
<title>node_1</title>
<path fill="#4ecdc4" stroke="black" d="M1196,-124C1196,-124 1088,-124 1088,-124 1082,-124 1076,-118 1076,-112 1076,-112 1076,-100 1076,-100 1076,-94 1082,-88 1088,-88 1088,-88 1196,-88 1196,-88 1202,-88 1208,-94 1208,-100 1208,-100 1208,-112 1208,-112 1208,-118 1202,-124 1196,-124"/>
<text text-anchor="middle" x="1142" y="-103.8" font-family="Arial" font-size="9.00">build_staircase_with_blocks</text>
</g>
<!-- node_0&#45;&gt;node_1 -->
<g id="edge1" class="edge">
<title>node_0&#45;&gt;node_1</title>
<path fill="none" stroke="#999999" d="M1195.45,-159.7C1186.08,-150.46 1174.44,-138.98 1164.42,-129.11"/>
<polygon fill="#999999" stroke="#999999" points="1166.05,-127.27 1159.35,-124.1 1162.61,-130.76 1166.05,-127.27"/>
</g>
<!-- node_14 -->
<g id="node16" class="node">
<title>node_14</title>
<path fill="#4ecdc4" stroke="black" d="M1326,-124C1326,-124 1242,-124 1242,-124 1236,-124 1230,-118 1230,-112 1230,-112 1230,-100 1230,-100 1230,-94 1236,-88 1242,-88 1242,-88 1326,-88 1326,-88 1332,-88 1338,-94 1338,-100 1338,-100 1338,-112 1338,-112 1338,-118 1332,-124 1326,-124"/>
<text text-anchor="middle" x="1284" y="-103.8" font-family="Arial" font-size="9.00">climb_built_staircase</text>
</g>
<!-- node_0&#45;&gt;node_14 -->
<g id="edge14" class="edge">
<title>node_0&#45;&gt;node_14</title>
<path fill="none" stroke="#999999" d="M1230.55,-159.7C1239.92,-150.46 1251.56,-138.98 1261.58,-129.11"/>
<polygon fill="#999999" stroke="#999999" points="1263.39,-130.76 1266.65,-124.1 1259.95,-127.27 1263.39,-130.76"/>
</g>
<!-- node_2 -->
<g id="node4" class="node">
<title>node_2</title>
<path fill="#45b7d1" stroke="black" stroke-width="2" d="M392,-52C392,-52 308,-52 308,-52 302,-52 296,-46 296,-40 296,-40 296,-28 296,-28 296,-22 302,-16 308,-16 308,-16 392,-16 392,-16 398,-16 404,-22 404,-28 404,-28 404,-40 404,-40 404,-46 398,-52 392,-52"/>
<text text-anchor="middle" x="350" y="-31.8" font-family="Arial" font-size="9.00">walk_to_smallBlock</text>
</g>
<!-- node_1&#45;&gt;node_2 -->
<g id="edge2" class="edge">
<title>node_1&#45;&gt;node_2</title>
<path fill="none" stroke="#999999" d="M1075.84,-103.48C921.23,-99.52 539.95,-87.22 415,-60 408.58,-58.6 401.96,-56.67 395.51,-54.5"/>
<polygon fill="#999999" stroke="#999999" points="396.01,-52.07 388.59,-52.05 394.38,-56.69 396.01,-52.07"/>
</g>
<!-- node_3 -->
<g id="node5" class="node">
<title>node_3</title>
<path fill="#45b7d1" stroke="black" stroke-width="2" d="M262,-52C262,-52 178,-52 178,-52 172,-52 166,-46 166,-40 166,-40 166,-28 166,-28 166,-22 172,-16 178,-16 178,-16 262,-16 262,-16 268,-16 274,-22 274,-28 274,-28 274,-40 274,-40 274,-46 268,-52 262,-52"/>
<text text-anchor="middle" x="220" y="-31.8" font-family="Arial" font-size="9.00">pick_up_smallBlock</text>
</g>
<!-- node_1&#45;&gt;node_3 -->
<g id="edge3" class="edge">
<title>node_1&#45;&gt;node_3</title>
<path fill="none" stroke="#999999" d="M1075.77,-104.21C901.94,-101.69 435.64,-92.08 285,-60 278.57,-58.63 271.95,-56.72 265.49,-54.55"/>
<polygon fill="#999999" stroke="#999999" points="265.99,-52.13 258.58,-52.12 264.37,-56.75 265.99,-52.13"/>
</g>
<!-- node_4 -->
<g id="node6" class="node">
<title>node_4</title>
<path fill="#45b7d1" stroke="black" stroke-width="2" d="M131.5,-52C131.5,-52 28.5,-52 28.5,-52 22.5,-52 16.5,-46 16.5,-40 16.5,-40 16.5,-28 16.5,-28 16.5,-22 22.5,-16 28.5,-16 28.5,-16 131.5,-16 131.5,-16 137.5,-16 143.5,-22 143.5,-28 143.5,-28 143.5,-40 143.5,-40 143.5,-46 137.5,-52 131.5,-52"/>
<text text-anchor="middle" x="80" y="-31.8" font-family="Arial" font-size="9.00">walk_to_initialStairPosition</text>
</g>
<!-- node_1&#45;&gt;node_4 -->
<g id="edge4" class="edge">
<title>node_1&#45;&gt;node_4</title>
<path fill="none" stroke="#999999" d="M1075.69,-104.36C884.11,-102.12 332.29,-92.93 155,-60 147.25,-58.56 139.21,-56.51 131.39,-54.19"/>
<polygon fill="#999999" stroke="#999999" points="131.69,-51.72 124.28,-52 130.25,-56.41 131.69,-51.72"/>
</g>
<!-- node_5 -->
<g id="node7" class="node">
<title>node_5</title>
<path fill="#45b7d1" stroke="black" stroke-width="2" d="M814.5,-52C814.5,-52 703.5,-52 703.5,-52 697.5,-52 691.5,-46 691.5,-40 691.5,-40 691.5,-28 691.5,-28 691.5,-22 697.5,-16 703.5,-16 703.5,-16 814.5,-16 814.5,-16 820.5,-16 826.5,-22 826.5,-28 826.5,-28 826.5,-40 826.5,-40 826.5,-46 820.5,-52 814.5,-52"/>
<text text-anchor="middle" x="759" y="-31.8" font-family="Arial" font-size="9.00">place_smallBlock_at_initial...</text>
</g>
<!-- node_1&#45;&gt;node_5 -->
<g id="edge5" class="edge">
<title>node_1&#45;&gt;node_5</title>
<path fill="none" stroke="#999999" d="M1075.91,-98.3C1013.94,-91.29 918.97,-78.68 838,-60 830.7,-58.32 823.11,-56.28 815.63,-54.11"/>
<polygon fill="#999999" stroke="#999999" points="816.23,-51.73 808.82,-52.09 814.83,-56.43 816.23,-51.73"/>
</g>
<!-- node_6 -->
<g id="node8" class="node">
<title>node_6</title>
<path fill="#45b7d1" stroke="black" stroke-width="2" d="M657.5,-52C657.5,-52 572.5,-52 572.5,-52 566.5,-52 560.5,-46 560.5,-40 560.5,-40 560.5,-28 560.5,-28 560.5,-22 566.5,-16 572.5,-16 572.5,-16 657.5,-16 657.5,-16 663.5,-16 669.5,-22 669.5,-28 669.5,-28 669.5,-40 669.5,-40 669.5,-46 663.5,-52 657.5,-52"/>
<text text-anchor="middle" x="615" y="-31.8" font-family="Arial" font-size="9.00">walk_to_mediumBlock</text>
</g>
<!-- node_1&#45;&gt;node_6 -->
<g id="edge6" class="edge">
<title>node_1&#45;&gt;node_6</title>
<path fill="none" stroke="#999999" d="M1075.84,-104.01C985.5,-101.44 819.01,-92.27 681,-60 674.69,-58.52 668.17,-56.59 661.8,-54.46"/>
<polygon fill="#999999" stroke="#999999" points="662.38,-52.06 654.96,-52.07 660.76,-56.69 662.38,-52.06"/>
</g>
<!-- node_7 -->
<g id="node9" class="node">
<title>node_7</title>
<path fill="#45b7d1" stroke="black" stroke-width="2" d="M526,-52C526,-52 440,-52 440,-52 434,-52 428,-46 428,-40 428,-40 428,-28 428,-28 428,-22 434,-16 440,-16 440,-16 526,-16 526,-16 532,-16 538,-22 538,-28 538,-28 538,-40 538,-40 538,-46 532,-52 526,-52"/>
<text text-anchor="middle" x="483" y="-31.8" font-family="Arial" font-size="9.00">pick_up_mediumBlock</text>
</g>
<!-- node_1&#45;&gt;node_7 -->
<g id="edge7" class="edge">
<title>node_1&#45;&gt;node_7</title>
<path fill="none" stroke="#999999" d="M1075.86,-105.98C965.52,-106.29 737.49,-101.24 550,-60 543.5,-58.57 536.78,-56.64 530.23,-54.49"/>
<polygon fill="#999999" stroke="#999999" points="530.61,-52.03 523.19,-52.08 529.02,-56.67 530.61,-52.03"/>
</g>
<!-- node_8 -->
<g id="node10" class="node">
<title>node_8</title>
<path fill="#45b7d1" stroke="black" stroke-width="2" d="M1288.5,-52C1288.5,-52 1167.5,-52 1167.5,-52 1161.5,-52 1155.5,-46 1155.5,-40 1155.5,-40 1155.5,-28 1155.5,-28 1155.5,-22 1161.5,-16 1167.5,-16 1167.5,-16 1288.5,-16 1288.5,-16 1294.5,-16 1300.5,-22 1300.5,-28 1300.5,-28 1300.5,-40 1300.5,-40 1300.5,-46 1294.5,-52 1288.5,-52"/>
<text text-anchor="middle" x="1228" y="-31.8" font-family="Arial" font-size="9.00">walk_to_position_next_to_sm...</text>
</g>
<!-- node_1&#45;&gt;node_8 -->
<g id="edge8" class="edge">
<title>node_1&#45;&gt;node_8</title>
<path fill="none" stroke="#999999" d="M1163.26,-87.7C1174.82,-78.29 1189.22,-66.56 1201.51,-56.56"/>
<polygon fill="#999999" stroke="#999999" points="1203.1,-58.42 1206.99,-52.1 1200.01,-54.62 1203.1,-58.42"/>
</g>
<!-- node_9 -->
<g id="node11" class="node">
<title>node_9</title>
<path fill="#45b7d1" stroke="black" stroke-width="2" d="M1121,-52C1121,-52 993,-52 993,-52 987,-52 981,-46 981,-40 981,-40 981,-28 981,-28 981,-22 987,-16 993,-16 993,-16 1121,-16 1121,-16 1127,-16 1133,-22 1133,-28 1133,-28 1133,-40 1133,-40 1133,-46 1127,-52 1121,-52"/>
<text text-anchor="middle" x="1057" y="-31.8" font-family="Arial" font-size="9.00">place_mediumBlock_next_to_s...</text>
</g>
<!-- node_1&#45;&gt;node_9 -->
<g id="edge9" class="edge">
<title>node_1&#45;&gt;node_9</title>
<path fill="none" stroke="#999999" d="M1120.99,-87.7C1109.56,-78.29 1095.33,-66.56 1083.18,-56.56"/>
<polygon fill="#999999" stroke="#999999" points="1084.73,-54.66 1077.77,-52.1 1081.62,-58.45 1084.73,-54.66"/>
</g>
<!-- node_10 -->
<g id="node12" class="node">
<title>node_10</title>
<path fill="#45b7d1" stroke="black" stroke-width="2" d="M947,-52C947,-52 863,-52 863,-52 857,-52 851,-46 851,-40 851,-40 851,-28 851,-28 851,-22 857,-16 863,-16 863,-16 947,-16 947,-16 953,-16 959,-22 959,-28 959,-28 959,-40 959,-40 959,-46 953,-52 947,-52"/>
<text text-anchor="middle" x="905" y="-31.8" font-family="Arial" font-size="9.00">walk_to_largestBlock</text>
</g>
<!-- node_1&#45;&gt;node_10 -->
<g id="edge10" class="edge">
<title>node_1&#45;&gt;node_10</title>
<path fill="none" stroke="#999999" d="M1075.76,-89.5C1043.59,-81.51 1004.52,-71.12 970,-60 964.82,-58.33 959.45,-56.48 954.13,-54.56"/>
<polygon fill="#999999" stroke="#999999" points="954.83,-52.2 947.41,-52.09 953.14,-56.8 954.83,-52.2"/>
</g>
<!-- node_11 -->
<g id="node13" class="node">
<title>node_11</title>
<path fill="#45b7d1" stroke="black" stroke-width="2" d="M1753,-52C1753,-52 1669,-52 1669,-52 1663,-52 1657,-46 1657,-40 1657,-40 1657,-28 1657,-28 1657,-22 1663,-16 1669,-16 1669,-16 1753,-16 1753,-16 1759,-16 1765,-22 1765,-28 1765,-28 1765,-40 1765,-40 1765,-46 1759,-52 1753,-52"/>
<text text-anchor="middle" x="1711" y="-31.8" font-family="Arial" font-size="9.00">pick_up_largestBlock</text>
</g>
<!-- node_1&#45;&gt;node_11 -->
<g id="edge11" class="edge">
<title>node_1&#45;&gt;node_11</title>
<path fill="none" stroke="#999999" d="M1187.9,-87.89C1198.02,-84.74 1208.77,-81.87 1219,-80 1405.9,-45.92 1460.07,-99.04 1646,-60 1652.52,-58.63 1659.24,-56.69 1665.78,-54.5"/>
<polygon fill="#999999" stroke="#999999" points="1666.99,-56.67 1672.78,-52.03 1665.36,-52.05 1666.99,-56.67"/>
</g>
<!-- node_12 -->
<g id="node14" class="node">
<title>node_12</title>
<path fill="#45b7d1" stroke="black" stroke-width="2" d="M1623,-52C1623,-52 1501,-52 1501,-52 1495,-52 1489,-46 1489,-40 1489,-40 1489,-28 1489,-28 1489,-22 1495,-16 1501,-16 1501,-16 1623,-16 1623,-16 1629,-16 1635,-22 1635,-28 1635,-28 1635,-40 1635,-40 1635,-46 1629,-52 1623,-52"/>
<text text-anchor="middle" x="1562" y="-31.8" font-family="Arial" font-size="9.00">walk_to_position_next_to_me...</text>
</g>
<!-- node_1&#45;&gt;node_12 -->
<g id="edge12" class="edge">
<title>node_1&#45;&gt;node_12</title>
<path fill="none" stroke="#999999" d="M1188.36,-87.99C1198.35,-84.88 1208.94,-81.99 1219,-80 1332.25,-57.57 1364.48,-81.03 1478,-60 1486.5,-58.43 1495.36,-56.32 1504.01,-53.99"/>
<polygon fill="#999999" stroke="#999999" points="1504.8,-56.32 1510.89,-52.09 1503.49,-51.6 1504.8,-56.32"/>
</g>
<!-- node_13 -->
<g id="node15" class="node">
<title>node_13</title>
<path fill="#45b7d1" stroke="black" stroke-width="2" d="M1455,-52C1455,-52 1337,-52 1337,-52 1331,-52 1325,-46 1325,-40 1325,-40 1325,-28 1325,-28 1325,-22 1331,-16 1337,-16 1337,-16 1455,-16 1455,-16 1461,-16 1467,-22 1467,-28 1467,-28 1467,-40 1467,-40 1467,-46 1461,-52 1455,-52"/>
<text text-anchor="middle" x="1396" y="-31.8" font-family="Arial" font-size="9.00">place_largestBlock_next_to_...</text>
</g>
<!-- node_1&#45;&gt;node_13 -->
<g id="edge13" class="edge">
<title>node_1&#45;&gt;node_13</title>
<path fill="none" stroke="#999999" d="M1191.89,-87.95C1200.86,-85.13 1210.17,-82.35 1219,-80 1260.69,-68.88 1272.21,-70.75 1314,-60 1320.92,-58.22 1328.13,-56.23 1335.27,-54.17"/>
<polygon fill="#999999" stroke="#999999" points="1336.35,-56.41 1342.38,-52.09 1334.97,-51.7 1336.35,-56.41"/>
</g>
<!-- node_15 -->
<g id="node17" class="node">
<title>node_15</title>
<path fill="#45b7d1" stroke="black" stroke-width="2" d="M2189,-52C2189,-52 2077,-52 2077,-52 2071,-52 2065,-46 2065,-40 2065,-40 2065,-28 2065,-28 2065,-22 2071,-16 2077,-16 2077,-16 2189,-16 2189,-16 2195,-16 2201,-22 2201,-28 2201,-28 2201,-40 2201,-40 2201,-46 2195,-52 2189,-52"/>
<text text-anchor="middle" x="2133" y="-31.8" font-family="Arial" font-size="9.00">walk_to_base_of_smallBlock</text>
</g>
<!-- node_14&#45;&gt;node_15 -->
<g id="edge15" class="edge">
<title>node_14&#45;&gt;node_15</title>
<path fill="none" stroke="#999999" d="M1338.14,-103.58C1489.74,-99.33 1916.31,-85.4 2054,-60 2062.18,-58.49 2070.69,-56.39 2078.97,-54.04"/>
<polygon fill="#999999" stroke="#999999" points="2079.84,-56.34 2085.86,-52.01 2078.45,-51.64 2079.84,-56.34"/>
</g>
<!-- node_16 -->
<g id="node18" class="node">
<title>node_16</title>
<path fill="#45b7d1" stroke="black" stroke-width="2" d="M2031,-52C2031,-52 1945,-52 1945,-52 1939,-52 1933,-46 1933,-40 1933,-40 1933,-28 1933,-28 1933,-22 1939,-16 1945,-16 1945,-16 2031,-16 2031,-16 2037,-16 2043,-22 2043,-28 2043,-28 2043,-40 2043,-40 2043,-46 2037,-52 2031,-52"/>
<text text-anchor="middle" x="1988" y="-31.8" font-family="Arial" font-size="9.00">jump_onto_smallBlock</text>
</g>
<!-- node_14&#45;&gt;node_16 -->
<g id="edge16" class="edge">
<title>node_14&#45;&gt;node_16</title>
<path fill="none" stroke="#999999" d="M1338.1,-103.21C1471.09,-98.48 1811.24,-84.33 1922,-60 1928.42,-58.59 1935.04,-56.68 1941.5,-54.53"/>
<polygon fill="#999999" stroke="#999999" points="1942.62,-56.73 1948.43,-52.12 1941.02,-52.1 1942.62,-56.73"/>
</g>
<!-- node_17 -->
<g id="node19" class="node">
<title>node_17</title>
<path fill="#45b7d1" stroke="black" stroke-width="2" d="M1898.5,-52C1898.5,-52 1801.5,-52 1801.5,-52 1795.5,-52 1789.5,-46 1789.5,-40 1789.5,-40 1789.5,-28 1789.5,-28 1789.5,-22 1795.5,-16 1801.5,-16 1801.5,-16 1898.5,-16 1898.5,-16 1904.5,-16 1910.5,-22 1910.5,-28 1910.5,-28 1910.5,-40 1910.5,-40 1910.5,-46 1904.5,-52 1898.5,-52"/>
<text text-anchor="middle" x="1850" y="-31.8" font-family="Arial" font-size="9.00">jump_onto_mediumBlock</text>
</g>
<!-- node_14&#45;&gt;node_17 -->
<g id="edge17" class="edge">
<title>node_14&#45;&gt;node_17</title>
<path fill="none" stroke="#999999" d="M1338.01,-104.36C1429.55,-102.32 1620.58,-93.97 1778,-60 1784.98,-58.49 1792.23,-56.51 1799.31,-54.32"/>
<polygon fill="#999999" stroke="#999999" points="1800.4,-56.54 1806.32,-52.07 1798.9,-51.87 1800.4,-56.54"/>
</g>
<!-- node_18 -->
<g id="node20" class="node">
<title>node_18</title>
<path fill="#45b7d1" stroke="black" stroke-width="2" d="M2329,-52C2329,-52 2237,-52 2237,-52 2231,-52 2225,-46 2225,-40 2225,-40 2225,-28 2225,-28 2225,-22 2231,-16 2237,-16 2237,-16 2329,-16 2329,-16 2335,-16 2341,-22 2341,-28 2341,-28 2341,-40 2341,-40 2341,-46 2335,-52 2329,-52"/>
<text text-anchor="middle" x="2283" y="-31.8" font-family="Arial" font-size="9.00">jump_onto_largestBlock</text>
</g>
<!-- node_14&#45;&gt;node_18 -->
<g id="edge18" class="edge">
<title>node_14&#45;&gt;node_18</title>
<path fill="none" stroke="#999999" d="M1338.09,-104.5C1510.36,-102.58 2044.71,-93.96 2214,-60 2221.03,-58.59 2228.3,-56.59 2235.36,-54.33"/>
<polygon fill="#999999" stroke="#999999" points="2236.49,-56.54 2242.35,-52 2234.93,-51.9 2236.49,-56.54"/>
</g>
</g>
</svg>
