<?xml version="1.0" encoding="UTF-8" standalone="no"?>
<!DOCTYPE svg PUBLIC "-//W3C//DTD SVG 1.1//EN"
 "http://www.w3.org/Graphics/SVG/1.1/DTD/svg11.dtd">
<!-- Generated by graphviz version 2.43.0 (0)
 -->
<!-- Title: %3 Pages: 1 -->
<svg width="3000pt" height="711pt"
 viewBox="0.00 0.00 720.00 170.72" xmlns="http://www.w3.org/2000/svg" xmlns:xlink="http://www.w3.org/1999/xlink">
<g id="graph0" class="graph" transform="scale(2.58 2.58) rotate(0) translate(4 272)">
<title>%3</title>
<polygon fill="white" stroke="transparent" points="-4,4 -4,-272 1160,-272 1160,4 -4,4"/>
<g id="clust1" class="cluster">
<title>cluster_l1_g0</title>
</g>
<g id="clust2" class="cluster">
<title>cluster_l2_g0</title>
</g>
<g id="clust3" class="cluster">
<title>cluster_l2_g1</title>
</g>
<g id="clust4" class="cluster">
<title>cluster_l3_g0</title>
</g>
<g id="clust5" class="cluster">
<title>cluster_l3_g1</title>
</g>
<g id="clust6" class="cluster">
<title>cluster_l3_g2</title>
</g>
<!-- title -->
<g id="node1" class="node">
<title>title</title>
<path fill="lightgrey" stroke="transparent" d="M650.5,-268C650.5,-268 315.5,-268 315.5,-268 309.5,-268 303.5,-262 303.5,-256 303.5,-256 303.5,-244 303.5,-244 303.5,-238 309.5,-232 315.5,-232 315.5,-232 650.5,-232 650.5,-232 656.5,-232 662.5,-238 662.5,-244 662.5,-244 662.5,-256 662.5,-256 662.5,-262 656.5,-268 650.5,-268"/>
<text text-anchor="middle" x="483" y="-253.4" font-family="Arial Bold" font-size="12.00">build_stairs_seed123</text>
<text text-anchor="middle" x="483" y="-240.4" font-family="Arial Bold" font-size="12.00">The robot will first arrange the Small Block, Medium Block, ...</text>
</g>
<!-- node_0 -->
<g id="node2" class="node">
<title>node_0</title>
<path fill="#ff6b6b" stroke="black" d="M781,-268C781,-268 697,-268 697,-268 691,-268 685,-262 685,-256 685,-256 685,-244 685,-244 685,-238 691,-232 697,-232 697,-232 781,-232 781,-232 787,-232 793,-238 793,-244 793,-244 793,-256 793,-256 793,-262 787,-268 781,-268"/>
<text text-anchor="middle" x="739" y="-247.8" font-family="Arial" font-size="9.00">build_stairs_seed123</text>
</g>
<!-- node_1 -->
<g id="node3" class="node">
<title>node_1</title>
<path fill="#4ecdc4" stroke="black" d="M716,-196C716,-196 632,-196 632,-196 626,-196 620,-190 620,-184 620,-184 620,-172 620,-172 620,-166 626,-160 632,-160 632,-160 716,-160 716,-160 722,-160 728,-166 728,-172 728,-172 728,-184 728,-184 728,-190 722,-196 716,-196"/>
<text text-anchor="middle" x="674" y="-175.8" font-family="Arial" font-size="9.00">build_stair_structure</text>
</g>
<!-- node_0&#45;&gt;node_1 -->
<g id="edge1" class="edge">
<title>node_0&#45;&gt;node_1</title>
<path fill="none" stroke="#999999" d="M722.93,-231.7C714.43,-222.54 703.89,-211.19 694.78,-201.38"/>
<polygon fill="#999999" stroke="#999999" points="696.44,-199.57 689.88,-196.1 692.85,-202.9 696.44,-199.57"/>
</g>
<!-- node_12 -->
<g id="node14" class="node">
<title>node_12</title>
<path fill="#4ecdc4" stroke="black" d="M846,-196C846,-196 762,-196 762,-196 756,-196 750,-190 750,-184 750,-184 750,-172 750,-172 750,-166 756,-160 762,-160 762,-160 846,-160 846,-160 852,-160 858,-166 858,-172 858,-172 858,-184 858,-184 858,-190 852,-196 846,-196"/>
<text text-anchor="middle" x="804" y="-175.8" font-family="Arial" font-size="9.00">climb_stair_structure</text>
</g>
<!-- node_0&#45;&gt;node_12 -->
<g id="edge12" class="edge">
<title>node_0&#45;&gt;node_12</title>
<path fill="none" stroke="#999999" d="M755.07,-231.7C763.57,-222.54 774.11,-211.19 783.22,-201.38"/>
<polygon fill="#999999" stroke="#999999" points="785.15,-202.9 788.12,-196.1 781.56,-199.57 785.15,-202.9"/>
</g>
<!-- node_2 -->
<g id="node4" class="node">
<title>node_2</title>
<path fill="#45b7d1" stroke="black" d="M534.5,-124C534.5,-124 405.5,-124 405.5,-124 399.5,-124 393.5,-118 393.5,-112 393.5,-112 393.5,-100 393.5,-100 393.5,-94 399.5,-88 405.5,-88 405.5,-88 534.5,-88 534.5,-88 540.5,-88 546.5,-94 546.5,-100 546.5,-100 546.5,-112 546.5,-112 546.5,-118 540.5,-124 534.5,-124"/>
<text text-anchor="middle" x="470" y="-103.8" font-family="Arial" font-size="9.00">place_mediumBlock_on_larges...</text>
</g>
<!-- node_1&#45;&gt;node_2 -->
<g id="edge2" class="edge">
<title>node_1&#45;&gt;node_2</title>
<path fill="none" stroke="#999999" d="M624.36,-159.97C594.86,-149.84 557.35,-136.97 526.7,-126.45"/>
<polygon fill="#999999" stroke="#999999" points="527.28,-124.07 519.87,-124.11 525.69,-128.7 527.28,-124.07"/>
</g>
<!-- node_7 -->
<g id="node9" class="node">
<title>node_7</title>
<path fill="#45b7d1" stroke="black" d="M711.5,-124C711.5,-124 580.5,-124 580.5,-124 574.5,-124 568.5,-118 568.5,-112 568.5,-112 568.5,-100 568.5,-100 568.5,-94 574.5,-88 580.5,-88 580.5,-88 711.5,-88 711.5,-88 717.5,-88 723.5,-94 723.5,-100 723.5,-100 723.5,-112 723.5,-112 723.5,-118 717.5,-124 711.5,-124"/>
<text text-anchor="middle" x="646" y="-103.8" font-family="Arial" font-size="9.00">place_smallBlock_on_mediumB...</text>
</g>
<!-- node_1&#45;&gt;node_7 -->
<g id="edge7" class="edge">
<title>node_1&#45;&gt;node_7</title>
<path fill="none" stroke="#999999" d="M667.08,-159.7C663.59,-150.97 659.3,-140.24 655.5,-130.75"/>
<polygon fill="#999999" stroke="#999999" points="657.72,-129.69 652.84,-124.1 653.17,-131.51 657.72,-129.69"/>
</g>
<!-- node_3 -->
<g id="node5" class="node">
<title>node_3</title>
<path fill="#96ceb4" stroke="black" d="M375.5,-52C375.5,-52 290.5,-52 290.5,-52 284.5,-52 278.5,-46 278.5,-40 278.5,-40 278.5,-28 278.5,-28 278.5,-22 284.5,-16 290.5,-16 290.5,-16 375.5,-16 375.5,-16 381.5,-16 387.5,-22 387.5,-28 387.5,-28 387.5,-40 387.5,-40 387.5,-46 381.5,-52 375.5,-52"/>
<text text-anchor="middle" x="333" y="-31.8" font-family="Arial" font-size="9.00">walk_to_mediumBlock</text>
</g>
<!-- node_2&#45;&gt;node_3 -->
<g id="edge3" class="edge">
<title>node_2&#45;&gt;node_3</title>
<path fill="none" stroke="#999999" d="M436.49,-87.88C417.33,-78.09 393.18,-65.75 373.03,-55.45"/>
<polygon fill="#999999" stroke="#999999" points="373.99,-53.19 366.64,-52.19 371.76,-57.56 373.99,-53.19"/>
</g>
<!-- node_4 -->
<g id="node6" class="node">
<title>node_4</title>
<path fill="#96ceb4" stroke="black" d="M244,-52C244,-52 158,-52 158,-52 152,-52 146,-46 146,-40 146,-40 146,-28 146,-28 146,-22 152,-16 158,-16 158,-16 244,-16 244,-16 250,-16 256,-22 256,-28 256,-28 256,-40 256,-40 256,-46 250,-52 244,-52"/>
<text text-anchor="middle" x="201" y="-31.8" font-family="Arial" font-size="9.00">pick_up_mediumBlock</text>
</g>
<!-- node_2&#45;&gt;node_4 -->
<g id="edge4" class="edge">
<title>node_2&#45;&gt;node_4</title>
<path fill="none" stroke="#999999" d="M393.1,-90.47C355.13,-82.64 308.82,-72.1 268,-60 262.35,-58.33 256.5,-56.41 250.71,-54.41"/>
<polygon fill="#999999" stroke="#999999" points="251.37,-52.05 243.95,-52.02 249.74,-56.67 251.37,-52.05"/>
</g>
<!-- node_5 -->
<g id="node7" class="node">
<title>node_5</title>
<path fill="#96ceb4" stroke="black" d="M112,-52C112,-52 28,-52 28,-52 22,-52 16,-46 16,-40 16,-40 16,-28 16,-28 16,-22 22,-16 28,-16 28,-16 112,-16 112,-16 118,-16 124,-22 124,-28 124,-28 124,-40 124,-40 124,-46 118,-52 112,-52"/>
<text text-anchor="middle" x="70" y="-31.8" font-family="Arial" font-size="9.00">walk_to_largestBlock</text>
</g>
<!-- node_2&#45;&gt;node_5 -->
<g id="edge5" class="edge">
<title>node_2&#45;&gt;node_5</title>
<path fill="none" stroke="#999999" d="M393.19,-99.81C324.66,-93.97 221.98,-82.24 135,-60 129.11,-58.49 123.02,-56.61 117.04,-54.56"/>
<polygon fill="#999999" stroke="#999999" points="117.51,-52.13 110.09,-52.09 115.87,-56.75 117.51,-52.13"/>
</g>
<!-- node_6 -->
<g id="node8" class="node">
<title>node_6</title>
<path fill="#96ceb4" stroke="black" d="M544,-52C544,-52 424,-52 424,-52 418,-52 412,-46 412,-40 412,-40 412,-28 412,-28 412,-22 418,-16 424,-16 424,-16 544,-16 544,-16 550,-16 556,-22 556,-28 556,-28 556,-40 556,-40 556,-46 550,-52 544,-52"/>
<text text-anchor="middle" x="484" y="-31.8" font-family="Arial" font-size="9.00">place_carriedBlock_on_large...</text>
</g>
<!-- node_2&#45;&gt;node_6 -->
<g id="edge6" class="edge">
<title>node_2&#45;&gt;node_6</title>
<path fill="none" stroke="#999999" d="M473.46,-87.7C475.19,-79.05 477.31,-68.45 479.19,-59.03"/>
<polygon fill="#999999" stroke="#999999" points="481.61,-59.45 480.58,-52.1 476.8,-58.49 481.61,-59.45"/>
</g>
<!-- node_8 -->
<g id="node10" class="node">
<title>node_8</title>
<path fill="#96ceb4" stroke="black" d="M674,-52C674,-52 590,-52 590,-52 584,-52 578,-46 578,-40 578,-40 578,-28 578,-28 578,-22 584,-16 590,-16 590,-16 674,-16 674,-16 680,-16 686,-22 686,-28 686,-28 686,-40 686,-40 686,-46 680,-52 674,-52"/>
<text text-anchor="middle" x="632" y="-31.8" font-family="Arial" font-size="9.00">walk_to_smallBlock</text>
</g>
<!-- node_7&#45;&gt;node_8 -->
<g id="edge8" class="edge">
<title>node_7&#45;&gt;node_8</title>
<path fill="none" stroke="#999999" d="M642.54,-87.7C640.81,-79.05 638.69,-68.45 636.81,-59.03"/>
<polygon fill="#999999" stroke="#999999" points="639.2,-58.49 635.42,-52.1 634.39,-59.45 639.2,-58.49"/>
</g>
<!-- node_9 -->
<g id="node11" class="node">
<title>node_9</title>
<path fill="#96ceb4" stroke="black" d="M804,-52C804,-52 720,-52 720,-52 714,-52 708,-46 708,-40 708,-40 708,-28 708,-28 708,-22 714,-16 720,-16 720,-16 804,-16 804,-16 810,-16 816,-22 816,-28 816,-28 816,-40 816,-40 816,-46 810,-52 804,-52"/>
<text text-anchor="middle" x="762" y="-31.8" font-family="Arial" font-size="9.00">pick_up_smallBlock</text>
</g>
<!-- node_7&#45;&gt;node_9 -->
<g id="edge9" class="edge">
<title>node_7&#45;&gt;node_9</title>
<path fill="none" stroke="#999999" d="M674.38,-87.88C690.39,-78.22 710.51,-66.07 727.44,-55.86"/>
<polygon fill="#999999" stroke="#999999" points="728.79,-57.9 733.51,-52.19 726.25,-53.71 728.79,-57.9"/>
</g>
<!-- node_10 -->
<g id="node12" class="node">
<title>node_10</title>
<path fill="#96ceb4" stroke="black" d="M1107.5,-52C1107.5,-52 1022.5,-52 1022.5,-52 1016.5,-52 1010.5,-46 1010.5,-40 1010.5,-40 1010.5,-28 1010.5,-28 1010.5,-22 1016.5,-16 1022.5,-16 1022.5,-16 1107.5,-16 1107.5,-16 1113.5,-16 1119.5,-22 1119.5,-28 1119.5,-28 1119.5,-40 1119.5,-40 1119.5,-46 1113.5,-52 1107.5,-52"/>
<text text-anchor="middle" x="1065" y="-31.8" font-family="Arial" font-size="9.00">walk_to_mediumBlock</text>
</g>
<!-- node_7&#45;&gt;node_10 -->
<g id="edge10" class="edge">
<title>node_7&#45;&gt;node_10</title>
<path fill="none" stroke="#999999" d="M700.2,-87.93C711.6,-84.86 723.62,-82.01 735,-80 851.32,-59.48 884.77,-85.92 1000,-60 1006.32,-58.58 1012.85,-56.65 1019.22,-54.5"/>
<polygon fill="#999999" stroke="#999999" points="1020.26,-56.73 1026.04,-52.09 1018.63,-52.11 1020.26,-56.73"/>
</g>
<!-- node_11 -->
<g id="node13" class="node">
<title>node_11</title>
<path fill="#96ceb4" stroke="black" d="M976.5,-52C976.5,-52 851.5,-52 851.5,-52 845.5,-52 839.5,-46 839.5,-40 839.5,-40 839.5,-28 839.5,-28 839.5,-22 845.5,-16 851.5,-16 851.5,-16 976.5,-16 976.5,-16 982.5,-16 988.5,-22 988.5,-28 988.5,-28 988.5,-40 988.5,-40 988.5,-46 982.5,-52 976.5,-52"/>
<text text-anchor="middle" x="914" y="-31.8" font-family="Arial" font-size="9.00">place_carriedBlock_on_mediu...</text>
</g>
<!-- node_7&#45;&gt;node_11 -->
<g id="edge11" class="edge">
<title>node_7&#45;&gt;node_11</title>
<path fill="none" stroke="#999999" d="M704.74,-87.92C714.81,-85.16 725.18,-82.42 735,-80 776.47,-69.77 787.59,-70.48 829,-60 836.31,-58.15 843.93,-56.09 851.48,-53.98"/>
<polygon fill="#999999" stroke="#999999" points="852.32,-56.29 858.39,-52.02 850.98,-51.57 852.32,-56.29"/>
</g>
<!-- node_13 -->
<g id="node15" class="node">
<title>node_13</title>
<path fill="#45b7d1" stroke="black" d="M850,-124C850,-124 758,-124 758,-124 752,-124 746,-118 746,-112 746,-112 746,-100 746,-100 746,-94 752,-88 758,-88 758,-88 850,-88 850,-88 856,-88 862,-94 862,-100 862,-100 862,-112 862,-112 862,-118 856,-124 850,-124"/>
<text text-anchor="middle" x="804" y="-103.8" font-family="Arial" font-size="9.00">jump_onto_largestBlock</text>
</g>
<!-- node_12&#45;&gt;node_13 -->
<g id="edge13" class="edge">
<title>node_12&#45;&gt;node_13</title>
<path fill="none" stroke="#999999" d="M804,-159.7C804,-151.14 804,-140.66 804,-131.3"/>
<polygon fill="#999999" stroke="#999999" points="806.45,-131.1 804,-124.1 801.55,-131.1 806.45,-131.1"/>
</g>
<!-- node_14 -->
<g id="node16" class="node">
<title>node_14</title>
<path fill="#45b7d1" stroke="black" d="M1127.5,-124C1127.5,-124 1030.5,-124 1030.5,-124 1024.5,-124 1018.5,-118 1018.5,-112 1018.5,-112 1018.5,-100 1018.5,-100 1018.5,-94 1024.5,-88 1030.5,-88 1030.5,-88 1127.5,-88 1127.5,-88 1133.5,-88 1139.5,-94 1139.5,-100 1139.5,-100 1139.5,-112 1139.5,-112 1139.5,-118 1133.5,-124 1127.5,-124"/>
<text text-anchor="middle" x="1079" y="-103.8" font-family="Arial" font-size="9.00">jump_onto_mediumBlock</text>
</g>
<!-- node_12&#45;&gt;node_14 -->
<g id="edge14" class="edge">
<title>node_12&#45;&gt;node_14</title>
<path fill="none" stroke="#999999" d="M858.28,-166.75C899.41,-158.55 957.16,-146.12 1007,-132 1013.08,-130.28 1019.39,-128.33 1025.64,-126.3"/>
<polygon fill="#999999" stroke="#999999" points="1026.51,-128.59 1032.39,-124.07 1024.97,-123.94 1026.51,-128.59"/>
</g>
<!-- node_15 -->
<g id="node17" class="node">
<title>node_15</title>
<path fill="#45b7d1" stroke="black" d="M984,-124C984,-124 898,-124 898,-124 892,-124 886,-118 886,-112 886,-112 886,-100 886,-100 886,-94 892,-88 898,-88 898,-88 984,-88 984,-88 990,-88 996,-94 996,-100 996,-100 996,-112 996,-112 996,-118 990,-124 984,-124"/>
<text text-anchor="middle" x="941" y="-103.8" font-family="Arial" font-size="9.00">jump_onto_smallBlock</text>
</g>
<!-- node_12&#45;&gt;node_15 -->
<g id="edge15" class="edge">
<title>node_12&#45;&gt;node_15</title>
<path fill="none" stroke="#999999" d="M837.51,-159.88C856.67,-150.09 880.82,-137.75 900.97,-127.45"/>
<polygon fill="#999999" stroke="#999999" points="902.24,-129.56 907.36,-124.19 900.01,-125.19 902.24,-129.56"/>
</g>
</g>
</svg>
