<?xml version="1.0" encoding="UTF-8" standalone="no"?>
<!DOCTYPE svg PUBLIC "-//W3C//DTD SVG 1.1//EN"
 "http://www.w3.org/Graphics/SVG/1.1/DTD/svg11.dtd">
<!-- Generated by graphviz version 2.43.0 (0)
 -->
<!-- Title: %3 Pages: 1 -->
<svg width="3000pt" height="371pt"
 viewBox="0.00 0.00 720.00 89.11" xmlns="http://www.w3.org/2000/svg" xmlns:xlink="http://www.w3.org/1999/xlink">
<g id="graph0" class="graph" transform="scale(1.35 1.35) rotate(0) translate(4 272)">
<title>%3</title>
<polygon fill="white" stroke="transparent" points="-4,4 -4,-272 2226,-272 2226,4 -4,4"/>
<g id="clust1" class="cluster">
<title>cluster_l1_g0</title>
</g>
<g id="clust2" class="cluster">
<title>cluster_l2_g0</title>
</g>
<g id="clust3" class="cluster">
<title>cluster_l2_g1</title>
</g>
<g id="clust4" class="cluster">
<title>cluster_l3_g0</title>
</g>
<g id="clust5" class="cluster">
<title>cluster_l3_g1</title>
</g>
<g id="clust6" class="cluster">
<title>cluster_l3_g2</title>
</g>
<g id="clust7" class="cluster">
<title>cluster_l3_g3</title>
</g>
<g id="clust8" class="cluster">
<title>cluster_l3_g4</title>
</g>
<!-- title -->
<g id="node1" class="node">
<title>title</title>
<path fill="lightgrey" stroke="transparent" d="M1353,-268C1353,-268 1013,-268 1013,-268 1007,-268 1001,-262 1001,-256 1001,-256 1001,-244 1001,-244 1001,-238 1007,-232 1013,-232 1013,-232 1353,-232 1353,-232 1359,-232 1365,-238 1365,-244 1365,-244 1365,-256 1365,-256 1365,-262 1359,-268 1353,-268"/>
<text text-anchor="middle" x="1183" y="-253.4" font-family="Arial Bold" font-size="12.00">build_stairs_seed456</text>
<text text-anchor="middle" x="1183" y="-240.4" font-family="Arial Bold" font-size="12.00">Arrange the blocks to form climbable stairs and then climb t...</text>
</g>
<!-- node_0 -->
<g id="node2" class="node">
<title>node_0</title>
<path fill="#ff6b6b" stroke="black" d="M1483,-268C1483,-268 1399,-268 1399,-268 1393,-268 1387,-262 1387,-256 1387,-256 1387,-244 1387,-244 1387,-238 1393,-232 1399,-232 1399,-232 1483,-232 1483,-232 1489,-232 1495,-238 1495,-244 1495,-244 1495,-256 1495,-256 1495,-262 1489,-268 1483,-268"/>
<text text-anchor="middle" x="1441" y="-247.8" font-family="Arial" font-size="9.00">build_stairs_seed456</text>
</g>
<!-- node_1 -->
<g id="node3" class="node">
<title>node_1</title>
<path fill="#4ecdc4" stroke="black" d="M1418,-196C1418,-196 1334,-196 1334,-196 1328,-196 1322,-190 1322,-184 1322,-184 1322,-172 1322,-172 1322,-166 1328,-160 1334,-160 1334,-160 1418,-160 1418,-160 1424,-160 1430,-166 1430,-172 1430,-172 1430,-184 1430,-184 1430,-190 1424,-196 1418,-196"/>
<text text-anchor="middle" x="1376" y="-175.8" font-family="Arial" font-size="9.00">BuildStairs</text>
</g>
<!-- node_0&#45;&gt;node_1 -->
<g id="edge1" class="edge">
<title>node_0&#45;&gt;node_1</title>
<path fill="none" stroke="#999999" d="M1424.93,-231.7C1416.43,-222.54 1405.89,-211.19 1396.78,-201.38"/>
<polygon fill="#999999" stroke="#999999" points="1398.44,-199.57 1391.88,-196.1 1394.85,-202.9 1398.44,-199.57"/>
</g>
<!-- node_17 -->
<g id="node19" class="node">
<title>node_17</title>
<path fill="#4ecdc4" stroke="black" d="M1548,-196C1548,-196 1464,-196 1464,-196 1458,-196 1452,-190 1452,-184 1452,-184 1452,-172 1452,-172 1452,-166 1458,-160 1464,-160 1464,-160 1548,-160 1548,-160 1554,-160 1560,-166 1560,-172 1560,-172 1560,-184 1560,-184 1560,-190 1554,-196 1548,-196"/>
<text text-anchor="middle" x="1506" y="-175.8" font-family="Arial" font-size="9.00">ClimbStairs</text>
</g>
<!-- node_0&#45;&gt;node_17 -->
<g id="edge17" class="edge">
<title>node_0&#45;&gt;node_17</title>
<path fill="none" stroke="#999999" d="M1457.07,-231.7C1465.57,-222.54 1476.11,-211.19 1485.22,-201.38"/>
<polygon fill="#999999" stroke="#999999" points="1487.15,-202.9 1490.12,-196.1 1483.56,-199.57 1487.15,-202.9"/>
</g>
<!-- node_2 -->
<g id="node4" class="node">
<title>node_2</title>
<path fill="#45b7d1" stroke="black" d="M1035,-124C1035,-124 951,-124 951,-124 945,-124 939,-118 939,-112 939,-112 939,-100 939,-100 939,-94 945,-88 951,-88 951,-88 1035,-88 1035,-88 1041,-88 1047,-94 1047,-100 1047,-100 1047,-112 1047,-112 1047,-118 1041,-124 1035,-124"/>
<text text-anchor="middle" x="993" y="-103.8" font-family="Arial" font-size="9.00">PlaceSmallBlock</text>
</g>
<!-- node_1&#45;&gt;node_2 -->
<g id="edge2" class="edge">
<title>node_1&#45;&gt;node_2</title>
<path fill="none" stroke="#999999" d="M1321.82,-173.09C1257.93,-167.63 1148.94,-155.6 1058,-132 1052.11,-130.47 1046.03,-128.58 1040.05,-126.52"/>
<polygon fill="#999999" stroke="#999999" points="1040.52,-124.09 1033.1,-124.05 1038.88,-128.71 1040.52,-124.09"/>
</g>
<!-- node_7 -->
<g id="node9" class="node">
<title>node_7</title>
<path fill="#45b7d1" stroke="black" d="M1165,-124C1165,-124 1081,-124 1081,-124 1075,-124 1069,-118 1069,-112 1069,-112 1069,-100 1069,-100 1069,-94 1075,-88 1081,-88 1081,-88 1165,-88 1165,-88 1171,-88 1177,-94 1177,-100 1177,-100 1177,-112 1177,-112 1177,-118 1171,-124 1165,-124"/>
<text text-anchor="middle" x="1123" y="-103.8" font-family="Arial" font-size="9.00">PlaceMediumBlock</text>
</g>
<!-- node_1&#45;&gt;node_7 -->
<g id="edge7" class="edge">
<title>node_1&#45;&gt;node_7</title>
<path fill="none" stroke="#999999" d="M1321.6,-165.97C1283.78,-157.82 1232.39,-145.78 1188,-132 1182.72,-130.36 1177.26,-128.51 1171.84,-126.58"/>
<polygon fill="#999999" stroke="#999999" points="1172.44,-124.19 1165.02,-124.09 1170.76,-128.79 1172.44,-124.19"/>
</g>
<!-- node_12 -->
<g id="node14" class="node">
<title>node_12</title>
<path fill="#45b7d1" stroke="black" d="M1295,-124C1295,-124 1211,-124 1211,-124 1205,-124 1199,-118 1199,-112 1199,-112 1199,-100 1199,-100 1199,-94 1205,-88 1211,-88 1211,-88 1295,-88 1295,-88 1301,-88 1307,-94 1307,-100 1307,-100 1307,-112 1307,-112 1307,-118 1301,-124 1295,-124"/>
<text text-anchor="middle" x="1253" y="-103.8" font-family="Arial" font-size="9.00">PlaceLargeBlock</text>
</g>
<!-- node_1&#45;&gt;node_12 -->
<g id="edge12" class="edge">
<title>node_1&#45;&gt;node_12</title>
<path fill="none" stroke="#999999" d="M1345.91,-159.88C1328.94,-150.22 1307.59,-138.07 1289.65,-127.86"/>
<polygon fill="#999999" stroke="#999999" points="1290.5,-125.52 1283.2,-124.19 1288.08,-129.78 1290.5,-125.52"/>
</g>
<!-- node_3 -->
<g id="node5" class="node">
<title>node_3</title>
<path fill="#96ceb4" stroke="black" stroke-width="2" d="M408,-52C408,-52 324,-52 324,-52 318,-52 312,-46 312,-40 312,-40 312,-28 312,-28 312,-22 318,-16 324,-16 324,-16 408,-16 408,-16 414,-16 420,-22 420,-28 420,-28 420,-40 420,-40 420,-46 414,-52 408,-52"/>
<text text-anchor="middle" x="366" y="-31.8" font-family="Arial" font-size="9.00">walk_to_SmallBlock</text>
</g>
<!-- node_2&#45;&gt;node_3 -->
<g id="edge3" class="edge">
<title>node_2&#45;&gt;node_3</title>
<path fill="none" stroke="#999999" d="M938.76,-105.78C837.58,-106.12 613.78,-101.55 431,-60 424.68,-58.56 418.16,-56.63 411.79,-54.48"/>
<polygon fill="#999999" stroke="#999999" points="412.38,-52.09 404.96,-52.06 410.75,-56.71 412.38,-52.09"/>
</g>
<!-- node_4 -->
<g id="node6" class="node">
<title>node_4</title>
<path fill="#96ceb4" stroke="black" stroke-width="2" d="M278,-52C278,-52 194,-52 194,-52 188,-52 182,-46 182,-40 182,-40 182,-28 182,-28 182,-22 188,-16 194,-16 194,-16 278,-16 278,-16 284,-16 290,-22 290,-28 290,-28 290,-40 290,-40 290,-46 284,-52 278,-52"/>
<text text-anchor="middle" x="236" y="-31.8" font-family="Arial" font-size="9.00">pick_up_SmallBlock</text>
</g>
<!-- node_2&#45;&gt;node_4 -->
<g id="edge4" class="edge">
<title>node_2&#45;&gt;node_4</title>
<path fill="none" stroke="#999999" d="M938.75,-103.58C797.76,-99.57 422.34,-86.63 301,-60 294.58,-58.59 287.96,-56.65 281.51,-54.48"/>
<polygon fill="#999999" stroke="#999999" points="282.01,-52.06 274.6,-52.03 280.38,-56.68 282.01,-52.06"/>
</g>
<!-- node_5 -->
<g id="node7" class="node">
<title>node_5</title>
<path fill="#96ceb4" stroke="black" stroke-width="2" d="M147.5,-52C147.5,-52 28.5,-52 28.5,-52 22.5,-52 16.5,-46 16.5,-40 16.5,-40 16.5,-28 16.5,-28 16.5,-22 22.5,-16 28.5,-16 28.5,-16 147.5,-16 147.5,-16 153.5,-16 159.5,-22 159.5,-28 159.5,-28 159.5,-40 159.5,-40 159.5,-46 153.5,-52 147.5,-52"/>
<text text-anchor="middle" x="88" y="-31.8" font-family="Arial" font-size="9.00">walk_with_carriedSmallBlock...</text>
</g>
<!-- node_2&#45;&gt;node_5 -->
<g id="edge5" class="edge">
<title>node_2&#45;&gt;node_5</title>
<path fill="none" stroke="#999999" d="M938.94,-103.72C780.53,-99.7 319.34,-86.02 171,-60 162.34,-58.48 153.32,-56.36 144.54,-53.98"/>
<polygon fill="#999999" stroke="#999999" points="144.97,-51.55 137.57,-52.02 143.65,-56.27 144.97,-51.55"/>
</g>
<!-- node_6 -->
<g id="node8" class="node">
<title>node_6</title>
<path fill="#96ceb4" stroke="black" stroke-width="2" d="M575.5,-52C575.5,-52 456.5,-52 456.5,-52 450.5,-52 444.5,-46 444.5,-40 444.5,-40 444.5,-28 444.5,-28 444.5,-22 450.5,-16 456.5,-16 456.5,-16 575.5,-16 575.5,-16 581.5,-16 587.5,-22 587.5,-28 587.5,-28 587.5,-40 587.5,-40 587.5,-46 581.5,-52 575.5,-52"/>
<text text-anchor="middle" x="516" y="-31.8" font-family="Arial" font-size="9.00">place_carriedSmallBlock_at_...</text>
</g>
<!-- node_2&#45;&gt;node_6 -->
<g id="edge6" class="edge">
<title>node_2&#45;&gt;node_6</title>
<path fill="none" stroke="#999999" d="M938.99,-101.9C862.63,-96.82 719.03,-84.72 599,-60 590.94,-58.34 582.53,-56.25 574.3,-53.98"/>
<polygon fill="#999999" stroke="#999999" points="574.84,-51.59 567.44,-52.05 573.51,-56.31 574.84,-51.59"/>
</g>
<!-- node_8 -->
<g id="node10" class="node">
<title>node_8</title>
<path fill="#96ceb4" stroke="black" stroke-width="2" d="M706.5,-52C706.5,-52 621.5,-52 621.5,-52 615.5,-52 609.5,-46 609.5,-40 609.5,-40 609.5,-28 609.5,-28 609.5,-22 615.5,-16 621.5,-16 621.5,-16 706.5,-16 706.5,-16 712.5,-16 718.5,-22 718.5,-28 718.5,-28 718.5,-40 718.5,-40 718.5,-46 712.5,-52 706.5,-52"/>
<text text-anchor="middle" x="664" y="-31.8" font-family="Arial" font-size="9.00">walk_to_MediumBlock</text>
</g>
<!-- node_7&#45;&gt;node_8 -->
<g id="edge8" class="edge">
<title>node_7&#45;&gt;node_8</title>
<path fill="none" stroke="#999999" d="M1084.41,-87.94C1075.86,-84.79 1066.74,-81.9 1058,-80 915.28,-48.98 872.79,-90.66 730,-60 723.49,-58.6 716.77,-56.67 710.22,-54.5"/>
<polygon fill="#999999" stroke="#999999" points="710.62,-52.04 703.2,-52.05 709.01,-56.67 710.62,-52.04"/>
</g>
<!-- node_9 -->
<g id="node11" class="node">
<title>node_9</title>
<path fill="#96ceb4" stroke="black" stroke-width="2" d="M839,-52C839,-52 753,-52 753,-52 747,-52 741,-46 741,-40 741,-40 741,-28 741,-28 741,-22 747,-16 753,-16 753,-16 839,-16 839,-16 845,-16 851,-22 851,-28 851,-28 851,-40 851,-40 851,-46 845,-52 839,-52"/>
<text text-anchor="middle" x="796" y="-31.8" font-family="Arial" font-size="9.00">pick_up_MediumBlock</text>
</g>
<!-- node_7&#45;&gt;node_9 -->
<g id="edge9" class="edge">
<title>node_7&#45;&gt;node_9</title>
<path fill="none" stroke="#999999" d="M1083.66,-87.95C1075.31,-84.88 1066.47,-82.02 1058,-80 972.83,-59.66 947.22,-80.12 862,-60 855.69,-58.51 849.18,-56.57 842.81,-54.43"/>
<polygon fill="#999999" stroke="#999999" points="843.38,-52.04 835.97,-52.04 841.77,-56.66 843.38,-52.04"/>
</g>
<!-- node_10 -->
<g id="node12" class="node">
<title>node_10</title>
<path fill="#96ceb4" stroke="black" stroke-width="2" d="M1185.5,-52C1185.5,-52 1060.5,-52 1060.5,-52 1054.5,-52 1048.5,-46 1048.5,-40 1048.5,-40 1048.5,-28 1048.5,-28 1048.5,-22 1054.5,-16 1060.5,-16 1060.5,-16 1185.5,-16 1185.5,-16 1191.5,-16 1197.5,-22 1197.5,-28 1197.5,-28 1197.5,-40 1197.5,-40 1197.5,-46 1191.5,-52 1185.5,-52"/>
<text text-anchor="middle" x="1123" y="-31.8" font-family="Arial" font-size="9.00">walk_with_carriedMediumBloc...</text>
</g>
<!-- node_7&#45;&gt;node_10 -->
<g id="edge10" class="edge">
<title>node_7&#45;&gt;node_10</title>
<path fill="none" stroke="#999999" d="M1123,-87.7C1123,-79.14 1123,-68.66 1123,-59.3"/>
<polygon fill="#999999" stroke="#999999" points="1125.45,-59.1 1123,-52.1 1120.55,-59.1 1125.45,-59.1"/>
</g>
<!-- node_11 -->
<g id="node13" class="node">
<title>node_11</title>
<path fill="#96ceb4" stroke="black" stroke-width="2" d="M1014.5,-52C1014.5,-52 887.5,-52 887.5,-52 881.5,-52 875.5,-46 875.5,-40 875.5,-40 875.5,-28 875.5,-28 875.5,-22 881.5,-16 887.5,-16 887.5,-16 1014.5,-16 1014.5,-16 1020.5,-16 1026.5,-22 1026.5,-28 1026.5,-28 1026.5,-40 1026.5,-40 1026.5,-46 1020.5,-52 1014.5,-52"/>
<text text-anchor="middle" x="951" y="-31.8" font-family="Arial" font-size="9.00">place_carriedMediumBlock_ne...</text>
</g>
<!-- node_7&#45;&gt;node_11 -->
<g id="edge11" class="edge">
<title>node_7&#45;&gt;node_11</title>
<path fill="none" stroke="#999999" d="M1080.92,-87.88C1056.37,-77.88 1025.27,-65.23 999.66,-54.81"/>
<polygon fill="#999999" stroke="#999999" points="1000.35,-52.44 992.94,-52.07 998.5,-56.98 1000.35,-52.44"/>
</g>
<!-- node_13 -->
<g id="node15" class="node">
<title>node_13</title>
<path fill="#96ceb4" stroke="black" stroke-width="2" d="M1316,-52C1316,-52 1232,-52 1232,-52 1226,-52 1220,-46 1220,-40 1220,-40 1220,-28 1220,-28 1220,-22 1226,-16 1232,-16 1232,-16 1316,-16 1316,-16 1322,-16 1328,-22 1328,-28 1328,-28 1328,-40 1328,-40 1328,-46 1322,-52 1316,-52"/>
<text text-anchor="middle" x="1274" y="-31.8" font-family="Arial" font-size="9.00">walk_to_LargeBlock</text>
</g>
<!-- node_12&#45;&gt;node_13 -->
<g id="edge13" class="edge">
<title>node_12&#45;&gt;node_13</title>
<path fill="none" stroke="#999999" d="M1258.19,-87.7C1260.78,-79.05 1263.97,-68.45 1266.79,-59.03"/>
<polygon fill="#999999" stroke="#999999" points="1269.2,-59.51 1268.87,-52.1 1264.51,-58.11 1269.2,-59.51"/>
</g>
<!-- node_14 -->
<g id="node16" class="node">
<title>node_14</title>
<path fill="#96ceb4" stroke="black" stroke-width="2" d="M1782,-52C1782,-52 1698,-52 1698,-52 1692,-52 1686,-46 1686,-40 1686,-40 1686,-28 1686,-28 1686,-22 1692,-16 1698,-16 1698,-16 1782,-16 1782,-16 1788,-16 1794,-22 1794,-28 1794,-28 1794,-40 1794,-40 1794,-46 1788,-52 1782,-52"/>
<text text-anchor="middle" x="1740" y="-31.8" font-family="Arial" font-size="9.00">pick_up_LargeBlock</text>
</g>
<!-- node_12&#45;&gt;node_14 -->
<g id="edge14" class="edge">
<title>node_12&#45;&gt;node_14</title>
<path fill="none" stroke="#999999" d="M1307.19,-100.99C1404.83,-93.47 1606.51,-76.52 1675,-60 1681.21,-58.5 1687.64,-56.55 1693.91,-54.41"/>
<polygon fill="#999999" stroke="#999999" points="1694.87,-56.67 1700.65,-52.02 1693.23,-52.05 1694.87,-56.67"/>
</g>
<!-- node_15 -->
<g id="node17" class="node">
<title>node_15</title>
<path fill="#96ceb4" stroke="black" stroke-width="2" d="M1652,-52C1652,-52 1532,-52 1532,-52 1526,-52 1520,-46 1520,-40 1520,-40 1520,-28 1520,-28 1520,-22 1526,-16 1532,-16 1532,-16 1652,-16 1652,-16 1658,-16 1664,-22 1664,-28 1664,-28 1664,-40 1664,-40 1664,-46 1658,-52 1652,-52"/>
<text text-anchor="middle" x="1592" y="-31.8" font-family="Arial" font-size="9.00">walk_with_carriedLargeBlock...</text>
</g>
<!-- node_12&#45;&gt;node_15 -->
<g id="edge15" class="edge">
<title>node_12&#45;&gt;node_15</title>
<path fill="none" stroke="#999999" d="M1307.32,-97.36C1359.4,-89.59 1440.07,-76.38 1509,-60 1516.4,-58.24 1524.11,-56.2 1531.72,-54.07"/>
<polygon fill="#999999" stroke="#999999" points="1532.62,-56.36 1538.67,-52.08 1531.27,-51.65 1532.62,-56.36"/>
</g>
<!-- node_16 -->
<g id="node18" class="node">
<title>node_16</title>
<path fill="#96ceb4" stroke="black" stroke-width="2" d="M1486,-52C1486,-52 1364,-52 1364,-52 1358,-52 1352,-46 1352,-40 1352,-40 1352,-28 1352,-28 1352,-22 1358,-16 1364,-16 1364,-16 1486,-16 1486,-16 1492,-16 1498,-22 1498,-28 1498,-28 1498,-40 1498,-40 1498,-46 1492,-52 1486,-52"/>
<text text-anchor="middle" x="1425" y="-31.8" font-family="Arial" font-size="9.00">place_carriedLargeBlock_nex...</text>
</g>
<!-- node_12&#45;&gt;node_16 -->
<g id="edge16" class="edge">
<title>node_12&#45;&gt;node_16</title>
<path fill="none" stroke="#999999" d="M1295.08,-87.88C1319.63,-77.88 1350.73,-65.23 1376.34,-54.81"/>
<polygon fill="#999999" stroke="#999999" points="1377.5,-56.98 1383.06,-52.07 1375.65,-52.44 1377.5,-56.98"/>
</g>
<!-- node_18 -->
<g id="node20" class="node">
<title>node_18</title>
<path fill="#45b7d1" stroke="black" d="M1937,-124C1937,-124 1853,-124 1853,-124 1847,-124 1841,-118 1841,-112 1841,-112 1841,-100 1841,-100 1841,-94 1847,-88 1853,-88 1853,-88 1937,-88 1937,-88 1943,-88 1949,-94 1949,-100 1949,-100 1949,-112 1949,-112 1949,-118 1943,-124 1937,-124"/>
<text text-anchor="middle" x="1895" y="-103.8" font-family="Arial" font-size="9.00">JumpOntoSmallBlock</text>
</g>
<!-- node_17&#45;&gt;node_18 -->
<g id="edge18" class="edge">
<title>node_17&#45;&gt;node_18</title>
<path fill="none" stroke="#999999" d="M1560.05,-173.3C1624.98,-167.98 1736.8,-156.06 1830,-132 1835.89,-130.48 1841.98,-128.59 1847.95,-126.54"/>
<polygon fill="#999999" stroke="#999999" points="1849.13,-128.72 1854.9,-124.06 1847.48,-124.1 1849.13,-128.72"/>
</g>
<!-- node_20 -->
<g id="node22" class="node">
<title>node_20</title>
<path fill="#45b7d1" stroke="black" d="M1807,-124C1807,-124 1717,-124 1717,-124 1711,-124 1705,-118 1705,-112 1705,-112 1705,-100 1705,-100 1705,-94 1711,-88 1717,-88 1717,-88 1807,-88 1807,-88 1813,-88 1819,-94 1819,-100 1819,-100 1819,-112 1819,-112 1819,-118 1813,-124 1807,-124"/>
<text text-anchor="middle" x="1762" y="-103.8" font-family="Arial" font-size="9.00">JumpOntoMediumBlock</text>
</g>
<!-- node_17&#45;&gt;node_20 -->
<g id="edge20" class="edge">
<title>node_17&#45;&gt;node_20</title>
<path fill="none" stroke="#999999" d="M1560.34,-165.76C1598.13,-157.52 1649.51,-145.45 1694,-132 1699.62,-130.3 1705.46,-128.39 1711.24,-126.4"/>
<polygon fill="#999999" stroke="#999999" points="1712.2,-128.66 1717.99,-124.03 1710.58,-124.03 1712.2,-128.66"/>
</g>
<!-- node_22 -->
<g id="node24" class="node">
<title>node_22</title>
<path fill="#45b7d1" stroke="black" d="M1671,-124C1671,-124 1587,-124 1587,-124 1581,-124 1575,-118 1575,-112 1575,-112 1575,-100 1575,-100 1575,-94 1581,-88 1587,-88 1587,-88 1671,-88 1671,-88 1677,-88 1683,-94 1683,-100 1683,-100 1683,-112 1683,-112 1683,-118 1677,-124 1671,-124"/>
<text text-anchor="middle" x="1629" y="-103.8" font-family="Arial" font-size="9.00">JumpOntoLargeBlock</text>
</g>
<!-- node_17&#45;&gt;node_22 -->
<g id="edge22" class="edge">
<title>node_17&#45;&gt;node_22</title>
<path fill="none" stroke="#999999" d="M1536.09,-159.88C1553.06,-150.22 1574.41,-138.07 1592.35,-127.86"/>
<polygon fill="#999999" stroke="#999999" points="1593.92,-129.78 1598.8,-124.19 1591.5,-125.52 1593.92,-129.78"/>
</g>
<!-- node_19 -->
<g id="node21" class="node">
<title>node_19</title>
<path fill="#96ceb4" stroke="black" stroke-width="2" d="M2194.5,-52C2194.5,-52 2107.5,-52 2107.5,-52 2101.5,-52 2095.5,-46 2095.5,-40 2095.5,-40 2095.5,-28 2095.5,-28 2095.5,-22 2101.5,-16 2107.5,-16 2107.5,-16 2194.5,-16 2194.5,-16 2200.5,-16 2206.5,-22 2206.5,-28 2206.5,-28 2206.5,-40 2206.5,-40 2206.5,-46 2200.5,-52 2194.5,-52"/>
<text text-anchor="middle" x="2151" y="-31.8" font-family="Arial" font-size="9.00">jump_onto_SmallBlock</text>
</g>
<!-- node_18&#45;&gt;node_19 -->
<g id="edge19" class="edge">
<title>node_18&#45;&gt;node_19</title>
<path fill="none" stroke="#999999" d="M1949.14,-94.13C1987.43,-85.97 2039.79,-73.85 2085,-60 2090.35,-58.36 2095.9,-56.51 2101.4,-54.57"/>
<polygon fill="#999999" stroke="#999999" points="2102.56,-56.76 2108.32,-52.09 2100.9,-52.15 2102.56,-56.76"/>
</g>
<!-- node_21 -->
<g id="node23" class="node">
<title>node_21</title>
<path fill="#96ceb4" stroke="black" stroke-width="2" d="M2061.5,-52C2061.5,-52 1964.5,-52 1964.5,-52 1958.5,-52 1952.5,-46 1952.5,-40 1952.5,-40 1952.5,-28 1952.5,-28 1952.5,-22 1958.5,-16 1964.5,-16 1964.5,-16 2061.5,-16 2061.5,-16 2067.5,-16 2073.5,-22 2073.5,-28 2073.5,-28 2073.5,-40 2073.5,-40 2073.5,-46 2067.5,-52 2061.5,-52"/>
<text text-anchor="middle" x="2013" y="-31.8" font-family="Arial" font-size="9.00">jump_onto_MediumBlock</text>
</g>
<!-- node_20&#45;&gt;node_21 -->
<g id="edge21" class="edge">
<title>node_20&#45;&gt;node_21</title>
<path fill="none" stroke="#999999" d="M1804.8,-87.98C1813.08,-85.06 1821.75,-82.24 1830,-80 1878.37,-66.86 1892.51,-72.7 1941,-60 1947.3,-58.35 1953.83,-56.41 1960.29,-54.35"/>
<polygon fill="#999999" stroke="#999999" points="1961.34,-56.59 1967.24,-52.09 1959.82,-51.93 1961.34,-56.59"/>
</g>
<!-- node_23 -->
<g id="node25" class="node">
<title>node_23</title>
<path fill="#96ceb4" stroke="black" stroke-width="2" d="M1918,-52C1918,-52 1830,-52 1830,-52 1824,-52 1818,-46 1818,-40 1818,-40 1818,-28 1818,-28 1818,-22 1824,-16 1830,-16 1830,-16 1918,-16 1918,-16 1924,-16 1930,-22 1930,-28 1930,-28 1930,-40 1930,-40 1930,-46 1924,-52 1918,-52"/>
<text text-anchor="middle" x="1874" y="-31.8" font-family="Arial" font-size="9.00">jump_onto_LargeBlock</text>
</g>
<!-- node_22&#45;&gt;node_23 -->
<g id="edge23" class="edge">
<title>node_22&#45;&gt;node_23</title>
<path fill="none" stroke="#999999" d="M1669.86,-87.92C1677.78,-85 1686.08,-82.2 1694,-80 1743.14,-66.34 1757.79,-73.41 1807,-60 1812.85,-58.4 1818.92,-56.51 1824.89,-54.48"/>
<polygon fill="#999999" stroke="#999999" points="1826.05,-56.67 1831.85,-52.05 1824.43,-52.05 1826.05,-56.67"/>
</g>
</g>
</svg>
