<?xml version="1.0" encoding="UTF-8" standalone="no"?>
<!DOCTYPE svg PUBLIC "-//W3C//DTD SVG 1.1//EN"
 "http://www.w3.org/Graphics/SVG/1.1/DTD/svg11.dtd">
<!-- Generated by graphviz version 2.43.0 (0)
 -->
<!-- Title: %3 Pages: 1 -->
<svg width="3600pt" height="1866pt"
 viewBox="0.00 0.00 864.00 447.95" xmlns="http://www.w3.org/2000/svg" xmlns:xlink="http://www.w3.org/1999/xlink">
<g id="graph0" class="graph" transform="scale(2.56 2.56) rotate(0) translate(4 726)">
<title>%3</title>
<polygon fill="white" stroke="transparent" points="-4,4 -4,-726 1404,-726 1404,4 -4,4"/>
<!-- title -->
<g id="node1" class="node">
<title>title</title>
<path fill="lightgrey" stroke="transparent" d="M680.5,-722C680.5,-722 339.5,-722 339.5,-722 333.5,-722 327.5,-716 327.5,-710 327.5,-710 327.5,-698 327.5,-698 327.5,-692 333.5,-686 339.5,-686 339.5,-686 680.5,-686 680.5,-686 686.5,-686 692.5,-692 692.5,-698 692.5,-698 692.5,-710 692.5,-710 692.5,-716 686.5,-722 680.5,-722"/>
<text text-anchor="middle" x="510" y="-707.4" font-family="Arial Bold" font-size="12.00">build_stairs_seed123</text>
<text text-anchor="middle" x="510" y="-694.4" font-family="Arial Bold" font-size="12.00">The robot should build stairs using three blocks and then cl...</text>
</g>
<!-- node_0 -->
<g id="node2" class="node">
<title>node_0</title>
<path fill="#ff6b6b" stroke="black" d="M818,-722C818,-722 734,-722 734,-722 728,-722 722,-716 722,-710 722,-710 722,-698 722,-698 722,-692 728,-686 734,-686 734,-686 818,-686 818,-686 824,-686 830,-692 830,-698 830,-698 830,-710 830,-710 830,-716 824,-722 818,-722"/>
<text text-anchor="middle" x="776" y="-701.5" font-family="Arial" font-size="10.00">build_stairs_seed123</text>
</g>
<!-- node_1 -->
<g id="node3" class="node">
<title>node_1</title>
<path fill="#4ecdc4" stroke="black" d="M590.5,-628C590.5,-628 545.5,-628 545.5,-628 539.5,-628 533.5,-622 533.5,-616 533.5,-616 533.5,-604 533.5,-604 533.5,-598 539.5,-592 545.5,-592 545.5,-592 590.5,-592 590.5,-592 596.5,-592 602.5,-598 602.5,-604 602.5,-604 602.5,-616 602.5,-616 602.5,-622 596.5,-628 590.5,-628"/>
<text text-anchor="middle" x="568" y="-607.5" font-family="Arial" font-size="10.00">Build_Stairs</text>
</g>
<!-- node_0&#45;&gt;node_1 -->
<g id="edge1" class="edge">
<title>node_0&#45;&gt;node_1</title>
<path fill="none" stroke="#999999" d="M737.36,-685.91C700.98,-669.82 646.64,-645.78 609.38,-629.3"/>
<polygon fill="#999999" stroke="#999999" points="610.02,-626.91 602.63,-626.32 608.04,-631.39 610.02,-626.91"/>
</g>
<!-- node_8 -->
<g id="node10" class="node">
<title>node_8</title>
<path fill="#4ecdc4" stroke="black" d="M1009.5,-628C1009.5,-628 960.5,-628 960.5,-628 954.5,-628 948.5,-622 948.5,-616 948.5,-616 948.5,-604 948.5,-604 948.5,-598 954.5,-592 960.5,-592 960.5,-592 1009.5,-592 1009.5,-592 1015.5,-592 1021.5,-598 1021.5,-604 1021.5,-604 1021.5,-616 1021.5,-616 1021.5,-622 1015.5,-628 1009.5,-628"/>
<text text-anchor="middle" x="985" y="-607.5" font-family="Arial" font-size="10.00">Climb_Stairs</text>
</g>
<!-- node_0&#45;&gt;node_8 -->
<g id="edge8" class="edge">
<title>node_0&#45;&gt;node_8</title>
<path fill="none" stroke="#999999" d="M814.82,-685.91C850.83,-670.06 904.33,-646.51 941.7,-630.06"/>
<polygon fill="#999999" stroke="#999999" points="943.07,-632.14 948.49,-627.07 941.09,-627.65 943.07,-632.14"/>
</g>
<!-- node_2 -->
<g id="node4" class="node">
<title>node_2</title>
<path fill="#45b7d1" stroke="black" d="M140,-534C140,-534 12,-534 12,-534 6,-534 0,-528 0,-522 0,-522 0,-510 0,-510 0,-504 6,-498 12,-498 12,-498 140,-498 140,-498 146,-498 152,-504 152,-510 152,-510 152,-522 152,-522 152,-528 146,-534 140,-534"/>
<text text-anchor="middle" x="76" y="-513.5" font-family="Arial" font-size="10.00">walk_to_Large_Block_for_push</text>
</g>
<!-- node_1&#45;&gt;node_2 -->
<g id="edge2" class="edge">
<title>node_1&#45;&gt;node_2</title>
<path fill="none" stroke="#999999" d="M533.31,-602.56C463.67,-589.61 301.89,-559.51 166,-534 163.73,-533.57 161.44,-533.14 159.12,-532.71"/>
<polygon fill="#999999" stroke="#999999" points="159.44,-530.27 152.11,-531.39 158.53,-535.09 159.44,-530.27"/>
</g>
<!-- node_3 -->
<g id="node5" class="node">
<title>node_3</title>
<path fill="#45b7d1" stroke="black" d="M319,-534C319,-534 193,-534 193,-534 187,-534 181,-528 181,-522 181,-522 181,-510 181,-510 181,-504 187,-498 193,-498 193,-498 319,-498 319,-498 325,-498 331,-504 331,-510 331,-510 331,-522 331,-522 331,-528 325,-534 319,-534"/>
<text text-anchor="middle" x="256" y="-513.5" font-family="Arial" font-size="10.00">push_Large_Block_into_stair...</text>
</g>
<!-- node_1&#45;&gt;node_3 -->
<g id="edge3" class="edge">
<title>node_1&#45;&gt;node_3</title>
<path fill="none" stroke="#999999" d="M533.42,-598.8C482.21,-583.7 385.33,-555.14 320.7,-536.08"/>
<polygon fill="#999999" stroke="#999999" points="321.18,-533.67 313.77,-534.04 319.79,-538.37 321.18,-533.67"/>
</g>
<!-- node_4 -->
<g id="node6" class="node">
<title>node_4</title>
<path fill="#45b7d1" stroke="black" d="M511.5,-534C511.5,-534 372.5,-534 372.5,-534 366.5,-534 360.5,-528 360.5,-522 360.5,-522 360.5,-510 360.5,-510 360.5,-504 366.5,-498 372.5,-498 372.5,-498 511.5,-498 511.5,-498 517.5,-498 523.5,-504 523.5,-510 523.5,-510 523.5,-522 523.5,-522 523.5,-528 517.5,-534 511.5,-534"/>
<text text-anchor="middle" x="442" y="-513.5" font-family="Arial" font-size="10.00">walk_to_Medium_Block_for_push</text>
</g>
<!-- node_1&#45;&gt;node_4 -->
<g id="edge4" class="edge">
<title>node_1&#45;&gt;node_4</title>
<path fill="none" stroke="#999999" d="M544.6,-591.91C523.95,-576.84 493.77,-554.8 471.48,-538.52"/>
<polygon fill="#999999" stroke="#999999" points="472.8,-536.46 465.71,-534.31 469.92,-540.42 472.8,-536.46"/>
</g>
<!-- node_5 -->
<g id="node7" class="node">
<title>node_5</title>
<path fill="#45b7d1" stroke="black" d="M448,-368C448,-368 314,-368 314,-368 308,-368 302,-362 302,-356 302,-356 302,-344 302,-344 302,-338 308,-332 314,-332 314,-332 448,-332 448,-332 454,-332 460,-338 460,-344 460,-344 460,-356 460,-356 460,-362 454,-368 448,-368"/>
<text text-anchor="middle" x="381" y="-347.5" font-family="Arial" font-size="10.00">push_Medium_Block_into_stai...</text>
</g>
<!-- node_1&#45;&gt;node_5 -->
<g id="edge5" class="edge">
<title>node_1&#45;&gt;node_5</title>
<path fill="none" stroke="#999999" d="M566.29,-591.69C563.41,-568.82 555.99,-527.94 538,-498 505.82,-444.45 448.64,-398.1 412.88,-372.42"/>
<polygon fill="#999999" stroke="#999999" points="414.03,-370.23 406.9,-368.17 411.19,-374.22 414.03,-370.23"/>
</g>
<!-- node_6 -->
<g id="node8" class="node">
<title>node_6</title>
<path fill="#45b7d1" stroke="black" d="M630.5,-368C630.5,-368 501.5,-368 501.5,-368 495.5,-368 489.5,-362 489.5,-356 489.5,-356 489.5,-344 489.5,-344 489.5,-338 495.5,-332 501.5,-332 501.5,-332 630.5,-332 630.5,-332 636.5,-332 642.5,-338 642.5,-344 642.5,-344 642.5,-356 642.5,-356 642.5,-362 636.5,-368 630.5,-368"/>
<text text-anchor="middle" x="566" y="-347.5" font-family="Arial" font-size="10.00">walk_to_Small_Block_for_push</text>
</g>
<!-- node_1&#45;&gt;node_6 -->
<g id="edge6" class="edge">
<title>node_1&#45;&gt;node_6</title>
<path fill="none" stroke="#999999" d="M574.6,-591.73C579.96,-576.73 587.09,-554.28 590,-534 596.82,-486.49 597.4,-473.43 590,-426 587.26,-408.47 581.13,-389.44 575.76,-374.94"/>
<polygon fill="#999999" stroke="#999999" points="577.97,-373.88 573.19,-368.21 573.39,-375.62 577.97,-373.88"/>
</g>
<!-- node_7 -->
<g id="node9" class="node">
<title>node_7</title>
<path fill="#45b7d1" stroke="black" d="M810.5,-368C810.5,-368 683.5,-368 683.5,-368 677.5,-368 671.5,-362 671.5,-356 671.5,-356 671.5,-344 671.5,-344 671.5,-338 677.5,-332 683.5,-332 683.5,-332 810.5,-332 810.5,-332 816.5,-332 822.5,-338 822.5,-344 822.5,-344 822.5,-356 822.5,-356 822.5,-362 816.5,-368 810.5,-368"/>
<text text-anchor="middle" x="747" y="-347.5" font-family="Arial" font-size="10.00">push_Small_Block_into_stair...</text>
</g>
<!-- node_1&#45;&gt;node_7 -->
<g id="edge7" class="edge">
<title>node_1&#45;&gt;node_7</title>
<path fill="none" stroke="#999999" d="M580.02,-591.67C611.36,-546.51 695.55,-425.16 730.96,-374.12"/>
<polygon fill="#999999" stroke="#999999" points="733.05,-375.4 735.03,-368.25 729.03,-372.61 733.05,-375.4"/>
</g>
<!-- tier_spacer_2_1 -->
<!-- node_2&#45;&gt;tier_spacer_2_1 -->
<!-- tier_spacer_2_2 -->
<!-- node_5&#45;&gt;tier_spacer_2_2 -->
<!-- node_9 -->
<g id="node11" class="node">
<title>node_9</title>
<path fill="#45b7d1" stroke="black" d="M711.5,-202C711.5,-202 580.5,-202 580.5,-202 574.5,-202 568.5,-196 568.5,-190 568.5,-190 568.5,-178 568.5,-178 568.5,-172 574.5,-166 580.5,-166 580.5,-166 711.5,-166 711.5,-166 717.5,-166 723.5,-172 723.5,-178 723.5,-178 723.5,-190 723.5,-190 723.5,-196 717.5,-202 711.5,-202"/>
<text text-anchor="middle" x="646" y="-181.5" font-family="Arial" font-size="10.00">walk_to_Large_Block_for_climb</text>
</g>
<!-- node_8&#45;&gt;node_9 -->
<g id="edge9" class="edge">
<title>node_8&#45;&gt;node_9</title>
<path fill="none" stroke="#999999" d="M963.08,-591.96C928.96,-563.32 867,-501.97 867,-434 867,-434 867,-434 867,-349 867,-272.36 780.23,-227.38 715.43,-204.47"/>
<polygon fill="#999999" stroke="#999999" points="715.86,-202.02 708.44,-202.05 714.26,-206.65 715.86,-202.02"/>
</g>
<!-- node_10 -->
<g id="node12" class="node">
<title>node_10</title>
<path fill="#45b7d1" stroke="black" d="M861.5,-202C861.5,-202 764.5,-202 764.5,-202 758.5,-202 752.5,-196 752.5,-190 752.5,-190 752.5,-178 752.5,-178 752.5,-172 758.5,-166 764.5,-166 764.5,-166 861.5,-166 861.5,-166 867.5,-166 873.5,-172 873.5,-178 873.5,-178 873.5,-190 873.5,-190 873.5,-196 867.5,-202 861.5,-202"/>
<text text-anchor="middle" x="813" y="-181.5" font-family="Arial" font-size="10.00">jump_onto_Large_Block</text>
</g>
<!-- node_8&#45;&gt;node_10 -->
<g id="edge10" class="edge">
<title>node_8&#45;&gt;node_10</title>
<path fill="none" stroke="#999999" d="M974.99,-591.77C958.16,-561.1 926,-494.6 926,-434 926,-434 926,-434 926,-349 926,-289.35 874.68,-235.62 841.21,-206.91"/>
<polygon fill="#999999" stroke="#999999" points="842.53,-204.82 835.6,-202.19 839.37,-208.57 842.53,-204.82"/>
</g>
<!-- node_11 -->
<g id="node13" class="node">
<title>node_11</title>
<path fill="#45b7d1" stroke="black" d="M1055.5,-202C1055.5,-202 914.5,-202 914.5,-202 908.5,-202 902.5,-196 902.5,-190 902.5,-190 902.5,-178 902.5,-178 902.5,-172 908.5,-166 914.5,-166 914.5,-166 1055.5,-166 1055.5,-166 1061.5,-166 1067.5,-172 1067.5,-178 1067.5,-178 1067.5,-190 1067.5,-190 1067.5,-196 1061.5,-202 1055.5,-202"/>
<text text-anchor="middle" x="985" y="-181.5" font-family="Arial" font-size="10.00">walk_to_Medium_Block_for_climb</text>
</g>
<!-- node_8&#45;&gt;node_11 -->
<g id="edge11" class="edge">
<title>node_8&#45;&gt;node_11</title>
<path fill="none" stroke="#999999" d="M985,-591.61C985,-560.16 985,-491.73 985,-434 985,-434 985,-434 985,-349 985,-299.44 985,-241.47 985,-209.42"/>
<polygon fill="#999999" stroke="#999999" points="987.45,-209.24 985,-202.24 982.55,-209.24 987.45,-209.24"/>
</g>
<!-- node_12 -->
<g id="node14" class="node">
<title>node_12</title>
<path fill="#45b7d1" stroke="black" d="M964.5,-36C964.5,-36 857.5,-36 857.5,-36 851.5,-36 845.5,-30 845.5,-24 845.5,-24 845.5,-12 845.5,-12 845.5,-6 851.5,0 857.5,0 857.5,0 964.5,0 964.5,0 970.5,0 976.5,-6 976.5,-12 976.5,-12 976.5,-24 976.5,-24 976.5,-30 970.5,-36 964.5,-36"/>
<text text-anchor="middle" x="911" y="-15.5" font-family="Arial" font-size="10.00">jump_onto_Medium_Block</text>
</g>
<!-- node_8&#45;&gt;node_12 -->
<g id="edge12" class="edge">
<title>node_8&#45;&gt;node_12</title>
<path fill="none" stroke="#999999" d="M1009.19,-591.88C1046.03,-563.59 1112,-503.26 1112,-434 1112,-434 1112,-434 1112,-183 1112,-109.17 1029.58,-62.64 970.29,-38.73"/>
<polygon fill="#999999" stroke="#999999" points="970.96,-36.36 963.55,-36.07 969.16,-40.92 970.96,-36.36"/>
</g>
<!-- node_13 -->
<g id="node15" class="node">
<title>node_13</title>
<path fill="#45b7d1" stroke="black" d="M1236.5,-36C1236.5,-36 1105.5,-36 1105.5,-36 1099.5,-36 1093.5,-30 1093.5,-24 1093.5,-24 1093.5,-12 1093.5,-12 1093.5,-6 1099.5,0 1105.5,0 1105.5,0 1236.5,0 1236.5,0 1242.5,0 1248.5,-6 1248.5,-12 1248.5,-12 1248.5,-24 1248.5,-24 1248.5,-30 1242.5,-36 1236.5,-36"/>
<text text-anchor="middle" x="1171" y="-15.5" font-family="Arial" font-size="10.00">walk_to_Small_Block_for_climb</text>
</g>
<!-- node_8&#45;&gt;node_13 -->
<g id="edge13" class="edge">
<title>node_8&#45;&gt;node_13</title>
<path fill="none" stroke="#999999" d="M1021.75,-594.22C1075.95,-569.7 1171,-515.14 1171,-434 1171,-434 1171,-434 1171,-183 1171,-133.44 1171,-75.47 1171,-43.42"/>
<polygon fill="#999999" stroke="#999999" points="1173.45,-43.24 1171,-36.24 1168.55,-43.24 1173.45,-43.24"/>
</g>
<!-- node_14 -->
<g id="node16" class="node">
<title>node_14</title>
<path fill="#45b7d1" stroke="black" d="M1388,-36C1388,-36 1290,-36 1290,-36 1284,-36 1278,-30 1278,-24 1278,-24 1278,-12 1278,-12 1278,-6 1284,0 1290,0 1290,0 1388,0 1388,0 1394,0 1400,-6 1400,-12 1400,-12 1400,-24 1400,-24 1400,-30 1394,-36 1388,-36"/>
<text text-anchor="middle" x="1339" y="-15.5" font-family="Arial" font-size="10.00">jump_onto_Small_Block</text>
</g>
<!-- node_8&#45;&gt;node_14 -->
<g id="edge14" class="edge">
<title>node_8&#45;&gt;node_14</title>
<path fill="none" stroke="#999999" d="M1021.55,-607.66C1112,-602.22 1339,-574.54 1339,-434 1339,-434 1339,-434 1339,-183 1339,-133.44 1339,-75.47 1339,-43.42"/>
<polygon fill="#999999" stroke="#999999" points="1341.45,-43.24 1339,-36.24 1336.55,-43.24 1341.45,-43.24"/>
</g>
<!-- tier_spacer_2_3 -->
<!-- node_9&#45;&gt;tier_spacer_2_3 -->
<!-- tier_spacer_2_1&#45;&gt;node_5 -->
<!-- tier_spacer_2_2&#45;&gt;node_9 -->
<!-- tier_spacer_2_3&#45;&gt;node_12 -->
</g>
</svg>
