<?xml version="1.0" encoding="UTF-8" standalone="no"?>
<!DOCTYPE svg PUBLIC "-//W3C//DTD SVG 1.1//EN"
 "http://www.w3.org/Graphics/SVG/1.1/DTD/svg11.dtd">
<!-- Generated by graphviz version 2.43.0 (0)
 -->
<!-- Title: %3 Pages: 1 -->
<svg width="3600pt" height="2787pt"
 viewBox="0.00 0.00 864.00 668.94" xmlns="http://www.w3.org/2000/svg" xmlns:xlink="http://www.w3.org/1999/xlink">
<g id="graph0" class="graph" transform="scale(2.7 2.7) rotate(0) translate(4 1030)">
<title>%3</title>
<polygon fill="white" stroke="transparent" points="-4,4 -4,-1030 1331.5,-1030 1331.5,4 -4,4"/>
<!-- title -->
<g id="node1" class="node">
<title>title</title>
<path fill="lightgrey" stroke="transparent" d="M627,-1026C627,-1026 286,-1026 286,-1026 280,-1026 274,-1020 274,-1014 274,-1014 274,-1002 274,-1002 274,-996 280,-990 286,-990 286,-990 627,-990 627,-990 633,-990 639,-996 639,-1002 639,-1002 639,-1014 639,-1014 639,-1020 633,-1026 627,-1026"/>
<text text-anchor="middle" x="456.5" y="-1011.4" font-family="Arial Bold" font-size="12.00">build_stairs_seed456</text>
<text text-anchor="middle" x="456.5" y="-998.4" font-family="Arial Bold" font-size="12.00">The robot builds stairs from three blocks and then climbs th...</text>
</g>
<!-- node_0 -->
<g id="node2" class="node">
<title>node_0</title>
<path fill="#ff6b6b" stroke="black" d="M764.5,-1026C764.5,-1026 680.5,-1026 680.5,-1026 674.5,-1026 668.5,-1020 668.5,-1014 668.5,-1014 668.5,-1002 668.5,-1002 668.5,-996 674.5,-990 680.5,-990 680.5,-990 764.5,-990 764.5,-990 770.5,-990 776.5,-996 776.5,-1002 776.5,-1002 776.5,-1014 776.5,-1014 776.5,-1020 770.5,-1026 764.5,-1026"/>
<text text-anchor="middle" x="722.5" y="-1005.5" font-family="Arial" font-size="10.00">build_stairs_seed456</text>
</g>
<!-- node_1 -->
<g id="node3" class="node">
<title>node_1</title>
<path fill="#4ecdc4" stroke="black" d="M678,-932C678,-932 633,-932 633,-932 627,-932 621,-926 621,-920 621,-920 621,-908 621,-908 621,-902 627,-896 633,-896 633,-896 678,-896 678,-896 684,-896 690,-902 690,-908 690,-908 690,-920 690,-920 690,-926 684,-932 678,-932"/>
<text text-anchor="middle" x="655.5" y="-911.5" font-family="Arial" font-size="10.00">Build_Stairs</text>
</g>
<!-- node_0&#45;&gt;node_1 -->
<g id="edge1" class="edge">
<title>node_0&#45;&gt;node_1</title>
<path fill="none" stroke="#999999" d="M709.9,-989.7C699.23,-975.05 683.85,-953.93 672.17,-937.89"/>
<polygon fill="#999999" stroke="#999999" points="674.15,-936.44 668.05,-932.23 670.19,-939.33 674.15,-936.44"/>
</g>
<!-- node_11 -->
<g id="node13" class="node">
<title>node_11</title>
<path fill="#4ecdc4" stroke="black" d="M878,-932C878,-932 829,-932 829,-932 823,-932 817,-926 817,-920 817,-920 817,-908 817,-908 817,-902 823,-896 829,-896 829,-896 878,-896 878,-896 884,-896 890,-902 890,-908 890,-908 890,-920 890,-920 890,-926 884,-932 878,-932"/>
<text text-anchor="middle" x="853.5" y="-911.5" font-family="Arial" font-size="10.00">Climb_Stairs</text>
</g>
<!-- node_0&#45;&gt;node_11 -->
<g id="edge11" class="edge">
<title>node_0&#45;&gt;node_11</title>
<path fill="none" stroke="#999999" d="M746.83,-989.91C768.3,-974.84 799.68,-952.8 822.85,-936.52"/>
<polygon fill="#999999" stroke="#999999" points="824.53,-938.34 828.85,-932.31 821.72,-934.33 824.53,-938.34"/>
</g>
<!-- node_2 -->
<g id="node4" class="node">
<title>node_2</title>
<path fill="#45b7d1" stroke="black" d="M441,-838C441,-838 314,-838 314,-838 308,-838 302,-832 302,-826 302,-826 302,-814 302,-814 302,-808 308,-802 314,-802 314,-802 441,-802 441,-802 447,-802 453,-808 453,-814 453,-814 453,-826 453,-826 453,-832 447,-838 441,-838"/>
<text text-anchor="middle" x="377.5" y="-817.5" font-family="Arial" font-size="10.00">Position_Small_Block_for_ro...</text>
</g>
<!-- node_1&#45;&gt;node_2 -->
<g id="edge2" class="edge">
<title>node_1&#45;&gt;node_2</title>
<path fill="none" stroke="#999999" d="M620.85,-901.53C574.49,-886.19 491.62,-858.76 435.61,-840.23"/>
<polygon fill="#999999" stroke="#999999" points="436.33,-837.89 428.92,-838.02 434.8,-842.54 436.33,-837.89"/>
</g>
<!-- node_5 -->
<g id="node7" class="node">
<title>node_5</title>
<path fill="#45b7d1" stroke="black" d="M633,-672C633,-672 502,-672 502,-672 496,-672 490,-666 490,-660 490,-660 490,-648 490,-648 490,-642 496,-636 502,-636 502,-636 633,-636 633,-636 639,-636 645,-642 645,-648 645,-648 645,-660 645,-660 645,-666 639,-672 633,-672"/>
<text text-anchor="middle" x="567.5" y="-651.5" font-family="Arial" font-size="10.00">Position_Medium_Block_for_r...</text>
</g>
<!-- node_1&#45;&gt;node_5 -->
<g id="edge5" class="edge">
<title>node_1&#45;&gt;node_5</title>
<path fill="none" stroke="#999999" d="M649.59,-895.67C634.28,-850.78 593.3,-730.63 575.71,-679.06"/>
<polygon fill="#999999" stroke="#999999" points="577.96,-678.09 573.38,-672.25 573.33,-679.67 577.96,-678.09"/>
</g>
<!-- node_8 -->
<g id="node10" class="node">
<title>node_8</title>
<path fill="#45b7d1" stroke="black" d="M752.5,-484C752.5,-484 626.5,-484 626.5,-484 620.5,-484 614.5,-478 614.5,-472 614.5,-472 614.5,-460 614.5,-460 614.5,-454 620.5,-448 626.5,-448 626.5,-448 752.5,-448 752.5,-448 758.5,-448 764.5,-454 764.5,-460 764.5,-460 764.5,-472 764.5,-472 764.5,-478 758.5,-484 752.5,-484"/>
<text text-anchor="middle" x="689.5" y="-463.5" font-family="Arial" font-size="10.00">Position_Large_Block_for_ro...</text>
</g>
<!-- node_1&#45;&gt;node_8 -->
<g id="edge8" class="edge">
<title>node_1&#45;&gt;node_8</title>
<path fill="none" stroke="#999999" d="M661.11,-895.83C670.77,-864.72 689.5,-796.81 689.5,-738 689.5,-738 689.5,-738 689.5,-653 689.5,-594.97 689.5,-526.75 689.5,-491.24"/>
<polygon fill="#999999" stroke="#999999" points="691.95,-491.18 689.5,-484.18 687.05,-491.18 691.95,-491.18"/>
</g>
<!-- node_3 -->
<g id="node5" class="node">
<title>node_3</title>
<path fill="#96ceb4" stroke="black" d="M143,-578C143,-578 12,-578 12,-578 6,-578 0,-572 0,-566 0,-566 0,-554 0,-554 0,-548 6,-542 12,-542 12,-542 143,-542 143,-542 149,-542 155,-548 155,-554 155,-554 155,-566 155,-566 155,-572 149,-578 143,-578"/>
<text text-anchor="middle" x="77.5" y="-557.5" font-family="Arial" font-size="10.00">walk_to_Small_Block_for_rob...</text>
</g>
<!-- node_2&#45;&gt;node_3 -->
<g id="edge3" class="edge">
<title>node_2&#45;&gt;node_3</title>
<path fill="none" stroke="#999999" d="M357.35,-801.67C304.41,-756.14 161.43,-633.18 102.95,-582.89"/>
<polygon fill="#999999" stroke="#999999" points="104.47,-580.96 97.56,-578.25 101.27,-584.68 104.47,-580.96"/>
</g>
<!-- node_4 -->
<g id="node6" class="node">
<title>node_4</title>
<path fill="#96ceb4" stroke="black" d="M327,-578C327,-578 196,-578 196,-578 190,-578 184,-572 184,-566 184,-566 184,-554 184,-554 184,-548 190,-542 196,-542 196,-542 327,-542 327,-542 333,-542 339,-548 339,-554 339,-554 339,-566 339,-566 339,-572 333,-578 327,-578"/>
<text text-anchor="middle" x="261.5" y="-557.5" font-family="Arial" font-size="10.00">push_Small_Block_for_robot_...</text>
</g>
<!-- node_2&#45;&gt;node_4 -->
<g id="edge4" class="edge">
<title>node_2&#45;&gt;node_4</title>
<path fill="none" stroke="#999999" d="M369.71,-801.67C349.48,-756.69 295.28,-636.14 272.18,-584.74"/>
<polygon fill="#999999" stroke="#999999" points="274.36,-583.63 269.26,-578.25 269.89,-585.64 274.36,-583.63"/>
</g>
<!-- tier_spacer_2_1 -->
<!-- node_2&#45;&gt;tier_spacer_2_1 -->
<!-- tier_spacer_3_1 -->
<!-- node_3&#45;&gt;tier_spacer_3_1 -->
<!-- node_6 -->
<g id="node8" class="node">
<title>node_6</title>
<path fill="#96ceb4" stroke="black" d="M515,-578C515,-578 380,-578 380,-578 374,-578 368,-572 368,-566 368,-566 368,-554 368,-554 368,-548 374,-542 380,-542 380,-542 515,-542 515,-542 521,-542 527,-548 527,-554 527,-554 527,-566 527,-566 527,-572 521,-578 515,-578"/>
<text text-anchor="middle" x="447.5" y="-557.5" font-family="Arial" font-size="10.00">walk_to_Medium_Block_for_ro...</text>
</g>
<!-- node_5&#45;&gt;node_6 -->
<g id="edge6" class="edge">
<title>node_5&#45;&gt;node_6</title>
<path fill="none" stroke="#999999" d="M545.21,-635.91C525.63,-620.9 497.05,-598.99 475.85,-582.73"/>
<polygon fill="#999999" stroke="#999999" points="477.12,-580.62 470.08,-578.31 474.14,-584.51 477.12,-580.62"/>
</g>
<!-- node_7 -->
<g id="node9" class="node">
<title>node_7</title>
<path fill="#96ceb4" stroke="black" d="M370.5,-390C370.5,-390 234.5,-390 234.5,-390 228.5,-390 222.5,-384 222.5,-378 222.5,-378 222.5,-366 222.5,-366 222.5,-360 228.5,-354 234.5,-354 234.5,-354 370.5,-354 370.5,-354 376.5,-354 382.5,-360 382.5,-366 382.5,-366 382.5,-378 382.5,-378 382.5,-384 376.5,-390 370.5,-390"/>
<text text-anchor="middle" x="302.5" y="-369.5" font-family="Arial" font-size="10.00">push_Medium_Block_for_robot...</text>
</g>
<!-- node_5&#45;&gt;node_7 -->
<g id="edge7" class="edge">
<title>node_5&#45;&gt;node_7</title>
<path fill="none" stroke="#999999" d="M567.17,-635.72C565.95,-612.52 560.96,-570.89 541.5,-542 493.22,-470.31 403.59,-419.28 348.87,-393.1"/>
<polygon fill="#999999" stroke="#999999" points="349.75,-390.81 342.38,-390.03 347.66,-395.24 349.75,-390.81"/>
</g>
<!-- tier_spacer_2_2 -->
<!-- node_5&#45;&gt;tier_spacer_2_2 -->
<!-- tier_spacer_3_2 -->
<!-- node_7&#45;&gt;tier_spacer_3_2 -->
<!-- node_9 -->
<g id="node11" class="node">
<title>node_9</title>
<path fill="#96ceb4" stroke="black" d="M553.5,-390C553.5,-390 423.5,-390 423.5,-390 417.5,-390 411.5,-384 411.5,-378 411.5,-378 411.5,-366 411.5,-366 411.5,-360 417.5,-354 423.5,-354 423.5,-354 553.5,-354 553.5,-354 559.5,-354 565.5,-360 565.5,-366 565.5,-366 565.5,-378 565.5,-378 565.5,-384 559.5,-390 553.5,-390"/>
<text text-anchor="middle" x="488.5" y="-369.5" font-family="Arial" font-size="10.00">walk_to_Large_Block_for_rob...</text>
</g>
<!-- node_8&#45;&gt;node_9 -->
<g id="edge9" class="edge">
<title>node_8&#45;&gt;node_9</title>
<path fill="none" stroke="#999999" d="M652.16,-447.91C618.28,-432.4 568.3,-409.52 532.49,-393.13"/>
<polygon fill="#999999" stroke="#999999" points="533.36,-390.84 525.98,-390.15 531.32,-395.29 533.36,-390.84"/>
</g>
<!-- node_10 -->
<g id="node12" class="node">
<title>node_10</title>
<path fill="#96ceb4" stroke="black" d="M738,-390C738,-390 607,-390 607,-390 601,-390 595,-384 595,-378 595,-378 595,-366 595,-366 595,-360 601,-354 607,-354 607,-354 738,-354 738,-354 744,-354 750,-360 750,-366 750,-366 750,-378 750,-378 750,-384 744,-390 738,-390"/>
<text text-anchor="middle" x="672.5" y="-369.5" font-family="Arial" font-size="10.00">push_Large_Block_for_robot_...</text>
</g>
<!-- node_8&#45;&gt;node_10 -->
<g id="edge10" class="edge">
<title>node_8&#45;&gt;node_10</title>
<path fill="none" stroke="#999999" d="M686.3,-447.7C683.67,-433.43 679.9,-413.04 676.97,-397.16"/>
<polygon fill="#999999" stroke="#999999" points="679.36,-396.67 675.68,-390.23 674.55,-397.56 679.36,-396.67"/>
</g>
<!-- tier_spacer_2_3 -->
<!-- node_8&#45;&gt;tier_spacer_2_3 -->
<!-- node_12 -->
<g id="node14" class="node">
<title>node_12</title>
<path fill="#45b7d1" stroke="black" d="M760,-296C760,-296 625,-296 625,-296 619,-296 613,-290 613,-284 613,-284 613,-272 613,-272 613,-266 619,-260 625,-260 625,-260 760,-260 760,-260 766,-260 772,-266 772,-272 772,-272 772,-284 772,-284 772,-290 766,-296 760,-296"/>
<text text-anchor="middle" x="692.5" y="-275.5" font-family="Arial" font-size="10.00">Ascend_Small_Block_for_robo...</text>
</g>
<!-- node_11&#45;&gt;node_12 -->
<g id="edge12" class="edge">
<title>node_11&#45;&gt;node_12</title>
<path fill="none" stroke="#999999" d="M848.71,-895.77C840.47,-864.57 824.5,-796.51 824.5,-738 824.5,-738 824.5,-738 824.5,-465 824.5,-413.9 823.37,-396.17 794.5,-354 778.9,-331.22 754.06,-312.74 732.79,-299.82"/>
<polygon fill="#999999" stroke="#999999" points="733.88,-297.62 726.61,-296.16 731.39,-301.84 733.88,-297.62"/>
</g>
<!-- node_15 -->
<g id="node17" class="node">
<title>node_15</title>
<path fill="#45b7d1" stroke="black" d="M953.5,-296C953.5,-296 813.5,-296 813.5,-296 807.5,-296 801.5,-290 801.5,-284 801.5,-284 801.5,-272 801.5,-272 801.5,-266 807.5,-260 813.5,-260 813.5,-260 953.5,-260 953.5,-260 959.5,-260 965.5,-266 965.5,-272 965.5,-272 965.5,-284 965.5,-284 965.5,-290 959.5,-296 953.5,-296"/>
<text text-anchor="middle" x="883.5" y="-275.5" font-family="Arial" font-size="10.00">Ascend_Medium_Block_for_rob...</text>
</g>
<!-- node_11&#45;&gt;node_15 -->
<g id="edge15" class="edge">
<title>node_11&#45;&gt;node_15</title>
<path fill="none" stroke="#999999" d="M858.45,-895.78C866.97,-864.6 883.5,-796.57 883.5,-738 883.5,-738 883.5,-738 883.5,-465 883.5,-406.97 883.5,-338.75 883.5,-303.24"/>
<polygon fill="#999999" stroke="#999999" points="885.95,-303.18 883.5,-296.18 881.05,-303.18 885.95,-303.18"/>
</g>
<!-- node_18 -->
<g id="node20" class="node">
<title>node_18</title>
<path fill="#45b7d1" stroke="black" d="M1140.5,-296C1140.5,-296 1006.5,-296 1006.5,-296 1000.5,-296 994.5,-290 994.5,-284 994.5,-284 994.5,-272 994.5,-272 994.5,-266 1000.5,-260 1006.5,-260 1006.5,-260 1140.5,-260 1140.5,-260 1146.5,-260 1152.5,-266 1152.5,-272 1152.5,-272 1152.5,-284 1152.5,-284 1152.5,-290 1146.5,-296 1140.5,-296"/>
<text text-anchor="middle" x="1073.5" y="-275.5" font-family="Arial" font-size="10.00">Ascend_Large_Block_for_robo...</text>
</g>
<!-- node_11&#45;&gt;node_18 -->
<g id="edge18" class="edge">
<title>node_11&#45;&gt;node_18</title>
<path fill="none" stroke="#999999" d="M885.04,-895.83C930.09,-868.72 1007.5,-811.45 1007.5,-738 1007.5,-738 1007.5,-738 1007.5,-465 1007.5,-403.65 1039.79,-337.12 1059.2,-302.68"/>
<polygon fill="#999999" stroke="#999999" points="1061.54,-303.52 1062.9,-296.23 1057.29,-301.08 1061.54,-303.52"/>
</g>
<!-- node_13 -->
<g id="node15" class="node">
<title>node_13</title>
<path fill="#96ceb4" stroke="black" d="M574,-202C574,-202 443,-202 443,-202 437,-202 431,-196 431,-190 431,-190 431,-178 431,-178 431,-172 437,-166 443,-166 443,-166 574,-166 574,-166 580,-166 586,-172 586,-178 586,-178 586,-190 586,-190 586,-196 580,-202 574,-202"/>
<text text-anchor="middle" x="508.5" y="-181.5" font-family="Arial" font-size="10.00">walk_to_Small_Block_for_rob...</text>
</g>
<!-- node_12&#45;&gt;node_13 -->
<g id="edge13" class="edge">
<title>node_12&#45;&gt;node_13</title>
<path fill="none" stroke="#999999" d="M658.32,-259.91C627.44,-244.47 581.93,-221.71 549.18,-205.34"/>
<polygon fill="#999999" stroke="#999999" points="550.16,-203.09 542.81,-202.15 547.97,-207.48 550.16,-203.09"/>
</g>
<!-- node_14 -->
<g id="node16" class="node">
<title>node_14</title>
<path fill="#96ceb4" stroke="black" d="M758,-202C758,-202 627,-202 627,-202 621,-202 615,-196 615,-190 615,-190 615,-178 615,-178 615,-172 621,-166 627,-166 627,-166 758,-166 758,-166 764,-166 770,-172 770,-178 770,-178 770,-190 770,-190 770,-196 764,-202 758,-202"/>
<text text-anchor="middle" x="692.5" y="-181.5" font-family="Arial" font-size="10.00">jump_onto_Small_Block_for_r...</text>
</g>
<!-- node_12&#45;&gt;node_14 -->
<g id="edge14" class="edge">
<title>node_12&#45;&gt;node_14</title>
<path fill="none" stroke="#999999" d="M692.5,-259.7C692.5,-245.56 692.5,-225.41 692.5,-209.59"/>
<polygon fill="#999999" stroke="#999999" points="694.95,-209.23 692.5,-202.23 690.05,-209.23 694.95,-209.23"/>
</g>
<!-- tier_spacer_3_3 -->
<!-- node_13&#45;&gt;tier_spacer_3_3 -->
<!-- node_16 -->
<g id="node18" class="node">
<title>node_16</title>
<path fill="#96ceb4" stroke="black" d="M946,-202C946,-202 811,-202 811,-202 805,-202 799,-196 799,-190 799,-190 799,-178 799,-178 799,-172 805,-166 811,-166 811,-166 946,-166 946,-166 952,-166 958,-172 958,-178 958,-178 958,-190 958,-190 958,-196 952,-202 946,-202"/>
<text text-anchor="middle" x="878.5" y="-181.5" font-family="Arial" font-size="10.00">walk_to_Medium_Block_for_ro...</text>
</g>
<!-- node_15&#45;&gt;node_16 -->
<g id="edge16" class="edge">
<title>node_15&#45;&gt;node_16</title>
<path fill="none" stroke="#999999" d="M882.56,-259.7C881.79,-245.56 880.7,-225.41 879.84,-209.59"/>
<polygon fill="#999999" stroke="#999999" points="882.26,-209.08 879.44,-202.23 877.37,-209.35 882.26,-209.08"/>
</g>
<!-- node_17 -->
<g id="node19" class="node">
<title>node_17</title>
<path fill="#96ceb4" stroke="black" d="M855.5,-36C855.5,-36 717.5,-36 717.5,-36 711.5,-36 705.5,-30 705.5,-24 705.5,-24 705.5,-12 705.5,-12 705.5,-6 711.5,0 717.5,0 717.5,0 855.5,0 855.5,0 861.5,0 867.5,-6 867.5,-12 867.5,-12 867.5,-24 867.5,-24 867.5,-30 861.5,-36 855.5,-36"/>
<text text-anchor="middle" x="786.5" y="-15.5" font-family="Arial" font-size="10.00">jump_onto_Medium_Block_for_...</text>
</g>
<!-- node_15&#45;&gt;node_17 -->
<g id="edge17" class="edge">
<title>node_15&#45;&gt;node_17</title>
<path fill="none" stroke="#999999" d="M914.23,-259.91C946.61,-239.48 990.59,-203.35 972.5,-166 943.35,-105.8 876.25,-62.79 831.14,-39.41"/>
<polygon fill="#999999" stroke="#999999" points="832,-37.1 824.65,-36.1 829.77,-41.46 832,-37.1"/>
</g>
<!-- node_19 -->
<g id="node21" class="node">
<title>node_19</title>
<path fill="#96ceb4" stroke="black" d="M1132.5,-36C1132.5,-36 1002.5,-36 1002.5,-36 996.5,-36 990.5,-30 990.5,-24 990.5,-24 990.5,-12 990.5,-12 990.5,-6 996.5,0 1002.5,0 1002.5,0 1132.5,0 1132.5,0 1138.5,0 1144.5,-6 1144.5,-12 1144.5,-12 1144.5,-24 1144.5,-24 1144.5,-30 1138.5,-36 1132.5,-36"/>
<text text-anchor="middle" x="1067.5" y="-15.5" font-family="Arial" font-size="10.00">walk_to_Large_Block_for_rob...</text>
</g>
<!-- node_18&#45;&gt;node_19 -->
<g id="edge19" class="edge">
<title>node_18&#45;&gt;node_19</title>
<path fill="none" stroke="#999999" d="M1073.1,-259.67C1072.06,-214.87 1069.27,-95.13 1068.07,-43.38"/>
<polygon fill="#999999" stroke="#999999" points="1070.51,-43.19 1067.9,-36.25 1065.61,-43.31 1070.51,-43.19"/>
</g>
<!-- node_20 -->
<g id="node22" class="node">
<title>node_20</title>
<path fill="#96ceb4" stroke="black" d="M1315.5,-36C1315.5,-36 1185.5,-36 1185.5,-36 1179.5,-36 1173.5,-30 1173.5,-24 1173.5,-24 1173.5,-12 1173.5,-12 1173.5,-6 1179.5,0 1185.5,0 1185.5,0 1315.5,0 1315.5,0 1321.5,0 1327.5,-6 1327.5,-12 1327.5,-12 1327.5,-24 1327.5,-24 1327.5,-30 1321.5,-36 1315.5,-36"/>
<text text-anchor="middle" x="1250.5" y="-15.5" font-family="Arial" font-size="10.00">jump_onto_Large_Block_for_r...</text>
</g>
<!-- node_18&#45;&gt;node_20 -->
<g id="edge20" class="edge">
<title>node_18&#45;&gt;node_20</title>
<path fill="none" stroke="#999999" d="M1085.39,-259.67C1116.37,-214.51 1199.62,-93.16 1234.64,-42.12"/>
<polygon fill="#999999" stroke="#999999" points="1236.72,-43.41 1238.66,-36.25 1232.68,-40.64 1236.72,-43.41"/>
</g>
<!-- tier_spacer_2_1&#45;&gt;node_5 -->
<!-- tier_spacer_2_2&#45;&gt;node_8 -->
<!-- tier_spacer_2_3&#45;&gt;node_12 -->
<!-- tier_spacer_3_1&#45;&gt;node_7 -->
<!-- tier_spacer_3_2&#45;&gt;node_13 -->
<!-- tier_spacer_3_3&#45;&gt;node_17 -->
</g>
</svg>
