<?xml version="1.0" encoding="UTF-8" standalone="no"?>
<!DOCTYPE svg PUBLIC "-//W3C//DTD SVG 1.1//EN"
 "http://www.w3.org/Graphics/SVG/1.1/DTD/svg11.dtd">
<!-- Generated by graphviz version 2.43.0 (0)
 -->
<!-- Title: %3 Pages: 1 -->
<svg width="3006pt" height="3042pt"
 viewBox="0.00 0.00 721.50 730.00" xmlns="http://www.w3.org/2000/svg" xmlns:xlink="http://www.w3.org/1999/xlink">
<g id="graph0" class="graph" transform="scale(4.17 4.17) rotate(0) translate(4 726)">
<title>%3</title>
<polygon fill="white" stroke="transparent" points="-4,4 -4,-726 717.5,-726 717.5,4 -4,4"/>
<!-- title -->
<g id="node1" class="node">
<title>title</title>
<path fill="lightgrey" stroke="transparent" d="M353,-722C353,-722 12,-722 12,-722 6,-722 0,-716 0,-710 0,-710 0,-698 0,-698 0,-692 6,-686 12,-686 12,-686 353,-686 353,-686 359,-686 365,-692 365,-698 365,-698 365,-710 365,-710 365,-716 359,-722 353,-722"/>
<text text-anchor="middle" x="182.5" y="-707.4" font-family="Arial Bold" font-size="12.00">build_stairs_seed42</text>
<text text-anchor="middle" x="182.5" y="-694.4" font-family="Arial Bold" font-size="12.00">The robot builds stairs from three blocks and then climbs th...</text>
</g>
<!-- node_0 -->
<g id="node2" class="node">
<title>node_0</title>
<path fill="#ff6b6b" stroke="black" d="M485,-722C485,-722 406,-722 406,-722 400,-722 394,-716 394,-710 394,-710 394,-698 394,-698 394,-692 400,-686 406,-686 406,-686 485,-686 485,-686 491,-686 497,-692 497,-698 497,-698 497,-710 497,-710 497,-716 491,-722 485,-722"/>
<text text-anchor="middle" x="445.5" y="-701.5" font-family="Arial" font-size="10.00">build_stairs_seed42</text>
</g>
<!-- node_1 -->
<g id="node3" class="node">
<title>node_1</title>
<path fill="#4ecdc4" stroke="black" d="M412.5,-628C412.5,-628 370.5,-628 370.5,-628 364.5,-628 358.5,-622 358.5,-616 358.5,-616 358.5,-604 358.5,-604 358.5,-598 364.5,-592 370.5,-592 370.5,-592 412.5,-592 412.5,-592 418.5,-592 424.5,-598 424.5,-604 424.5,-604 424.5,-616 424.5,-616 424.5,-622 418.5,-628 412.5,-628"/>
<text text-anchor="middle" x="391.5" y="-607.5" font-family="Arial" font-size="10.00">build_stairs</text>
</g>
<!-- node_0&#45;&gt;node_1 -->
<g id="edge1" class="edge">
<title>node_0&#45;&gt;node_1</title>
<path fill="none" stroke="#999999" d="M435.34,-685.7C426.82,-671.17 414.57,-650.3 405.18,-634.31"/>
<polygon fill="#999999" stroke="#999999" points="407.27,-633.02 401.61,-628.23 403.04,-635.5 407.27,-633.02"/>
</g>
<!-- node_5 -->
<g id="node7" class="node">
<title>node_5</title>
<path fill="#4ecdc4" stroke="black" d="M521,-628C521,-628 476,-628 476,-628 470,-628 464,-622 464,-616 464,-616 464,-604 464,-604 464,-598 470,-592 476,-592 476,-592 521,-592 521,-592 527,-592 533,-598 533,-604 533,-604 533,-616 533,-616 533,-622 527,-628 521,-628"/>
<text text-anchor="middle" x="498.5" y="-607.5" font-family="Arial" font-size="10.00">climb_stairs</text>
</g>
<!-- node_0&#45;&gt;node_5 -->
<g id="edge5" class="edge">
<title>node_0&#45;&gt;node_5</title>
<path fill="none" stroke="#999999" d="M455.47,-685.7C463.83,-671.17 475.86,-650.3 485.07,-634.31"/>
<polygon fill="#999999" stroke="#999999" points="487.2,-635.52 488.58,-628.23 482.96,-633.07 487.2,-635.52"/>
</g>
<!-- node_2 -->
<g id="node4" class="node">
<title>node_2</title>
<path fill="#45b7d1" stroke="black" d="M300,-534C300,-534 217,-534 217,-534 211,-534 205,-528 205,-522 205,-522 205,-510 205,-510 205,-504 211,-498 217,-498 217,-498 300,-498 300,-498 306,-498 312,-504 312,-510 312,-510 312,-522 312,-522 312,-528 306,-534 300,-534"/>
<text text-anchor="middle" x="258.5" y="-513.5" font-family="Arial" font-size="10.00">position_small_block</text>
</g>
<!-- node_1&#45;&gt;node_2 -->
<g id="edge2" class="edge">
<title>node_1&#45;&gt;node_2</title>
<path fill="none" stroke="#999999" d="M366.8,-591.91C344.91,-576.77 312.87,-554.61 289.32,-538.32"/>
<polygon fill="#999999" stroke="#999999" points="290.67,-536.28 283.52,-534.31 287.89,-540.31 290.67,-536.28"/>
</g>
<!-- node_3 -->
<g id="node5" class="node">
<title>node_3</title>
<path fill="#45b7d1" stroke="black" d="M359,-368C359,-368 264,-368 264,-368 258,-368 252,-362 252,-356 252,-356 252,-344 252,-344 252,-338 258,-332 264,-332 264,-332 359,-332 359,-332 365,-332 371,-338 371,-344 371,-344 371,-356 371,-356 371,-362 365,-368 359,-368"/>
<text text-anchor="middle" x="311.5" y="-347.5" font-family="Arial" font-size="10.00">position_medium_block</text>
</g>
<!-- node_1&#45;&gt;node_3 -->
<g id="edge3" class="edge">
<title>node_1&#45;&gt;node_3</title>
<path fill="none" stroke="#999999" d="M386.13,-591.67C372.21,-546.78 334.95,-426.63 318.96,-375.06"/>
<polygon fill="#999999" stroke="#999999" points="321.26,-374.21 316.85,-368.25 316.58,-375.66 321.26,-374.21"/>
</g>
<!-- node_4 -->
<g id="node6" class="node">
<title>node_4</title>
<path fill="#45b7d1" stroke="black" d="M418,-202C418,-202 337,-202 337,-202 331,-202 325,-196 325,-190 325,-190 325,-178 325,-178 325,-172 331,-166 337,-166 337,-166 418,-166 418,-166 424,-166 430,-172 430,-178 430,-178 430,-190 430,-190 430,-196 424,-202 418,-202"/>
<text text-anchor="middle" x="377.5" y="-181.5" font-family="Arial" font-size="10.00">position_large_block</text>
</g>
<!-- node_1&#45;&gt;node_4 -->
<g id="edge4" class="edge">
<title>node_1&#45;&gt;node_4</title>
<path fill="none" stroke="#999999" d="M395.46,-591.72C402.28,-560.44 415.5,-492.27 415.5,-434 415.5,-434 415.5,-434 415.5,-349 415.5,-298.19 397.97,-240.76 386.73,-209.13"/>
<polygon fill="#999999" stroke="#999999" points="388.98,-208.16 384.29,-202.41 384.37,-209.82 388.98,-208.16"/>
</g>
<!-- tier_spacer_2_1 -->
<!-- node_2&#45;&gt;tier_spacer_2_1 -->
<!-- tier_spacer_2_2 -->
<!-- node_3&#45;&gt;tier_spacer_2_2 -->
<!-- tier_spacer_2_3 -->
<!-- node_4&#45;&gt;tier_spacer_2_3 -->
<!-- node_6 -->
<g id="node8" class="node">
<title>node_6</title>
<path fill="#45b7d1" stroke="black" d="M431.5,-36C431.5,-36 361.5,-36 361.5,-36 355.5,-36 349.5,-30 349.5,-24 349.5,-24 349.5,-12 349.5,-12 349.5,-6 355.5,0 361.5,0 361.5,0 431.5,0 431.5,0 437.5,0 443.5,-6 443.5,-12 443.5,-12 443.5,-24 443.5,-24 443.5,-30 437.5,-36 431.5,-36"/>
<text text-anchor="middle" x="396.5" y="-15.5" font-family="Arial" font-size="10.00">ascend_first_step</text>
</g>
<!-- node_5&#45;&gt;node_6 -->
<g id="edge6" class="edge">
<title>node_5&#45;&gt;node_6</title>
<path fill="none" stroke="#999999" d="M494.54,-591.72C487.72,-560.44 474.5,-492.27 474.5,-434 474.5,-434 474.5,-434 474.5,-183 474.5,-128.32 438.7,-72.45 415.61,-42.11"/>
<polygon fill="#999999" stroke="#999999" points="417.4,-40.42 411.17,-36.39 413.52,-43.42 417.4,-40.42"/>
</g>
<!-- node_7 -->
<g id="node9" class="node">
<title>node_7</title>
<path fill="#45b7d1" stroke="black" d="M576,-36C576,-36 491,-36 491,-36 485,-36 479,-30 479,-24 479,-24 479,-12 479,-12 479,-6 485,0 491,0 491,0 576,0 576,0 582,0 588,-6 588,-12 588,-12 588,-24 588,-24 588,-30 582,-36 576,-36"/>
<text text-anchor="middle" x="533.5" y="-15.5" font-family="Arial" font-size="10.00">ascend_second_step</text>
</g>
<!-- node_5&#45;&gt;node_7 -->
<g id="edge7" class="edge">
<title>node_5&#45;&gt;node_7</title>
<path fill="none" stroke="#999999" d="M504.28,-591.84C514.22,-560.75 533.5,-492.87 533.5,-434 533.5,-434 533.5,-434 533.5,-183 533.5,-133.44 533.5,-75.47 533.5,-43.42"/>
<polygon fill="#999999" stroke="#999999" points="535.95,-43.24 533.5,-36.24 531.05,-43.24 535.95,-43.24"/>
</g>
<!-- node_8 -->
<g id="node10" class="node">
<title>node_8</title>
<path fill="#45b7d1" stroke="black" d="M701.5,-36C701.5,-36 629.5,-36 629.5,-36 623.5,-36 617.5,-30 617.5,-24 617.5,-24 617.5,-12 617.5,-12 617.5,-6 623.5,0 629.5,0 629.5,0 701.5,0 701.5,0 707.5,0 713.5,-6 713.5,-12 713.5,-12 713.5,-24 713.5,-24 713.5,-30 707.5,-36 701.5,-36"/>
<text text-anchor="middle" x="665.5" y="-15.5" font-family="Arial" font-size="10.00">ascend_third_step</text>
</g>
<!-- node_5&#45;&gt;node_8 -->
<g id="edge8" class="edge">
<title>node_5&#45;&gt;node_8</title>
<path fill="none" stroke="#999999" d="M533.1,-592.31C582.02,-566.02 665.5,-510.01 665.5,-434 665.5,-434 665.5,-434 665.5,-183 665.5,-133.44 665.5,-75.47 665.5,-43.42"/>
<polygon fill="#999999" stroke="#999999" points="667.95,-43.24 665.5,-36.24 663.05,-43.24 667.95,-43.24"/>
</g>
<!-- tier_spacer_2_1&#45;&gt;node_3 -->
<!-- tier_spacer_2_2&#45;&gt;node_4 -->
<!-- tier_spacer_2_3&#45;&gt;node_6 -->
</g>
</svg>
