<?xml version="1.0" encoding="UTF-8" standalone="no"?>
<!DOCTYPE svg PUBLIC "-//W3C//DTD SVG 1.1//EN"
 "http://www.w3.org/Graphics/SVG/1.1/DTD/svg11.dtd">
<!-- Generated by graphviz version 2.43.0 (0)
 -->
<!-- Title: %3 Pages: 1 -->
<svg width="2569pt" height="2350pt"
 viewBox="0.00 0.00 616.50 564.00" xmlns="http://www.w3.org/2000/svg" xmlns:xlink="http://www.w3.org/1999/xlink">
<g id="graph0" class="graph" transform="scale(4.17 4.17) rotate(0) translate(4 560)">
<title>%3</title>
<polygon fill="white" stroke="transparent" points="-4,4 -4,-560 612.5,-560 612.5,4 -4,4"/>
<!-- title -->
<g id="node1" class="node">
<title>title</title>
<path fill="lightgrey" stroke="transparent" d="M377,-556C377,-556 12,-556 12,-556 6,-556 0,-550 0,-544 0,-544 0,-532 0,-532 0,-526 6,-520 12,-520 12,-520 377,-520 377,-520 383,-520 389,-526 389,-532 389,-532 389,-544 389,-544 389,-550 383,-556 377,-556"/>
<text text-anchor="middle" x="194.5" y="-541.4" font-family="Arial Bold" font-size="12.00">doorway_and_goal_seed42</text>
<text text-anchor="middle" x="194.5" y="-528.4" font-family="Arial Bold" font-size="12.00">The robot should walk through the doorway formed by two heav...</text>
</g>
<!-- node_0 -->
<g id="node2" class="node">
<title>node_0</title>
<path fill="#ff6b6b" stroke="black" d="M540.5,-556C540.5,-556 430.5,-556 430.5,-556 424.5,-556 418.5,-550 418.5,-544 418.5,-544 418.5,-532 418.5,-532 418.5,-526 424.5,-520 430.5,-520 430.5,-520 540.5,-520 540.5,-520 546.5,-520 552.5,-526 552.5,-532 552.5,-532 552.5,-544 552.5,-544 552.5,-550 546.5,-556 540.5,-556"/>
<text text-anchor="middle" x="485.5" y="-535.5" font-family="Arial" font-size="10.00">doorway_and_goal_seed42</text>
</g>
<!-- node_1 -->
<g id="node3" class="node">
<title>node_1</title>
<path fill="#4ecdc4" stroke="black" d="M455.5,-462C455.5,-462 379.5,-462 379.5,-462 373.5,-462 367.5,-456 367.5,-450 367.5,-450 367.5,-438 367.5,-438 367.5,-432 373.5,-426 379.5,-426 379.5,-426 455.5,-426 455.5,-426 461.5,-426 467.5,-432 467.5,-438 467.5,-438 467.5,-450 467.5,-450 467.5,-456 461.5,-462 455.5,-462"/>
<text text-anchor="middle" x="417.5" y="-441.5" font-family="Arial" font-size="10.00">Navigate_Doorway</text>
</g>
<!-- node_0&#45;&gt;node_1 -->
<g id="edge1" class="edge">
<title>node_0&#45;&gt;node_1</title>
<path fill="none" stroke="#999999" d="M472.71,-519.7C461.88,-505.05 446.28,-483.93 434.42,-467.89"/>
<polygon fill="#999999" stroke="#999999" points="436.36,-466.4 430.23,-462.23 432.42,-469.31 436.36,-466.4"/>
</g>
<!-- node_4 -->
<g id="node6" class="node">
<title>node_4</title>
<path fill="#4ecdc4" stroke="black" d="M596.5,-462C596.5,-462 508.5,-462 508.5,-462 502.5,-462 496.5,-456 496.5,-450 496.5,-450 496.5,-438 496.5,-438 496.5,-432 502.5,-426 508.5,-426 508.5,-426 596.5,-426 596.5,-426 602.5,-426 608.5,-432 608.5,-438 608.5,-438 608.5,-450 608.5,-450 608.5,-456 602.5,-462 596.5,-462"/>
<text text-anchor="middle" x="552.5" y="-441.5" font-family="Arial" font-size="10.00">Walk_to_Small_Block</text>
</g>
<!-- node_0&#45;&gt;node_4 -->
<g id="edge4" class="edge">
<title>node_0&#45;&gt;node_4</title>
<path fill="none" stroke="#999999" d="M498.1,-519.7C508.77,-505.05 524.15,-483.93 535.83,-467.89"/>
<polygon fill="#999999" stroke="#999999" points="537.81,-469.33 539.95,-462.23 533.85,-466.44 537.81,-469.33"/>
</g>
<!-- node_2 -->
<g id="node4" class="node">
<title>node_2</title>
<path fill="#45b7d1" stroke="black" stroke-width="2" d="M416,-368C416,-368 295,-368 295,-368 289,-368 283,-362 283,-356 283,-356 283,-344 283,-344 283,-338 289,-332 295,-332 295,-332 416,-332 416,-332 422,-332 428,-338 428,-344 428,-344 428,-356 428,-356 428,-362 422,-368 416,-368"/>
<text text-anchor="middle" x="355.5" y="-347.5" font-family="Arial" font-size="10.00">approach_doorway_and_align</text>
</g>
<!-- node_1&#45;&gt;node_2 -->
<g id="edge2" class="edge">
<title>node_1&#45;&gt;node_2</title>
<path fill="none" stroke="#999999" d="M405.84,-425.7C396.05,-411.17 381.99,-390.3 371.21,-374.31"/>
<polygon fill="#999999" stroke="#999999" points="373.05,-372.66 367.11,-368.23 368.99,-375.4 373.05,-372.66"/>
</g>
<!-- node_3 -->
<g id="node5" class="node">
<title>node_3</title>
<path fill="#45b7d1" stroke="black" stroke-width="2" d="M496.5,-202C496.5,-202 404.5,-202 404.5,-202 398.5,-202 392.5,-196 392.5,-190 392.5,-190 392.5,-178 392.5,-178 392.5,-172 398.5,-166 404.5,-166 404.5,-166 496.5,-166 496.5,-166 502.5,-166 508.5,-172 508.5,-178 508.5,-178 508.5,-190 508.5,-190 508.5,-196 502.5,-202 496.5,-202"/>
<text text-anchor="middle" x="450.5" y="-181.5" font-family="Arial" font-size="10.00">walk_through_doorway</text>
</g>
<!-- node_1&#45;&gt;node_3 -->
<g id="edge3" class="edge">
<title>node_1&#45;&gt;node_3</title>
<path fill="none" stroke="#999999" d="M424.77,-425.78C430.71,-410.81 438.73,-388.38 442.5,-368 452.88,-311.8 452.63,-244.32 451.56,-209.09"/>
<polygon fill="#999999" stroke="#999999" points="454.01,-208.99 451.32,-202.08 449.11,-209.16 454.01,-208.99"/>
</g>
<!-- tier_spacer_2_1 -->
<!-- node_2&#45;&gt;tier_spacer_2_1 -->
<!-- tier_spacer_2_2 -->
<!-- node_3&#45;&gt;tier_spacer_2_2 -->
<!-- node_5 -->
<g id="node7" class="node">
<title>node_5</title>
<path fill="#45b7d1" stroke="black" stroke-width="2" d="M544.5,-36C544.5,-36 458.5,-36 458.5,-36 452.5,-36 446.5,-30 446.5,-24 446.5,-24 446.5,-12 446.5,-12 446.5,-6 452.5,0 458.5,0 458.5,0 544.5,0 544.5,0 550.5,0 556.5,-6 556.5,-12 556.5,-12 556.5,-24 556.5,-24 556.5,-30 550.5,-36 544.5,-36"/>
<text text-anchor="middle" x="501.5" y="-15.5" font-family="Arial" font-size="10.00">walk_to_Small_Block</text>
</g>
<!-- node_4&#45;&gt;node_5 -->
<g id="edge5" class="edge">
<title>node_4&#45;&gt;node_5</title>
<path fill="none" stroke="#999999" d="M552.5,-425.61C552.5,-394.16 552.5,-325.73 552.5,-268 552.5,-268 552.5,-268 552.5,-183 552.5,-131.16 528.98,-74.1 513.88,-42.81"/>
<polygon fill="#999999" stroke="#999999" points="515.91,-41.37 510.62,-36.17 511.51,-43.53 515.91,-41.37"/>
</g>
<!-- tier_spacer_2_1&#45;&gt;node_3 -->
<!-- tier_spacer_2_2&#45;&gt;node_5 -->
</g>
</svg>
