<?xml version="1.0" encoding="UTF-8" standalone="no"?>
<!DOCTYPE svg PUBLIC "-//W3C//DTD SVG 1.1//EN"
 "http://www.w3.org/Graphics/SVG/1.1/DTD/svg11.dtd">
<!-- Generated by graphviz version 2.43.0 (0)
 -->
<!-- Title: %3 Pages: 1 -->
<svg width="2740pt" height="3042pt"
 viewBox="0.00 0.00 657.50 730.00" xmlns="http://www.w3.org/2000/svg" xmlns:xlink="http://www.w3.org/1999/xlink">
<g id="graph0" class="graph" transform="scale(4.17 4.17) rotate(0) translate(4 726)">
<title>%3</title>
<polygon fill="white" stroke="transparent" points="-4,4 -4,-726 653.5,-726 653.5,4 -4,4"/>
<!-- title -->
<g id="node1" class="node">
<title>title</title>
<path fill="lightgrey" stroke="transparent" d="M365,-722C365,-722 12,-722 12,-722 6,-722 0,-716 0,-710 0,-710 0,-698 0,-698 0,-692 6,-686 12,-686 12,-686 365,-686 365,-686 371,-686 377,-692 377,-698 377,-698 377,-710 377,-710 377,-716 371,-722 365,-722"/>
<text text-anchor="middle" x="188.5" y="-707.4" font-family="Arial Bold" font-size="12.00">doorway_and_goal_seed123</text>
<text text-anchor="middle" x="188.5" y="-694.4" font-family="Arial Bold" font-size="12.00">The robot should walk through the doorway and then walk to t...</text>
</g>
<!-- node_0 -->
<g id="node2" class="node">
<title>node_0</title>
<path fill="#ff6b6b" stroke="black" d="M534.5,-722C534.5,-722 418.5,-722 418.5,-722 412.5,-722 406.5,-716 406.5,-710 406.5,-710 406.5,-698 406.5,-698 406.5,-692 412.5,-686 418.5,-686 418.5,-686 534.5,-686 534.5,-686 540.5,-686 546.5,-692 546.5,-698 546.5,-698 546.5,-710 546.5,-710 546.5,-716 540.5,-722 534.5,-722"/>
<text text-anchor="middle" x="476.5" y="-701.5" font-family="Arial" font-size="10.00">doorway_and_goal_seed123</text>
</g>
<!-- node_1 -->
<g id="node3" class="node">
<title>node_1</title>
<path fill="#4ecdc4" stroke="black" d="M456,-628C456,-628 347,-628 347,-628 341,-628 335,-622 335,-616 335,-616 335,-604 335,-604 335,-598 341,-592 347,-592 347,-592 456,-592 456,-592 462,-592 468,-598 468,-604 468,-604 468,-616 468,-616 468,-622 462,-628 456,-628"/>
<text text-anchor="middle" x="401.5" y="-607.5" font-family="Arial" font-size="10.00">navigate_through_doorway</text>
</g>
<!-- node_0&#45;&gt;node_1 -->
<g id="edge1" class="edge">
<title>node_0&#45;&gt;node_1</title>
<path fill="none" stroke="#999999" d="M462.39,-685.7C450.45,-671.05 433.24,-649.93 420.16,-633.89"/>
<polygon fill="#999999" stroke="#999999" points="421.87,-632.1 415.54,-628.23 418.07,-635.2 421.87,-632.1"/>
</g>
<!-- node_5 -->
<g id="node7" class="node">
<title>node_5</title>
<path fill="#4ecdc4" stroke="black" d="M593.5,-628C593.5,-628 509.5,-628 509.5,-628 503.5,-628 497.5,-622 497.5,-616 497.5,-616 497.5,-604 497.5,-604 497.5,-598 503.5,-592 509.5,-592 509.5,-592 593.5,-592 593.5,-592 599.5,-592 605.5,-598 605.5,-604 605.5,-604 605.5,-616 605.5,-616 605.5,-622 599.5,-628 593.5,-628"/>
<text text-anchor="middle" x="551.5" y="-607.5" font-family="Arial" font-size="10.00">approach_goal_block</text>
</g>
<!-- node_0&#45;&gt;node_5 -->
<g id="edge5" class="edge">
<title>node_0&#45;&gt;node_5</title>
<path fill="none" stroke="#999999" d="M490.61,-685.7C502.55,-671.05 519.76,-649.93 532.84,-633.89"/>
<polygon fill="#999999" stroke="#999999" points="534.93,-635.2 537.46,-628.23 531.13,-632.1 534.93,-635.2"/>
</g>
<!-- node_2 -->
<g id="node4" class="node">
<title>node_2</title>
<path fill="#45b7d1" stroke="black" d="M345,-534C345,-534 234,-534 234,-534 228,-534 222,-528 222,-522 222,-522 222,-510 222,-510 222,-504 228,-498 234,-498 234,-498 345,-498 345,-498 351,-498 357,-504 357,-510 357,-510 357,-522 357,-522 357,-528 351,-534 345,-534"/>
<text text-anchor="middle" x="289.5" y="-513.5" font-family="Arial" font-size="10.00">walk_to_doorway_entrance</text>
</g>
<!-- node_1&#45;&gt;node_2 -->
<g id="edge2" class="edge">
<title>node_1&#45;&gt;node_2</title>
<path fill="none" stroke="#999999" d="M380.7,-591.91C362.5,-576.97 335.97,-555.17 316.21,-538.94"/>
<polygon fill="#999999" stroke="#999999" points="317.54,-536.86 310.57,-534.31 314.43,-540.65 317.54,-536.86"/>
</g>
<!-- node_3 -->
<g id="node5" class="node">
<title>node_3</title>
<path fill="#45b7d1" stroke="black" d="M404.5,-368C404.5,-368 312.5,-368 312.5,-368 306.5,-368 300.5,-362 300.5,-356 300.5,-356 300.5,-344 300.5,-344 300.5,-338 306.5,-332 312.5,-332 312.5,-332 404.5,-332 404.5,-332 410.5,-332 416.5,-338 416.5,-344 416.5,-344 416.5,-356 416.5,-356 416.5,-362 410.5,-368 404.5,-368"/>
<text text-anchor="middle" x="358.5" y="-347.5" font-family="Arial" font-size="10.00">walk_through_doorway</text>
</g>
<!-- node_1&#45;&gt;node_3 -->
<g id="edge3" class="edge">
<title>node_1&#45;&gt;node_3</title>
<path fill="none" stroke="#999999" d="M398.61,-591.67C391.15,-546.87 371.19,-427.13 362.56,-375.38"/>
<polygon fill="#999999" stroke="#999999" points="364.94,-374.76 361.38,-368.25 360.11,-375.56 364.94,-374.76"/>
</g>
<!-- node_4 -->
<g id="node6" class="node">
<title>node_4</title>
<path fill="#45b7d1" stroke="black" d="M479,-202C479,-202 384,-202 384,-202 378,-202 372,-196 372,-190 372,-190 372,-178 372,-178 372,-172 378,-166 384,-166 384,-166 479,-166 479,-166 485,-166 491,-172 491,-178 491,-178 491,-190 491,-190 491,-196 485,-202 479,-202"/>
<text text-anchor="middle" x="431.5" y="-181.5" font-family="Arial" font-size="10.00">walk_clear_of_doorway</text>
</g>
<!-- node_1&#45;&gt;node_4 -->
<g id="edge4" class="edge">
<title>node_1&#45;&gt;node_4</title>
<path fill="none" stroke="#999999" d="M411.51,-591.77C428.34,-561.1 460.5,-494.6 460.5,-434 460.5,-434 460.5,-434 460.5,-349 460.5,-298.68 447.1,-240.97 438.51,-209.19"/>
<polygon fill="#999999" stroke="#999999" points="440.77,-208.16 436.55,-202.06 436.05,-209.46 440.77,-208.16"/>
</g>
<!-- tier_spacer_2_1 -->
<!-- node_2&#45;&gt;tier_spacer_2_1 -->
<!-- tier_spacer_2_2 -->
<!-- node_3&#45;&gt;tier_spacer_2_2 -->
<!-- tier_spacer_2_3 -->
<!-- node_4&#45;&gt;tier_spacer_2_3 -->
<!-- node_6 -->
<g id="node8" class="node">
<title>node_6</title>
<path fill="#45b7d1" stroke="black" d="M496,-36C496,-36 383,-36 383,-36 377,-36 371,-30 371,-24 371,-24 371,-12 371,-12 371,-6 377,0 383,0 383,0 496,0 496,0 502,0 508,-6 508,-12 508,-12 508,-24 508,-24 508,-30 502,-36 496,-36"/>
<text text-anchor="middle" x="439.5" y="-15.5" font-family="Arial" font-size="10.00">walk_towards_Small_Block</text>
</g>
<!-- node_5&#45;&gt;node_6 -->
<g id="edge6" class="edge">
<title>node_5&#45;&gt;node_6</title>
<path fill="none" stroke="#999999" d="M548.86,-591.66C544.31,-560.29 535.5,-491.97 535.5,-434 535.5,-434 535.5,-434 535.5,-183 535.5,-125.85 491.55,-70.96 463.12,-41.43"/>
<polygon fill="#999999" stroke="#999999" points="464.66,-39.5 458.01,-36.22 461.16,-42.93 464.66,-39.5"/>
</g>
<!-- node_7 -->
<g id="node9" class="node">
<title>node_7</title>
<path fill="#45b7d1" stroke="black" d="M637.5,-36C637.5,-36 551.5,-36 551.5,-36 545.5,-36 539.5,-30 539.5,-24 539.5,-24 539.5,-12 539.5,-12 539.5,-6 545.5,0 551.5,0 551.5,0 637.5,0 637.5,0 643.5,0 649.5,-6 649.5,-12 649.5,-12 649.5,-24 649.5,-24 649.5,-30 643.5,-36 637.5,-36"/>
<text text-anchor="middle" x="594.5" y="-15.5" font-family="Arial" font-size="10.00">walk_to_Small_Block</text>
</g>
<!-- node_5&#45;&gt;node_7 -->
<g id="edge7" class="edge">
<title>node_5&#45;&gt;node_7</title>
<path fill="none" stroke="#999999" d="M558.6,-591.96C570.81,-561.05 594.5,-493.44 594.5,-434 594.5,-434 594.5,-434 594.5,-183 594.5,-133.44 594.5,-75.47 594.5,-43.42"/>
<polygon fill="#999999" stroke="#999999" points="596.95,-43.24 594.5,-36.24 592.05,-43.24 596.95,-43.24"/>
</g>
<!-- tier_spacer_2_1&#45;&gt;node_3 -->
<!-- tier_spacer_2_2&#45;&gt;node_4 -->
<!-- tier_spacer_2_3&#45;&gt;node_6 -->
</g>
</svg>
