<?xml version="1.0" encoding="UTF-8" standalone="no"?>
<!DOCTYPE svg PUBLIC "-//W3C//DTD SVG 1.1//EN"
 "http://www.w3.org/Graphics/SVG/1.1/DTD/svg11.dtd">
<!-- Generated by graphviz version 2.43.0 (0)
 -->
<!-- Title: %3 Pages: 1 -->
<svg width="3000pt" height="708pt"
 viewBox="0.00 0.00 720.00 169.90" xmlns="http://www.w3.org/2000/svg" xmlns:xlink="http://www.w3.org/1999/xlink">
<g id="graph0" class="graph" transform="scale(3.47 3.47) rotate(0) translate(4 200)">
<title>%3</title>
<polygon fill="white" stroke="transparent" points="-4,4 -4,-200 860.5,-200 860.5,4 -4,4"/>
<g id="clust1" class="cluster">
<title>cluster_l1_g0</title>
</g>
<g id="clust2" class="cluster">
<title>cluster_l2_g0</title>
</g>
<g id="clust3" class="cluster">
<title>cluster_l2_g1</title>
</g>
<!-- title -->
<g id="node1" class="node">
<title>title</title>
<path fill="lightgrey" stroke="transparent" d="M365,-196C365,-196 12,-196 12,-196 6,-196 0,-190 0,-184 0,-184 0,-172 0,-172 0,-166 6,-160 12,-160 12,-160 365,-160 365,-160 371,-160 377,-166 377,-172 377,-172 377,-184 377,-184 377,-190 371,-196 365,-196"/>
<text text-anchor="middle" x="188.5" y="-181.4" font-family="Arial Bold" font-size="12.00">doorway_and_goal_seed456</text>
<text text-anchor="middle" x="188.5" y="-168.4" font-family="Arial Bold" font-size="12.00">The robot should walk through the doorway and then walk to t...</text>
</g>
<!-- node_0 -->
<g id="node2" class="node">
<title>node_0</title>
<path fill="#ff6b6b" stroke="black" d="M524,-196C524,-196 411,-196 411,-196 405,-196 399,-190 399,-184 399,-184 399,-172 399,-172 399,-166 405,-160 411,-160 411,-160 524,-160 524,-160 530,-160 536,-166 536,-172 536,-172 536,-184 536,-184 536,-190 530,-196 524,-196"/>
<text text-anchor="middle" x="467.5" y="-175.8" font-family="Arial" font-size="9.00">doorway_and_goal_seed456</text>
</g>
<!-- node_1 -->
<g id="node3" class="node">
<title>node_1</title>
<path fill="#4ecdc4" stroke="black" d="M509.5,-124C509.5,-124 425.5,-124 425.5,-124 419.5,-124 413.5,-118 413.5,-112 413.5,-112 413.5,-100 413.5,-100 413.5,-94 419.5,-88 425.5,-88 425.5,-88 509.5,-88 509.5,-88 515.5,-88 521.5,-94 521.5,-100 521.5,-100 521.5,-112 521.5,-112 521.5,-118 515.5,-124 509.5,-124"/>
<text text-anchor="middle" x="467.5" y="-103.8" font-family="Arial" font-size="9.00">approach_doorway</text>
</g>
<!-- node_0&#45;&gt;node_1 -->
<g id="edge1" class="edge">
<title>node_0&#45;&gt;node_1</title>
<path fill="none" stroke="#999999" d="M467.5,-159.7C467.5,-151.14 467.5,-140.66 467.5,-131.3"/>
<polygon fill="#999999" stroke="#999999" points="469.95,-131.1 467.5,-124.1 465.05,-131.1 469.95,-131.1"/>
</g>
<!-- node_4 -->
<g id="node6" class="node">
<title>node_4</title>
<path fill="#4ecdc4" stroke="black" d="M379.5,-124C379.5,-124 295.5,-124 295.5,-124 289.5,-124 283.5,-118 283.5,-112 283.5,-112 283.5,-100 283.5,-100 283.5,-94 289.5,-88 295.5,-88 295.5,-88 379.5,-88 379.5,-88 385.5,-88 391.5,-94 391.5,-100 391.5,-100 391.5,-112 391.5,-112 391.5,-118 385.5,-124 379.5,-124"/>
<text text-anchor="middle" x="337.5" y="-103.8" font-family="Arial" font-size="9.00">traverse_doorway</text>
</g>
<!-- node_0&#45;&gt;node_4 -->
<g id="edge4" class="edge">
<title>node_0&#45;&gt;node_4</title>
<path fill="none" stroke="#999999" d="M435.7,-159.88C417.6,-150.13 394.81,-137.86 375.74,-127.59"/>
<polygon fill="#999999" stroke="#999999" points="376.75,-125.35 369.42,-124.19 374.43,-129.67 376.75,-125.35"/>
</g>
<!-- node_6 -->
<g id="node8" class="node">
<title>node_6</title>
<path fill="#4ecdc4" stroke="black" d="M639.5,-124C639.5,-124 555.5,-124 555.5,-124 549.5,-124 543.5,-118 543.5,-112 543.5,-112 543.5,-100 543.5,-100 543.5,-94 549.5,-88 555.5,-88 555.5,-88 639.5,-88 639.5,-88 645.5,-88 651.5,-94 651.5,-100 651.5,-100 651.5,-112 651.5,-112 651.5,-118 645.5,-124 639.5,-124"/>
<text text-anchor="middle" x="597.5" y="-103.8" font-family="Arial" font-size="9.00">approach_smallBlock</text>
</g>
<!-- node_0&#45;&gt;node_6 -->
<g id="edge6" class="edge">
<title>node_0&#45;&gt;node_6</title>
<path fill="none" stroke="#999999" d="M499.3,-159.88C517.4,-150.13 540.19,-137.86 559.26,-127.59"/>
<polygon fill="#999999" stroke="#999999" points="560.57,-129.67 565.58,-124.19 558.25,-125.35 560.57,-129.67"/>
</g>
<!-- node_2 -->
<g id="node4" class="node">
<title>node_2</title>
<path fill="#45b7d1" stroke="black" stroke-width="2" d="M518,-52C518,-52 417,-52 417,-52 411,-52 405,-46 405,-40 405,-40 405,-28 405,-28 405,-22 411,-16 417,-16 417,-16 518,-16 518,-16 524,-16 530,-22 530,-28 530,-28 530,-40 530,-40 530,-46 524,-52 518,-52"/>
<text text-anchor="middle" x="467.5" y="-31.8" font-family="Arial" font-size="9.00">walk_to_doorwayEntrance</text>
</g>
<!-- node_1&#45;&gt;node_2 -->
<g id="edge2" class="edge">
<title>node_1&#45;&gt;node_2</title>
<path fill="none" stroke="#999999" d="M467.5,-87.7C467.5,-79.14 467.5,-68.66 467.5,-59.3"/>
<polygon fill="#999999" stroke="#999999" points="469.95,-59.1 467.5,-52.1 465.05,-59.1 469.95,-59.1"/>
</g>
<!-- node_3 -->
<g id="node5" class="node">
<title>node_3</title>
<path fill="#45b7d1" stroke="black" stroke-width="2" d="M371,-52C371,-52 268,-52 268,-52 262,-52 256,-46 256,-40 256,-40 256,-28 256,-28 256,-22 262,-16 268,-16 268,-16 371,-16 371,-16 377,-16 383,-22 383,-28 383,-28 383,-40 383,-40 383,-46 377,-52 371,-52"/>
<text text-anchor="middle" x="319.5" y="-31.8" font-family="Arial" font-size="9.00">align_with_doorwayCenter</text>
</g>
<!-- node_1&#45;&gt;node_3 -->
<g id="edge3" class="edge">
<title>node_1&#45;&gt;node_3</title>
<path fill="none" stroke="#999999" d="M431.3,-87.88C410.34,-77.97 383.87,-65.44 361.94,-55.07"/>
<polygon fill="#999999" stroke="#999999" points="362.96,-52.85 355.59,-52.07 360.87,-57.28 362.96,-52.85"/>
</g>
<!-- node_5 -->
<g id="node7" class="node">
<title>node_5</title>
<path fill="#45b7d1" stroke="black" stroke-width="2" d="M221.5,-52C221.5,-52 115.5,-52 115.5,-52 109.5,-52 103.5,-46 103.5,-40 103.5,-40 103.5,-28 103.5,-28 103.5,-22 109.5,-16 115.5,-16 115.5,-16 221.5,-16 221.5,-16 227.5,-16 233.5,-22 233.5,-28 233.5,-28 233.5,-40 233.5,-40 233.5,-46 227.5,-52 221.5,-52"/>
<text text-anchor="middle" x="168.5" y="-31.8" font-family="Arial" font-size="9.00">walk_through_doorwayGap</text>
</g>
<!-- node_4&#45;&gt;node_5 -->
<g id="edge5" class="edge">
<title>node_4&#45;&gt;node_5</title>
<path fill="none" stroke="#999999" d="M296.16,-87.88C272.03,-77.88 241.48,-65.23 216.32,-54.81"/>
<polygon fill="#999999" stroke="#999999" points="217.11,-52.48 209.71,-52.07 215.24,-57.01 217.11,-52.48"/>
</g>
<!-- node_7 -->
<g id="node9" class="node">
<title>node_7</title>
<path fill="#45b7d1" stroke="black" stroke-width="2" d="M828.5,-52C828.5,-52 730.5,-52 730.5,-52 724.5,-52 718.5,-46 718.5,-40 718.5,-40 718.5,-28 718.5,-28 718.5,-22 724.5,-16 730.5,-16 730.5,-16 828.5,-16 828.5,-16 834.5,-16 840.5,-22 840.5,-28 840.5,-28 840.5,-40 840.5,-40 840.5,-46 834.5,-52 828.5,-52"/>
<text text-anchor="middle" x="779.5" y="-31.8" font-family="Arial" font-size="9.00">walk_towards_smallBlock</text>
</g>
<!-- node_6&#45;&gt;node_7 -->
<g id="edge7" class="edge">
<title>node_6&#45;&gt;node_7</title>
<path fill="none" stroke="#999999" d="M642.02,-87.88C668.12,-77.84 701.19,-65.12 728.35,-54.67"/>
<polygon fill="#999999" stroke="#999999" points="729.47,-56.87 735.12,-52.07 727.71,-52.29 729.47,-56.87"/>
</g>
<!-- node_8 -->
<g id="node10" class="node">
<title>node_8</title>
<path fill="#45b7d1" stroke="black" stroke-width="2" d="M684,-52C684,-52 567,-52 567,-52 561,-52 555,-46 555,-40 555,-40 555,-28 555,-28 555,-22 561,-16 567,-16 567,-16 684,-16 684,-16 690,-16 696,-22 696,-28 696,-28 696,-40 696,-40 696,-46 690,-52 684,-52"/>
<text text-anchor="middle" x="625.5" y="-31.8" font-family="Arial" font-size="9.00">adjust_position_to_smallBlock</text>
</g>
<!-- node_6&#45;&gt;node_8 -->
<g id="edge8" class="edge">
<title>node_6&#45;&gt;node_8</title>
<path fill="none" stroke="#999999" d="M604.42,-87.7C607.91,-78.97 612.2,-68.24 616,-58.75"/>
<polygon fill="#999999" stroke="#999999" points="618.33,-59.51 618.66,-52.1 613.78,-57.69 618.33,-59.51"/>
</g>
</g>
</svg>
