<?xml version="1.0" encoding="UTF-8" standalone="no"?>
<!DOCTYPE svg PUBLIC "-//W3C//DTD SVG 1.1//EN"
 "http://www.w3.org/Graphics/SVG/1.1/DTD/svg11.dtd">
<!-- Generated by graphviz version 2.43.0 (0)
 -->
<!-- Title: %3 Pages: 1 -->
<svg width="3000pt" height="793pt"
 viewBox="0.00 0.00 720.00 190.38" xmlns="http://www.w3.org/2000/svg" xmlns:xlink="http://www.w3.org/1999/xlink">
<g id="graph0" class="graph" transform="scale(3.89 3.89) rotate(0) translate(4 200)">
<title>%3</title>
<polygon fill="white" stroke="transparent" points="-4,4 -4,-200 767.5,-200 767.5,4 -4,4"/>
<g id="clust1" class="cluster">
<title>cluster_l1_g0</title>
</g>
<g id="clust2" class="cluster">
<title>cluster_l2_g0</title>
</g>
<!-- title -->
<g id="node1" class="node">
<title>title</title>
<path fill="lightgrey" stroke="transparent" d="M365,-196C365,-196 12,-196 12,-196 6,-196 0,-190 0,-184 0,-184 0,-172 0,-172 0,-166 6,-160 12,-160 12,-160 365,-160 365,-160 371,-160 377,-166 377,-172 377,-172 377,-184 377,-184 377,-190 371,-196 365,-196"/>
<text text-anchor="middle" x="188.5" y="-181.4" font-family="Arial Bold" font-size="12.00">doorway_and_goal_seed123</text>
<text text-anchor="middle" x="188.5" y="-168.4" font-family="Arial Bold" font-size="12.00">The robot should walk through the doorway and then walk to t...</text>
</g>
<!-- node_0 -->
<g id="node2" class="node">
<title>node_0</title>
<path fill="#ff6b6b" stroke="black" d="M524,-196C524,-196 411,-196 411,-196 405,-196 399,-190 399,-184 399,-184 399,-172 399,-172 399,-166 405,-160 411,-160 411,-160 524,-160 524,-160 530,-160 536,-166 536,-172 536,-172 536,-184 536,-184 536,-190 530,-196 524,-196"/>
<text text-anchor="middle" x="467.5" y="-175.8" font-family="Arial" font-size="9.00">doorway_and_goal_seed123</text>
</g>
<!-- node_1 -->
<g id="node3" class="node">
<title>node_1</title>
<path fill="#4ecdc4" stroke="black" d="M579,-124C579,-124 490,-124 490,-124 484,-124 478,-118 478,-112 478,-112 478,-100 478,-100 478,-94 484,-88 490,-88 490,-88 579,-88 579,-88 585,-88 591,-94 591,-100 591,-100 591,-112 591,-112 591,-118 585,-124 579,-124"/>
<text text-anchor="middle" x="534.5" y="-103.8" font-family="Arial" font-size="9.00">pass_through_doorway</text>
</g>
<!-- node_0&#45;&gt;node_1 -->
<g id="edge1" class="edge">
<title>node_0&#45;&gt;node_1</title>
<path fill="none" stroke="#999999" d="M484.06,-159.7C492.82,-150.54 503.69,-139.19 513.08,-129.38"/>
<polygon fill="#999999" stroke="#999999" points="515.06,-130.86 518.13,-124.1 511.52,-127.47 515.06,-130.86"/>
</g>
<!-- node_4 -->
<g id="node6" class="node">
<title>node_4</title>
<path fill="#4ecdc4" stroke="black" d="M443.5,-124C443.5,-124 359.5,-124 359.5,-124 353.5,-124 347.5,-118 347.5,-112 347.5,-112 347.5,-100 347.5,-100 347.5,-94 353.5,-88 359.5,-88 359.5,-88 443.5,-88 443.5,-88 449.5,-88 455.5,-94 455.5,-100 455.5,-100 455.5,-112 455.5,-112 455.5,-118 449.5,-124 443.5,-124"/>
<text text-anchor="middle" x="401.5" y="-103.8" font-family="Arial" font-size="9.00">walk_to_smallBlock</text>
</g>
<!-- node_0&#45;&gt;node_4 -->
<g id="edge4" class="edge">
<title>node_0&#45;&gt;node_4</title>
<path fill="none" stroke="#999999" d="M451.19,-159.7C442.55,-150.54 431.85,-139.19 422.6,-129.38"/>
<polygon fill="#999999" stroke="#999999" points="424.21,-127.52 417.63,-124.1 420.65,-130.88 424.21,-127.52"/>
</g>
<!-- node_2 -->
<g id="node4" class="node">
<title>node_2</title>
<path fill="#45b7d1" stroke="black" stroke-width="2" d="M735,-52C735,-52 634,-52 634,-52 628,-52 622,-46 622,-40 622,-40 622,-28 622,-28 622,-22 628,-16 634,-16 634,-16 735,-16 735,-16 741,-16 747,-22 747,-28 747,-28 747,-40 747,-40 747,-46 741,-52 735,-52"/>
<text text-anchor="middle" x="684.5" y="-31.8" font-family="Arial" font-size="9.00">walk_to_doorwayEntrance</text>
</g>
<!-- node_1&#45;&gt;node_2 -->
<g id="edge2" class="edge">
<title>node_1&#45;&gt;node_2</title>
<path fill="none" stroke="#999999" d="M571.19,-87.88C592.43,-77.97 619.26,-65.44 641.49,-55.07"/>
<polygon fill="#999999" stroke="#999999" points="642.62,-57.25 647.93,-52.07 640.55,-52.81 642.62,-57.25"/>
</g>
<!-- node_3 -->
<g id="node5" class="node">
<title>node_3</title>
<path fill="#45b7d1" stroke="black" stroke-width="2" d="M587.5,-52C587.5,-52 481.5,-52 481.5,-52 475.5,-52 469.5,-46 469.5,-40 469.5,-40 469.5,-28 469.5,-28 469.5,-22 475.5,-16 481.5,-16 481.5,-16 587.5,-16 587.5,-16 593.5,-16 599.5,-22 599.5,-28 599.5,-28 599.5,-40 599.5,-40 599.5,-46 593.5,-52 587.5,-52"/>
<text text-anchor="middle" x="534.5" y="-31.8" font-family="Arial" font-size="9.00">walk_through_doorwayGap</text>
</g>
<!-- node_1&#45;&gt;node_3 -->
<g id="edge3" class="edge">
<title>node_1&#45;&gt;node_3</title>
<path fill="none" stroke="#999999" d="M534.5,-87.7C534.5,-79.14 534.5,-68.66 534.5,-59.3"/>
<polygon fill="#999999" stroke="#999999" points="536.95,-59.1 534.5,-52.1 532.05,-59.1 536.95,-59.1"/>
</g>
<!-- node_5 -->
<g id="node7" class="node">
<title>node_5</title>
<path fill="#45b7d1" stroke="black" stroke-width="2" d="M435.5,-52C435.5,-52 351.5,-52 351.5,-52 345.5,-52 339.5,-46 339.5,-40 339.5,-40 339.5,-28 339.5,-28 339.5,-22 345.5,-16 351.5,-16 351.5,-16 435.5,-16 435.5,-16 441.5,-16 447.5,-22 447.5,-28 447.5,-28 447.5,-40 447.5,-40 447.5,-46 441.5,-52 435.5,-52"/>
<text text-anchor="middle" x="393.5" y="-31.8" font-family="Arial" font-size="9.00">approach_smallBlock</text>
</g>
<!-- node_4&#45;&gt;node_5 -->
<g id="edge5" class="edge">
<title>node_4&#45;&gt;node_5</title>
<path fill="none" stroke="#999999" d="M399.52,-87.7C398.54,-79.14 397.35,-68.66 396.28,-59.3"/>
<polygon fill="#999999" stroke="#999999" points="398.68,-58.78 395.45,-52.1 393.82,-59.34 398.68,-58.78"/>
</g>
</g>
</svg>
