<?xml version="1.0" encoding="UTF-8" standalone="no"?>
<!DOCTYPE svg PUBLIC "-//W3C//DTD SVG 1.1//EN"
 "http://www.w3.org/Graphics/SVG/1.1/DTD/svg11.dtd">
<!-- Generated by graphviz version 2.43.0 (0)
 -->
<!-- Title: %3 Pages: 1 -->
<svg width="3000pt" height="751pt"
 viewBox="0.00 0.00 720.00 180.33" xmlns="http://www.w3.org/2000/svg" xmlns:xlink="http://www.w3.org/1999/xlink">
<g id="graph0" class="graph" transform="scale(2.72 2.72) rotate(0) translate(4 272)">
<title>%3</title>
<polygon fill="white" stroke="transparent" points="-4,4 -4,-272 1098,-272 1098,4 -4,4"/>
<g id="clust1" class="cluster">
<title>cluster_l1_g0</title>
</g>
<g id="clust2" class="cluster">
<title>cluster_l2_g0</title>
</g>
<g id="clust3" class="cluster">
<title>cluster_l2_g1</title>
</g>
<g id="clust4" class="cluster">
<title>cluster_l3_g0</title>
</g>
<g id="clust5" class="cluster">
<title>cluster_l3_g1</title>
</g>
<g id="clust6" class="cluster">
<title>cluster_l3_g2</title>
</g>
<!-- title -->
<g id="node1" class="node">
<title>title</title>
<path fill="lightgrey" stroke="transparent" d="M535.5,-268C535.5,-268 170.5,-268 170.5,-268 164.5,-268 158.5,-262 158.5,-256 158.5,-256 158.5,-244 158.5,-244 158.5,-238 164.5,-232 170.5,-232 170.5,-232 535.5,-232 535.5,-232 541.5,-232 547.5,-238 547.5,-244 547.5,-244 547.5,-256 547.5,-256 547.5,-262 541.5,-268 535.5,-268"/>
<text text-anchor="middle" x="353" y="-253.4" font-family="Arial Bold" font-size="12.00">doorway_and_goal_seed42</text>
<text text-anchor="middle" x="353" y="-240.4" font-family="Arial Bold" font-size="12.00">The robot should walk through the doorway formed by two heav...</text>
</g>
<!-- node_0 -->
<g id="node2" class="node">
<title>node_0</title>
<path fill="#ff6b6b" stroke="black" d="M690,-268C690,-268 582,-268 582,-268 576,-268 570,-262 570,-256 570,-256 570,-244 570,-244 570,-238 576,-232 582,-232 582,-232 690,-232 690,-232 696,-232 702,-238 702,-244 702,-244 702,-256 702,-256 702,-262 696,-268 690,-268"/>
<text text-anchor="middle" x="636" y="-247.8" font-family="Arial" font-size="9.00">doorway_and_goal_seed42</text>
</g>
<!-- node_1 -->
<g id="node3" class="node">
<title>node_1</title>
<path fill="#4ecdc4" stroke="black" d="M616.5,-196C616.5,-196 511.5,-196 511.5,-196 505.5,-196 499.5,-190 499.5,-184 499.5,-184 499.5,-172 499.5,-172 499.5,-166 505.5,-160 511.5,-160 511.5,-160 616.5,-160 616.5,-160 622.5,-160 628.5,-166 628.5,-172 628.5,-172 628.5,-184 628.5,-184 628.5,-190 622.5,-196 616.5,-196"/>
<text text-anchor="middle" x="564" y="-175.8" font-family="Arial" font-size="9.00">navigate_through_doorway</text>
</g>
<!-- node_0&#45;&gt;node_1 -->
<g id="edge1" class="edge">
<title>node_0&#45;&gt;node_1</title>
<path fill="none" stroke="#999999" d="M618.2,-231.7C608.7,-222.46 596.9,-210.98 586.74,-201.11"/>
<polygon fill="#999999" stroke="#999999" points="588.32,-199.23 581.59,-196.1 584.9,-202.74 588.32,-199.23"/>
</g>
<!-- node_8 -->
<g id="node10" class="node">
<title>node_8</title>
<path fill="#4ecdc4" stroke="black" d="M753,-196C753,-196 663,-196 663,-196 657,-196 651,-190 651,-184 651,-184 651,-172 651,-172 651,-166 657,-160 663,-160 663,-160 753,-160 753,-160 759,-160 765,-166 765,-172 765,-172 765,-184 765,-184 765,-190 759,-196 753,-196"/>
<text text-anchor="middle" x="708" y="-175.8" font-family="Arial" font-size="9.00">navigate_to_smallBlock</text>
</g>
<!-- node_0&#45;&gt;node_8 -->
<g id="edge8" class="edge">
<title>node_0&#45;&gt;node_8</title>
<path fill="none" stroke="#999999" d="M653.8,-231.7C663.3,-222.46 675.1,-210.98 685.26,-201.11"/>
<polygon fill="#999999" stroke="#999999" points="687.1,-202.74 690.41,-196.1 683.68,-199.23 687.1,-202.74"/>
</g>
<!-- node_2 -->
<g id="node4" class="node">
<title>node_2</title>
<path fill="#45b7d1" stroke="black" d="M479,-124C479,-124 395,-124 395,-124 389,-124 383,-118 383,-112 383,-112 383,-100 383,-100 383,-94 389,-88 395,-88 395,-88 479,-88 479,-88 485,-88 491,-94 491,-100 491,-100 491,-112 491,-112 491,-118 485,-124 479,-124"/>
<text text-anchor="middle" x="437" y="-103.8" font-family="Arial" font-size="9.00">approach_doorway</text>
</g>
<!-- node_1&#45;&gt;node_2 -->
<g id="edge2" class="edge">
<title>node_1&#45;&gt;node_2</title>
<path fill="none" stroke="#999999" d="M532.93,-159.88C515.25,-150.13 492.98,-137.86 474.35,-127.59"/>
<polygon fill="#999999" stroke="#999999" points="475.5,-125.42 468.19,-124.19 473.13,-129.71 475.5,-125.42"/>
</g>
<!-- node_5 -->
<g id="node7" class="node">
<title>node_5</title>
<path fill="#45b7d1" stroke="black" d="M614.5,-124C614.5,-124 525.5,-124 525.5,-124 519.5,-124 513.5,-118 513.5,-112 513.5,-112 513.5,-100 513.5,-100 513.5,-94 519.5,-88 525.5,-88 525.5,-88 614.5,-88 614.5,-88 620.5,-88 626.5,-94 626.5,-100 626.5,-100 626.5,-112 626.5,-112 626.5,-118 620.5,-124 614.5,-124"/>
<text text-anchor="middle" x="570" y="-103.8" font-family="Arial" font-size="9.00">pass_through_doorway</text>
</g>
<!-- node_1&#45;&gt;node_5 -->
<g id="edge5" class="edge">
<title>node_1&#45;&gt;node_5</title>
<path fill="none" stroke="#999999" d="M565.48,-159.7C566.22,-151.14 567.12,-140.66 567.92,-131.3"/>
<polygon fill="#999999" stroke="#999999" points="570.38,-131.29 568.53,-124.1 565.49,-130.87 570.38,-131.29"/>
</g>
<!-- node_3 -->
<g id="node5" class="node">
<title>node_3</title>
<path fill="#96ceb4" stroke="black" stroke-width="2" d="M310,-52C310,-52 188,-52 188,-52 182,-52 176,-46 176,-40 176,-40 176,-28 176,-28 176,-22 182,-16 188,-16 188,-16 310,-16 310,-16 316,-16 322,-22 322,-28 322,-28 322,-40 322,-40 322,-46 316,-52 310,-52"/>
<text text-anchor="middle" x="249" y="-31.8" font-family="Arial" font-size="9.00">walk_to_centerOf_doorwayGap</text>
</g>
<!-- node_2&#45;&gt;node_3 -->
<g id="edge3" class="edge">
<title>node_2&#45;&gt;node_3</title>
<path fill="none" stroke="#999999" d="M391.01,-87.88C363.94,-77.8 329.61,-65.01 301.48,-54.54"/>
<polygon fill="#999999" stroke="#999999" points="302.26,-52.21 294.84,-52.07 300.55,-56.81 302.26,-52.21"/>
</g>
<!-- node_4 -->
<g id="node6" class="node">
<title>node_4</title>
<path fill="#96ceb4" stroke="black" stroke-width="2" d="M141.5,-52C141.5,-52 28.5,-52 28.5,-52 22.5,-52 16.5,-46 16.5,-40 16.5,-40 16.5,-28 16.5,-28 16.5,-22 22.5,-16 28.5,-16 28.5,-16 141.5,-16 141.5,-16 147.5,-16 153.5,-22 153.5,-28 153.5,-28 153.5,-40 153.5,-40 153.5,-46 147.5,-52 141.5,-52"/>
<text text-anchor="middle" x="85" y="-31.8" font-family="Arial" font-size="9.00">adjust_position_to_alignWit...</text>
</g>
<!-- node_2&#45;&gt;node_4 -->
<g id="edge4" class="edge">
<title>node_2&#45;&gt;node_4</title>
<path fill="none" stroke="#999999" d="M382.89,-98.3C327.68,-90.95 239.74,-77.77 165,-60 157.74,-58.27 150.17,-56.24 142.72,-54.08"/>
<polygon fill="#999999" stroke="#999999" points="143.33,-51.7 135.92,-52.07 141.94,-56.4 143.33,-51.7"/>
</g>
<!-- node_6 -->
<g id="node8" class="node">
<title>node_6</title>
<path fill="#96ceb4" stroke="black" stroke-width="2" d="M462,-52C462,-52 356,-52 356,-52 350,-52 344,-46 344,-40 344,-40 344,-28 344,-28 344,-22 350,-16 356,-16 356,-16 462,-16 462,-16 468,-16 474,-22 474,-28 474,-28 474,-40 474,-40 474,-46 468,-52 462,-52"/>
<text text-anchor="middle" x="409" y="-31.8" font-family="Arial" font-size="9.00">walk_through_doorwayGap</text>
</g>
<!-- node_5&#45;&gt;node_6 -->
<g id="edge6" class="edge">
<title>node_5&#45;&gt;node_6</title>
<path fill="none" stroke="#999999" d="M530.61,-87.88C507.72,-77.92 478.77,-65.34 454.86,-54.94"/>
<polygon fill="#999999" stroke="#999999" points="455.65,-52.61 448.26,-52.07 453.7,-57.11 455.65,-52.61"/>
</g>
<!-- node_7 -->
<g id="node9" class="node">
<title>node_7</title>
<path fill="#96ceb4" stroke="black" stroke-width="2" d="M630,-52C630,-52 510,-52 510,-52 504,-52 498,-46 498,-40 498,-40 498,-28 498,-28 498,-22 504,-16 510,-16 510,-16 630,-16 630,-16 636,-16 642,-22 642,-28 642,-28 642,-40 642,-40 642,-46 636,-52 630,-52"/>
<text text-anchor="middle" x="570" y="-31.8" font-family="Arial" font-size="9.00">adjust_position_past_doorwa...</text>
</g>
<!-- node_5&#45;&gt;node_7 -->
<g id="edge7" class="edge">
<title>node_5&#45;&gt;node_7</title>
<path fill="none" stroke="#999999" d="M570,-87.7C570,-79.14 570,-68.66 570,-59.3"/>
<polygon fill="#999999" stroke="#999999" points="572.45,-59.1 570,-52.1 567.55,-59.1 572.45,-59.1"/>
</g>
<!-- node_9 -->
<g id="node11" class="node">
<title>node_9</title>
<path fill="#45b7d1" stroke="black" d="M745,-124C745,-124 661,-124 661,-124 655,-124 649,-118 649,-112 649,-112 649,-100 649,-100 649,-94 655,-88 661,-88 661,-88 745,-88 745,-88 751,-88 757,-94 757,-100 757,-100 757,-112 757,-112 757,-118 751,-124 745,-124"/>
<text text-anchor="middle" x="703" y="-103.8" font-family="Arial" font-size="9.00">approach_smallBlock</text>
</g>
<!-- node_8&#45;&gt;node_9 -->
<g id="edge9" class="edge">
<title>node_8&#45;&gt;node_9</title>
<path fill="none" stroke="#999999" d="M706.76,-159.7C706.15,-151.14 705.4,-140.66 704.74,-131.3"/>
<polygon fill="#999999" stroke="#999999" points="707.16,-130.91 704.22,-124.1 702.28,-131.26 707.16,-130.91"/>
</g>
<!-- node_12 -->
<g id="node14" class="node">
<title>node_12</title>
<path fill="#45b7d1" stroke="black" d="M971,-124C971,-124 887,-124 887,-124 881,-124 875,-118 875,-112 875,-112 875,-100 875,-100 875,-94 881,-88 887,-88 887,-88 971,-88 971,-88 977,-88 983,-94 983,-100 983,-100 983,-112 983,-112 983,-118 977,-124 971,-124"/>
<text text-anchor="middle" x="929" y="-103.8" font-family="Arial" font-size="9.00">reach_smallBlock</text>
</g>
<!-- node_8&#45;&gt;node_12 -->
<g id="edge12" class="edge">
<title>node_8&#45;&gt;node_12</title>
<path fill="none" stroke="#999999" d="M761.78,-159.97C793.87,-149.8 834.71,-136.87 868,-126.32"/>
<polygon fill="#999999" stroke="#999999" points="869.05,-128.56 874.98,-124.11 867.57,-123.89 869.05,-128.56"/>
</g>
<!-- node_10 -->
<g id="node12" class="node">
<title>node_10</title>
<path fill="#96ceb4" stroke="black" stroke-width="2" d="M774,-52C774,-52 676,-52 676,-52 670,-52 664,-46 664,-40 664,-40 664,-28 664,-28 664,-22 670,-16 676,-16 676,-16 774,-16 774,-16 780,-16 786,-22 786,-28 786,-28 786,-40 786,-40 786,-46 780,-52 774,-52"/>
<text text-anchor="middle" x="725" y="-31.8" font-family="Arial" font-size="9.00">walk_towards_smallBlock</text>
</g>
<!-- node_9&#45;&gt;node_10 -->
<g id="edge10" class="edge">
<title>node_9&#45;&gt;node_10</title>
<path fill="none" stroke="#999999" d="M708.44,-87.7C711.16,-79.05 714.49,-68.45 717.45,-59.03"/>
<polygon fill="#999999" stroke="#999999" points="719.86,-59.52 719.62,-52.1 715.19,-58.05 719.86,-59.52"/>
</g>
<!-- node_11 -->
<g id="node13" class="node">
<title>node_11</title>
<path fill="#96ceb4" stroke="black" stroke-width="2" d="M933.5,-52C933.5,-52 820.5,-52 820.5,-52 814.5,-52 808.5,-46 808.5,-40 808.5,-40 808.5,-28 808.5,-28 808.5,-22 814.5,-16 820.5,-16 820.5,-16 933.5,-16 933.5,-16 939.5,-16 945.5,-22 945.5,-28 945.5,-28 945.5,-40 945.5,-40 945.5,-46 939.5,-52 933.5,-52"/>
<text text-anchor="middle" x="877" y="-31.8" font-family="Arial" font-size="9.00">adjust_position_to_alignWit...</text>
</g>
<!-- node_9&#45;&gt;node_11 -->
<g id="edge11" class="edge">
<title>node_9&#45;&gt;node_11</title>
<path fill="none" stroke="#999999" d="M745.57,-87.88C770.41,-77.88 801.86,-65.23 827.77,-54.81"/>
<polygon fill="#999999" stroke="#999999" points="828.99,-56.95 834.57,-52.07 827.16,-52.41 828.99,-56.95"/>
</g>
<!-- node_13 -->
<g id="node15" class="node">
<title>node_13</title>
<path fill="#96ceb4" stroke="black" stroke-width="2" d="M1066,-52C1066,-52 982,-52 982,-52 976,-52 970,-46 970,-40 970,-40 970,-28 970,-28 970,-22 976,-16 982,-16 982,-16 1066,-16 1066,-16 1072,-16 1078,-22 1078,-28 1078,-28 1078,-40 1078,-40 1078,-46 1072,-52 1066,-52"/>
<text text-anchor="middle" x="1024" y="-31.8" font-family="Arial" font-size="9.00">walk_to_smallBlock</text>
</g>
<!-- node_12&#45;&gt;node_13 -->
<g id="edge13" class="edge">
<title>node_12&#45;&gt;node_13</title>
<path fill="none" stroke="#999999" d="M952.48,-87.7C965.37,-78.2 981.45,-66.35 995.1,-56.29"/>
<polygon fill="#999999" stroke="#999999" points="996.6,-58.23 1000.79,-52.1 993.7,-54.28 996.6,-58.23"/>
</g>
</g>
</svg>
