<?xml version="1.0" encoding="UTF-8" standalone="no"?>
<!DOCTYPE svg PUBLIC "-//W3C//DTD SVG 1.1//EN"
 "http://www.w3.org/Graphics/SVG/1.1/DTD/svg11.dtd">
<!-- Generated by graphviz version 2.43.0 (0)
 -->
<!-- Title: %3 Pages: 1 -->
<svg width="2600pt" height="2350pt"
 viewBox="0.00 0.00 624.00 564.00" xmlns="http://www.w3.org/2000/svg" xmlns:xlink="http://www.w3.org/1999/xlink">
<g id="graph0" class="graph" transform="scale(4.17 4.17) rotate(0) translate(4 560)">
<title>%3</title>
<polygon fill="white" stroke="transparent" points="-4,4 -4,-560 620,-560 620,4 -4,4"/>
<!-- title -->
<g id="node1" class="node">
<title>title</title>
<path fill="lightgrey" stroke="transparent" d="M377,-556C377,-556 12,-556 12,-556 6,-556 0,-550 0,-544 0,-544 0,-532 0,-532 0,-526 6,-520 12,-520 12,-520 377,-520 377,-520 383,-520 389,-526 389,-532 389,-532 389,-544 389,-544 389,-550 383,-556 377,-556"/>
<text text-anchor="middle" x="194.5" y="-541.4" font-family="Arial Bold" font-size="12.00">doorway_and_goal_seed456</text>
<text text-anchor="middle" x="194.5" y="-528.4" font-family="Arial Bold" font-size="12.00">The robot should walk through the doorway formed by two heav...</text>
</g>
<!-- node_0 -->
<g id="node2" class="node">
<title>node_0</title>
<path fill="#ff6b6b" stroke="black" d="M546.5,-556C546.5,-556 430.5,-556 430.5,-556 424.5,-556 418.5,-550 418.5,-544 418.5,-544 418.5,-532 418.5,-532 418.5,-526 424.5,-520 430.5,-520 430.5,-520 546.5,-520 546.5,-520 552.5,-520 558.5,-526 558.5,-532 558.5,-532 558.5,-544 558.5,-544 558.5,-550 552.5,-556 546.5,-556"/>
<text text-anchor="middle" x="488.5" y="-535.5" font-family="Arial" font-size="10.00">doorway_and_goal_seed456</text>
</g>
<!-- node_1 -->
<g id="node3" class="node">
<title>node_1</title>
<path fill="#4ecdc4" stroke="black" d="M468,-462C468,-462 359,-462 359,-462 353,-462 347,-456 347,-450 347,-450 347,-438 347,-438 347,-432 353,-426 359,-426 359,-426 468,-426 468,-426 474,-426 480,-432 480,-438 480,-438 480,-450 480,-450 480,-456 474,-462 468,-462"/>
<text text-anchor="middle" x="413.5" y="-441.5" font-family="Arial" font-size="10.00">navigate_through_doorway</text>
</g>
<!-- node_0&#45;&gt;node_1 -->
<g id="edge1" class="edge">
<title>node_0&#45;&gt;node_1</title>
<path fill="none" stroke="#999999" d="M474.39,-519.7C462.45,-505.05 445.24,-483.93 432.16,-467.89"/>
<polygon fill="#999999" stroke="#999999" points="433.87,-466.1 427.54,-462.23 430.07,-469.2 433.87,-466.1"/>
</g>
<!-- node_4 -->
<g id="node6" class="node">
<title>node_4</title>
<path fill="#4ecdc4" stroke="black" d="M604,-462C604,-462 521,-462 521,-462 515,-462 509,-456 509,-450 509,-450 509,-438 509,-438 509,-432 515,-426 521,-426 521,-426 604,-426 604,-426 610,-426 616,-432 616,-438 616,-438 616,-450 616,-450 616,-456 610,-462 604,-462"/>
<text text-anchor="middle" x="562.5" y="-441.5" font-family="Arial" font-size="10.00">walk_to_small_block</text>
</g>
<!-- node_0&#45;&gt;node_4 -->
<g id="edge4" class="edge">
<title>node_0&#45;&gt;node_4</title>
<path fill="none" stroke="#999999" d="M502.42,-519.7C514.2,-505.05 531.18,-483.93 544.09,-467.89"/>
<polygon fill="#999999" stroke="#999999" points="546.17,-469.22 548.64,-462.23 542.35,-466.15 546.17,-469.22"/>
</g>
<!-- node_2 -->
<g id="node4" class="node">
<title>node_2</title>
<path fill="#45b7d1" stroke="black" d="M426.5,-368C426.5,-368 352.5,-368 352.5,-368 346.5,-368 340.5,-362 340.5,-356 340.5,-356 340.5,-344 340.5,-344 340.5,-338 346.5,-332 352.5,-332 352.5,-332 426.5,-332 426.5,-332 432.5,-332 438.5,-338 438.5,-344 438.5,-344 438.5,-356 438.5,-356 438.5,-362 432.5,-368 426.5,-368"/>
<text text-anchor="middle" x="389.5" y="-347.5" font-family="Arial" font-size="10.00">approach_doorway</text>
</g>
<!-- node_1&#45;&gt;node_2 -->
<g id="edge2" class="edge">
<title>node_1&#45;&gt;node_2</title>
<path fill="none" stroke="#999999" d="M408.99,-425.7C405.26,-411.43 399.95,-391.04 395.8,-375.16"/>
<polygon fill="#999999" stroke="#999999" points="398.13,-374.38 393.99,-368.23 393.39,-375.62 398.13,-374.38"/>
</g>
<!-- node_3 -->
<g id="node5" class="node">
<title>node_3</title>
<path fill="#45b7d1" stroke="black" d="M506.5,-202C506.5,-202 414.5,-202 414.5,-202 408.5,-202 402.5,-196 402.5,-190 402.5,-190 402.5,-178 402.5,-178 402.5,-172 408.5,-166 414.5,-166 414.5,-166 506.5,-166 506.5,-166 512.5,-166 518.5,-172 518.5,-178 518.5,-178 518.5,-190 518.5,-190 518.5,-196 512.5,-202 506.5,-202"/>
<text text-anchor="middle" x="460.5" y="-181.5" font-family="Arial" font-size="10.00">walk_through_doorway</text>
</g>
<!-- node_1&#45;&gt;node_3 -->
<g id="edge3" class="edge">
<title>node_1&#45;&gt;node_3</title>
<path fill="none" stroke="#999999" d="M425.28,-425.72C434.56,-411.06 446.84,-389.12 452.5,-368 467.32,-312.65 465.24,-244.56 462.71,-209.08"/>
<polygon fill="#999999" stroke="#999999" points="465.15,-208.81 462.17,-202.02 460.26,-209.19 465.15,-208.81"/>
</g>
<!-- tier_spacer_2_1 -->
<!-- node_2&#45;&gt;tier_spacer_2_1 -->
<!-- tier_spacer_2_2 -->
<!-- node_3&#45;&gt;tier_spacer_2_2 -->
<!-- node_5 -->
<g id="node7" class="node">
<title>node_5</title>
<path fill="#45b7d1" stroke="black" d="M553,-36C553,-36 470,-36 470,-36 464,-36 458,-30 458,-24 458,-24 458,-12 458,-12 458,-6 464,0 470,0 470,0 553,0 553,0 559,0 565,-6 565,-12 565,-12 565,-24 565,-24 565,-30 559,-36 553,-36"/>
<text text-anchor="middle" x="511.5" y="-15.5" font-family="Arial" font-size="10.00">walk_to_small_block</text>
</g>
<!-- node_4&#45;&gt;node_5 -->
<g id="edge5" class="edge">
<title>node_4&#45;&gt;node_5</title>
<path fill="none" stroke="#999999" d="M562.5,-425.61C562.5,-394.16 562.5,-325.73 562.5,-268 562.5,-268 562.5,-268 562.5,-183 562.5,-131.16 538.98,-74.1 523.88,-42.81"/>
<polygon fill="#999999" stroke="#999999" points="525.91,-41.37 520.62,-36.17 521.51,-43.53 525.91,-41.37"/>
</g>
<!-- tier_spacer_2_1&#45;&gt;node_3 -->
<!-- tier_spacer_2_2&#45;&gt;node_5 -->
</g>
</svg>
