<?xml version="1.0" encoding="UTF-8" standalone="no"?>
<!DOCTYPE svg PUBLIC "-//W3C//DTD SVG 1.1//EN"
 "http://www.w3.org/Graphics/SVG/1.1/DTD/svg11.dtd">
<!-- Generated by graphviz version 2.43.0 (0)
 -->
<!-- Title: %3 Pages: 1 -->
<svg width="3600pt" height="2288pt"
 viewBox="0.00 0.00 864.00 549.23" xmlns="http://www.w3.org/2000/svg" xmlns:xlink="http://www.w3.org/1999/xlink">
<g id="graph0" class="graph" transform="scale(3.6 3.6) rotate(0) translate(4 632)">
<title>%3</title>
<polygon fill="white" stroke="transparent" points="-4,4 -4,-632 996.5,-632 996.5,4 -4,4"/>
<!-- title -->
<g id="node1" class="node">
<title>title</title>
<path fill="lightgrey" stroke="transparent" d="M385.5,-628C385.5,-628 42.5,-628 42.5,-628 36.5,-628 30.5,-622 30.5,-616 30.5,-616 30.5,-604 30.5,-604 30.5,-598 36.5,-592 42.5,-592 42.5,-592 385.5,-592 385.5,-592 391.5,-592 397.5,-598 397.5,-604 397.5,-604 397.5,-616 397.5,-616 397.5,-622 391.5,-628 385.5,-628"/>
<text text-anchor="middle" x="214" y="-613.4" font-family="Arial Bold" font-size="12.00">knock_over_pillars_seed42</text>
<text text-anchor="middle" x="214" y="-600.4" font-family="Arial Bold" font-size="12.00">The robot should walk to each of the objects in turn and kno...</text>
</g>
<!-- node_0 -->
<g id="node2" class="node">
<title>node_0</title>
<path fill="#ff6b6b" stroke="black" d="M549,-628C549,-628 439,-628 439,-628 433,-628 427,-622 427,-616 427,-616 427,-604 427,-604 427,-598 433,-592 439,-592 439,-592 549,-592 549,-592 555,-592 561,-598 561,-604 561,-604 561,-616 561,-616 561,-622 555,-628 549,-628"/>
<text text-anchor="middle" x="494" y="-607.5" font-family="Arial" font-size="10.00">knock_over_pillars_seed42</text>
</g>
<!-- node_1 -->
<g id="node3" class="node">
<title>node_1</title>
<path fill="#4ecdc4" stroke="black" d="M116,-534C116,-534 12,-534 12,-534 6,-534 0,-528 0,-522 0,-522 0,-510 0,-510 0,-504 6,-498 12,-498 12,-498 116,-498 116,-498 122,-498 128,-504 128,-510 128,-510 128,-522 128,-522 128,-528 122,-534 116,-534"/>
<text text-anchor="middle" x="64" y="-513.5" font-family="Arial" font-size="10.00">walk_to_cylinderColumn1</text>
</g>
<!-- node_0&#45;&gt;node_1 -->
<g id="edge1" class="edge">
<title>node_0&#45;&gt;node_1</title>
<path fill="none" stroke="#999999" d="M426.7,-594.65C356.04,-579.58 241.7,-555.17 143,-534 140.45,-533.45 137.85,-532.9 135.23,-532.33"/>
<polygon fill="#999999" stroke="#999999" points="135.6,-529.91 128.24,-530.83 134.57,-534.7 135.6,-529.91"/>
</g>
<!-- node_2 -->
<g id="node4" class="node">
<title>node_2</title>
<path fill="#4ecdc4" stroke="black" d="M290.5,-534C290.5,-534 169.5,-534 169.5,-534 163.5,-534 157.5,-528 157.5,-522 157.5,-522 157.5,-510 157.5,-510 157.5,-504 163.5,-498 169.5,-498 169.5,-498 290.5,-498 290.5,-498 296.5,-498 302.5,-504 302.5,-510 302.5,-510 302.5,-522 302.5,-522 302.5,-528 296.5,-534 290.5,-534"/>
<text text-anchor="middle" x="230" y="-513.5" font-family="Arial" font-size="10.00">knock_over_cylinderColumn1</text>
</g>
<!-- node_0&#45;&gt;node_2 -->
<g id="edge2" class="edge">
<title>node_0&#45;&gt;node_2</title>
<path fill="none" stroke="#999999" d="M444.96,-591.91C399.91,-576.21 333.17,-552.95 286.03,-536.53"/>
<polygon fill="#999999" stroke="#999999" points="286.64,-534.14 279.22,-534.15 285.03,-538.77 286.64,-534.14"/>
</g>
<!-- node_3 -->
<g id="node5" class="node">
<title>node_3</title>
<path fill="#4ecdc4" stroke="black" d="M234,-368C234,-368 130,-368 130,-368 124,-368 118,-362 118,-356 118,-356 118,-344 118,-344 118,-338 124,-332 130,-332 130,-332 234,-332 234,-332 240,-332 246,-338 246,-344 246,-344 246,-356 246,-356 246,-362 240,-368 234,-368"/>
<text text-anchor="middle" x="182" y="-347.5" font-family="Arial" font-size="10.00">walk_to_cylinderColumn2</text>
</g>
<!-- node_0&#45;&gt;node_3 -->
<g id="edge3" class="edge">
<title>node_0&#45;&gt;node_3</title>
<path fill="none" stroke="#999999" d="M473.04,-591.67C417.98,-546.14 269.29,-423.18 208.47,-372.89"/>
<polygon fill="#999999" stroke="#999999" points="209.82,-370.83 202.86,-368.25 206.7,-374.6 209.82,-370.83"/>
</g>
<!-- node_4 -->
<g id="node6" class="node">
<title>node_4</title>
<path fill="#4ecdc4" stroke="black" d="M408.5,-368C408.5,-368 287.5,-368 287.5,-368 281.5,-368 275.5,-362 275.5,-356 275.5,-356 275.5,-344 275.5,-344 275.5,-338 281.5,-332 287.5,-332 287.5,-332 408.5,-332 408.5,-332 414.5,-332 420.5,-338 420.5,-344 420.5,-344 420.5,-356 420.5,-356 420.5,-362 414.5,-368 408.5,-368"/>
<text text-anchor="middle" x="348" y="-347.5" font-family="Arial" font-size="10.00">knock_over_cylinderColumn2</text>
</g>
<!-- node_0&#45;&gt;node_4 -->
<g id="edge4" class="edge">
<title>node_0&#45;&gt;node_4</title>
<path fill="none" stroke="#999999" d="M481.45,-591.8C470.74,-576.84 455.18,-554.42 443,-534 409.81,-478.38 376.08,-409.97 359.15,-374.63"/>
<polygon fill="#999999" stroke="#999999" points="361.22,-373.28 356,-368.01 356.8,-375.39 361.22,-373.28"/>
</g>
<!-- node_5 -->
<g id="node7" class="node">
<title>node_5</title>
<path fill="#4ecdc4" stroke="black" d="M352,-202C352,-202 248,-202 248,-202 242,-202 236,-196 236,-190 236,-190 236,-178 236,-178 236,-172 242,-166 248,-166 248,-166 352,-166 352,-166 358,-166 364,-172 364,-178 364,-178 364,-190 364,-190 364,-196 358,-202 352,-202"/>
<text text-anchor="middle" x="300" y="-181.5" font-family="Arial" font-size="10.00">walk_to_cylinderColumn3</text>
</g>
<!-- node_0&#45;&gt;node_5 -->
<g id="edge5" class="edge">
<title>node_0&#45;&gt;node_5</title>
<path fill="none" stroke="#999999" d="M489.21,-591.77C480.97,-560.57 465,-492.51 465,-434 465,-434 465,-434 465,-349 465,-280.78 393.16,-231.18 344.29,-205.34"/>
<polygon fill="#999999" stroke="#999999" points="345.2,-203.05 337.85,-202 342.94,-207.4 345.2,-203.05"/>
</g>
<!-- node_6 -->
<g id="node8" class="node">
<title>node_6</title>
<path fill="#4ecdc4" stroke="black" d="M526.5,-202C526.5,-202 405.5,-202 405.5,-202 399.5,-202 393.5,-196 393.5,-190 393.5,-190 393.5,-178 393.5,-178 393.5,-172 399.5,-166 405.5,-166 405.5,-166 526.5,-166 526.5,-166 532.5,-166 538.5,-172 538.5,-178 538.5,-178 538.5,-190 538.5,-190 538.5,-196 532.5,-202 526.5,-202"/>
<text text-anchor="middle" x="466" y="-181.5" font-family="Arial" font-size="10.00">knock_over_cylinderColumn3</text>
</g>
<!-- node_0&#45;&gt;node_6 -->
<g id="edge6" class="edge">
<title>node_0&#45;&gt;node_6</title>
<path fill="none" stroke="#999999" d="M498.95,-591.78C507.47,-560.6 524,-492.57 524,-434 524,-434 524,-434 524,-349 524,-296.28 497.03,-239.19 479.87,-208.21"/>
<polygon fill="#999999" stroke="#999999" points="481.94,-206.9 476.37,-202.01 477.67,-209.31 481.94,-206.9"/>
</g>
<!-- node_7 -->
<g id="node9" class="node">
<title>node_7</title>
<path fill="#4ecdc4" stroke="black" d="M457,-36C457,-36 353,-36 353,-36 347,-36 341,-30 341,-24 341,-24 341,-12 341,-12 341,-6 347,0 353,0 353,0 457,0 457,0 463,0 469,-6 469,-12 469,-12 469,-24 469,-24 469,-30 463,-36 457,-36"/>
<text text-anchor="middle" x="405" y="-15.5" font-family="Arial" font-size="10.00">walk_to_cylinderColumn4</text>
</g>
<!-- node_0&#45;&gt;node_7 -->
<g id="edge7" class="edge">
<title>node_0&#45;&gt;node_7</title>
<path fill="none" stroke="#999999" d="M509.91,-591.6C535.51,-561.74 583,-497.74 583,-434 583,-434 583,-434 583,-183 583,-112.88 507.38,-64.5 454.71,-39.3"/>
<polygon fill="#999999" stroke="#999999" points="455.47,-36.95 448.09,-36.2 453.39,-41.39 455.47,-36.95"/>
</g>
<!-- node_8 -->
<g id="node10" class="node">
<title>node_8</title>
<path fill="#4ecdc4" stroke="black" d="M648.5,-36C648.5,-36 527.5,-36 527.5,-36 521.5,-36 515.5,-30 515.5,-24 515.5,-24 515.5,-12 515.5,-12 515.5,-6 521.5,0 527.5,0 527.5,0 648.5,0 648.5,0 654.5,0 660.5,-6 660.5,-12 660.5,-12 660.5,-24 660.5,-24 660.5,-30 654.5,-36 648.5,-36"/>
<text text-anchor="middle" x="588" y="-15.5" font-family="Arial" font-size="10.00">knock_over_cylinderColumn4</text>
</g>
<!-- node_0&#45;&gt;node_8 -->
<g id="edge8" class="edge">
<title>node_0&#45;&gt;node_8</title>
<path fill="none" stroke="#999999" d="M523.59,-591.96C566.78,-564.64 642,-506.62 642,-434 642,-434 642,-434 642,-183 642,-130.67 616.89,-73.44 600.91,-42.33"/>
<polygon fill="#999999" stroke="#999999" points="603.07,-41.17 597.65,-36.1 598.73,-43.44 603.07,-41.17"/>
</g>
<!-- node_9 -->
<g id="node11" class="node">
<title>node_9</title>
<path fill="#4ecdc4" stroke="black" d="M806,-36C806,-36 702,-36 702,-36 696,-36 690,-30 690,-24 690,-24 690,-12 690,-12 690,-6 696,0 702,0 702,0 806,0 806,0 812,0 818,-6 818,-12 818,-12 818,-24 818,-24 818,-30 812,-36 806,-36"/>
<text text-anchor="middle" x="754" y="-15.5" font-family="Arial" font-size="10.00">walk_to_cylinderColumn5</text>
</g>
<!-- node_0&#45;&gt;node_9 -->
<g id="edge9" class="edge">
<title>node_0&#45;&gt;node_9</title>
<path fill="none" stroke="#999999" d="M561.29,-594.61C638.33,-573.73 754,-526.91 754,-434 754,-434 754,-434 754,-183 754,-133.44 754,-75.47 754,-43.42"/>
<polygon fill="#999999" stroke="#999999" points="756.45,-43.24 754,-36.24 751.55,-43.24 756.45,-43.24"/>
</g>
<!-- node_10 -->
<g id="node12" class="node">
<title>node_10</title>
<path fill="#4ecdc4" stroke="black" d="M980.5,-36C980.5,-36 859.5,-36 859.5,-36 853.5,-36 847.5,-30 847.5,-24 847.5,-24 847.5,-12 847.5,-12 847.5,-6 853.5,0 859.5,0 859.5,0 980.5,0 980.5,0 986.5,0 992.5,-6 992.5,-12 992.5,-12 992.5,-24 992.5,-24 992.5,-30 986.5,-36 980.5,-36"/>
<text text-anchor="middle" x="920" y="-15.5" font-family="Arial" font-size="10.00">knock_over_cylinderColumn5</text>
</g>
<!-- node_0&#45;&gt;node_10 -->
<g id="edge10" class="edge">
<title>node_0&#45;&gt;node_10</title>
<path fill="none" stroke="#999999" d="M561.03,-595.95C681,-570.66 920,-510.66 920,-434 920,-434 920,-434 920,-183 920,-133.44 920,-75.47 920,-43.42"/>
<polygon fill="#999999" stroke="#999999" points="922.45,-43.24 920,-36.24 917.55,-43.24 922.45,-43.24"/>
</g>
<!-- tier_spacer_1_1 -->
<!-- node_1&#45;&gt;tier_spacer_1_1 -->
<!-- tier_spacer_1_2 -->
<!-- node_3&#45;&gt;tier_spacer_1_2 -->
<!-- tier_spacer_1_3 -->
<!-- node_5&#45;&gt;tier_spacer_1_3 -->
<!-- tier_spacer_1_1&#45;&gt;node_3 -->
<!-- tier_spacer_1_2&#45;&gt;node_5 -->
<!-- tier_spacer_1_3&#45;&gt;node_7 -->
</g>
</svg>
