<?xml version="1.0" encoding="UTF-8" standalone="no"?>
<!DOCTYPE svg PUBLIC "-//W3C//DTD SVG 1.1//EN"
 "http://www.w3.org/Graphics/SVG/1.1/DTD/svg11.dtd">
<!-- Generated by graphviz version 2.43.0 (0)
 -->
<!-- Title: %3 Pages: 1 -->
<svg width="2306pt" height="183pt"
 viewBox="0.00 0.00 553.50 44.00" xmlns="http://www.w3.org/2000/svg" xmlns:xlink="http://www.w3.org/1999/xlink">
<g id="graph0" class="graph" transform="scale(4.17 4.17) rotate(0) translate(4 40)">
<title>%3</title>
<polygon fill="white" stroke="transparent" points="-4,4 -4,-40 549.5,-40 549.5,4 -4,4"/>
<!-- title -->
<g id="node1" class="node">
<title>title</title>
<path fill="lightgrey" stroke="transparent" d="M356,-36C356,-36 12,-36 12,-36 6,-36 0,-30 0,-24 0,-24 0,-12 0,-12 0,-6 6,0 12,0 12,0 356,0 356,0 362,0 368,-6 368,-12 368,-12 368,-24 368,-24 368,-30 362,-36 356,-36"/>
<text text-anchor="middle" x="184" y="-21.4" font-family="Arial Bold" font-size="12.00">knock_over_pillars_seed42</text>
<text text-anchor="middle" x="184" y="-8.4" font-family="Arial Bold" font-size="12.00">The robot should sequentially approach each of the five Cyli...</text>
</g>
<!-- node_0 -->
<g id="node2" class="node">
<title>node_0</title>
<path fill="#ff6b6b" stroke="black" d="M533.5,-36C533.5,-36 402.5,-36 402.5,-36 396.5,-36 390.5,-30 390.5,-24 390.5,-24 390.5,-12 390.5,-12 390.5,-6 396.5,0 402.5,0 402.5,0 533.5,0 533.5,0 539.5,0 545.5,-6 545.5,-12 545.5,-12 545.5,-24 545.5,-24 545.5,-30 539.5,-36 533.5,-36"/>
<text text-anchor="middle" x="468" y="-15.8" font-family="Arial" font-size="9.00">knock_over_all_CylinderColumns</text>
</g>
</g>
</svg>
