<?xml version="1.0" encoding="UTF-8" standalone="no"?>
<!DOCTYPE svg PUBLIC "-//W3C//DTD SVG 1.1//EN"
 "http://www.w3.org/Graphics/SVG/1.1/DTD/svg11.dtd">
<!-- Generated by graphviz version 2.43.0 (0)
 -->
<!-- Title: %3 Pages: 1 -->
<svg width="2275pt" height="183pt"
 viewBox="0.00 0.00 546.00 44.00" xmlns="http://www.w3.org/2000/svg" xmlns:xlink="http://www.w3.org/1999/xlink">
<g id="graph0" class="graph" transform="scale(4.17 4.17) rotate(0) translate(4 40)">
<title>%3</title>
<polygon fill="white" stroke="transparent" points="-4,4 -4,-40 542,-40 542,4 -4,4"/>
<!-- title -->
<g id="node1" class="node">
<title>title</title>
<path fill="lightgrey" stroke="transparent" d="M351,-36C351,-36 12,-36 12,-36 6,-36 0,-30 0,-24 0,-24 0,-12 0,-12 0,-6 6,0 12,0 12,0 351,0 351,0 357,0 363,-6 363,-12 363,-12 363,-24 363,-24 363,-30 357,-36 351,-36"/>
<text text-anchor="middle" x="181.5" y="-21.4" font-family="Arial Bold" font-size="12.00">knock_over_pillars_seed123</text>
<text text-anchor="middle" x="181.5" y="-8.4" font-family="Arial Bold" font-size="12.00">The robot should walk to each of the five cylinder columns i...</text>
</g>
<!-- node_0 -->
<g id="node2" class="node">
<title>node_0</title>
<path fill="#ff6b6b" stroke="black" d="M526,-36C526,-36 397,-36 397,-36 391,-36 385,-30 385,-24 385,-24 385,-12 385,-12 385,-6 391,0 397,0 397,0 526,0 526,0 532,0 538,-6 538,-12 538,-12 538,-24 538,-24 538,-30 532,-36 526,-36"/>
<text text-anchor="middle" x="461.5" y="-15.8" font-family="Arial" font-size="9.00">knock_over_all_cylinderColumns</text>
</g>
</g>
</svg>
