<?xml version="1.0" encoding="UTF-8" standalone="no"?>
<!DOCTYPE svg PUBLIC "-//W3C//DTD SVG 1.1//EN"
 "http://www.w3.org/Graphics/SVG/1.1/DTD/svg11.dtd">
<!-- Generated by graphviz version 2.43.0 (0)
 -->
<!-- Title: %3 Pages: 1 -->
<svg width="3000pt" height="156pt"
 viewBox="0.00 0.00 720.00 37.40" xmlns="http://www.w3.org/2000/svg" xmlns:xlink="http://www.w3.org/1999/xlink">
<g id="graph0" class="graph" transform="scale(1.18 1.18) rotate(0) translate(4 128)">
<title>%3</title>
<polygon fill="white" stroke="transparent" points="-4,4 -4,-128 2537,-128 2537,4 -4,4"/>
<g id="clust1" class="cluster">
<title>cluster_l1_g0</title>
</g>
<g id="clust2" class="cluster">
<title>cluster_l1_g1</title>
</g>
<g id="clust3" class="cluster">
<title>cluster_l1_g2</title>
</g>
<g id="clust4" class="cluster">
<title>cluster_l1_g3</title>
</g>
<g id="clust5" class="cluster">
<title>cluster_l1_g4</title>
</g>
<!-- title -->
<g id="node1" class="node">
<title>title</title>
<path fill="lightgrey" stroke="transparent" d="M1167.5,-124C1167.5,-124 828.5,-124 828.5,-124 822.5,-124 816.5,-118 816.5,-112 816.5,-112 816.5,-100 816.5,-100 816.5,-94 822.5,-88 828.5,-88 828.5,-88 1167.5,-88 1167.5,-88 1173.5,-88 1179.5,-94 1179.5,-100 1179.5,-100 1179.5,-112 1179.5,-112 1179.5,-118 1173.5,-124 1167.5,-124"/>
<text text-anchor="middle" x="998" y="-109.4" font-family="Arial Bold" font-size="12.00">knock_over_pillars_seed456</text>
<text text-anchor="middle" x="998" y="-96.4" font-family="Arial Bold" font-size="12.00">The robot should walk to each of the five cylinder columns i...</text>
</g>
<!-- node_0 -->
<g id="node2" class="node">
<title>node_0</title>
<path fill="#ff6b6b" stroke="black" d="M1324.5,-124C1324.5,-124 1213.5,-124 1213.5,-124 1207.5,-124 1201.5,-118 1201.5,-112 1201.5,-112 1201.5,-100 1201.5,-100 1201.5,-94 1207.5,-88 1213.5,-88 1213.5,-88 1324.5,-88 1324.5,-88 1330.5,-88 1336.5,-94 1336.5,-100 1336.5,-100 1336.5,-112 1336.5,-112 1336.5,-118 1330.5,-124 1324.5,-124"/>
<text text-anchor="middle" x="1269" y="-103.8" font-family="Arial" font-size="9.00">knock_over_pillars_seed456</text>
</g>
<!-- node_1 -->
<g id="node3" class="node">
<title>node_1</title>
<path fill="#4ecdc4" stroke="black" d="M484.5,-52C484.5,-52 365.5,-52 365.5,-52 359.5,-52 353.5,-46 353.5,-40 353.5,-40 353.5,-28 353.5,-28 353.5,-22 359.5,-16 365.5,-16 365.5,-16 484.5,-16 484.5,-16 490.5,-16 496.5,-22 496.5,-28 496.5,-28 496.5,-40 496.5,-40 496.5,-46 490.5,-52 484.5,-52"/>
<text text-anchor="middle" x="425" y="-31.8" font-family="Arial" font-size="9.00">walk_to_nearestStandingCyli...</text>
</g>
<!-- node_0&#45;&gt;node_1 -->
<g id="edge1" class="edge">
<title>node_0&#45;&gt;node_1</title>
<path fill="none" stroke="#999999" d="M1201.48,-89.53C1197.95,-88.96 1194.44,-88.44 1191,-88 889.67,-49.28 807.6,-110.43 508,-60 499.13,-58.51 489.88,-56.35 480.91,-53.92"/>
<polygon fill="#999999" stroke="#999999" points="481.51,-51.54 474.11,-52.01 480.19,-56.26 481.51,-51.54"/>
</g>
<!-- node_2 -->
<g id="node4" class="node">
<title>node_2</title>
<path fill="#4ecdc4" stroke="black" d="M319.5,-52C319.5,-52 198.5,-52 198.5,-52 192.5,-52 186.5,-46 186.5,-40 186.5,-40 186.5,-28 186.5,-28 186.5,-22 192.5,-16 198.5,-16 198.5,-16 319.5,-16 319.5,-16 325.5,-16 331.5,-22 331.5,-28 331.5,-28 331.5,-40 331.5,-40 331.5,-46 325.5,-52 319.5,-52"/>
<text text-anchor="middle" x="259" y="-31.8" font-family="Arial" font-size="9.00">orient_body_to_nearestStand...</text>
</g>
<!-- node_0&#45;&gt;node_2 -->
<g id="edge2" class="edge">
<title>node_0&#45;&gt;node_2</title>
<path fill="none" stroke="#999999" d="M1201.49,-89.5C1197.95,-88.93 1194.44,-88.43 1191,-88 816.79,-41.43 715.21,-120.5 343,-60 334.02,-58.54 324.66,-56.4 315.58,-53.98"/>
<polygon fill="#999999" stroke="#999999" points="316.1,-51.58 308.7,-52.07 314.8,-56.3 316.1,-51.58"/>
</g>
<!-- node_3 -->
<g id="node5" class="node">
<title>node_3</title>
<path fill="#4ecdc4" stroke="black" d="M152,-52C152,-52 28,-52 28,-52 22,-52 16,-46 16,-40 16,-40 16,-28 16,-28 16,-22 22,-16 28,-16 28,-16 152,-16 152,-16 158,-16 164,-22 164,-28 164,-28 164,-40 164,-40 164,-46 158,-52 152,-52"/>
<text text-anchor="middle" x="90" y="-31.8" font-family="Arial" font-size="9.00">push_nearestStandingCylinde...</text>
</g>
<!-- node_0&#45;&gt;node_3 -->
<g id="edge3" class="edge">
<title>node_0&#45;&gt;node_3</title>
<path fill="none" stroke="#999999" d="M1201.49,-89.48C1197.95,-88.92 1194.44,-88.42 1191,-88 743.02,-33.49 621.86,-129.78 176,-60 166.73,-58.55 157.05,-56.39 147.67,-53.94"/>
<polygon fill="#999999" stroke="#999999" points="148.3,-51.58 140.9,-52.12 147.02,-56.31 148.3,-51.58"/>
</g>
<!-- node_4 -->
<g id="node6" class="node">
<title>node_4</title>
<path fill="#4ecdc4" stroke="black" d="M989.5,-52C989.5,-52 870.5,-52 870.5,-52 864.5,-52 858.5,-46 858.5,-40 858.5,-40 858.5,-28 858.5,-28 858.5,-22 864.5,-16 870.5,-16 870.5,-16 989.5,-16 989.5,-16 995.5,-16 1001.5,-22 1001.5,-28 1001.5,-28 1001.5,-40 1001.5,-40 1001.5,-46 995.5,-52 989.5,-52"/>
<text text-anchor="middle" x="930" y="-31.8" font-family="Arial" font-size="9.00">walk_to_nearestStandingCyli...</text>
</g>
<!-- node_0&#45;&gt;node_4 -->
<g id="edge4" class="edge">
<title>node_0&#45;&gt;node_4</title>
<path fill="none" stroke="#999999" d="M1201.41,-90.01C1197.89,-89.31 1194.41,-88.64 1191,-88 1112.29,-73.24 1091.08,-77.81 1013,-60 1005.47,-58.28 997.63,-56.25 989.9,-54.1"/>
<polygon fill="#999999" stroke="#999999" points="990.25,-51.65 982.85,-52.09 988.91,-56.36 990.25,-51.65"/>
</g>
<!-- node_5 -->
<g id="node7" class="node">
<title>node_5</title>
<path fill="#4ecdc4" stroke="black" d="M824.5,-52C824.5,-52 703.5,-52 703.5,-52 697.5,-52 691.5,-46 691.5,-40 691.5,-40 691.5,-28 691.5,-28 691.5,-22 697.5,-16 703.5,-16 703.5,-16 824.5,-16 824.5,-16 830.5,-16 836.5,-22 836.5,-28 836.5,-28 836.5,-40 836.5,-40 836.5,-46 830.5,-52 824.5,-52"/>
<text text-anchor="middle" x="764" y="-31.8" font-family="Arial" font-size="9.00">orient_body_to_nearestStand...</text>
</g>
<!-- node_0&#45;&gt;node_5 -->
<g id="edge5" class="edge">
<title>node_0&#45;&gt;node_5</title>
<path fill="none" stroke="#999999" d="M1201.46,-89.7C1197.93,-89.08 1194.43,-88.51 1191,-88 1039.72,-65.44 998.33,-88.19 848,-60 839.5,-58.41 830.64,-56.29 821.99,-53.96"/>
<polygon fill="#999999" stroke="#999999" points="822.52,-51.56 815.12,-52.05 821.21,-56.28 822.52,-51.56"/>
</g>
<!-- node_6 -->
<g id="node8" class="node">
<title>node_6</title>
<path fill="#4ecdc4" stroke="black" d="M657,-52C657,-52 533,-52 533,-52 527,-52 521,-46 521,-40 521,-40 521,-28 521,-28 521,-22 527,-16 533,-16 533,-16 657,-16 657,-16 663,-16 669,-22 669,-28 669,-28 669,-40 669,-40 669,-46 663,-52 657,-52"/>
<text text-anchor="middle" x="595" y="-31.8" font-family="Arial" font-size="9.00">push_nearestStandingCylinde...</text>
</g>
<!-- node_0&#45;&gt;node_6 -->
<g id="edge6" class="edge">
<title>node_0&#45;&gt;node_6</title>
<path fill="none" stroke="#999999" d="M1201.47,-89.59C1197.94,-89 1194.43,-88.47 1191,-88 966.05,-57.51 904.78,-98.15 681,-60 671.96,-58.46 662.52,-56.3 653.35,-53.89"/>
<polygon fill="#999999" stroke="#999999" points="653.8,-51.48 646.4,-52.01 652.51,-56.2 653.8,-51.48"/>
</g>
<!-- node_7 -->
<g id="node9" class="node">
<title>node_7</title>
<path fill="#4ecdc4" stroke="black" d="M1494.5,-52C1494.5,-52 1375.5,-52 1375.5,-52 1369.5,-52 1363.5,-46 1363.5,-40 1363.5,-40 1363.5,-28 1363.5,-28 1363.5,-22 1369.5,-16 1375.5,-16 1375.5,-16 1494.5,-16 1494.5,-16 1500.5,-16 1506.5,-22 1506.5,-28 1506.5,-28 1506.5,-40 1506.5,-40 1506.5,-46 1500.5,-52 1494.5,-52"/>
<text text-anchor="middle" x="1435" y="-31.8" font-family="Arial" font-size="9.00">walk_to_nearestStandingCyli...</text>
</g>
<!-- node_0&#45;&gt;node_7 -->
<g id="edge7" class="edge">
<title>node_0&#45;&gt;node_7</title>
<path fill="none" stroke="#999999" d="M1309.61,-87.88C1333.31,-77.88 1363.32,-65.23 1388.03,-54.81"/>
<polygon fill="#999999" stroke="#999999" points="1389.03,-57.05 1394.52,-52.07 1387.12,-52.53 1389.03,-57.05"/>
</g>
<!-- node_8 -->
<g id="node10" class="node">
<title>node_8</title>
<path fill="#4ecdc4" stroke="black" d="M1329.5,-52C1329.5,-52 1208.5,-52 1208.5,-52 1202.5,-52 1196.5,-46 1196.5,-40 1196.5,-40 1196.5,-28 1196.5,-28 1196.5,-22 1202.5,-16 1208.5,-16 1208.5,-16 1329.5,-16 1329.5,-16 1335.5,-16 1341.5,-22 1341.5,-28 1341.5,-28 1341.5,-40 1341.5,-40 1341.5,-46 1335.5,-52 1329.5,-52"/>
<text text-anchor="middle" x="1269" y="-31.8" font-family="Arial" font-size="9.00">orient_body_to_nearestStand...</text>
</g>
<!-- node_0&#45;&gt;node_8 -->
<g id="edge8" class="edge">
<title>node_0&#45;&gt;node_8</title>
<path fill="none" stroke="#999999" d="M1269,-87.7C1269,-79.14 1269,-68.66 1269,-59.3"/>
<polygon fill="#999999" stroke="#999999" points="1271.45,-59.1 1269,-52.1 1266.55,-59.1 1271.45,-59.1"/>
</g>
<!-- node_9 -->
<g id="node11" class="node">
<title>node_9</title>
<path fill="#4ecdc4" stroke="black" d="M1162,-52C1162,-52 1038,-52 1038,-52 1032,-52 1026,-46 1026,-40 1026,-40 1026,-28 1026,-28 1026,-22 1032,-16 1038,-16 1038,-16 1162,-16 1162,-16 1168,-16 1174,-22 1174,-28 1174,-28 1174,-40 1174,-40 1174,-46 1168,-52 1162,-52"/>
<text text-anchor="middle" x="1100" y="-31.8" font-family="Arial" font-size="9.00">push_nearestStandingCylinde...</text>
</g>
<!-- node_0&#45;&gt;node_9 -->
<g id="edge9" class="edge">
<title>node_0&#45;&gt;node_9</title>
<path fill="none" stroke="#999999" d="M1227.66,-87.88C1203.53,-77.88 1172.98,-65.23 1147.82,-54.81"/>
<polygon fill="#999999" stroke="#999999" points="1148.61,-52.48 1141.21,-52.07 1146.74,-57.01 1148.61,-52.48"/>
</g>
<!-- node_10 -->
<g id="node12" class="node">
<title>node_10</title>
<path fill="#4ecdc4" stroke="black" d="M1999.5,-52C1999.5,-52 1880.5,-52 1880.5,-52 1874.5,-52 1868.5,-46 1868.5,-40 1868.5,-40 1868.5,-28 1868.5,-28 1868.5,-22 1874.5,-16 1880.5,-16 1880.5,-16 1999.5,-16 1999.5,-16 2005.5,-16 2011.5,-22 2011.5,-28 2011.5,-28 2011.5,-40 2011.5,-40 2011.5,-46 2005.5,-52 1999.5,-52"/>
<text text-anchor="middle" x="1940" y="-31.8" font-family="Arial" font-size="9.00">walk_to_nearestStandingCyli...</text>
</g>
<!-- node_0&#45;&gt;node_10 -->
<g id="edge10" class="edge">
<title>node_0&#45;&gt;node_10</title>
<path fill="none" stroke="#999999" d="M1336.76,-104.64C1446.98,-102.97 1671.55,-95.1 1858,-60 1866.23,-58.45 1874.8,-56.38 1883.16,-54.08"/>
<polygon fill="#999999" stroke="#999999" points="1884.06,-56.37 1890.13,-52.11 1882.73,-51.66 1884.06,-56.37"/>
</g>
<!-- node_11 -->
<g id="node13" class="node">
<title>node_11</title>
<path fill="#4ecdc4" stroke="black" d="M1834.5,-52C1834.5,-52 1713.5,-52 1713.5,-52 1707.5,-52 1701.5,-46 1701.5,-40 1701.5,-40 1701.5,-28 1701.5,-28 1701.5,-22 1707.5,-16 1713.5,-16 1713.5,-16 1834.5,-16 1834.5,-16 1840.5,-16 1846.5,-22 1846.5,-28 1846.5,-28 1846.5,-40 1846.5,-40 1846.5,-46 1840.5,-52 1834.5,-52"/>
<text text-anchor="middle" x="1774" y="-31.8" font-family="Arial" font-size="9.00">orient_body_to_nearestStand...</text>
</g>
<!-- node_0&#45;&gt;node_11 -->
<g id="edge11" class="edge">
<title>node_0&#45;&gt;node_11</title>
<path fill="none" stroke="#999999" d="M1336.66,-101.58C1420.32,-96.49 1566.76,-84.71 1690,-60 1698.16,-58.36 1706.66,-56.29 1715,-54.03"/>
<polygon fill="#999999" stroke="#999999" points="1715.86,-56.33 1721.95,-52.1 1714.54,-51.61 1715.86,-56.33"/>
</g>
<!-- node_12 -->
<g id="node14" class="node">
<title>node_12</title>
<path fill="#4ecdc4" stroke="black" d="M1667,-52C1667,-52 1543,-52 1543,-52 1537,-52 1531,-46 1531,-40 1531,-40 1531,-28 1531,-28 1531,-22 1537,-16 1543,-16 1543,-16 1667,-16 1667,-16 1673,-16 1679,-22 1679,-28 1679,-28 1679,-40 1679,-40 1679,-46 1673,-52 1667,-52"/>
<text text-anchor="middle" x="1605" y="-31.8" font-family="Arial" font-size="9.00">push_nearestStandingCylinde...</text>
</g>
<!-- node_0&#45;&gt;node_12 -->
<g id="edge12" class="edge">
<title>node_0&#45;&gt;node_12</title>
<path fill="none" stroke="#999999" d="M1336.52,-94.94C1387.29,-86.88 1458.38,-74.54 1520,-60 1527.56,-58.21 1535.46,-56.16 1543.25,-54.01"/>
<polygon fill="#999999" stroke="#999999" points="1544.28,-56.27 1550.36,-52.02 1542.96,-51.55 1544.28,-56.27"/>
</g>
<!-- node_13 -->
<g id="node15" class="node">
<title>node_13</title>
<path fill="#4ecdc4" stroke="black" d="M2504.5,-52C2504.5,-52 2385.5,-52 2385.5,-52 2379.5,-52 2373.5,-46 2373.5,-40 2373.5,-40 2373.5,-28 2373.5,-28 2373.5,-22 2379.5,-16 2385.5,-16 2385.5,-16 2504.5,-16 2504.5,-16 2510.5,-16 2516.5,-22 2516.5,-28 2516.5,-28 2516.5,-40 2516.5,-40 2516.5,-46 2510.5,-52 2504.5,-52"/>
<text text-anchor="middle" x="2445" y="-31.8" font-family="Arial" font-size="9.00">walk_to_nearestStandingCyli...</text>
</g>
<!-- node_0&#45;&gt;node_13 -->
<g id="edge13" class="edge">
<title>node_0&#45;&gt;node_13</title>
<path fill="none" stroke="#999999" d="M1336.51,-104.47C1543,-102.5 2164.12,-93.84 2363,-60 2371.68,-58.52 2380.73,-56.39 2389.52,-53.99"/>
<polygon fill="#999999" stroke="#999999" points="2390.43,-56.28 2396.49,-52.01 2389.09,-51.56 2390.43,-56.28"/>
</g>
<!-- node_14 -->
<g id="node16" class="node">
<title>node_14</title>
<path fill="#4ecdc4" stroke="black" d="M2339.5,-52C2339.5,-52 2218.5,-52 2218.5,-52 2212.5,-52 2206.5,-46 2206.5,-40 2206.5,-40 2206.5,-28 2206.5,-28 2206.5,-22 2212.5,-16 2218.5,-16 2218.5,-16 2339.5,-16 2339.5,-16 2345.5,-16 2351.5,-22 2351.5,-28 2351.5,-28 2351.5,-40 2351.5,-40 2351.5,-46 2345.5,-52 2339.5,-52"/>
<text text-anchor="middle" x="2279" y="-31.8" font-family="Arial" font-size="9.00">orient_body_to_nearestStand...</text>
</g>
<!-- node_0&#45;&gt;node_14 -->
<g id="edge14" class="edge">
<title>node_0&#45;&gt;node_14</title>
<path fill="none" stroke="#999999" d="M1336.72,-103.82C1521.21,-100.27 2029.89,-88.16 2195,-60 2203.84,-58.49 2213.07,-56.35 2222.04,-53.95"/>
<polygon fill="#999999" stroke="#999999" points="2222.74,-56.3 2228.83,-52.07 2221.43,-51.58 2222.74,-56.3"/>
</g>
<!-- node_15 -->
<g id="node17" class="node">
<title>node_15</title>
<path fill="#4ecdc4" stroke="black" d="M2172,-52C2172,-52 2048,-52 2048,-52 2042,-52 2036,-46 2036,-40 2036,-40 2036,-28 2036,-28 2036,-22 2042,-16 2048,-16 2048,-16 2172,-16 2172,-16 2178,-16 2184,-22 2184,-28 2184,-28 2184,-40 2184,-40 2184,-46 2178,-52 2172,-52"/>
<text text-anchor="middle" x="2110" y="-31.8" font-family="Arial" font-size="9.00">push_nearestStandingCylinde...</text>
</g>
<!-- node_0&#45;&gt;node_15 -->
<g id="edge15" class="edge">
<title>node_0&#45;&gt;node_15</title>
<path fill="none" stroke="#999999" d="M1336.77,-102.93C1496.66,-97.74 1893.77,-82.9 2025,-60 2033.81,-58.46 2043.01,-56.33 2051.96,-53.96"/>
<polygon fill="#999999" stroke="#999999" points="2052.65,-56.31 2058.75,-52.1 2051.35,-51.59 2052.65,-56.31"/>
</g>
</g>
</svg>
