<?xml version="1.0" encoding="UTF-8" standalone="no"?>
<!DOCTYPE svg PUBLIC "-//W3C//DTD SVG 1.1//EN"
 "http://www.w3.org/Graphics/SVG/1.1/DTD/svg11.dtd">
<!-- Generated by graphviz version 2.43.0 (0)
 -->
<!-- Title: %3 Pages: 1 -->
<svg width="2260pt" height="183pt"
 viewBox="0.00 0.00 542.50 44.00" xmlns="http://www.w3.org/2000/svg" xmlns:xlink="http://www.w3.org/1999/xlink">
<g id="graph0" class="graph" transform="scale(4.17 4.17) rotate(0) translate(4 40)">
<title>%3</title>
<polygon fill="white" stroke="transparent" points="-4,4 -4,-40 538.5,-40 538.5,4 -4,4"/>
<!-- title -->
<g id="node1" class="node">
<title>title</title>
<path fill="lightgrey" stroke="transparent" d="M353,-36C353,-36 12,-36 12,-36 6,-36 0,-30 0,-24 0,-24 0,-12 0,-12 0,-6 6,0 12,0 12,0 353,0 353,0 359,0 365,-6 365,-12 365,-12 365,-24 365,-24 365,-30 359,-36 353,-36"/>
<text text-anchor="middle" x="182.5" y="-21.4" font-family="Arial Bold" font-size="12.00">knock_over_pillars_seed456</text>
<text text-anchor="middle" x="182.5" y="-8.4" font-family="Arial Bold" font-size="12.00">The robot should sequentially approach each of the five cyli...</text>
</g>
<!-- node_0 -->
<g id="node2" class="node">
<title>node_0</title>
<path fill="#ff6b6b" stroke="black" d="M522.5,-36C522.5,-36 406.5,-36 406.5,-36 400.5,-36 394.5,-30 394.5,-24 394.5,-24 394.5,-12 394.5,-12 394.5,-6 400.5,0 406.5,0 406.5,0 522.5,0 522.5,0 528.5,0 534.5,-6 534.5,-12 534.5,-12 534.5,-24 534.5,-24 534.5,-30 528.5,-36 522.5,-36"/>
<text text-anchor="middle" x="464.5" y="-15.5" font-family="Arial" font-size="10.00">knock_over_pillars_seed456</text>
</g>
</g>
</svg>
