<?xml version="1.0" encoding="UTF-8" standalone="no"?>
<!DOCTYPE svg PUBLIC "-//W3C//DTD SVG 1.1//EN"
 "http://www.w3.org/Graphics/SVG/1.1/DTD/svg11.dtd">
<!-- Generated by graphviz version 2.43.0 (0)
 -->
<!-- Title: %3 Pages: 1 -->
<svg width="3600pt" height="2358pt"
 viewBox="0.00 0.00 864.00 565.92" xmlns="http://www.w3.org/2000/svg" xmlns:xlink="http://www.w3.org/1999/xlink">
<g id="graph0" class="graph" transform="scale(3.71 3.71) rotate(0) translate(4 632)">
<title>%3</title>
<polygon fill="white" stroke="transparent" points="-4,4 -4,-632 967,-632 967,4 -4,4"/>
<!-- title -->
<g id="node1" class="node">
<title>title</title>
<path fill="lightgrey" stroke="transparent" d="M403,-628C403,-628 49,-628 49,-628 43,-628 37,-622 37,-616 37,-616 37,-604 37,-604 37,-598 43,-592 49,-592 49,-592 403,-592 403,-592 409,-592 415,-598 415,-604 415,-604 415,-616 415,-616 415,-622 409,-628 403,-628"/>
<text text-anchor="middle" x="226" y="-613.4" font-family="Arial Bold" font-size="12.00">move_three_objects_seed456</text>
<text text-anchor="middle" x="226" y="-600.4" font-family="Arial Bold" font-size="12.00">The robot should move each of the three 0.5m cubed blocks fr...</text>
</g>
<!-- node_0 -->
<g id="node2" class="node">
<title>node_0</title>
<path fill="#ff6b6b" stroke="black" d="M578,-628C578,-628 456,-628 456,-628 450,-628 444,-622 444,-616 444,-616 444,-604 444,-604 444,-598 450,-592 456,-592 456,-592 578,-592 578,-592 584,-592 590,-598 590,-604 590,-604 590,-616 590,-616 590,-622 584,-628 578,-628"/>
<text text-anchor="middle" x="517" y="-607.5" font-family="Arial" font-size="10.00">move_three_objects_seed456</text>
</g>
<!-- node_1 -->
<g id="node3" class="node">
<title>node_1</title>
<path fill="#4ecdc4" stroke="black" stroke-width="2" d="M152,-534C152,-534 12,-534 12,-534 6,-534 0,-528 0,-522 0,-522 0,-510 0,-510 0,-504 6,-498 12,-498 12,-498 152,-498 152,-498 158,-498 164,-504 164,-510 164,-510 164,-522 164,-522 164,-528 158,-534 152,-534"/>
<text text-anchor="middle" x="82" y="-513.5" font-family="Arial" font-size="10.00">walk_to_First_0_5m_cubed_block</text>
</g>
<!-- node_0&#45;&gt;node_1 -->
<g id="edge1" class="edge">
<title>node_0&#45;&gt;node_1</title>
<path fill="none" stroke="#999999" d="M443.7,-593.5C368.14,-577.52 250.31,-552.6 169.81,-535.57"/>
<polygon fill="#999999" stroke="#999999" points="169.98,-533.1 162.63,-534.05 168.97,-537.9 169.98,-533.1"/>
</g>
<!-- node_2 -->
<g id="node4" class="node">
<title>node_2</title>
<path fill="#4ecdc4" stroke="black" stroke-width="2" d="M342.5,-534C342.5,-534 205.5,-534 205.5,-534 199.5,-534 193.5,-528 193.5,-522 193.5,-522 193.5,-510 193.5,-510 193.5,-504 199.5,-498 205.5,-498 205.5,-498 342.5,-498 342.5,-498 348.5,-498 354.5,-504 354.5,-510 354.5,-510 354.5,-522 354.5,-522 354.5,-528 348.5,-534 342.5,-534"/>
<text text-anchor="middle" x="274" y="-513.5" font-family="Arial" font-size="10.00">push_First_0_5m_cubed_block...</text>
</g>
<!-- node_0&#45;&gt;node_2 -->
<g id="edge2" class="edge">
<title>node_0&#45;&gt;node_2</title>
<path fill="none" stroke="#999999" d="M471.86,-591.91C430.56,-576.27 369.47,-553.14 326.11,-536.73"/>
<polygon fill="#999999" stroke="#999999" points="326.72,-534.34 319.31,-534.15 324.99,-538.92 326.72,-534.34"/>
</g>
<!-- node_3 -->
<g id="node5" class="node">
<title>node_3</title>
<path fill="#4ecdc4" stroke="black" stroke-width="2" d="M262.5,-368C262.5,-368 131.5,-368 131.5,-368 125.5,-368 119.5,-362 119.5,-356 119.5,-356 119.5,-344 119.5,-344 119.5,-338 125.5,-332 131.5,-332 131.5,-332 262.5,-332 262.5,-332 268.5,-332 274.5,-338 274.5,-344 274.5,-344 274.5,-356 274.5,-356 274.5,-362 268.5,-368 262.5,-368"/>
<text text-anchor="middle" x="197" y="-347.5" font-family="Arial" font-size="10.00">adjust_First_0_5m_cubed_blo...</text>
</g>
<!-- node_0&#45;&gt;node_3 -->
<g id="edge3" class="edge">
<title>node_0&#45;&gt;node_3</title>
<path fill="none" stroke="#999999" d="M495.76,-591.87C439.5,-546.52 286.71,-423.33 224.21,-372.94"/>
<polygon fill="#999999" stroke="#999999" points="225.43,-370.78 218.45,-368.29 222.36,-374.59 225.43,-370.78"/>
</g>
<!-- node_4 -->
<g id="node6" class="node">
<title>node_4</title>
<path fill="#4ecdc4" stroke="black" stroke-width="2" d="M460.5,-368C460.5,-368 315.5,-368 315.5,-368 309.5,-368 303.5,-362 303.5,-356 303.5,-356 303.5,-344 303.5,-344 303.5,-338 309.5,-332 315.5,-332 315.5,-332 460.5,-332 460.5,-332 466.5,-332 472.5,-338 472.5,-344 472.5,-344 472.5,-356 472.5,-356 472.5,-362 466.5,-368 460.5,-368"/>
<text text-anchor="middle" x="388" y="-347.5" font-family="Arial" font-size="10.00">walk_to_Second_0_5m_cubed_b...</text>
</g>
<!-- node_0&#45;&gt;node_4 -->
<g id="edge4" class="edge">
<title>node_0&#45;&gt;node_4</title>
<path fill="none" stroke="#999999" d="M508.34,-591.67C485.85,-546.69 425.57,-426.14 399.87,-374.74"/>
<polygon fill="#999999" stroke="#999999" points="401.95,-373.42 396.63,-368.25 397.57,-375.61 401.95,-373.42"/>
</g>
<!-- node_5 -->
<g id="node7" class="node">
<title>node_5</title>
<path fill="#4ecdc4" stroke="black" stroke-width="2" d="M385.5,-202C385.5,-202 240.5,-202 240.5,-202 234.5,-202 228.5,-196 228.5,-190 228.5,-190 228.5,-178 228.5,-178 228.5,-172 234.5,-166 240.5,-166 240.5,-166 385.5,-166 385.5,-166 391.5,-166 397.5,-172 397.5,-178 397.5,-178 397.5,-190 397.5,-190 397.5,-196 391.5,-202 385.5,-202"/>
<text text-anchor="middle" x="313" y="-181.5" font-family="Arial" font-size="10.00">push_Second_0_5m_cubed_bloc...</text>
</g>
<!-- node_0&#45;&gt;node_5 -->
<g id="edge5" class="edge">
<title>node_0&#45;&gt;node_5</title>
<path fill="none" stroke="#999999" d="M517,-591.61C517,-560.16 517,-491.73 517,-434 517,-434 517,-434 517,-349 517,-274.72 433.84,-228.44 373.71,-204.68"/>
<polygon fill="#999999" stroke="#999999" points="374.28,-202.28 366.87,-202.04 372.51,-206.85 374.28,-202.28"/>
</g>
<!-- node_6 -->
<g id="node8" class="node">
<title>node_6</title>
<path fill="#4ecdc4" stroke="black" stroke-width="2" d="M579,-202C579,-202 439,-202 439,-202 433,-202 427,-196 427,-190 427,-190 427,-178 427,-178 427,-172 433,-166 439,-166 439,-166 579,-166 579,-166 585,-166 591,-172 591,-178 591,-178 591,-190 591,-190 591,-196 585,-202 579,-202"/>
<text text-anchor="middle" x="509" y="-181.5" font-family="Arial" font-size="10.00">adjust_Second_0_5m_cubed_bl...</text>
</g>
<!-- node_0&#45;&gt;node_6 -->
<g id="edge6" class="edge">
<title>node_0&#45;&gt;node_6</title>
<path fill="none" stroke="#999999" d="M527.01,-591.77C543.84,-561.1 576,-494.6 576,-434 576,-434 576,-434 576,-349 576,-295.59 545.17,-239.18 525.34,-208.41"/>
<polygon fill="#999999" stroke="#999999" points="527.18,-206.75 521.29,-202.25 523.08,-209.44 527.18,-206.75"/>
</g>
<!-- node_7 -->
<g id="node9" class="node">
<title>node_7</title>
<path fill="#4ecdc4" stroke="black" stroke-width="2" d="M524.5,-36C524.5,-36 381.5,-36 381.5,-36 375.5,-36 369.5,-30 369.5,-24 369.5,-24 369.5,-12 369.5,-12 369.5,-6 375.5,0 381.5,0 381.5,0 524.5,0 524.5,0 530.5,0 536.5,-6 536.5,-12 536.5,-12 536.5,-24 536.5,-24 536.5,-30 530.5,-36 524.5,-36"/>
<text text-anchor="middle" x="453" y="-15.5" font-family="Arial" font-size="10.00">walk_to_Third_0_5m_cubed_block</text>
</g>
<!-- node_0&#45;&gt;node_7 -->
<g id="edge7" class="edge">
<title>node_0&#45;&gt;node_7</title>
<path fill="none" stroke="#999999" d="M538.92,-591.96C573.04,-563.32 635,-501.97 635,-434 635,-434 635,-434 635,-183 635,-112.09 557.81,-63.98 503.97,-39.05"/>
<polygon fill="#999999" stroke="#999999" points="504.91,-36.79 497.52,-36.13 502.88,-41.25 504.91,-36.79"/>
</g>
<!-- node_8 -->
<g id="node10" class="node">
<title>node_8</title>
<path fill="#4ecdc4" stroke="black" stroke-width="2" d="M763.5,-36C763.5,-36 624.5,-36 624.5,-36 618.5,-36 612.5,-30 612.5,-24 612.5,-24 612.5,-12 612.5,-12 612.5,-6 618.5,0 624.5,0 624.5,0 763.5,0 763.5,0 769.5,0 775.5,-6 775.5,-12 775.5,-12 775.5,-24 775.5,-24 775.5,-30 769.5,-36 763.5,-36"/>
<text text-anchor="middle" x="694" y="-15.5" font-family="Arial" font-size="10.00">push_Third_0_5m_cubed_block...</text>
</g>
<!-- node_0&#45;&gt;node_8 -->
<g id="edge8" class="edge">
<title>node_0&#45;&gt;node_8</title>
<path fill="none" stroke="#999999" d="M555.84,-591.8C607.95,-565.78 694,-511.13 694,-434 694,-434 694,-434 694,-183 694,-133.44 694,-75.47 694,-43.42"/>
<polygon fill="#999999" stroke="#999999" points="696.45,-43.24 694,-36.24 691.55,-43.24 696.45,-43.24"/>
</g>
<!-- node_9 -->
<g id="node11" class="node">
<title>node_9</title>
<path fill="#4ecdc4" stroke="black" stroke-width="2" d="M951,-36C951,-36 817,-36 817,-36 811,-36 805,-30 805,-24 805,-24 805,-12 805,-12 805,-6 811,0 817,0 817,0 951,0 951,0 957,0 963,-6 963,-12 963,-12 963,-24 963,-24 963,-30 957,-36 951,-36"/>
<text text-anchor="middle" x="884" y="-15.5" font-family="Arial" font-size="10.00">adjust_Third_0_5m_cubed_blo...</text>
</g>
<!-- node_0&#45;&gt;node_9 -->
<g id="edge9" class="edge">
<title>node_0&#45;&gt;node_9</title>
<path fill="none" stroke="#999999" d="M590.39,-605.86C697.49,-596.91 884,-562.82 884,-434 884,-434 884,-434 884,-183 884,-133.44 884,-75.47 884,-43.42"/>
<polygon fill="#999999" stroke="#999999" points="886.45,-43.24 884,-36.24 881.55,-43.24 886.45,-43.24"/>
</g>
<!-- tier_spacer_1_1 -->
<!-- node_1&#45;&gt;tier_spacer_1_1 -->
<!-- tier_spacer_1_2 -->
<!-- node_3&#45;&gt;tier_spacer_1_2 -->
<!-- tier_spacer_1_3 -->
<!-- node_5&#45;&gt;tier_spacer_1_3 -->
<!-- tier_spacer_1_1&#45;&gt;node_3 -->
<!-- tier_spacer_1_2&#45;&gt;node_5 -->
<!-- tier_spacer_1_3&#45;&gt;node_7 -->
</g>
</svg>
