<?xml version="1.0" encoding="UTF-8" standalone="no"?>
<!DOCTYPE svg PUBLIC "-//W3C//DTD SVG 1.1//EN"
 "http://www.w3.org/Graphics/SVG/1.1/DTD/svg11.dtd">
<!-- Generated by graphviz version 2.43.0 (0)
 -->
<!-- Title: %3 Pages: 1 -->
<svg width="3600pt" height="2414pt"
 viewBox="0.00 0.00 864.00 579.34" xmlns="http://www.w3.org/2000/svg" xmlns:xlink="http://www.w3.org/1999/xlink">
<g id="graph0" class="graph" transform="scale(3.8 3.8) rotate(0) translate(4 632)">
<title>%3</title>
<polygon fill="white" stroke="transparent" points="-4,4 -4,-632 944.5,-632 944.5,4 -4,4"/>
<!-- title -->
<g id="node1" class="node">
<title>title</title>
<path fill="lightgrey" stroke="transparent" d="M388.5,-628C388.5,-628 34.5,-628 34.5,-628 28.5,-628 22.5,-622 22.5,-616 22.5,-616 22.5,-604 22.5,-604 22.5,-598 28.5,-592 34.5,-592 34.5,-592 388.5,-592 388.5,-592 394.5,-592 400.5,-598 400.5,-604 400.5,-604 400.5,-616 400.5,-616 400.5,-622 394.5,-628 388.5,-628"/>
<text text-anchor="middle" x="211.5" y="-613.4" font-family="Arial Bold" font-size="12.00">move_three_objects_seed42</text>
<text text-anchor="middle" x="211.5" y="-600.4" font-family="Arial Bold" font-size="12.00">The robot should move each of the three 0.5m cubed blocks fr...</text>
</g>
<!-- node_0 -->
<g id="node2" class="node">
<title>node_0</title>
<path fill="#ff6b6b" stroke="black" d="M559,-628C559,-628 442,-628 442,-628 436,-628 430,-622 430,-616 430,-616 430,-604 430,-604 430,-598 436,-592 442,-592 442,-592 559,-592 559,-592 565,-592 571,-598 571,-604 571,-604 571,-616 571,-616 571,-622 565,-628 559,-628"/>
<text text-anchor="middle" x="500.5" y="-607.5" font-family="Arial" font-size="10.00">move_three_objects_seed42</text>
</g>
<!-- node_1 -->
<g id="node3" class="node">
<title>node_1</title>
<path fill="#4ecdc4" stroke="black" stroke-width="2" d="M141,-534C141,-534 12,-534 12,-534 6,-534 0,-528 0,-522 0,-522 0,-510 0,-510 0,-504 6,-498 12,-498 12,-498 141,-498 141,-498 147,-498 153,-504 153,-510 153,-510 153,-522 153,-522 153,-528 147,-534 141,-534"/>
<text text-anchor="middle" x="76.5" y="-513.5" font-family="Arial" font-size="10.00">walk_to_cube_for_robot_to_p...</text>
</g>
<!-- node_0&#45;&gt;node_1 -->
<g id="edge1" class="edge">
<title>node_0&#45;&gt;node_1</title>
<path fill="none" stroke="#999999" d="M429.53,-593.6C355.27,-577.49 238.76,-552.21 160.1,-535.14"/>
<polygon fill="#999999" stroke="#999999" points="160.44,-532.71 153.08,-533.62 159.4,-537.5 160.44,-532.71"/>
</g>
<!-- node_2 -->
<g id="node4" class="node">
<title>node_2</title>
<path fill="#4ecdc4" stroke="black" stroke-width="2" d="M326.5,-534C326.5,-534 194.5,-534 194.5,-534 188.5,-534 182.5,-528 182.5,-522 182.5,-522 182.5,-510 182.5,-510 182.5,-504 188.5,-498 194.5,-498 194.5,-498 326.5,-498 326.5,-498 332.5,-498 338.5,-504 338.5,-510 338.5,-510 338.5,-522 338.5,-522 338.5,-528 332.5,-534 326.5,-534"/>
<text text-anchor="middle" x="260.5" y="-513.5" font-family="Arial" font-size="10.00">push_cube_for_robot_to_push...</text>
</g>
<!-- node_0&#45;&gt;node_2 -->
<g id="edge2" class="edge">
<title>node_0&#45;&gt;node_2</title>
<path fill="none" stroke="#999999" d="M455.92,-591.91C415.13,-576.27 354.79,-553.14 311.96,-536.73"/>
<polygon fill="#999999" stroke="#999999" points="312.66,-534.37 305.25,-534.15 310.91,-538.95 312.66,-534.37"/>
</g>
<!-- node_3 -->
<g id="node5" class="node">
<title>node_3</title>
<path fill="#4ecdc4" stroke="black" stroke-width="2" d="M261.5,-368C261.5,-368 129.5,-368 129.5,-368 123.5,-368 117.5,-362 117.5,-356 117.5,-356 117.5,-344 117.5,-344 117.5,-338 123.5,-332 129.5,-332 129.5,-332 261.5,-332 261.5,-332 267.5,-332 273.5,-338 273.5,-344 273.5,-344 273.5,-356 273.5,-356 273.5,-362 267.5,-368 261.5,-368"/>
<text text-anchor="middle" x="195.5" y="-347.5" font-family="Arial" font-size="10.00">push_cube_for_robot_to_push...</text>
</g>
<!-- node_0&#45;&gt;node_3 -->
<g id="edge3" class="edge">
<title>node_0&#45;&gt;node_3</title>
<path fill="none" stroke="#999999" d="M480.01,-591.67C426.19,-546.14 280.83,-423.18 221.38,-372.89"/>
<polygon fill="#999999" stroke="#999999" points="222.82,-370.9 215.9,-368.25 219.66,-374.64 222.82,-370.9"/>
</g>
<!-- node_4 -->
<g id="node6" class="node">
<title>node_4</title>
<path fill="#4ecdc4" stroke="black" stroke-width="2" d="M444,-368C444,-368 315,-368 315,-368 309,-368 303,-362 303,-356 303,-356 303,-344 303,-344 303,-338 309,-332 315,-332 315,-332 444,-332 444,-332 450,-332 456,-338 456,-344 456,-344 456,-356 456,-356 456,-362 450,-368 444,-368"/>
<text text-anchor="middle" x="379.5" y="-347.5" font-family="Arial" font-size="10.00">walk_to_cube_for_robot_to_p...</text>
</g>
<!-- node_0&#45;&gt;node_4 -->
<g id="edge4" class="edge">
<title>node_0&#45;&gt;node_4</title>
<path fill="none" stroke="#999999" d="M492.37,-591.67C471.28,-546.69 414.74,-426.14 390.64,-374.74"/>
<polygon fill="#999999" stroke="#999999" points="392.78,-373.55 387.59,-368.25 388.35,-375.63 392.78,-373.55"/>
</g>
<!-- node_5 -->
<g id="node7" class="node">
<title>node_5</title>
<path fill="#4ecdc4" stroke="black" stroke-width="2" d="M377.5,-202C377.5,-202 245.5,-202 245.5,-202 239.5,-202 233.5,-196 233.5,-190 233.5,-190 233.5,-178 233.5,-178 233.5,-172 239.5,-166 245.5,-166 245.5,-166 377.5,-166 377.5,-166 383.5,-166 389.5,-172 389.5,-178 389.5,-178 389.5,-190 389.5,-190 389.5,-196 383.5,-202 377.5,-202"/>
<text text-anchor="middle" x="311.5" y="-181.5" font-family="Arial" font-size="10.00">push_cube_for_robot_to_push...</text>
</g>
<!-- node_0&#45;&gt;node_5 -->
<g id="edge5" class="edge">
<title>node_0&#45;&gt;node_5</title>
<path fill="none" stroke="#999999" d="M500.5,-591.61C500.5,-560.16 500.5,-491.73 500.5,-434 500.5,-434 500.5,-434 500.5,-349 500.5,-276.99 421.26,-229.47 365.4,-204.92"/>
<polygon fill="#999999" stroke="#999999" points="366.1,-202.56 358.71,-202.04 364.17,-207.06 366.1,-202.56"/>
</g>
<!-- node_6 -->
<g id="node8" class="node">
<title>node_6</title>
<path fill="#4ecdc4" stroke="black" stroke-width="2" d="M562.5,-202C562.5,-202 430.5,-202 430.5,-202 424.5,-202 418.5,-196 418.5,-190 418.5,-190 418.5,-178 418.5,-178 418.5,-172 424.5,-166 430.5,-166 430.5,-166 562.5,-166 562.5,-166 568.5,-166 574.5,-172 574.5,-178 574.5,-178 574.5,-190 574.5,-190 574.5,-196 568.5,-202 562.5,-202"/>
<text text-anchor="middle" x="496.5" y="-181.5" font-family="Arial" font-size="10.00">push_cube_for_robot_to_push...</text>
</g>
<!-- node_0&#45;&gt;node_6 -->
<g id="edge6" class="edge">
<title>node_0&#45;&gt;node_6</title>
<path fill="none" stroke="#999999" d="M510.51,-591.77C527.34,-561.1 559.5,-494.6 559.5,-434 559.5,-434 559.5,-434 559.5,-349 559.5,-296.04 530.51,-239.47 511.86,-208.55"/>
<polygon fill="#999999" stroke="#999999" points="513.81,-207.04 508.06,-202.36 509.63,-209.6 513.81,-207.04"/>
</g>
<!-- node_7 -->
<g id="node9" class="node">
<title>node_7</title>
<path fill="#4ecdc4" stroke="black" stroke-width="2" d="M513,-36C513,-36 384,-36 384,-36 378,-36 372,-30 372,-24 372,-24 372,-12 372,-12 372,-6 378,0 384,0 384,0 513,0 513,0 519,0 525,-6 525,-12 525,-12 525,-24 525,-24 525,-30 519,-36 513,-36"/>
<text text-anchor="middle" x="448.5" y="-15.5" font-family="Arial" font-size="10.00">walk_to_cube_for_robot_to_p...</text>
</g>
<!-- node_0&#45;&gt;node_7 -->
<g id="edge7" class="edge">
<title>node_0&#45;&gt;node_7</title>
<path fill="none" stroke="#999999" d="M522.42,-591.96C556.54,-563.32 618.5,-501.97 618.5,-434 618.5,-434 618.5,-434 618.5,-183 618.5,-113.98 545.02,-64.83 494.68,-39.25"/>
<polygon fill="#999999" stroke="#999999" points="495.72,-37.03 488.36,-36.1 493.53,-41.42 495.72,-37.03"/>
</g>
<!-- node_8 -->
<g id="node10" class="node">
<title>node_8</title>
<path fill="#4ecdc4" stroke="black" stroke-width="2" d="M743.5,-36C743.5,-36 611.5,-36 611.5,-36 605.5,-36 599.5,-30 599.5,-24 599.5,-24 599.5,-12 599.5,-12 599.5,-6 605.5,0 611.5,0 611.5,0 743.5,0 743.5,0 749.5,0 755.5,-6 755.5,-12 755.5,-12 755.5,-24 755.5,-24 755.5,-30 749.5,-36 743.5,-36"/>
<text text-anchor="middle" x="677.5" y="-15.5" font-family="Arial" font-size="10.00">push_cube_for_robot_to_push...</text>
</g>
<!-- node_0&#45;&gt;node_8 -->
<g id="edge8" class="edge">
<title>node_0&#45;&gt;node_8</title>
<path fill="none" stroke="#999999" d="M539.34,-591.8C591.45,-565.78 677.5,-511.13 677.5,-434 677.5,-434 677.5,-434 677.5,-183 677.5,-133.44 677.5,-75.47 677.5,-43.42"/>
<polygon fill="#999999" stroke="#999999" points="679.95,-43.24 677.5,-36.24 675.05,-43.24 679.95,-43.24"/>
</g>
<!-- node_9 -->
<g id="node11" class="node">
<title>node_9</title>
<path fill="#4ecdc4" stroke="black" stroke-width="2" d="M928.5,-36C928.5,-36 796.5,-36 796.5,-36 790.5,-36 784.5,-30 784.5,-24 784.5,-24 784.5,-12 784.5,-12 784.5,-6 790.5,0 796.5,0 796.5,0 928.5,0 928.5,0 934.5,0 940.5,-6 940.5,-12 940.5,-12 940.5,-24 940.5,-24 940.5,-30 934.5,-36 928.5,-36"/>
<text text-anchor="middle" x="862.5" y="-15.5" font-family="Arial" font-size="10.00">push_cube_for_robot_to_push...</text>
</g>
<!-- node_0&#45;&gt;node_9 -->
<g id="edge9" class="edge">
<title>node_0&#45;&gt;node_9</title>
<path fill="none" stroke="#999999" d="M571.16,-605.66C676.51,-596.47 862.5,-562.09 862.5,-434 862.5,-434 862.5,-434 862.5,-183 862.5,-133.44 862.5,-75.47 862.5,-43.42"/>
<polygon fill="#999999" stroke="#999999" points="864.95,-43.24 862.5,-36.24 860.05,-43.24 864.95,-43.24"/>
</g>
<!-- tier_spacer_1_1 -->
<!-- node_1&#45;&gt;tier_spacer_1_1 -->
<!-- tier_spacer_1_2 -->
<!-- node_3&#45;&gt;tier_spacer_1_2 -->
<!-- tier_spacer_1_3 -->
<!-- node_5&#45;&gt;tier_spacer_1_3 -->
<!-- tier_spacer_1_1&#45;&gt;node_3 -->
<!-- tier_spacer_1_2&#45;&gt;node_5 -->
<!-- tier_spacer_1_3&#45;&gt;node_7 -->
</g>
</svg>
