<?xml version="1.0" encoding="UTF-8" standalone="no"?>
<!DOCTYPE svg PUBLIC "-//W3C//DTD SVG 1.1//EN"
 "http://www.w3.org/Graphics/SVG/1.1/DTD/svg11.dtd">
<!-- Generated by graphviz version 2.43.0 (0)
 -->
<!-- Title: %3 Pages: 1 -->
<svg width="3000pt" height="218pt"
 viewBox="0.00 0.00 720.00 52.38" xmlns="http://www.w3.org/2000/svg" xmlns:xlink="http://www.w3.org/1999/xlink">
<g id="graph0" class="graph" transform="scale(1.07 1.07) rotate(0) translate(4 200)">
<title>%3</title>
<polygon fill="white" stroke="transparent" points="-4,4 -4,-200 2800,-200 2800,4 -4,4"/>
<g id="clust1" class="cluster">
<title>cluster_l1_g0</title>
</g>
<g id="clust2" class="cluster">
<title>cluster_l2_g0</title>
</g>
<g id="clust3" class="cluster">
<title>cluster_l2_g1</title>
</g>
<g id="clust4" class="cluster">
<title>cluster_l2_g2</title>
</g>
<g id="clust5" class="cluster">
<title>cluster_l2_g3</title>
</g>
<g id="clust6" class="cluster">
<title>cluster_l2_g4</title>
</g>
<g id="clust7" class="cluster">
<title>cluster_l2_g5</title>
</g>
<!-- title -->
<g id="node1" class="node">
<title>title</title>
<path fill="lightgrey" stroke="transparent" d="M1298.5,-196C1298.5,-196 953.5,-196 953.5,-196 947.5,-196 941.5,-190 941.5,-184 941.5,-184 941.5,-172 941.5,-172 941.5,-166 947.5,-160 953.5,-160 953.5,-160 1298.5,-160 1298.5,-160 1304.5,-160 1310.5,-166 1310.5,-172 1310.5,-172 1310.5,-184 1310.5,-184 1310.5,-190 1304.5,-196 1298.5,-196"/>
<text text-anchor="middle" x="1126" y="-181.4" font-family="Arial Bold" font-size="12.00">move_three_objects_seed456</text>
<text text-anchor="middle" x="1126" y="-168.4" font-family="Arial Bold" font-size="12.00">The robot should move each of the cubes from their start loc...</text>
</g>
<!-- node_0 -->
<g id="node2" class="node">
<title>node_0</title>
<path fill="#ff6b6b" stroke="black" d="M1461.5,-196C1461.5,-196 1344.5,-196 1344.5,-196 1338.5,-196 1332.5,-190 1332.5,-184 1332.5,-184 1332.5,-172 1332.5,-172 1332.5,-166 1338.5,-160 1344.5,-160 1344.5,-160 1461.5,-160 1461.5,-160 1467.5,-160 1473.5,-166 1473.5,-172 1473.5,-172 1473.5,-184 1473.5,-184 1473.5,-190 1467.5,-196 1461.5,-196"/>
<text text-anchor="middle" x="1403" y="-175.8" font-family="Arial" font-size="9.00">move_three_objects_seed456</text>
</g>
<!-- node_1 -->
<g id="node3" class="node">
<title>node_1</title>
<path fill="#4ecdc4" stroke="black" d="M1295,-124C1295,-124 1187,-124 1187,-124 1181,-124 1175,-118 1175,-112 1175,-112 1175,-100 1175,-100 1175,-94 1181,-88 1187,-88 1187,-88 1295,-88 1295,-88 1301,-88 1307,-94 1307,-100 1307,-100 1307,-112 1307,-112 1307,-118 1301,-124 1295,-124"/>
<text text-anchor="middle" x="1241" y="-103.8" font-family="Arial" font-size="9.00">move_firstCube_to_platform</text>
</g>
<!-- node_0&#45;&gt;node_1 -->
<g id="edge1" class="edge">
<title>node_0&#45;&gt;node_1</title>
<path fill="none" stroke="#999999" d="M1363.37,-159.88C1340.34,-149.92 1311.21,-137.34 1287.14,-126.94"/>
<polygon fill="#999999" stroke="#999999" points="1287.9,-124.6 1280.5,-124.07 1285.95,-129.09 1287.9,-124.6"/>
</g>
<!-- node_8 -->
<g id="node10" class="node">
<title>node_8</title>
<path fill="#4ecdc4" stroke="black" d="M1465,-124C1465,-124 1341,-124 1341,-124 1335,-124 1329,-118 1329,-112 1329,-112 1329,-100 1329,-100 1329,-94 1335,-88 1341,-88 1341,-88 1465,-88 1465,-88 1471,-88 1477,-94 1477,-100 1477,-100 1477,-112 1477,-112 1477,-118 1471,-124 1465,-124"/>
<text text-anchor="middle" x="1403" y="-103.8" font-family="Arial" font-size="9.00">move_secondCube_to_platform</text>
</g>
<!-- node_0&#45;&gt;node_8 -->
<g id="edge8" class="edge">
<title>node_0&#45;&gt;node_8</title>
<path fill="none" stroke="#999999" d="M1403,-159.7C1403,-151.14 1403,-140.66 1403,-131.3"/>
<polygon fill="#999999" stroke="#999999" points="1405.45,-131.1 1403,-124.1 1400.55,-131.1 1405.45,-131.1"/>
</g>
<!-- node_15 -->
<g id="node17" class="node">
<title>node_15</title>
<path fill="#4ecdc4" stroke="black" d="M1623,-124C1623,-124 1511,-124 1511,-124 1505,-124 1499,-118 1499,-112 1499,-112 1499,-100 1499,-100 1499,-94 1505,-88 1511,-88 1511,-88 1623,-88 1623,-88 1629,-88 1635,-94 1635,-100 1635,-100 1635,-112 1635,-112 1635,-118 1629,-124 1623,-124"/>
<text text-anchor="middle" x="1567" y="-103.8" font-family="Arial" font-size="9.00">move_thirdCube_to_platform</text>
</g>
<!-- node_0&#45;&gt;node_15 -->
<g id="edge15" class="edge">
<title>node_0&#45;&gt;node_15</title>
<path fill="none" stroke="#999999" d="M1443.12,-159.88C1466.44,-149.92 1495.93,-137.34 1520.29,-126.94"/>
<polygon fill="#999999" stroke="#999999" points="1521.54,-129.07 1527.01,-124.07 1519.61,-124.56 1521.54,-129.07"/>
</g>
<!-- node_2 -->
<g id="node4" class="node">
<title>node_2</title>
<path fill="#45b7d1" stroke="black" stroke-width="2" d="M435,-52C435,-52 351,-52 351,-52 345,-52 339,-46 339,-40 339,-40 339,-28 339,-28 339,-22 345,-16 351,-16 351,-16 435,-16 435,-16 441,-16 447,-22 447,-28 447,-28 447,-40 447,-40 447,-46 441,-52 435,-52"/>
<text text-anchor="middle" x="393" y="-31.8" font-family="Arial" font-size="9.00">walk_to_firstCube</text>
</g>
<!-- node_1&#45;&gt;node_2 -->
<g id="edge2" class="edge">
<title>node_1&#45;&gt;node_2</title>
<path fill="none" stroke="#999999" d="M1174.91,-103.82C1011.9,-100.5 594.02,-89.32 458,-60 451.58,-58.62 444.95,-56.69 438.5,-54.52"/>
<polygon fill="#999999" stroke="#999999" points="439,-52.1 431.58,-52.08 437.37,-56.72 439,-52.1"/>
</g>
<!-- node_3 -->
<g id="node5" class="node">
<title>node_3</title>
<path fill="#45b7d1" stroke="black" stroke-width="2" d="M304.5,-52C304.5,-52 193.5,-52 193.5,-52 187.5,-52 181.5,-46 181.5,-40 181.5,-40 181.5,-28 181.5,-28 181.5,-22 187.5,-16 193.5,-16 193.5,-16 304.5,-16 304.5,-16 310.5,-16 316.5,-22 316.5,-28 316.5,-28 316.5,-40 316.5,-40 316.5,-46 310.5,-52 304.5,-52"/>
<text text-anchor="middle" x="249" y="-31.8" font-family="Arial" font-size="9.00">position_robot_behind_first...</text>
</g>
<!-- node_1&#45;&gt;node_3 -->
<g id="edge3" class="edge">
<title>node_1&#45;&gt;node_3</title>
<path fill="none" stroke="#999999" d="M1174.86,-103.94C993.45,-100.7 490.74,-89.25 328,-60 319.81,-58.53 311.3,-56.45 303.02,-54.11"/>
<polygon fill="#999999" stroke="#999999" points="303.53,-51.7 296.13,-52.08 302.15,-56.41 303.53,-51.7"/>
</g>
<!-- node_4 -->
<g id="node6" class="node">
<title>node_4</title>
<path fill="#45b7d1" stroke="black" stroke-width="2" d="M147.5,-52C147.5,-52 28.5,-52 28.5,-52 22.5,-52 16.5,-46 16.5,-40 16.5,-40 16.5,-28 16.5,-28 16.5,-22 22.5,-16 28.5,-16 28.5,-16 147.5,-16 147.5,-16 153.5,-16 159.5,-22 159.5,-28 159.5,-28 159.5,-40 159.5,-40 159.5,-46 153.5,-52 147.5,-52"/>
<text text-anchor="middle" x="88" y="-31.8" font-family="Arial" font-size="9.00">push_firstCube_towards_plat...</text>
</g>
<!-- node_1&#45;&gt;node_4 -->
<g id="edge4" class="edge">
<title>node_1&#45;&gt;node_4</title>
<path fill="none" stroke="#999999" d="M1174.98,-104.39C973.03,-102.16 365.56,-92.86 171,-60 162.13,-58.5 152.88,-56.34 143.91,-53.91"/>
<polygon fill="#999999" stroke="#999999" points="144.51,-51.53 137.11,-52 143.19,-56.25 144.51,-51.53"/>
</g>
<!-- node_5 -->
<g id="node7" class="node">
<title>node_5</title>
<path fill="#45b7d1" stroke="black" stroke-width="2" d="M887,-52C887,-52 803,-52 803,-52 797,-52 791,-46 791,-40 791,-40 791,-28 791,-28 791,-22 797,-16 803,-16 803,-16 887,-16 887,-16 893,-16 899,-22 899,-28 899,-28 899,-40 899,-40 899,-46 893,-52 887,-52"/>
<text text-anchor="middle" x="845" y="-31.8" font-family="Arial" font-size="9.00">walk_to_platform</text>
</g>
<!-- node_1&#45;&gt;node_5 -->
<g id="edge5" class="edge">
<title>node_1&#45;&gt;node_5</title>
<path fill="none" stroke="#999999" d="M1174.82,-100.54C1107.37,-94.95 1000.16,-83.13 910,-60 904.11,-58.49 898.02,-56.61 892.04,-54.55"/>
<polygon fill="#999999" stroke="#999999" points="892.51,-52.12 885.1,-52.08 890.87,-56.74 892.51,-52.12"/>
</g>
<!-- node_6 -->
<g id="node8" class="node">
<title>node_6</title>
<path fill="#45b7d1" stroke="black" stroke-width="2" d="M756.5,-52C756.5,-52 645.5,-52 645.5,-52 639.5,-52 633.5,-46 633.5,-40 633.5,-40 633.5,-28 633.5,-28 633.5,-22 639.5,-16 645.5,-16 645.5,-16 756.5,-16 756.5,-16 762.5,-16 768.5,-22 768.5,-28 768.5,-28 768.5,-40 768.5,-40 768.5,-46 762.5,-52 756.5,-52"/>
<text text-anchor="middle" x="701" y="-31.8" font-family="Arial" font-size="9.00">position_robot_behind_first...</text>
</g>
<!-- node_1&#45;&gt;node_6 -->
<g id="edge6" class="edge">
<title>node_1&#45;&gt;node_6</title>
<path fill="none" stroke="#999999" d="M1174.7,-102.88C1084.55,-99.01 918.66,-88.38 780,-60 772.34,-58.43 764.37,-56.4 756.57,-54.18"/>
<polygon fill="#999999" stroke="#999999" points="756.87,-51.71 749.46,-52.09 755.49,-56.41 756.87,-51.71"/>
</g>
<!-- node_7 -->
<g id="node9" class="node">
<title>node_7</title>
<path fill="#45b7d1" stroke="black" stroke-width="2" d="M599,-52C599,-52 483,-52 483,-52 477,-52 471,-46 471,-40 471,-40 471,-28 471,-28 471,-22 477,-16 483,-16 483,-16 599,-16 599,-16 605,-16 611,-22 611,-28 611,-28 611,-40 611,-40 611,-46 605,-52 599,-52"/>
<text text-anchor="middle" x="541" y="-31.8" font-family="Arial" font-size="9.00">push_firstCube_onto_platform</text>
</g>
<!-- node_1&#45;&gt;node_7 -->
<g id="edge7" class="edge">
<title>node_1&#45;&gt;node_7</title>
<path fill="none" stroke="#999999" d="M1174.98,-105C1061.27,-103.94 821.55,-97.01 623,-60 614.57,-58.43 605.79,-56.3 597.23,-53.94"/>
<polygon fill="#999999" stroke="#999999" points="597.83,-51.57 590.43,-52.01 596.49,-56.28 597.83,-51.57"/>
</g>
<!-- node_9 -->
<g id="node11" class="node">
<title>node_9</title>
<path fill="#45b7d1" stroke="black" stroke-width="2" d="M1367,-52C1367,-52 1283,-52 1283,-52 1277,-52 1271,-46 1271,-40 1271,-40 1271,-28 1271,-28 1271,-22 1277,-16 1283,-16 1283,-16 1367,-16 1367,-16 1373,-16 1379,-22 1379,-28 1379,-28 1379,-40 1379,-40 1379,-46 1373,-52 1367,-52"/>
<text text-anchor="middle" x="1325" y="-31.8" font-family="Arial" font-size="9.00">walk_to_secondCube</text>
</g>
<!-- node_8&#45;&gt;node_9 -->
<g id="edge9" class="edge">
<title>node_8&#45;&gt;node_9</title>
<path fill="none" stroke="#999999" d="M1383.72,-87.7C1373.33,-78.37 1360.4,-66.77 1349.33,-56.83"/>
<polygon fill="#999999" stroke="#999999" points="1350.91,-54.96 1344.06,-52.1 1347.63,-58.6 1350.91,-54.96"/>
</g>
<!-- node_10 -->
<g id="node12" class="node">
<title>node_10</title>
<path fill="#45b7d1" stroke="black" stroke-width="2" d="M1237,-52C1237,-52 1115,-52 1115,-52 1109,-52 1103,-46 1103,-40 1103,-40 1103,-28 1103,-28 1103,-22 1109,-16 1115,-16 1115,-16 1237,-16 1237,-16 1243,-16 1249,-22 1249,-28 1249,-28 1249,-40 1249,-40 1249,-46 1243,-52 1237,-52"/>
<text text-anchor="middle" x="1176" y="-31.8" font-family="Arial" font-size="9.00">position_robot_behind_secon...</text>
</g>
<!-- node_8&#45;&gt;node_10 -->
<g id="edge10" class="edge">
<title>node_8&#45;&gt;node_10</title>
<path fill="none" stroke="#999999" d="M1347.76,-87.97C1314.66,-77.76 1272.5,-64.76 1238.23,-54.19"/>
<polygon fill="#999999" stroke="#999999" points="1238.9,-51.83 1231.49,-52.11 1237.46,-56.51 1238.9,-51.83"/>
</g>
<!-- node_11 -->
<g id="node13" class="node">
<title>node_11</title>
<path fill="#45b7d1" stroke="black" stroke-width="2" d="M1068.5,-52C1068.5,-52 935.5,-52 935.5,-52 929.5,-52 923.5,-46 923.5,-40 923.5,-40 923.5,-28 923.5,-28 923.5,-22 929.5,-16 935.5,-16 935.5,-16 1068.5,-16 1068.5,-16 1074.5,-16 1080.5,-22 1080.5,-28 1080.5,-28 1080.5,-40 1080.5,-40 1080.5,-46 1074.5,-52 1068.5,-52"/>
<text text-anchor="middle" x="1002" y="-31.8" font-family="Arial" font-size="9.00">push_secondCube_towards_pla...</text>
</g>
<!-- node_8&#45;&gt;node_11 -->
<g id="edge11" class="edge">
<title>node_8&#45;&gt;node_11</title>
<path fill="none" stroke="#999999" d="M1350.8,-87.89C1340.05,-84.86 1328.73,-82.03 1318,-80 1218.92,-61.24 1191.21,-78.01 1092,-60 1082.97,-58.36 1073.54,-56.23 1064.32,-53.89"/>
<polygon fill="#999999" stroke="#999999" points="1064.71,-51.46 1057.32,-52.08 1063.48,-56.21 1064.71,-51.46"/>
</g>
<!-- node_12 -->
<g id="node14" class="node">
<title>node_12</title>
<path fill="#45b7d1" stroke="black" stroke-width="2" d="M1845,-52C1845,-52 1761,-52 1761,-52 1755,-52 1749,-46 1749,-40 1749,-40 1749,-28 1749,-28 1749,-22 1755,-16 1761,-16 1761,-16 1845,-16 1845,-16 1851,-16 1857,-22 1857,-28 1857,-28 1857,-40 1857,-40 1857,-46 1851,-52 1845,-52"/>
<text text-anchor="middle" x="1803" y="-31.8" font-family="Arial" font-size="9.00">walk_to_platform</text>
</g>
<!-- node_8&#45;&gt;node_12 -->
<g id="edge12" class="edge">
<title>node_8&#45;&gt;node_12</title>
<path fill="none" stroke="#999999" d="M1454.73,-87.94C1465.62,-84.87 1477.11,-82.01 1488,-80 1597.61,-59.72 1629.31,-84.71 1738,-60 1744.32,-58.56 1750.84,-56.63 1757.21,-54.48"/>
<polygon fill="#999999" stroke="#999999" points="1758.25,-56.71 1764.04,-52.06 1756.62,-52.09 1758.25,-56.71"/>
</g>
<!-- node_13 -->
<g id="node15" class="node">
<title>node_13</title>
<path fill="#45b7d1" stroke="black" stroke-width="2" d="M1715,-52C1715,-52 1593,-52 1593,-52 1587,-52 1581,-46 1581,-40 1581,-40 1581,-28 1581,-28 1581,-22 1587,-16 1593,-16 1593,-16 1715,-16 1715,-16 1721,-16 1727,-22 1727,-28 1727,-28 1727,-40 1727,-40 1727,-46 1721,-52 1715,-52"/>
<text text-anchor="middle" x="1654" y="-31.8" font-family="Arial" font-size="9.00">position_robot_behind_secon...</text>
</g>
<!-- node_8&#45;&gt;node_13 -->
<g id="edge13" class="edge">
<title>node_8&#45;&gt;node_13</title>
<path fill="none" stroke="#999999" d="M1459.59,-87.95C1469.06,-85.22 1478.79,-82.48 1488,-80 1524.23,-70.26 1533.79,-69.8 1570,-60 1576.83,-58.15 1583.95,-56.15 1591.03,-54.11"/>
<polygon fill="#999999" stroke="#999999" points="1592.04,-56.37 1598.08,-52.07 1590.68,-51.66 1592.04,-56.37"/>
</g>
<!-- node_14 -->
<g id="node16" class="node">
<title>node_14</title>
<path fill="#45b7d1" stroke="black" stroke-width="2" d="M1547,-52C1547,-52 1415,-52 1415,-52 1409,-52 1403,-46 1403,-40 1403,-40 1403,-28 1403,-28 1403,-22 1409,-16 1415,-16 1415,-16 1547,-16 1547,-16 1553,-16 1559,-22 1559,-28 1559,-28 1559,-40 1559,-40 1559,-46 1553,-52 1547,-52"/>
<text text-anchor="middle" x="1481" y="-31.8" font-family="Arial" font-size="9.00">push_secondCube_onto_platform</text>
</g>
<!-- node_8&#45;&gt;node_14 -->
<g id="edge14" class="edge">
<title>node_8&#45;&gt;node_14</title>
<path fill="none" stroke="#999999" d="M1422.28,-87.7C1432.67,-78.37 1445.6,-66.77 1456.67,-56.83"/>
<polygon fill="#999999" stroke="#999999" points="1458.37,-58.6 1461.94,-52.1 1455.09,-54.96 1458.37,-58.6"/>
</g>
<!-- node_16 -->
<g id="node18" class="node">
<title>node_16</title>
<path fill="#45b7d1" stroke="black" stroke-width="2" d="M2308,-52C2308,-52 2224,-52 2224,-52 2218,-52 2212,-46 2212,-40 2212,-40 2212,-28 2212,-28 2212,-22 2218,-16 2224,-16 2224,-16 2308,-16 2308,-16 2314,-16 2320,-22 2320,-28 2320,-28 2320,-40 2320,-40 2320,-46 2314,-52 2308,-52"/>
<text text-anchor="middle" x="2266" y="-31.8" font-family="Arial" font-size="9.00">walk_to_thirdCube</text>
</g>
<!-- node_15&#45;&gt;node_16 -->
<g id="edge16" class="edge">
<title>node_15&#45;&gt;node_16</title>
<path fill="none" stroke="#999999" d="M1635.06,-102.71C1775.85,-97.57 2094.77,-83.65 2201,-60 2207.33,-58.59 2213.85,-56.68 2220.22,-54.53"/>
<polygon fill="#999999" stroke="#999999" points="2221.26,-56.76 2227.05,-52.12 2219.63,-52.14 2221.26,-56.76"/>
</g>
<!-- node_17 -->
<g id="node19" class="node">
<title>node_17</title>
<path fill="#45b7d1" stroke="black" stroke-width="2" d="M2177.5,-52C2177.5,-52 2062.5,-52 2062.5,-52 2056.5,-52 2050.5,-46 2050.5,-40 2050.5,-40 2050.5,-28 2050.5,-28 2050.5,-22 2056.5,-16 2062.5,-16 2062.5,-16 2177.5,-16 2177.5,-16 2183.5,-16 2189.5,-22 2189.5,-28 2189.5,-28 2189.5,-40 2189.5,-40 2189.5,-46 2183.5,-52 2177.5,-52"/>
<text text-anchor="middle" x="2120" y="-31.8" font-family="Arial" font-size="9.00">position_robot_behind_third...</text>
</g>
<!-- node_15&#45;&gt;node_17 -->
<g id="edge17" class="edge">
<title>node_15&#45;&gt;node_17</title>
<path fill="none" stroke="#999999" d="M1635.01,-102.97C1727.48,-99.2 1897.68,-88.68 2040,-60 2047.75,-58.44 2055.82,-56.41 2063.72,-54.19"/>
<polygon fill="#999999" stroke="#999999" points="2064.88,-56.4 2070.91,-52.1 2063.51,-51.7 2064.88,-56.4"/>
</g>
<!-- node_18 -->
<g id="node20" class="node">
<title>node_18</title>
<path fill="#45b7d1" stroke="black" stroke-width="2" d="M2016.5,-52C2016.5,-52 1893.5,-52 1893.5,-52 1887.5,-52 1881.5,-46 1881.5,-40 1881.5,-40 1881.5,-28 1881.5,-28 1881.5,-22 1887.5,-16 1893.5,-16 1893.5,-16 2016.5,-16 2016.5,-16 2022.5,-16 2028.5,-22 2028.5,-28 2028.5,-28 2028.5,-40 2028.5,-40 2028.5,-46 2022.5,-52 2016.5,-52"/>
<text text-anchor="middle" x="1955" y="-31.8" font-family="Arial" font-size="9.00">push_thirdCube_towards_plat...</text>
</g>
<!-- node_15&#45;&gt;node_18 -->
<g id="edge18" class="edge">
<title>node_15&#45;&gt;node_18</title>
<path fill="none" stroke="#999999" d="M1635.18,-97.61C1696.92,-90.28 1790.15,-77.58 1870,-60 1877.98,-58.24 1886.31,-56.14 1894.5,-53.91"/>
<polygon fill="#999999" stroke="#999999" points="1895.24,-56.24 1901.33,-52.01 1893.93,-51.52 1895.24,-56.24"/>
</g>
<!-- node_19 -->
<g id="node21" class="node">
<title>node_19</title>
<path fill="#45b7d1" stroke="black" stroke-width="2" d="M2768,-52C2768,-52 2684,-52 2684,-52 2678,-52 2672,-46 2672,-40 2672,-40 2672,-28 2672,-28 2672,-22 2678,-16 2684,-16 2684,-16 2768,-16 2768,-16 2774,-16 2780,-22 2780,-28 2780,-28 2780,-40 2780,-40 2780,-46 2774,-52 2768,-52"/>
<text text-anchor="middle" x="2726" y="-31.8" font-family="Arial" font-size="9.00">walk_to_platform</text>
</g>
<!-- node_15&#45;&gt;node_19 -->
<g id="edge19" class="edge">
<title>node_15&#45;&gt;node_19</title>
<path fill="none" stroke="#999999" d="M1635.36,-105.09C1842.92,-104.9 2463.69,-100.85 2661,-60 2667.52,-58.65 2674.24,-56.72 2680.78,-54.53"/>
<polygon fill="#999999" stroke="#999999" points="2682,-56.7 2687.78,-52.06 2680.37,-52.08 2682,-56.7"/>
</g>
<!-- node_20 -->
<g id="node22" class="node">
<title>node_20</title>
<path fill="#45b7d1" stroke="black" stroke-width="2" d="M2637.5,-52C2637.5,-52 2522.5,-52 2522.5,-52 2516.5,-52 2510.5,-46 2510.5,-40 2510.5,-40 2510.5,-28 2510.5,-28 2510.5,-22 2516.5,-16 2522.5,-16 2522.5,-16 2637.5,-16 2637.5,-16 2643.5,-16 2649.5,-22 2649.5,-28 2649.5,-28 2649.5,-40 2649.5,-40 2649.5,-46 2643.5,-52 2637.5,-52"/>
<text text-anchor="middle" x="2580" y="-31.8" font-family="Arial" font-size="9.00">position_robot_behind_third...</text>
</g>
<!-- node_15&#45;&gt;node_20 -->
<g id="edge20" class="edge">
<title>node_15&#45;&gt;node_20</title>
<path fill="none" stroke="#999999" d="M1635.17,-103.93C1820.89,-100.65 2332.96,-89.15 2499,-60 2507.46,-58.51 2516.28,-56.41 2524.85,-54.04"/>
<polygon fill="#999999" stroke="#999999" points="2525.6,-56.37 2531.66,-52.09 2524.25,-51.66 2525.6,-56.37"/>
</g>
<!-- node_21 -->
<g id="node23" class="node">
<title>node_21</title>
<path fill="#45b7d1" stroke="black" stroke-width="2" d="M2476,-52C2476,-52 2356,-52 2356,-52 2350,-52 2344,-46 2344,-40 2344,-40 2344,-28 2344,-28 2344,-22 2350,-16 2356,-16 2356,-16 2476,-16 2476,-16 2482,-16 2488,-22 2488,-28 2488,-28 2488,-40 2488,-40 2488,-46 2482,-52 2476,-52"/>
<text text-anchor="middle" x="2416" y="-31.8" font-family="Arial" font-size="9.00">push_thirdCube_onto_platform</text>
</g>
<!-- node_15&#45;&gt;node_21 -->
<g id="edge21" class="edge">
<title>node_15&#45;&gt;node_21</title>
<path fill="none" stroke="#999999" d="M1635.08,-103.04C1796.71,-98.06 2199.95,-83.61 2333,-60 2341.54,-58.49 2350.43,-56.39 2359.09,-54.04"/>
<polygon fill="#999999" stroke="#999999" points="2359.9,-56.36 2365.98,-52.12 2358.58,-51.64 2359.9,-56.36"/>
</g>
</g>
</svg>
