<?xml version="1.0" encoding="UTF-8" standalone="no"?>
<!DOCTYPE svg PUBLIC "-//W3C//DTD SVG 1.1//EN"
 "http://www.w3.org/Graphics/SVG/1.1/DTD/svg11.dtd">
<!-- Generated by graphviz version 2.43.0 (0)
 -->
<!-- Title: %3 Pages: 1 -->
<svg width="3000pt" height="459pt"
 viewBox="0.00 0.00 720.00 110.06" xmlns="http://www.w3.org/2000/svg" xmlns:xlink="http://www.w3.org/1999/xlink">
<g id="graph0" class="graph" transform="scale(3.47 3.47) rotate(0) translate(4 128)">
<title>%3</title>
<polygon fill="white" stroke="transparent" points="-4,4 -4,-128 859.5,-128 859.5,4 -4,4"/>
<g id="clust1" class="cluster">
<title>cluster_l1_g0</title>
</g>
<g id="clust2" class="cluster">
<title>cluster_l1_g1</title>
</g>
<!-- title -->
<g id="node1" class="node">
<title>title</title>
<path fill="lightgrey" stroke="transparent" d="M361,-124C361,-124 12,-124 12,-124 6,-124 0,-118 0,-112 0,-112 0,-100 0,-100 0,-94 6,-88 12,-88 12,-88 361,-88 361,-88 367,-88 373,-94 373,-100 373,-100 373,-112 373,-112 373,-118 367,-124 361,-124"/>
<text text-anchor="middle" x="186.5" y="-109.4" font-family="Arial Bold" font-size="12.00">move_three_objects_seed123</text>
<text text-anchor="middle" x="186.5" y="-96.4" font-family="Arial Bold" font-size="12.00">The robot should move each of the three cubes from their sta...</text>
</g>
<!-- node_0 -->
<g id="node2" class="node">
<title>node_0</title>
<path fill="#ff6b6b" stroke="black" d="M524,-124C524,-124 407,-124 407,-124 401,-124 395,-118 395,-112 395,-112 395,-100 395,-100 395,-94 401,-88 407,-88 407,-88 524,-88 524,-88 530,-88 536,-94 536,-100 536,-100 536,-112 536,-112 536,-118 530,-124 524,-124"/>
<text text-anchor="middle" x="465.5" y="-103.8" font-family="Arial" font-size="9.00">move_three_objects_seed123</text>
</g>
<!-- node_1 -->
<g id="node3" class="node">
<title>node_1</title>
<path fill="#4ecdc4" stroke="black" stroke-width="2" d="M507.5,-52C507.5,-52 423.5,-52 423.5,-52 417.5,-52 411.5,-46 411.5,-40 411.5,-40 411.5,-28 411.5,-28 411.5,-22 417.5,-16 423.5,-16 423.5,-16 507.5,-16 507.5,-16 513.5,-16 519.5,-22 519.5,-28 519.5,-28 519.5,-40 519.5,-40 519.5,-46 513.5,-52 507.5,-52"/>
<text text-anchor="middle" x="465.5" y="-31.8" font-family="Arial" font-size="9.00">walk_to_nearestCube</text>
</g>
<!-- node_0&#45;&gt;node_1 -->
<g id="edge1" class="edge">
<title>node_0&#45;&gt;node_1</title>
<path fill="none" stroke="#999999" d="M465.5,-87.7C465.5,-79.14 465.5,-68.66 465.5,-59.3"/>
<polygon fill="#999999" stroke="#999999" points="467.95,-59.1 465.5,-52.1 463.05,-59.1 467.95,-59.1"/>
</g>
<!-- node_2 -->
<g id="node4" class="node">
<title>node_2</title>
<path fill="#4ecdc4" stroke="black" stroke-width="2" d="M377,-52C377,-52 256,-52 256,-52 250,-52 244,-46 244,-40 244,-40 244,-28 244,-28 244,-22 250,-16 256,-16 256,-16 377,-16 377,-16 383,-16 389,-22 389,-28 389,-28 389,-40 389,-40 389,-46 383,-52 377,-52"/>
<text text-anchor="middle" x="316.5" y="-31.8" font-family="Arial" font-size="9.00">align_robot_with_nearestCub...</text>
</g>
<!-- node_0&#45;&gt;node_2 -->
<g id="edge2" class="edge">
<title>node_0&#45;&gt;node_2</title>
<path fill="none" stroke="#999999" d="M429.05,-87.88C407.96,-77.97 381.3,-65.44 359.22,-55.07"/>
<polygon fill="#999999" stroke="#999999" points="360.21,-52.83 352.83,-52.07 358.13,-57.26 360.21,-52.83"/>
</g>
<!-- node_3 -->
<g id="node5" class="node">
<title>node_3</title>
<path fill="#4ecdc4" stroke="black" stroke-width="2" d="M209.5,-52C209.5,-52 81.5,-52 81.5,-52 75.5,-52 69.5,-46 69.5,-40 69.5,-40 69.5,-28 69.5,-28 69.5,-22 75.5,-16 81.5,-16 81.5,-16 209.5,-16 209.5,-16 215.5,-16 221.5,-22 221.5,-28 221.5,-28 221.5,-40 221.5,-40 221.5,-46 215.5,-52 209.5,-52"/>
<text text-anchor="middle" x="145.5" y="-31.8" font-family="Arial" font-size="9.00">push_nearestCube_towards_pl...</text>
</g>
<!-- node_0&#45;&gt;node_3 -->
<g id="edge3" class="edge">
<title>node_0&#45;&gt;node_3</title>
<path fill="none" stroke="#999999" d="M394.84,-90.07C391.34,-89.36 387.88,-88.67 384.5,-88 317.54,-74.77 299.96,-75.57 233.5,-60 225.65,-58.16 217.45,-56.07 209.35,-53.89"/>
<polygon fill="#999999" stroke="#999999" points="209.97,-51.52 202.58,-52.05 208.69,-56.25 209.97,-51.52"/>
</g>
<!-- node_4 -->
<g id="node6" class="node">
<title>node_4</title>
<path fill="#4ecdc4" stroke="black" stroke-width="2" d="M827.5,-52C827.5,-52 705.5,-52 705.5,-52 699.5,-52 693.5,-46 693.5,-40 693.5,-40 693.5,-28 693.5,-28 693.5,-22 699.5,-16 705.5,-16 705.5,-16 827.5,-16 827.5,-16 833.5,-16 839.5,-22 839.5,-28 839.5,-28 839.5,-40 839.5,-40 839.5,-46 833.5,-52 827.5,-52"/>
<text text-anchor="middle" x="766.5" y="-31.8" font-family="Arial" font-size="9.00">reposition_robot_around_nea...</text>
</g>
<!-- node_0&#45;&gt;node_4 -->
<g id="edge4" class="edge">
<title>node_0&#45;&gt;node_4</title>
<path fill="none" stroke="#999999" d="M536.21,-91.91C578.8,-83.64 634,-72.22 682.5,-60 689.73,-58.18 697.27,-56.14 704.73,-54.03"/>
<polygon fill="#999999" stroke="#999999" points="705.5,-56.36 711.56,-52.08 704.16,-51.65 705.5,-56.36"/>
</g>
<!-- node_5 -->
<g id="node7" class="node">
<title>node_5</title>
<path fill="#4ecdc4" stroke="black" stroke-width="2" d="M659.5,-52C659.5,-52 555.5,-52 555.5,-52 549.5,-52 543.5,-46 543.5,-40 543.5,-40 543.5,-28 543.5,-28 543.5,-22 549.5,-16 555.5,-16 555.5,-16 659.5,-16 659.5,-16 665.5,-16 671.5,-22 671.5,-28 671.5,-28 671.5,-40 671.5,-40 671.5,-46 665.5,-52 659.5,-52"/>
<text text-anchor="middle" x="607.5" y="-31.8" font-family="Arial" font-size="9.00">move_away_from_platform</text>
</g>
<!-- node_0&#45;&gt;node_5 -->
<g id="edge5" class="edge">
<title>node_0&#45;&gt;node_5</title>
<path fill="none" stroke="#999999" d="M500.24,-87.88C520.18,-78.05 545.34,-65.64 566.28,-55.32"/>
<polygon fill="#999999" stroke="#999999" points="567.43,-57.48 572.63,-52.19 565.27,-53.09 567.43,-57.48"/>
</g>
</g>
</svg>
