<?xml version="1.0" encoding="UTF-8" standalone="no"?>
<!DOCTYPE svg PUBLIC "-//W3C//DTD SVG 1.1//EN"
 "http://www.w3.org/Graphics/SVG/1.1/DTD/svg11.dtd">
<!-- Generated by graphviz version 2.43.0 (0)
 -->
<!-- Title: %3 Pages: 1 -->
<svg width="3000pt" height="278pt"
 viewBox="0.00 0.00 720.00 66.65" xmlns="http://www.w3.org/2000/svg" xmlns:xlink="http://www.w3.org/1999/xlink">
<g id="graph0" class="graph" transform="scale(2.1 2.1) rotate(0) translate(4 128)">
<title>%3</title>
<polygon fill="white" stroke="transparent" points="-4,4 -4,-128 1422,-128 1422,4 -4,4"/>
<g id="clust1" class="cluster">
<title>cluster_l1_g0</title>
</g>
<g id="clust2" class="cluster">
<title>cluster_l1_g1</title>
</g>
<g id="clust3" class="cluster">
<title>cluster_l1_g2</title>
</g>
<!-- title -->
<g id="node1" class="node">
<title>title</title>
<path fill="lightgrey" stroke="transparent" d="M626.5,-124C626.5,-124 273.5,-124 273.5,-124 267.5,-124 261.5,-118 261.5,-112 261.5,-112 261.5,-100 261.5,-100 261.5,-94 267.5,-88 273.5,-88 273.5,-88 626.5,-88 626.5,-88 632.5,-88 638.5,-94 638.5,-100 638.5,-100 638.5,-112 638.5,-112 638.5,-118 632.5,-124 626.5,-124"/>
<text text-anchor="middle" x="450" y="-109.4" font-family="Arial Bold" font-size="12.00">move_three_objects_seed42</text>
<text text-anchor="middle" x="450" y="-96.4" font-family="Arial Bold" font-size="12.00">The robot should move each of the three cubes (Object1, Obje...</text>
</g>
<!-- node_0 -->
<g id="node2" class="node">
<title>node_0</title>
<path fill="#ff6b6b" stroke="black" d="M785,-124C785,-124 673,-124 673,-124 667,-124 661,-118 661,-112 661,-112 661,-100 661,-100 661,-94 667,-88 673,-88 673,-88 785,-88 785,-88 791,-88 797,-94 797,-100 797,-100 797,-112 797,-112 797,-118 791,-124 785,-124"/>
<text text-anchor="middle" x="729" y="-103.8" font-family="Arial" font-size="9.00">move_three_objects_seed42</text>
</g>
<!-- node_1 -->
<g id="node3" class="node">
<title>node_1</title>
<path fill="#4ecdc4" stroke="black" stroke-width="2" d="M450,-52C450,-52 366,-52 366,-52 360,-52 354,-46 354,-40 354,-40 354,-28 354,-28 354,-22 360,-16 366,-16 366,-16 450,-16 450,-16 456,-16 462,-22 462,-28 462,-28 462,-40 462,-40 462,-46 456,-52 450,-52"/>
<text text-anchor="middle" x="408" y="-31.8" font-family="Arial" font-size="9.00">approach_Object1</text>
</g>
<!-- node_0&#45;&gt;node_1 -->
<g id="edge1" class="edge">
<title>node_0&#45;&gt;node_1</title>
<path fill="none" stroke="#999999" d="M660.96,-90.11C657.26,-89.38 653.59,-88.67 650,-88 571.71,-73.39 549.93,-80.63 473,-60 467.21,-58.45 461.22,-56.56 455.33,-54.52"/>
<polygon fill="#999999" stroke="#999999" points="455.9,-52.12 448.48,-52.07 454.25,-56.73 455.9,-52.12"/>
</g>
<!-- node_2 -->
<g id="node4" class="node">
<title>node_2</title>
<path fill="#4ecdc4" stroke="black" stroke-width="2" d="M319.5,-52C319.5,-52 198.5,-52 198.5,-52 192.5,-52 186.5,-46 186.5,-40 186.5,-40 186.5,-28 186.5,-28 186.5,-22 192.5,-16 198.5,-16 198.5,-16 319.5,-16 319.5,-16 325.5,-16 331.5,-22 331.5,-28 331.5,-28 331.5,-40 331.5,-40 331.5,-46 325.5,-52 319.5,-52"/>
<text text-anchor="middle" x="259" y="-31.8" font-family="Arial" font-size="9.00">position_robot_behind_Objec...</text>
</g>
<!-- node_0&#45;&gt;node_2 -->
<g id="edge2" class="edge">
<title>node_0&#45;&gt;node_2</title>
<path fill="none" stroke="#999999" d="M660.58,-89.75C657.01,-89.12 653.47,-88.53 650,-88 514.56,-67.33 477.54,-85.89 343,-60 334.63,-58.39 325.9,-56.29 317.37,-53.98"/>
<polygon fill="#999999" stroke="#999999" points="317.98,-51.61 310.58,-52.1 316.67,-56.33 317.98,-51.61"/>
</g>
<!-- node_3 -->
<g id="node5" class="node">
<title>node_3</title>
<path fill="#4ecdc4" stroke="black" stroke-width="2" d="M152,-52C152,-52 28,-52 28,-52 22,-52 16,-46 16,-40 16,-40 16,-28 16,-28 16,-22 22,-16 28,-16 28,-16 152,-16 152,-16 158,-16 164,-22 164,-28 164,-28 164,-40 164,-40 164,-46 158,-52 152,-52"/>
<text text-anchor="middle" x="90" y="-31.8" font-family="Arial" font-size="9.00">push_Object1_towards_Object4</text>
</g>
<!-- node_0&#45;&gt;node_3 -->
<g id="edge3" class="edge">
<title>node_0&#45;&gt;node_3</title>
<path fill="none" stroke="#999999" d="M660.6,-89.61C657.02,-89.02 653.48,-88.47 650,-88 440.9,-59.5 383.96,-95.9 176,-60 167.09,-58.46 157.78,-56.33 148.73,-53.96"/>
<polygon fill="#999999" stroke="#999999" points="149.26,-51.56 141.86,-52.1 147.98,-56.29 149.26,-51.56"/>
</g>
<!-- node_4 -->
<g id="node6" class="node">
<title>node_4</title>
<path fill="#4ecdc4" stroke="black" stroke-width="2" d="M920,-52C920,-52 836,-52 836,-52 830,-52 824,-46 824,-40 824,-40 824,-28 824,-28 824,-22 830,-16 836,-16 836,-16 920,-16 920,-16 926,-16 932,-22 932,-28 932,-28 932,-40 932,-40 932,-46 926,-52 920,-52"/>
<text text-anchor="middle" x="878" y="-31.8" font-family="Arial" font-size="9.00">approach_Object2</text>
</g>
<!-- node_0&#45;&gt;node_4 -->
<g id="edge4" class="edge">
<title>node_0&#45;&gt;node_4</title>
<path fill="none" stroke="#999999" d="M765.45,-87.88C786.54,-77.97 813.2,-65.44 835.28,-55.07"/>
<polygon fill="#999999" stroke="#999999" points="836.37,-57.26 841.67,-52.07 834.29,-52.83 836.37,-57.26"/>
</g>
<!-- node_5 -->
<g id="node7" class="node">
<title>node_5</title>
<path fill="#4ecdc4" stroke="black" stroke-width="2" d="M789.5,-52C789.5,-52 668.5,-52 668.5,-52 662.5,-52 656.5,-46 656.5,-40 656.5,-40 656.5,-28 656.5,-28 656.5,-22 662.5,-16 668.5,-16 668.5,-16 789.5,-16 789.5,-16 795.5,-16 801.5,-22 801.5,-28 801.5,-28 801.5,-40 801.5,-40 801.5,-46 795.5,-52 789.5,-52"/>
<text text-anchor="middle" x="729" y="-31.8" font-family="Arial" font-size="9.00">position_robot_behind_Objec...</text>
</g>
<!-- node_0&#45;&gt;node_5 -->
<g id="edge5" class="edge">
<title>node_0&#45;&gt;node_5</title>
<path fill="none" stroke="#999999" d="M729,-87.7C729,-79.14 729,-68.66 729,-59.3"/>
<polygon fill="#999999" stroke="#999999" points="731.45,-59.1 729,-52.1 726.55,-59.1 731.45,-59.1"/>
</g>
<!-- node_6 -->
<g id="node8" class="node">
<title>node_6</title>
<path fill="#4ecdc4" stroke="black" stroke-width="2" d="M622,-52C622,-52 498,-52 498,-52 492,-52 486,-46 486,-40 486,-40 486,-28 486,-28 486,-22 492,-16 498,-16 498,-16 622,-16 622,-16 628,-16 634,-22 634,-28 634,-28 634,-40 634,-40 634,-46 628,-52 622,-52"/>
<text text-anchor="middle" x="560" y="-31.8" font-family="Arial" font-size="9.00">push_Object2_towards_Object4</text>
</g>
<!-- node_0&#45;&gt;node_6 -->
<g id="edge6" class="edge">
<title>node_0&#45;&gt;node_6</title>
<path fill="none" stroke="#999999" d="M687.66,-87.88C663.53,-77.88 632.98,-65.23 607.82,-54.81"/>
<polygon fill="#999999" stroke="#999999" points="608.61,-52.48 601.21,-52.07 606.74,-57.01 608.61,-52.48"/>
</g>
<!-- node_7 -->
<g id="node9" class="node">
<title>node_7</title>
<path fill="#4ecdc4" stroke="black" stroke-width="2" d="M1390,-52C1390,-52 1306,-52 1306,-52 1300,-52 1294,-46 1294,-40 1294,-40 1294,-28 1294,-28 1294,-22 1300,-16 1306,-16 1306,-16 1390,-16 1390,-16 1396,-16 1402,-22 1402,-28 1402,-28 1402,-40 1402,-40 1402,-46 1396,-52 1390,-52"/>
<text text-anchor="middle" x="1348" y="-31.8" font-family="Arial" font-size="9.00">approach_Object3</text>
</g>
<!-- node_0&#45;&gt;node_7 -->
<g id="edge7" class="edge">
<title>node_0&#45;&gt;node_7</title>
<path fill="none" stroke="#999999" d="M797.32,-105.68C902.85,-105.34 1111.3,-99.14 1283,-60 1289.32,-58.56 1295.84,-56.63 1302.21,-54.47"/>
<polygon fill="#999999" stroke="#999999" points="1303.25,-56.7 1309.03,-52.05 1301.62,-52.08 1303.25,-56.7"/>
</g>
<!-- node_8 -->
<g id="node10" class="node">
<title>node_8</title>
<path fill="#4ecdc4" stroke="black" stroke-width="2" d="M1259.5,-52C1259.5,-52 1138.5,-52 1138.5,-52 1132.5,-52 1126.5,-46 1126.5,-40 1126.5,-40 1126.5,-28 1126.5,-28 1126.5,-22 1132.5,-16 1138.5,-16 1138.5,-16 1259.5,-16 1259.5,-16 1265.5,-16 1271.5,-22 1271.5,-28 1271.5,-28 1271.5,-40 1271.5,-40 1271.5,-46 1265.5,-52 1259.5,-52"/>
<text text-anchor="middle" x="1199" y="-31.8" font-family="Arial" font-size="9.00">position_robot_behind_Objec...</text>
</g>
<!-- node_0&#45;&gt;node_8 -->
<g id="edge8" class="edge">
<title>node_0&#45;&gt;node_8</title>
<path fill="none" stroke="#999999" d="M797.2,-100.64C874.78,-94.85 1004.97,-82.61 1115,-60 1123.15,-58.33 1131.65,-56.23 1139.98,-53.96"/>
<polygon fill="#999999" stroke="#999999" points="1140.85,-56.26 1146.93,-52.02 1139.53,-51.54 1140.85,-56.26"/>
</g>
<!-- node_9 -->
<g id="node11" class="node">
<title>node_9</title>
<path fill="#4ecdc4" stroke="black" stroke-width="2" d="M1092,-52C1092,-52 968,-52 968,-52 962,-52 956,-46 956,-40 956,-40 956,-28 956,-28 956,-22 962,-16 968,-16 968,-16 1092,-16 1092,-16 1098,-16 1104,-22 1104,-28 1104,-28 1104,-40 1104,-40 1104,-46 1098,-52 1092,-52"/>
<text text-anchor="middle" x="1030" y="-31.8" font-family="Arial" font-size="9.00">push_Object3_towards_Object4</text>
</g>
<!-- node_0&#45;&gt;node_9 -->
<g id="edge9" class="edge">
<title>node_0&#45;&gt;node_9</title>
<path fill="none" stroke="#999999" d="M797.42,-92.21C840.06,-83.88 895.96,-72.3 945,-60 952.31,-58.17 959.94,-56.12 967.49,-54.01"/>
<polygon fill="#999999" stroke="#999999" points="968.33,-56.32 974.39,-52.05 966.99,-51.6 968.33,-56.32"/>
</g>
</g>
</svg>
