<?xml version="1.0" encoding="UTF-8" standalone="no"?>
<!DOCTYPE svg PUBLIC "-//W3C//DTD SVG 1.1//EN"
 "http://www.w3.org/Graphics/SVG/1.1/DTD/svg11.dtd">
<!-- Generated by graphviz version 2.43.0 (0)
 -->
<!-- Title: %3 Pages: 1 -->
<svg width="3600pt" height="2383pt"
 viewBox="0.00 0.00 864.00 571.80" xmlns="http://www.w3.org/2000/svg" xmlns:xlink="http://www.w3.org/1999/xlink">
<g id="graph0" class="graph" transform="scale(3.75 3.75) rotate(0) translate(4 632)">
<title>%3</title>
<polygon fill="white" stroke="transparent" points="-4,4 -4,-632 957,-632 957,4 -4,4"/>
<!-- title -->
<g id="node1" class="node">
<title>title</title>
<path fill="lightgrey" stroke="transparent" d="M393,-628C393,-628 39,-628 39,-628 33,-628 27,-622 27,-616 27,-616 27,-604 27,-604 27,-598 33,-592 39,-592 39,-592 393,-592 393,-592 399,-592 405,-598 405,-604 405,-604 405,-616 405,-616 405,-622 399,-628 393,-628"/>
<text text-anchor="middle" x="216" y="-613.4" font-family="Arial Bold" font-size="12.00">move_three_objects_seed123</text>
<text text-anchor="middle" x="216" y="-600.4" font-family="Arial Bold" font-size="12.00">The robot should move each of the three 0.5m cubed blocks fr...</text>
</g>
<!-- node_0 -->
<g id="node2" class="node">
<title>node_0</title>
<path fill="#ff6b6b" stroke="black" d="M568,-628C568,-628 446,-628 446,-628 440,-628 434,-622 434,-616 434,-616 434,-604 434,-604 434,-598 440,-592 446,-592 446,-592 568,-592 568,-592 574,-592 580,-598 580,-604 580,-604 580,-616 580,-616 580,-622 574,-628 568,-628"/>
<text text-anchor="middle" x="507" y="-607.5" font-family="Arial" font-size="10.00">move_three_objects_seed123</text>
</g>
<!-- node_1 -->
<g id="node3" class="node">
<title>node_1</title>
<path fill="#4ecdc4" stroke="black" d="M146,-534C146,-534 12,-534 12,-534 6,-534 0,-528 0,-522 0,-522 0,-510 0,-510 0,-504 6,-498 12,-498 12,-498 146,-498 146,-498 152,-498 158,-504 158,-510 158,-510 158,-522 158,-522 158,-528 152,-534 146,-534"/>
<text text-anchor="middle" x="79" y="-513.5" font-family="Arial" font-size="10.00">approach_first_0_5m_cubed_b...</text>
</g>
<!-- node_0&#45;&gt;node_1 -->
<g id="edge1" class="edge">
<title>node_0&#45;&gt;node_1</title>
<path fill="none" stroke="#999999" d="M433.91,-593.29C359.52,-577.3 244.22,-552.51 165.36,-535.56"/>
<polygon fill="#999999" stroke="#999999" points="165.68,-533.13 158.33,-534.05 164.65,-537.92 165.68,-533.13"/>
</g>
<!-- node_2 -->
<g id="node4" class="node">
<title>node_2</title>
<path fill="#4ecdc4" stroke="black" d="M333,-534C333,-534 199,-534 199,-534 193,-534 187,-528 187,-522 187,-522 187,-510 187,-510 187,-504 193,-498 199,-498 199,-498 333,-498 333,-498 339,-498 345,-504 345,-510 345,-510 345,-522 345,-522 345,-528 339,-534 333,-534"/>
<text text-anchor="middle" x="266" y="-513.5" font-family="Arial" font-size="10.00">push_first_0_5m_cubed_block...</text>
</g>
<!-- node_0&#45;&gt;node_2 -->
<g id="edge2" class="edge">
<title>node_0&#45;&gt;node_2</title>
<path fill="none" stroke="#999999" d="M462.23,-591.91C421.27,-576.27 360.68,-553.14 317.68,-536.73"/>
<polygon fill="#999999" stroke="#999999" points="318.35,-534.36 310.93,-534.15 316.6,-538.94 318.35,-534.36"/>
</g>
<!-- node_3 -->
<g id="node5" class="node">
<title>node_3</title>
<path fill="#4ecdc4" stroke="black" d="M254,-368C254,-368 120,-368 120,-368 114,-368 108,-362 108,-356 108,-356 108,-344 108,-344 108,-338 114,-332 120,-332 120,-332 254,-332 254,-332 260,-332 266,-338 266,-344 266,-344 266,-356 266,-356 266,-362 260,-368 254,-368"/>
<text text-anchor="middle" x="187" y="-347.5" font-family="Arial" font-size="10.00">push_first_0_5m_cubed_block...</text>
</g>
<!-- node_0&#45;&gt;node_3 -->
<g id="edge3" class="edge">
<title>node_0&#45;&gt;node_3</title>
<path fill="none" stroke="#999999" d="M485.76,-591.87C429.5,-546.52 276.71,-423.33 214.21,-372.94"/>
<polygon fill="#999999" stroke="#999999" points="215.43,-370.78 208.45,-368.29 212.36,-374.59 215.43,-370.78"/>
</g>
<!-- node_4 -->
<g id="node6" class="node">
<title>node_4</title>
<path fill="#4ecdc4" stroke="black" d="M451,-368C451,-368 307,-368 307,-368 301,-368 295,-362 295,-356 295,-356 295,-344 295,-344 295,-338 301,-332 307,-332 307,-332 451,-332 451,-332 457,-332 463,-338 463,-344 463,-344 463,-356 463,-356 463,-362 457,-368 451,-368"/>
<text text-anchor="middle" x="379" y="-347.5" font-family="Arial" font-size="10.00">approach_second_0_5m_cubed_...</text>
</g>
<!-- node_0&#45;&gt;node_4 -->
<g id="edge4" class="edge">
<title>node_0&#45;&gt;node_4</title>
<path fill="none" stroke="#999999" d="M498.4,-591.67C476.09,-546.69 416.28,-426.14 390.78,-374.74"/>
<polygon fill="#999999" stroke="#999999" points="392.87,-373.44 387.56,-368.25 388.48,-375.61 392.87,-373.44"/>
</g>
<!-- node_5 -->
<g id="node7" class="node">
<title>node_5</title>
<path fill="#4ecdc4" stroke="black" d="M373.5,-202C373.5,-202 230.5,-202 230.5,-202 224.5,-202 218.5,-196 218.5,-190 218.5,-190 218.5,-178 218.5,-178 218.5,-172 224.5,-166 230.5,-166 230.5,-166 373.5,-166 373.5,-166 379.5,-166 385.5,-172 385.5,-178 385.5,-178 385.5,-190 385.5,-190 385.5,-196 379.5,-202 373.5,-202"/>
<text text-anchor="middle" x="302" y="-181.5" font-family="Arial" font-size="10.00">push_second_0_5m_cubed_bloc...</text>
</g>
<!-- node_0&#45;&gt;node_5 -->
<g id="edge5" class="edge">
<title>node_0&#45;&gt;node_5</title>
<path fill="none" stroke="#999999" d="M507,-591.61C507,-560.16 507,-491.73 507,-434 507,-434 507,-434 507,-349 507,-274.61 423.68,-228.42 363.27,-204.7"/>
<polygon fill="#999999" stroke="#999999" points="363.81,-202.28 356.4,-202.06 362.05,-206.86 363.81,-202.28"/>
</g>
<!-- node_6 -->
<g id="node8" class="node">
<title>node_6</title>
<path fill="#4ecdc4" stroke="black" d="M569.5,-202C569.5,-202 426.5,-202 426.5,-202 420.5,-202 414.5,-196 414.5,-190 414.5,-190 414.5,-178 414.5,-178 414.5,-172 420.5,-166 426.5,-166 426.5,-166 569.5,-166 569.5,-166 575.5,-166 581.5,-172 581.5,-178 581.5,-178 581.5,-190 581.5,-190 581.5,-196 575.5,-202 569.5,-202"/>
<text text-anchor="middle" x="498" y="-181.5" font-family="Arial" font-size="10.00">push_second_0_5m_cubed_bloc...</text>
</g>
<!-- node_0&#45;&gt;node_6 -->
<g id="edge6" class="edge">
<title>node_0&#45;&gt;node_6</title>
<path fill="none" stroke="#999999" d="M517.01,-591.77C533.84,-561.1 566,-494.6 566,-434 566,-434 566,-434 566,-349 566,-295.48 534.71,-239.11 514.58,-208.38"/>
<polygon fill="#999999" stroke="#999999" points="516.4,-206.68 510.47,-202.22 512.32,-209.4 516.4,-206.68"/>
</g>
<!-- node_7 -->
<g id="node9" class="node">
<title>node_7</title>
<path fill="#4ecdc4" stroke="black" d="M514.5,-36C514.5,-36 377.5,-36 377.5,-36 371.5,-36 365.5,-30 365.5,-24 365.5,-24 365.5,-12 365.5,-12 365.5,-6 371.5,0 377.5,0 377.5,0 514.5,0 514.5,0 520.5,0 526.5,-6 526.5,-12 526.5,-12 526.5,-24 526.5,-24 526.5,-30 520.5,-36 514.5,-36"/>
<text text-anchor="middle" x="446" y="-15.5" font-family="Arial" font-size="10.00">approach_third_0_5m_cubed_b...</text>
</g>
<!-- node_0&#45;&gt;node_7 -->
<g id="edge7" class="edge">
<title>node_0&#45;&gt;node_7</title>
<path fill="none" stroke="#999999" d="M528.92,-591.96C563.04,-563.32 625,-501.97 625,-434 625,-434 625,-434 625,-183 625,-112.67 548.95,-64.35 495.99,-39.22"/>
<polygon fill="#999999" stroke="#999999" points="496.71,-36.86 489.33,-36.13 494.65,-41.3 496.71,-36.86"/>
</g>
<!-- node_8 -->
<g id="node10" class="node">
<title>node_8</title>
<path fill="#4ecdc4" stroke="black" d="M752,-36C752,-36 616,-36 616,-36 610,-36 604,-30 604,-24 604,-24 604,-12 604,-12 604,-6 610,0 616,0 616,0 752,0 752,0 758,0 764,-6 764,-12 764,-12 764,-24 764,-24 764,-30 758,-36 752,-36"/>
<text text-anchor="middle" x="684" y="-15.5" font-family="Arial" font-size="10.00">push_third_0_5m_cubed_block...</text>
</g>
<!-- node_0&#45;&gt;node_8 -->
<g id="edge8" class="edge">
<title>node_0&#45;&gt;node_8</title>
<path fill="none" stroke="#999999" d="M545.84,-591.8C597.95,-565.78 684,-511.13 684,-434 684,-434 684,-434 684,-183 684,-133.44 684,-75.47 684,-43.42"/>
<polygon fill="#999999" stroke="#999999" points="686.45,-43.24 684,-36.24 681.55,-43.24 686.45,-43.24"/>
</g>
<!-- node_9 -->
<g id="node11" class="node">
<title>node_9</title>
<path fill="#4ecdc4" stroke="black" d="M941,-36C941,-36 805,-36 805,-36 799,-36 793,-30 793,-24 793,-24 793,-12 793,-12 793,-6 799,0 805,0 805,0 941,0 941,0 947,0 953,-6 953,-12 953,-12 953,-24 953,-24 953,-30 947,-36 941,-36"/>
<text text-anchor="middle" x="873" y="-15.5" font-family="Arial" font-size="10.00">push_third_0_5m_cubed_block...</text>
</g>
<!-- node_0&#45;&gt;node_9 -->
<g id="edge9" class="edge">
<title>node_0&#45;&gt;node_9</title>
<path fill="none" stroke="#999999" d="M580.19,-605.79C686.99,-596.75 873,-562.54 873,-434 873,-434 873,-434 873,-183 873,-133.44 873,-75.47 873,-43.42"/>
<polygon fill="#999999" stroke="#999999" points="875.45,-43.24 873,-36.24 870.55,-43.24 875.45,-43.24"/>
</g>
<!-- tier_spacer_1_1 -->
<!-- node_1&#45;&gt;tier_spacer_1_1 -->
<!-- tier_spacer_1_2 -->
<!-- node_3&#45;&gt;tier_spacer_1_2 -->
<!-- tier_spacer_1_3 -->
<!-- node_5&#45;&gt;tier_spacer_1_3 -->
<!-- tier_spacer_1_1&#45;&gt;node_3 -->
<!-- tier_spacer_1_2&#45;&gt;node_5 -->
<!-- tier_spacer_1_3&#45;&gt;node_7 -->
</g>
</svg>
