<?xml version="1.0" encoding="UTF-8" standalone="no"?>
<!DOCTYPE svg PUBLIC "-//W3C//DTD SVG 1.1//EN"
 "http://www.w3.org/Graphics/SVG/1.1/DTD/svg11.dtd">
<!-- Generated by graphviz version 2.43.0 (0)
 -->
<!-- Title: %3 Pages: 1 -->
<svg width="2496pt" height="3317pt"
 viewBox="0.00 0.00 599.00 796.00" xmlns="http://www.w3.org/2000/svg" xmlns:xlink="http://www.w3.org/1999/xlink">
<g id="graph0" class="graph" transform="scale(4.17 4.17) rotate(0) translate(4 792)">
<title>%3</title>
<polygon fill="white" stroke="transparent" points="-4,4 -4,-792 595,-792 595,4 -4,4"/>
<!-- title -->
<g id="node1" class="node">
<title>title</title>
<path fill="lightgrey" stroke="transparent" d="M366,-788C366,-788 12,-788 12,-788 6,-788 0,-782 0,-776 0,-776 0,-764 0,-764 0,-758 6,-752 12,-752 12,-752 366,-752 366,-752 372,-752 378,-758 378,-764 378,-764 378,-776 378,-776 378,-782 372,-788 366,-788"/>
<text text-anchor="middle" x="189" y="-773.4" font-family="Arial Bold" font-size="12.00">obstacle_course_seed456</text>
<text text-anchor="middle" x="189" y="-760.4" font-family="Arial Bold" font-size="12.00">Complete the obstacle course by navigating through and inter...</text>
</g>
<!-- node_0 -->
<g id="node2" class="node">
<title>node_0</title>
<path fill="#ff6b6b" stroke="black" d="M525,-788C525,-788 419,-788 419,-788 413,-788 407,-782 407,-776 407,-776 407,-764 407,-764 407,-758 413,-752 419,-752 419,-752 525,-752 525,-752 531,-752 537,-758 537,-764 537,-764 537,-776 537,-776 537,-782 531,-788 525,-788"/>
<text text-anchor="middle" x="472" y="-767.5" font-family="Arial" font-size="10.00">obstacle_course_seed456</text>
</g>
<!-- node_1 -->
<g id="node3" class="node">
<title>node_1</title>
<path fill="#4ecdc4" stroke="black" d="M387,-694C387,-694 237,-694 237,-694 231,-694 225,-688 225,-682 225,-682 225,-670 225,-670 225,-664 231,-658 237,-658 237,-658 387,-658 387,-658 393,-658 399,-664 399,-670 399,-670 399,-682 399,-682 399,-688 393,-694 387,-694"/>
<text text-anchor="middle" x="312" y="-673.5" font-family="Arial" font-size="10.00">Navigate_and_Jump_Over_LowWall</text>
</g>
<!-- node_0&#45;&gt;node_1 -->
<g id="edge1" class="edge">
<title>node_0&#45;&gt;node_1</title>
<path fill="none" stroke="#999999" d="M442.28,-751.91C415.65,-736.6 376.51,-714.09 348.09,-697.75"/>
<polygon fill="#999999" stroke="#999999" points="349.12,-695.52 341.83,-694.15 346.68,-699.77 349.12,-695.52"/>
</g>
<!-- node_4 -->
<g id="node6" class="node">
<title>node_4</title>
<path fill="#4ecdc4" stroke="black" d="M445.5,-506C445.5,-506 308.5,-506 308.5,-506 302.5,-506 296.5,-500 296.5,-494 296.5,-494 296.5,-482 296.5,-482 296.5,-476 302.5,-470 308.5,-470 308.5,-470 445.5,-470 445.5,-470 451.5,-470 457.5,-476 457.5,-482 457.5,-482 457.5,-494 457.5,-494 457.5,-500 451.5,-506 445.5,-506"/>
<text text-anchor="middle" x="377" y="-485.5" font-family="Arial" font-size="10.00">Push_LargeSphere_to_Topple_...</text>
</g>
<!-- node_0&#45;&gt;node_4 -->
<g id="edge4" class="edge">
<title>node_0&#45;&gt;node_4</title>
<path fill="none" stroke="#999999" d="M467.03,-751.85C456.66,-716.46 431.66,-632.9 407,-564 400.83,-546.75 393.14,-527.58 387.1,-512.94"/>
<polygon fill="#999999" stroke="#999999" points="389.22,-511.67 384.27,-506.14 384.7,-513.54 389.22,-511.67"/>
</g>
<!-- node_7 -->
<g id="node9" class="node">
<title>node_7</title>
<path fill="#4ecdc4" stroke="black" d="M506.5,-318C506.5,-318 403.5,-318 403.5,-318 397.5,-318 391.5,-312 391.5,-306 391.5,-306 391.5,-294 391.5,-294 391.5,-288 397.5,-282 403.5,-282 403.5,-282 506.5,-282 506.5,-282 512.5,-282 518.5,-288 518.5,-294 518.5,-294 518.5,-306 518.5,-306 518.5,-312 512.5,-318 506.5,-318"/>
<text text-anchor="middle" x="455" y="-297.5" font-family="Arial" font-size="10.00">Kick_SmallSphere_Away</text>
</g>
<!-- node_0&#45;&gt;node_7 -->
<g id="edge7" class="edge">
<title>node_0&#45;&gt;node_7</title>
<path fill="none" stroke="#999999" d="M476.62,-751.97C485.04,-719.41 502,-645.96 502,-583 502,-583 502,-583 502,-487 502,-427.05 478.76,-359.45 464.97,-324.59"/>
<polygon fill="#999999" stroke="#999999" points="467.23,-323.65 462.34,-318.07 462.68,-325.48 467.23,-323.65"/>
</g>
<!-- node_10 -->
<g id="node12" class="node">
<title>node_10</title>
<path fill="#4ecdc4" stroke="black" d="M579,-130C579,-130 457,-130 457,-130 451,-130 445,-124 445,-118 445,-118 445,-106 445,-106 445,-100 451,-94 457,-94 457,-94 579,-94 579,-94 585,-94 591,-100 591,-106 591,-106 591,-118 591,-118 591,-124 585,-130 579,-130"/>
<text text-anchor="middle" x="518" y="-109.5" font-family="Arial" font-size="10.00">Jump_On_Top_of_BlockCube</text>
</g>
<!-- node_0&#45;&gt;node_10 -->
<g id="edge10" class="edge">
<title>node_0&#45;&gt;node_10</title>
<path fill="none" stroke="#999999" d="M487.03,-751.91C512.87,-720.68 563,-651.3 563,-583 563,-583 563,-583 563,-299 563,-239.45 540.94,-172.1 527.71,-137.07"/>
<polygon fill="#999999" stroke="#999999" points="529.83,-135.76 525.03,-130.1 525.25,-137.52 529.83,-135.76"/>
</g>
<!-- node_2 -->
<g id="node4" class="node">
<title>node_2</title>
<path fill="#45b7d1" stroke="black" d="M220.5,-600C220.5,-600 155.5,-600 155.5,-600 149.5,-600 143.5,-594 143.5,-588 143.5,-588 143.5,-576 143.5,-576 143.5,-570 149.5,-564 155.5,-564 155.5,-564 220.5,-564 220.5,-564 226.5,-564 232.5,-570 232.5,-576 232.5,-576 232.5,-588 232.5,-588 232.5,-594 226.5,-600 220.5,-600"/>
<text text-anchor="middle" x="188" y="-579.5" font-family="Arial" font-size="10.00">walk_to_lowWall</text>
</g>
<!-- node_1&#45;&gt;node_2 -->
<g id="edge2" class="edge">
<title>node_1&#45;&gt;node_2</title>
<path fill="none" stroke="#999999" d="M288.97,-657.91C268.65,-642.84 238.95,-620.8 217.01,-604.52"/>
<polygon fill="#999999" stroke="#999999" points="218.41,-602.51 211.33,-600.31 215.49,-606.45 218.41,-602.51"/>
</g>
<!-- node_3 -->
<g id="node5" class="node">
<title>node_3</title>
<path fill="#45b7d1" stroke="black" d="M350.5,-600C350.5,-600 273.5,-600 273.5,-600 267.5,-600 261.5,-594 261.5,-588 261.5,-588 261.5,-576 261.5,-576 261.5,-570 267.5,-564 273.5,-564 273.5,-564 350.5,-564 350.5,-564 356.5,-564 362.5,-570 362.5,-576 362.5,-576 362.5,-588 362.5,-588 362.5,-594 356.5,-600 350.5,-600"/>
<text text-anchor="middle" x="312" y="-579.5" font-family="Arial" font-size="10.00">jump_over_lowWall</text>
</g>
<!-- node_1&#45;&gt;node_3 -->
<g id="edge3" class="edge">
<title>node_1&#45;&gt;node_3</title>
<path fill="none" stroke="#999999" d="M312,-657.7C312,-643.56 312,-623.41 312,-607.59"/>
<polygon fill="#999999" stroke="#999999" points="314.45,-607.23 312,-600.23 309.55,-607.23 314.45,-607.23"/>
</g>
<!-- tier_spacer_1_1 -->
<!-- node_1&#45;&gt;tier_spacer_1_1 -->
<!-- tier_spacer_2_1 -->
<!-- node_2&#45;&gt;tier_spacer_2_1 -->
<!-- node_5 -->
<g id="node7" class="node">
<title>node_5</title>
<path fill="#45b7d1" stroke="black" d="M229.5,-412C229.5,-412 146.5,-412 146.5,-412 140.5,-412 134.5,-406 134.5,-400 134.5,-400 134.5,-388 134.5,-388 134.5,-382 140.5,-376 146.5,-376 146.5,-376 229.5,-376 229.5,-376 235.5,-376 241.5,-382 241.5,-388 241.5,-388 241.5,-400 241.5,-400 241.5,-406 235.5,-412 229.5,-412"/>
<text text-anchor="middle" x="188" y="-391.5" font-family="Arial" font-size="10.00">walk_to_largeSphere</text>
</g>
<!-- node_4&#45;&gt;node_5 -->
<g id="edge5" class="edge">
<title>node_4&#45;&gt;node_5</title>
<path fill="none" stroke="#999999" d="M341.89,-469.91C310.17,-454.47 263.42,-431.71 229.78,-415.34"/>
<polygon fill="#999999" stroke="#999999" points="230.6,-413.01 223.24,-412.15 228.46,-417.42 230.6,-413.01"/>
</g>
<!-- node_6 -->
<g id="node8" class="node">
<title>node_6</title>
<path fill="#45b7d1" stroke="black" d="M415,-412C415,-412 283,-412 283,-412 277,-412 271,-406 271,-400 271,-400 271,-388 271,-388 271,-382 277,-376 283,-376 283,-376 415,-376 415,-376 421,-376 427,-382 427,-388 427,-388 427,-400 427,-400 427,-406 421,-412 415,-412"/>
<text text-anchor="middle" x="349" y="-391.5" font-family="Arial" font-size="10.00">push_largeSphere_towards_hi...</text>
</g>
<!-- node_4&#45;&gt;node_6 -->
<g id="edge6" class="edge">
<title>node_4&#45;&gt;node_6</title>
<path fill="none" stroke="#999999" d="M371.73,-469.7C367.39,-455.43 361.19,-435.04 356.35,-419.16"/>
<polygon fill="#999999" stroke="#999999" points="358.63,-418.21 354.24,-412.23 353.94,-419.64 358.63,-418.21"/>
</g>
<!-- tier_spacer_1_2 -->
<!-- node_4&#45;&gt;tier_spacer_1_2 -->
<!-- tier_spacer_2_2 -->
<!-- node_5&#45;&gt;tier_spacer_2_2 -->
<!-- node_8 -->
<g id="node10" class="node">
<title>node_8</title>
<path fill="#45b7d1" stroke="black" d="M286,-224C286,-224 200,-224 200,-224 194,-224 188,-218 188,-212 188,-212 188,-200 188,-200 188,-194 194,-188 200,-188 200,-188 286,-188 286,-188 292,-188 298,-194 298,-200 298,-200 298,-212 298,-212 298,-218 292,-224 286,-224"/>
<text text-anchor="middle" x="243" y="-203.5" font-family="Arial" font-size="10.00">walk_to_smallSphere</text>
</g>
<!-- node_7&#45;&gt;node_8 -->
<g id="edge8" class="edge">
<title>node_7&#45;&gt;node_8</title>
<path fill="none" stroke="#999999" d="M415.62,-281.91C379.89,-266.4 327.16,-243.52 289.4,-227.13"/>
<polygon fill="#999999" stroke="#999999" points="289.92,-224.69 282.53,-224.15 287.97,-229.19 289.92,-224.69"/>
</g>
<!-- node_9 -->
<g id="node11" class="node">
<title>node_9</title>
<path fill="#45b7d1" stroke="black" d="M476.5,-224C476.5,-224 339.5,-224 339.5,-224 333.5,-224 327.5,-218 327.5,-212 327.5,-212 327.5,-200 327.5,-200 327.5,-194 333.5,-188 339.5,-188 339.5,-188 476.5,-188 476.5,-188 482.5,-188 488.5,-194 488.5,-200 488.5,-200 488.5,-212 488.5,-212 488.5,-218 482.5,-224 476.5,-224"/>
<text text-anchor="middle" x="408" y="-203.5" font-family="Arial" font-size="10.00">kick_smallSphere_away_from_...</text>
</g>
<!-- node_7&#45;&gt;node_9 -->
<g id="edge9" class="edge">
<title>node_7&#45;&gt;node_9</title>
<path fill="none" stroke="#999999" d="M446.16,-281.7C438.81,-267.3 428.27,-246.67 420.13,-230.74"/>
<polygon fill="#999999" stroke="#999999" points="422.17,-229.35 416.8,-224.23 417.8,-231.58 422.17,-229.35"/>
</g>
<!-- tier_spacer_1_3 -->
<!-- node_7&#45;&gt;tier_spacer_1_3 -->
<!-- tier_spacer_2_3 -->
<!-- node_8&#45;&gt;tier_spacer_2_3 -->
<!-- node_11 -->
<g id="node13" class="node">
<title>node_11</title>
<path fill="#45b7d1" stroke="black" d="M377,-36C377,-36 299,-36 299,-36 293,-36 287,-30 287,-24 287,-24 287,-12 287,-12 287,-6 293,0 299,0 299,0 377,0 377,0 383,0 389,-6 389,-12 389,-12 389,-24 389,-24 389,-30 383,-36 377,-36"/>
<text text-anchor="middle" x="338" y="-15.5" font-family="Arial" font-size="10.00">walk_to_blockCube</text>
</g>
<!-- node_10&#45;&gt;node_11 -->
<g id="edge11" class="edge">
<title>node_10&#45;&gt;node_11</title>
<path fill="none" stroke="#999999" d="M484.57,-93.91C454.35,-78.47 409.83,-55.71 377.79,-39.34"/>
<polygon fill="#999999" stroke="#999999" points="378.91,-37.16 371.56,-36.15 376.68,-41.52 378.91,-37.16"/>
</g>
<!-- node_12 -->
<g id="node14" class="node">
<title>node_12</title>
<path fill="#45b7d1" stroke="black" d="M574.5,-36C574.5,-36 461.5,-36 461.5,-36 455.5,-36 449.5,-30 449.5,-24 449.5,-24 449.5,-12 449.5,-12 449.5,-6 455.5,0 461.5,0 461.5,0 574.5,0 574.5,0 580.5,0 586.5,-6 586.5,-12 586.5,-12 586.5,-24 586.5,-24 586.5,-30 580.5,-36 574.5,-36"/>
<text text-anchor="middle" x="518" y="-15.5" font-family="Arial" font-size="10.00">jump_on_top_of_blockCube</text>
</g>
<!-- node_10&#45;&gt;node_12 -->
<g id="edge12" class="edge">
<title>node_10&#45;&gt;node_12</title>
<path fill="none" stroke="#999999" d="M518,-93.7C518,-79.56 518,-59.41 518,-43.59"/>
<polygon fill="#999999" stroke="#999999" points="520.45,-43.23 518,-36.23 515.55,-43.23 520.45,-43.23"/>
</g>
<!-- tier_spacer_1_1&#45;&gt;node_4 -->
<!-- tier_spacer_1_2&#45;&gt;node_7 -->
<!-- tier_spacer_1_3&#45;&gt;node_10 -->
<!-- tier_spacer_2_1&#45;&gt;node_5 -->
<!-- tier_spacer_2_2&#45;&gt;node_8 -->
<!-- tier_spacer_2_3&#45;&gt;node_11 -->
</g>
</svg>
