<?xml version="1.0" encoding="UTF-8" standalone="no"?>
<!DOCTYPE svg PUBLIC "-//W3C//DTD SVG 1.1//EN"
 "http://www.w3.org/Graphics/SVG/1.1/DTD/svg11.dtd">
<!-- Generated by graphviz version 2.43.0 (0)
 -->
<!-- Title: %3 Pages: 1 -->
<svg width="3431pt" height="3317pt"
 viewBox="0.00 0.00 823.50 796.00" xmlns="http://www.w3.org/2000/svg" xmlns:xlink="http://www.w3.org/1999/xlink">
<g id="graph0" class="graph" transform="scale(4.17 4.17) rotate(0) translate(4 792)">
<title>%3</title>
<polygon fill="white" stroke="transparent" points="-4,4 -4,-792 819.5,-792 819.5,4 -4,4"/>
<!-- title -->
<g id="node1" class="node">
<title>title</title>
<path fill="lightgrey" stroke="transparent" d="M369,-788C369,-788 12,-788 12,-788 6,-788 0,-782 0,-776 0,-776 0,-764 0,-764 0,-758 6,-752 12,-752 12,-752 369,-752 369,-752 375,-752 381,-758 381,-764 381,-764 381,-776 381,-776 381,-782 375,-788 369,-788"/>
<text text-anchor="middle" x="190.5" y="-773.4" font-family="Arial Bold" font-size="12.00">obstacle_course_seed42</text>
<text text-anchor="middle" x="190.5" y="-760.4" font-family="Arial Bold" font-size="12.00">Complete the obstacle course by navigating through various p...</text>
</g>
<!-- node_0 -->
<g id="node2" class="node">
<title>node_0</title>
<path fill="#ff6b6b" stroke="black" d="M523,-788C523,-788 422,-788 422,-788 416,-788 410,-782 410,-776 410,-776 410,-764 410,-764 410,-758 416,-752 422,-752 422,-752 523,-752 523,-752 529,-752 535,-758 535,-764 535,-764 535,-776 535,-776 535,-782 529,-788 523,-788"/>
<text text-anchor="middle" x="472.5" y="-767.5" font-family="Arial" font-size="10.00">obstacle_course_seed42</text>
</g>
<!-- node_1 -->
<g id="node3" class="node">
<title>node_1</title>
<path fill="#4ecdc4" stroke="black" d="M360.5,-694C360.5,-694 286.5,-694 286.5,-694 280.5,-694 274.5,-688 274.5,-682 274.5,-682 274.5,-670 274.5,-670 274.5,-664 280.5,-658 286.5,-658 286.5,-658 360.5,-658 360.5,-658 366.5,-658 372.5,-664 372.5,-670 372.5,-670 372.5,-682 372.5,-682 372.5,-688 366.5,-694 360.5,-694"/>
<text text-anchor="middle" x="323.5" y="-673.5" font-family="Arial" font-size="10.00">OvercomeLowWall</text>
</g>
<!-- node_0&#45;&gt;node_1 -->
<g id="edge1" class="edge">
<title>node_0&#45;&gt;node_1</title>
<path fill="none" stroke="#999999" d="M444.82,-751.91C420.12,-736.66 383.88,-714.28 357.44,-697.96"/>
<polygon fill="#999999" stroke="#999999" points="358.52,-695.75 351.28,-694.15 355.95,-699.92 358.52,-695.75"/>
</g>
<!-- node_5 -->
<g id="node7" class="node">
<title>node_5</title>
<path fill="#4ecdc4" stroke="black" d="M449.5,-506C449.5,-506 379.5,-506 379.5,-506 373.5,-506 367.5,-500 367.5,-494 367.5,-494 367.5,-482 367.5,-482 367.5,-476 373.5,-470 379.5,-470 379.5,-470 449.5,-470 449.5,-470 455.5,-470 461.5,-476 461.5,-482 461.5,-482 461.5,-494 461.5,-494 461.5,-500 455.5,-506 449.5,-506"/>
<text text-anchor="middle" x="414.5" y="-485.5" font-family="Arial" font-size="10.00">PushLargeSphere</text>
</g>
<!-- node_0&#45;&gt;node_5 -->
<g id="edge5" class="edge">
<title>node_0&#45;&gt;node_5</title>
<path fill="none" stroke="#999999" d="M468.96,-751.91C459.05,-704.07 431.01,-568.71 419.51,-513.2"/>
<polygon fill="#999999" stroke="#999999" points="421.89,-512.58 418.07,-506.23 417.09,-513.58 421.89,-512.58"/>
</g>
<!-- node_8 -->
<g id="node10" class="node">
<title>node_8</title>
<path fill="#4ecdc4" stroke="black" d="M538.5,-318C538.5,-318 470.5,-318 470.5,-318 464.5,-318 458.5,-312 458.5,-306 458.5,-306 458.5,-294 458.5,-294 458.5,-288 464.5,-282 470.5,-282 470.5,-282 538.5,-282 538.5,-282 544.5,-282 550.5,-288 550.5,-294 550.5,-294 550.5,-306 550.5,-306 550.5,-312 544.5,-318 538.5,-318"/>
<text text-anchor="middle" x="504.5" y="-297.5" font-family="Arial" font-size="10.00">KickSmallSphere</text>
</g>
<!-- node_0&#45;&gt;node_8 -->
<g id="edge8" class="edge">
<title>node_0&#45;&gt;node_8</title>
<path fill="none" stroke="#999999" d="M477.66,-751.74C486.94,-719.11 505.5,-645.97 505.5,-583 505.5,-583 505.5,-583 505.5,-487 505.5,-428.97 505.01,-360.75 504.71,-325.24"/>
<polygon fill="#999999" stroke="#999999" points="507.16,-325.16 504.65,-318.18 502.26,-325.2 507.16,-325.16"/>
</g>
<!-- node_11 -->
<g id="node13" class="node">
<title>node_11</title>
<path fill="#4ecdc4" stroke="black" d="M636,-130C636,-130 559,-130 559,-130 553,-130 547,-124 547,-118 547,-118 547,-106 547,-106 547,-100 553,-94 559,-94 559,-94 636,-94 636,-94 642,-94 648,-100 648,-106 648,-106 648,-118 648,-118 648,-124 642,-130 636,-130"/>
<text text-anchor="middle" x="597.5" y="-109.5" font-family="Arial" font-size="10.00">JumpOnBlockCube</text>
</g>
<!-- node_0&#45;&gt;node_11 -->
<g id="edge11" class="edge">
<title>node_0&#45;&gt;node_11</title>
<path fill="none" stroke="#999999" d="M494.38,-751.81C529.98,-721.72 596.5,-655.77 596.5,-583 596.5,-583 596.5,-583 596.5,-299 596.5,-240.97 596.99,-172.75 597.29,-137.24"/>
<polygon fill="#999999" stroke="#999999" points="599.74,-137.2 597.35,-130.18 594.84,-137.16 599.74,-137.2"/>
</g>
<!-- node_2 -->
<g id="node4" class="node">
<title>node_2</title>
<path fill="#45b7d1" stroke="black" d="M137,-600C137,-600 72,-600 72,-600 66,-600 60,-594 60,-588 60,-588 60,-576 60,-576 60,-570 66,-564 72,-564 72,-564 137,-564 137,-564 143,-564 149,-570 149,-576 149,-576 149,-588 149,-588 149,-594 143,-600 137,-600"/>
<text text-anchor="middle" x="104.5" y="-579.5" font-family="Arial" font-size="10.00">walk_to_lowWall</text>
</g>
<!-- node_1&#45;&gt;node_2 -->
<g id="edge2" class="edge">
<title>node_1&#45;&gt;node_2</title>
<path fill="none" stroke="#999999" d="M282.82,-657.91C245.75,-642.34 190.99,-619.33 151.94,-602.93"/>
<polygon fill="#999999" stroke="#999999" points="152.73,-600.61 145.33,-600.15 150.84,-605.12 152.73,-600.61"/>
</g>
<!-- node_3 -->
<g id="node5" class="node">
<title>node_3</title>
<path fill="#45b7d1" stroke="black" d="M267,-600C267,-600 190,-600 190,-600 184,-600 178,-594 178,-588 178,-588 178,-576 178,-576 178,-570 184,-564 190,-564 190,-564 267,-564 267,-564 273,-564 279,-570 279,-576 279,-576 279,-588 279,-588 279,-594 273,-600 267,-600"/>
<text text-anchor="middle" x="228.5" y="-579.5" font-family="Arial" font-size="10.00">jump_over_lowWall</text>
</g>
<!-- node_1&#45;&gt;node_3 -->
<g id="edge3" class="edge">
<title>node_1&#45;&gt;node_3</title>
<path fill="none" stroke="#999999" d="M305.63,-657.7C290.37,-642.92 268.32,-621.56 251.7,-605.47"/>
<polygon fill="#999999" stroke="#999999" points="253.02,-603.34 246.29,-600.23 249.61,-606.86 253.02,-603.34"/>
</g>
<!-- node_4 -->
<g id="node6" class="node">
<title>node_4</title>
<path fill="#45b7d1" stroke="black" d="M221.5,-412C221.5,-412 141.5,-412 141.5,-412 135.5,-412 129.5,-406 129.5,-400 129.5,-400 129.5,-388 129.5,-388 129.5,-382 135.5,-376 141.5,-376 141.5,-376 221.5,-376 221.5,-376 227.5,-376 233.5,-382 233.5,-388 233.5,-388 233.5,-400 233.5,-400 233.5,-406 227.5,-412 221.5,-412"/>
<text text-anchor="middle" x="181.5" y="-391.5" font-family="Arial" font-size="10.00">stabilize_after_jump</text>
</g>
<!-- node_1&#45;&gt;node_4 -->
<g id="edge4" class="edge">
<title>node_1&#45;&gt;node_4</title>
<path fill="none" stroke="#999999" d="M320.64,-657.87C316.53,-635.55 307.81,-595.65 293.5,-564 267.97,-507.54 224.59,-448.81 199.98,-417.64"/>
<polygon fill="#999999" stroke="#999999" points="201.89,-416.1 195.61,-412.14 198.05,-419.15 201.89,-416.1"/>
</g>
<!-- tier_spacer_1_1 -->
<!-- node_1&#45;&gt;tier_spacer_1_1 -->
<!-- tier_spacer_2_1 -->
<!-- node_2&#45;&gt;tier_spacer_2_1 -->
<!-- tier_spacer_2_2 -->
<!-- node_4&#45;&gt;tier_spacer_2_2 -->
<!-- node_6 -->
<g id="node8" class="node">
<title>node_6</title>
<path fill="#45b7d1" stroke="black" d="M358,-412C358,-412 275,-412 275,-412 269,-412 263,-406 263,-400 263,-400 263,-388 263,-388 263,-382 269,-376 275,-376 275,-376 358,-376 358,-376 364,-376 370,-382 370,-388 370,-388 370,-400 370,-400 370,-406 364,-412 358,-412"/>
<text text-anchor="middle" x="316.5" y="-391.5" font-family="Arial" font-size="10.00">walk_to_largeSphere</text>
</g>
<!-- node_5&#45;&gt;node_6 -->
<g id="edge6" class="edge">
<title>node_5&#45;&gt;node_6</title>
<path fill="none" stroke="#999999" d="M396.07,-469.7C380.19,-454.79 357.18,-433.19 339.99,-417.05"/>
<polygon fill="#999999" stroke="#999999" points="341.63,-415.23 334.85,-412.23 338.28,-418.8 341.63,-415.23"/>
</g>
<!-- node_7 -->
<g id="node9" class="node">
<title>node_7</title>
<path fill="#45b7d1" stroke="black" d="M307.5,-224C307.5,-224 175.5,-224 175.5,-224 169.5,-224 163.5,-218 163.5,-212 163.5,-212 163.5,-200 163.5,-200 163.5,-194 169.5,-188 175.5,-188 175.5,-188 307.5,-188 307.5,-188 313.5,-188 319.5,-194 319.5,-200 319.5,-200 319.5,-212 319.5,-212 319.5,-218 313.5,-224 307.5,-224"/>
<text text-anchor="middle" x="241.5" y="-203.5" font-family="Arial" font-size="10.00">push_largeSphere_towards_hi...</text>
</g>
<!-- node_5&#45;&gt;node_7 -->
<g id="edge7" class="edge">
<title>node_5&#45;&gt;node_7</title>
<path fill="none" stroke="#999999" d="M412.26,-469.99C408.79,-447.45 400.73,-406.94 384.5,-376 353.28,-316.48 297.98,-259.41 266.07,-229.22"/>
<polygon fill="#999999" stroke="#999999" points="267.56,-227.26 260.78,-224.26 264.21,-230.83 267.56,-227.26"/>
</g>
<!-- tier_spacer_1_2 -->
<!-- node_5&#45;&gt;tier_spacer_1_2 -->
<!-- tier_spacer_2_3 -->
<!-- node_7&#45;&gt;tier_spacer_2_3 -->
<!-- node_9 -->
<g id="node11" class="node">
<title>node_9</title>
<path fill="#45b7d1" stroke="black" d="M446.5,-224C446.5,-224 360.5,-224 360.5,-224 354.5,-224 348.5,-218 348.5,-212 348.5,-212 348.5,-200 348.5,-200 348.5,-194 354.5,-188 360.5,-188 360.5,-188 446.5,-188 446.5,-188 452.5,-188 458.5,-194 458.5,-200 458.5,-200 458.5,-212 458.5,-212 458.5,-218 452.5,-224 446.5,-224"/>
<text text-anchor="middle" x="403.5" y="-203.5" font-family="Arial" font-size="10.00">walk_to_smallSphere</text>
</g>
<!-- node_8&#45;&gt;node_9 -->
<g id="edge9" class="edge">
<title>node_8&#45;&gt;node_9</title>
<path fill="none" stroke="#999999" d="M485.5,-281.7C469.14,-266.79 445.43,-245.19 427.7,-229.05"/>
<polygon fill="#999999" stroke="#999999" points="429.24,-227.13 422.41,-224.23 425.94,-230.75 429.24,-227.13"/>
</g>
<!-- node_10 -->
<g id="node12" class="node">
<title>node_10</title>
<path fill="#45b7d1" stroke="black" d="M336.5,-36C336.5,-36 266.5,-36 266.5,-36 260.5,-36 254.5,-30 254.5,-24 254.5,-24 254.5,-12 254.5,-12 254.5,-6 260.5,0 266.5,0 266.5,0 336.5,0 336.5,0 342.5,0 348.5,-6 348.5,-12 348.5,-12 348.5,-24 348.5,-24 348.5,-30 342.5,-36 336.5,-36"/>
<text text-anchor="middle" x="301.5" y="-15.5" font-family="Arial" font-size="10.00">kick_smallSphere</text>
</g>
<!-- node_8&#45;&gt;node_10 -->
<g id="edge10" class="edge">
<title>node_8&#45;&gt;node_10</title>
<path fill="none" stroke="#999999" d="M502.5,-281.75C499.25,-258.95 491.3,-218.15 473.5,-188 436.43,-125.21 370.18,-69.63 331.62,-40.51"/>
<polygon fill="#999999" stroke="#999999" points="332.75,-38.3 325.68,-36.07 329.82,-42.22 332.75,-38.3"/>
</g>
<!-- tier_spacer_1_3 -->
<!-- node_8&#45;&gt;tier_spacer_1_3 -->
<!-- node_12 -->
<g id="node14" class="node">
<title>node_12</title>
<path fill="#45b7d1" stroke="black" d="M487.5,-36C487.5,-36 409.5,-36 409.5,-36 403.5,-36 397.5,-30 397.5,-24 397.5,-24 397.5,-12 397.5,-12 397.5,-6 403.5,0 409.5,0 409.5,0 487.5,0 487.5,0 493.5,0 499.5,-6 499.5,-12 499.5,-12 499.5,-24 499.5,-24 499.5,-30 493.5,-36 487.5,-36"/>
<text text-anchor="middle" x="448.5" y="-15.5" font-family="Arial" font-size="10.00">walk_to_blockCube</text>
</g>
<!-- node_11&#45;&gt;node_12 -->
<g id="edge12" class="edge">
<title>node_11&#45;&gt;node_12</title>
<path fill="none" stroke="#999999" d="M569.82,-93.91C545.12,-78.66 508.88,-56.28 482.44,-39.96"/>
<polygon fill="#999999" stroke="#999999" points="483.52,-37.75 476.28,-36.15 480.95,-41.92 483.52,-37.75"/>
</g>
<!-- node_13 -->
<g id="node15" class="node">
<title>node_13</title>
<path fill="#45b7d1" stroke="black" d="M654,-36C654,-36 541,-36 541,-36 535,-36 529,-30 529,-24 529,-24 529,-12 529,-12 529,-6 535,0 541,0 541,0 654,0 654,0 660,0 666,-6 666,-12 666,-12 666,-24 666,-24 666,-30 660,-36 654,-36"/>
<text text-anchor="middle" x="597.5" y="-15.5" font-family="Arial" font-size="10.00">jump_on_top_of_blockCube</text>
</g>
<!-- node_11&#45;&gt;node_13 -->
<g id="edge13" class="edge">
<title>node_11&#45;&gt;node_13</title>
<path fill="none" stroke="#999999" d="M597.5,-93.7C597.5,-79.56 597.5,-59.41 597.5,-43.59"/>
<polygon fill="#999999" stroke="#999999" points="599.95,-43.23 597.5,-36.23 595.05,-43.23 599.95,-43.23"/>
</g>
<!-- node_14 -->
<g id="node16" class="node">
<title>node_14</title>
<path fill="#45b7d1" stroke="black" d="M803.5,-36C803.5,-36 707.5,-36 707.5,-36 701.5,-36 695.5,-30 695.5,-24 695.5,-24 695.5,-12 695.5,-12 695.5,-6 701.5,0 707.5,0 707.5,0 803.5,0 803.5,0 809.5,0 815.5,-6 815.5,-12 815.5,-12 815.5,-24 815.5,-24 815.5,-30 809.5,-36 803.5,-36"/>
<text text-anchor="middle" x="755.5" y="-15.5" font-family="Arial" font-size="10.00">stabilize_on_blockCube</text>
</g>
<!-- node_11&#45;&gt;node_14 -->
<g id="edge14" class="edge">
<title>node_11&#45;&gt;node_14</title>
<path fill="none" stroke="#999999" d="M626.85,-93.91C653.15,-78.6 691.8,-56.09 719.86,-39.75"/>
<polygon fill="#999999" stroke="#999999" points="721.22,-41.79 726.04,-36.15 718.76,-37.56 721.22,-41.79"/>
</g>
<!-- tier_spacer_1_1&#45;&gt;node_5 -->
<!-- tier_spacer_1_2&#45;&gt;node_8 -->
<!-- tier_spacer_1_3&#45;&gt;node_11 -->
<!-- tier_spacer_2_1&#45;&gt;node_4 -->
<!-- tier_spacer_2_2&#45;&gt;node_7 -->
<!-- tier_spacer_2_3&#45;&gt;node_10 -->
</g>
</svg>
