<?xml version="1.0" encoding="UTF-8" standalone="no"?>
<!DOCTYPE svg PUBLIC "-//W3C//DTD SVG 1.1//EN"
 "http://www.w3.org/Graphics/SVG/1.1/DTD/svg11.dtd">
<!-- Generated by graphviz version 2.43.0 (0)
 -->
<!-- Title: %3 Pages: 1 -->
<svg width="3000pt" height="340pt"
 viewBox="0.00 0.00 720.00 81.55" xmlns="http://www.w3.org/2000/svg" xmlns:xlink="http://www.w3.org/1999/xlink">
<g id="graph0" class="graph" transform="scale(1.67 1.67) rotate(0) translate(4 200)">
<title>%3</title>
<polygon fill="white" stroke="transparent" points="-4,4 -4,-200 1797,-200 1797,4 -4,4"/>
<g id="clust1" class="cluster">
<title>cluster_l1_g0</title>
</g>
<g id="clust2" class="cluster">
<title>cluster_l1_g1</title>
</g>
<g id="clust3" class="cluster">
<title>cluster_l2_g0</title>
</g>
<g id="clust4" class="cluster">
<title>cluster_l2_g1</title>
</g>
<g id="clust5" class="cluster">
<title>cluster_l2_g2</title>
</g>
<g id="clust6" class="cluster">
<title>cluster_l2_g3</title>
</g>
<!-- title -->
<g id="node1" class="node">
<title>title</title>
<path fill="lightgrey" stroke="transparent" d="M725,-196C725,-196 381,-196 381,-196 375,-196 369,-190 369,-184 369,-184 369,-172 369,-172 369,-166 375,-160 381,-160 381,-160 725,-160 725,-160 731,-160 737,-166 737,-172 737,-172 737,-184 737,-184 737,-190 731,-196 725,-196"/>
<text text-anchor="middle" x="553" y="-181.4" font-family="Arial Bold" font-size="12.00">obstacle_course_seed123</text>
<text text-anchor="middle" x="553" y="-168.4" font-family="Arial Bold" font-size="12.00">Complete the obstacle course by navigating over a low wall, ...</text>
</g>
<!-- node_0 -->
<g id="node2" class="node">
<title>node_0</title>
<path fill="#ff6b6b" stroke="black" d="M872.5,-196C872.5,-196 771.5,-196 771.5,-196 765.5,-196 759.5,-190 759.5,-184 759.5,-184 759.5,-172 759.5,-172 759.5,-166 765.5,-160 771.5,-160 771.5,-160 872.5,-160 872.5,-160 878.5,-160 884.5,-166 884.5,-172 884.5,-172 884.5,-184 884.5,-184 884.5,-190 878.5,-196 872.5,-196"/>
<text text-anchor="middle" x="822" y="-175.8" font-family="Arial" font-size="9.00">obstacle_course_seed123</text>
</g>
<!-- node_1 -->
<g id="node3" class="node">
<title>node_1</title>
<path fill="#4ecdc4" stroke="black" d="M627,-124C627,-124 543,-124 543,-124 537,-124 531,-118 531,-112 531,-112 531,-100 531,-100 531,-94 537,-88 543,-88 543,-88 627,-88 627,-88 633,-88 639,-94 639,-100 639,-100 639,-112 639,-112 639,-118 633,-124 627,-124"/>
<text text-anchor="middle" x="585" y="-103.8" font-family="Arial" font-size="9.00">jump_over_lowWall</text>
</g>
<!-- node_0&#45;&gt;node_1 -->
<g id="edge1" class="edge">
<title>node_0&#45;&gt;node_1</title>
<path fill="none" stroke="#999999" d="M759.42,-162.41C726.59,-154.3 685.84,-143.54 650,-132 644.82,-130.33 639.45,-128.48 634.13,-126.56"/>
<polygon fill="#999999" stroke="#999999" points="634.83,-124.2 627.41,-124.09 633.14,-128.8 634.83,-124.2"/>
</g>
<!-- node_5 -->
<g id="node7" class="node">
<title>node_5</title>
<path fill="#4ecdc4" stroke="black" d="M799,-124C799,-124 673,-124 673,-124 667,-124 661,-118 661,-112 661,-112 661,-100 661,-100 661,-94 667,-88 673,-88 673,-88 799,-88 799,-88 805,-88 811,-94 811,-100 811,-100 811,-112 811,-112 811,-118 805,-124 799,-124"/>
<text text-anchor="middle" x="736" y="-103.8" font-family="Arial" font-size="9.00">push_largeSphere_towards_hi...</text>
</g>
<!-- node_0&#45;&gt;node_5 -->
<g id="edge5" class="edge">
<title>node_0&#45;&gt;node_5</title>
<path fill="none" stroke="#999999" d="M800.74,-159.7C789.18,-150.29 774.78,-138.56 762.49,-128.56"/>
<polygon fill="#999999" stroke="#999999" points="763.99,-126.62 757.01,-124.1 760.9,-130.42 763.99,-126.62"/>
</g>
<!-- node_9 -->
<g id="node11" class="node">
<title>node_9</title>
<path fill="#4ecdc4" stroke="black" d="M973,-124C973,-124 845,-124 845,-124 839,-124 833,-118 833,-112 833,-112 833,-100 833,-100 833,-94 839,-88 845,-88 845,-88 973,-88 973,-88 979,-88 985,-94 985,-100 985,-100 985,-112 985,-112 985,-118 979,-124 973,-124"/>
<text text-anchor="middle" x="909" y="-103.8" font-family="Arial" font-size="9.00">kick_smallSphere_away_from_...</text>
</g>
<!-- node_0&#45;&gt;node_9 -->
<g id="edge9" class="edge">
<title>node_0&#45;&gt;node_9</title>
<path fill="none" stroke="#999999" d="M843.51,-159.7C855.2,-150.29 869.77,-138.56 882.2,-128.56"/>
<polygon fill="#999999" stroke="#999999" points="883.82,-130.4 887.74,-124.1 880.75,-126.58 883.82,-130.4"/>
</g>
<!-- node_13 -->
<g id="node15" class="node">
<title>node_13</title>
<path fill="#4ecdc4" stroke="black" d="M1544.5,-124C1544.5,-124 1435.5,-124 1435.5,-124 1429.5,-124 1423.5,-118 1423.5,-112 1423.5,-112 1423.5,-100 1423.5,-100 1423.5,-94 1429.5,-88 1435.5,-88 1435.5,-88 1544.5,-88 1544.5,-88 1550.5,-88 1556.5,-94 1556.5,-100 1556.5,-100 1556.5,-112 1556.5,-112 1556.5,-118 1550.5,-124 1544.5,-124"/>
<text text-anchor="middle" x="1490" y="-103.8" font-family="Arial" font-size="9.00">jump_on_top_of_blockCube</text>
</g>
<!-- node_0&#45;&gt;node_13 -->
<g id="edge13" class="edge">
<title>node_0&#45;&gt;node_13</title>
<path fill="none" stroke="#999999" d="M884.54,-170.45C1008.33,-157.47 1284.02,-128.59 1416.34,-114.72"/>
<polygon fill="#999999" stroke="#999999" points="1416.6,-117.16 1423.31,-113.99 1416.09,-112.28 1416.6,-117.16"/>
</g>
<!-- node_2 -->
<g id="node4" class="node">
<title>node_2</title>
<path fill="#45b7d1" stroke="black" d="M410,-52C410,-52 326,-52 326,-52 320,-52 314,-46 314,-40 314,-40 314,-28 314,-28 314,-22 320,-16 326,-16 326,-16 410,-16 410,-16 416,-16 422,-22 422,-28 422,-28 422,-40 422,-40 422,-46 416,-52 410,-52"/>
<text text-anchor="middle" x="368" y="-31.8" font-family="Arial" font-size="9.00">walk_to_lowWall</text>
</g>
<!-- node_1&#45;&gt;node_2 -->
<g id="edge2" class="edge">
<title>node_1&#45;&gt;node_2</title>
<path fill="none" stroke="#999999" d="M530.86,-90.1C501.69,-81.79 465.18,-70.93 433,-60 427.93,-58.28 422.67,-56.4 417.43,-54.48"/>
<polygon fill="#999999" stroke="#999999" points="418.25,-52.17 410.83,-52.03 416.54,-56.76 418.25,-52.17"/>
</g>
<!-- node_3 -->
<g id="node5" class="node">
<title>node_3</title>
<path fill="#45b7d1" stroke="black" d="M280,-52C280,-52 170,-52 170,-52 164,-52 158,-46 158,-40 158,-40 158,-28 158,-28 158,-22 164,-16 170,-16 170,-16 280,-16 280,-16 286,-16 292,-22 292,-28 292,-28 292,-40 292,-40 292,-46 286,-52 280,-52"/>
<text text-anchor="middle" x="225" y="-31.8" font-family="Arial" font-size="9.00">execute_jump_over_lowWall</text>
</g>
<!-- node_1&#45;&gt;node_3 -->
<g id="edge3" class="edge">
<title>node_1&#45;&gt;node_3</title>
<path fill="none" stroke="#999999" d="M530.99,-98.86C473.87,-91.79 381.36,-78.7 303,-60 295.8,-58.28 288.3,-56.23 280.92,-54.05"/>
<polygon fill="#999999" stroke="#999999" points="281.61,-51.69 274.2,-52.01 280.19,-56.38 281.61,-51.69"/>
</g>
<!-- node_4 -->
<g id="node6" class="node">
<title>node_4</title>
<path fill="#45b7d1" stroke="black" d="M124,-52C124,-52 28,-52 28,-52 22,-52 16,-46 16,-40 16,-40 16,-28 16,-28 16,-22 22,-16 28,-16 28,-16 124,-16 124,-16 130,-16 136,-22 136,-28 136,-28 136,-40 136,-40 136,-46 130,-52 124,-52"/>
<text text-anchor="middle" x="76" y="-31.8" font-family="Arial" font-size="9.00">land_after_lowWall_jump</text>
</g>
<!-- node_1&#45;&gt;node_4 -->
<g id="edge4" class="edge">
<title>node_1&#45;&gt;node_4</title>
<path fill="none" stroke="#999999" d="M530.74,-103.53C447.31,-100.36 282.94,-90.47 147,-60 140.21,-58.48 133.17,-56.51 126.28,-54.34"/>
<polygon fill="#999999" stroke="#999999" points="126.88,-51.96 119.46,-52.12 125.36,-56.62 126.88,-51.96"/>
</g>
<!-- node_6 -->
<g id="node8" class="node">
<title>node_6</title>
<path fill="#45b7d1" stroke="black" d="M866,-52C866,-52 782,-52 782,-52 776,-52 770,-46 770,-40 770,-40 770,-28 770,-28 770,-22 776,-16 782,-16 782,-16 866,-16 866,-16 872,-16 878,-22 878,-28 878,-28 878,-40 878,-40 878,-46 872,-52 866,-52"/>
<text text-anchor="middle" x="824" y="-31.8" font-family="Arial" font-size="9.00">walk_to_largeSphere</text>
</g>
<!-- node_5&#45;&gt;node_6 -->
<g id="edge6" class="edge">
<title>node_5&#45;&gt;node_6</title>
<path fill="none" stroke="#999999" d="M757.75,-87.7C769.58,-78.29 784.32,-66.56 796.89,-56.56"/>
<polygon fill="#999999" stroke="#999999" points="798.54,-58.38 802.5,-52.1 795.49,-54.54 798.54,-58.38"/>
</g>
<!-- node_7 -->
<g id="node9" class="node">
<title>node_7</title>
<path fill="#45b7d1" stroke="black" d="M736,-52C736,-52 614,-52 614,-52 608,-52 602,-46 602,-40 602,-40 602,-28 602,-28 602,-22 608,-16 614,-16 614,-16 736,-16 736,-16 742,-16 748,-22 748,-28 748,-28 748,-40 748,-40 748,-46 742,-52 736,-52"/>
<text text-anchor="middle" x="675" y="-31.8" font-family="Arial" font-size="9.00">push_largeSphere_until_high...</text>
</g>
<!-- node_5&#45;&gt;node_7 -->
<g id="edge7" class="edge">
<title>node_5&#45;&gt;node_7</title>
<path fill="none" stroke="#999999" d="M720.92,-87.7C713.02,-78.63 703.24,-67.4 694.74,-57.65"/>
<polygon fill="#999999" stroke="#999999" points="696.35,-55.77 689.91,-52.1 692.66,-58.99 696.35,-55.77"/>
</g>
<!-- node_8 -->
<g id="node10" class="node">
<title>node_8</title>
<path fill="#45b7d1" stroke="black" d="M568,-52C568,-52 458,-52 458,-52 452,-52 446,-46 446,-40 446,-40 446,-28 446,-28 446,-22 452,-16 458,-16 458,-16 568,-16 568,-16 574,-16 580,-22 580,-28 580,-28 580,-40 580,-40 580,-46 574,-52 568,-52"/>
<text text-anchor="middle" x="513" y="-31.8" font-family="Arial" font-size="9.00">stabilize_after_pushing_lar...</text>
</g>
<!-- node_5&#45;&gt;node_8 -->
<g id="edge8" class="edge">
<title>node_5&#45;&gt;node_8</title>
<path fill="none" stroke="#999999" d="M680.53,-87.92C653.51,-79.56 620.54,-69.32 591,-60 585.02,-58.12 578.8,-56.14 572.58,-54.16"/>
<polygon fill="#999999" stroke="#999999" points="573.26,-51.8 565.85,-52.01 571.77,-56.47 573.26,-51.8"/>
</g>
<!-- node_10 -->
<g id="node12" class="node">
<title>node_10</title>
<path fill="#45b7d1" stroke="black" d="M1307,-52C1307,-52 1223,-52 1223,-52 1217,-52 1211,-46 1211,-40 1211,-40 1211,-28 1211,-28 1211,-22 1217,-16 1223,-16 1223,-16 1307,-16 1307,-16 1313,-16 1319,-22 1319,-28 1319,-28 1319,-40 1319,-40 1319,-46 1313,-52 1307,-52"/>
<text text-anchor="middle" x="1265" y="-31.8" font-family="Arial" font-size="9.00">walk_to_smallSphere</text>
</g>
<!-- node_9&#45;&gt;node_10 -->
<g id="edge10" class="edge">
<title>node_9&#45;&gt;node_10</title>
<path fill="none" stroke="#999999" d="M985.28,-97.72C1044.53,-90.98 1128.37,-79.08 1200,-60 1205.79,-58.46 1211.78,-56.57 1217.67,-54.54"/>
<polygon fill="#999999" stroke="#999999" points="1218.76,-56.75 1224.53,-52.09 1217.11,-52.14 1218.76,-56.75"/>
</g>
<!-- node_11 -->
<g id="node13" class="node">
<title>node_11</title>
<path fill="#45b7d1" stroke="black" d="M1176.5,-52C1176.5,-52 1073.5,-52 1073.5,-52 1067.5,-52 1061.5,-46 1061.5,-40 1061.5,-40 1061.5,-28 1061.5,-28 1061.5,-22 1067.5,-16 1073.5,-16 1073.5,-16 1176.5,-16 1176.5,-16 1182.5,-16 1188.5,-22 1188.5,-28 1188.5,-28 1188.5,-40 1188.5,-40 1188.5,-46 1182.5,-52 1176.5,-52"/>
<text text-anchor="middle" x="1125" y="-31.8" font-family="Arial" font-size="9.00">execute_kick_smallSphere</text>
</g>
<!-- node_9&#45;&gt;node_11 -->
<g id="edge11" class="edge">
<title>node_9&#45;&gt;node_11</title>
<path fill="none" stroke="#999999" d="M963.7,-87.93C990.11,-79.62 1022.24,-69.41 1051,-60 1056.56,-58.18 1062.34,-56.26 1068.12,-54.34"/>
<polygon fill="#999999" stroke="#999999" points="1069.03,-56.62 1074.89,-52.07 1067.47,-51.97 1069.03,-56.62"/>
</g>
<!-- node_12 -->
<g id="node14" class="node">
<title>node_12</title>
<path fill="#45b7d1" stroke="black" d="M1027.5,-52C1027.5,-52 914.5,-52 914.5,-52 908.5,-52 902.5,-46 902.5,-40 902.5,-40 902.5,-28 902.5,-28 902.5,-22 908.5,-16 914.5,-16 914.5,-16 1027.5,-16 1027.5,-16 1033.5,-16 1039.5,-22 1039.5,-28 1039.5,-28 1039.5,-40 1039.5,-40 1039.5,-46 1033.5,-52 1027.5,-52"/>
<text text-anchor="middle" x="971" y="-31.8" font-family="Arial" font-size="9.00">stabilize_after_kicking_sma...</text>
</g>
<!-- node_9&#45;&gt;node_12 -->
<g id="edge12" class="edge">
<title>node_9&#45;&gt;node_12</title>
<path fill="none" stroke="#999999" d="M924.33,-87.7C932.43,-78.54 942.48,-67.19 951.18,-57.38"/>
<polygon fill="#999999" stroke="#999999" points="953.04,-58.97 955.85,-52.1 949.38,-55.72 953.04,-58.97"/>
</g>
<!-- node_14 -->
<g id="node16" class="node">
<title>node_14</title>
<path fill="#45b7d1" stroke="black" d="M1765,-52C1765,-52 1681,-52 1681,-52 1675,-52 1669,-46 1669,-40 1669,-40 1669,-28 1669,-28 1669,-22 1675,-16 1681,-16 1681,-16 1765,-16 1765,-16 1771,-16 1777,-22 1777,-28 1777,-28 1777,-40 1777,-40 1777,-46 1771,-52 1765,-52"/>
<text text-anchor="middle" x="1723" y="-31.8" font-family="Arial" font-size="9.00">walk_to_blockCube</text>
</g>
<!-- node_13&#45;&gt;node_14 -->
<g id="edge14" class="edge">
<title>node_13&#45;&gt;node_14</title>
<path fill="none" stroke="#999999" d="M1556.7,-88.86C1587.72,-80.91 1624.98,-70.74 1658,-60 1663.17,-58.32 1668.54,-56.45 1673.86,-54.52"/>
<polygon fill="#999999" stroke="#999999" points="1674.85,-56.77 1680.57,-52.06 1673.16,-52.17 1674.85,-56.77"/>
</g>
<!-- node_15 -->
<g id="node17" class="node">
<title>node_15</title>
<path fill="#45b7d1" stroke="black" d="M1635,-52C1635,-52 1509,-52 1509,-52 1503,-52 1497,-46 1497,-40 1497,-40 1497,-28 1497,-28 1497,-22 1503,-16 1509,-16 1509,-16 1635,-16 1635,-16 1641,-16 1647,-22 1647,-28 1647,-28 1647,-40 1647,-40 1647,-46 1641,-52 1635,-52"/>
<text text-anchor="middle" x="1572" y="-31.8" font-family="Arial" font-size="9.00">execute_jump_on_top_of_bloc...</text>
</g>
<!-- node_13&#45;&gt;node_15 -->
<g id="edge15" class="edge">
<title>node_13&#45;&gt;node_15</title>
<path fill="none" stroke="#999999" d="M1510.27,-87.7C1521.19,-78.37 1534.78,-66.77 1546.42,-56.83"/>
<polygon fill="#999999" stroke="#999999" points="1548.23,-58.51 1551.96,-52.1 1545.05,-54.79 1548.23,-58.51"/>
</g>
<!-- node_16 -->
<g id="node18" class="node">
<title>node_16</title>
<path fill="#45b7d1" stroke="black" d="M1462.5,-52C1462.5,-52 1355.5,-52 1355.5,-52 1349.5,-52 1343.5,-46 1343.5,-40 1343.5,-40 1343.5,-28 1343.5,-28 1343.5,-22 1349.5,-16 1355.5,-16 1355.5,-16 1462.5,-16 1462.5,-16 1468.5,-16 1474.5,-22 1474.5,-28 1474.5,-28 1474.5,-40 1474.5,-40 1474.5,-46 1468.5,-52 1462.5,-52"/>
<text text-anchor="middle" x="1409" y="-31.8" font-family="Arial" font-size="9.00">land_on_top_of_blockCube</text>
</g>
<!-- node_13&#45;&gt;node_16 -->
<g id="edge16" class="edge">
<title>node_13&#45;&gt;node_16</title>
<path fill="none" stroke="#999999" d="M1469.98,-87.7C1459.19,-78.37 1445.77,-66.77 1434.26,-56.83"/>
<polygon fill="#999999" stroke="#999999" points="1435.69,-54.83 1428.79,-52.1 1432.49,-58.54 1435.69,-54.83"/>
</g>
</g>
</svg>
