<?xml version="1.0" encoding="UTF-8" standalone="no"?>
<!DOCTYPE svg PUBLIC "-//W3C//DTD SVG 1.1//EN"
 "http://www.w3.org/Graphics/SVG/1.1/DTD/svg11.dtd">
<!-- Generated by graphviz version 2.43.0 (0)
 -->
<!-- Title: %3 Pages: 1 -->
<svg width="3000pt" height="531pt"
 viewBox="0.00 0.00 720.00 127.50" xmlns="http://www.w3.org/2000/svg" xmlns:xlink="http://www.w3.org/1999/xlink">
<g id="graph0" class="graph" transform="scale(2.6 2.6) rotate(0) translate(4 200)">
<title>%3</title>
<polygon fill="white" stroke="transparent" points="-4,4 -4,-200 1148,-200 1148,4 -4,4"/>
<g id="clust1" class="cluster">
<title>cluster_l1_g0</title>
</g>
<g id="clust2" class="cluster">
<title>cluster_l1_g1</title>
</g>
<g id="clust3" class="cluster">
<title>cluster_l2_g0</title>
</g>
<g id="clust4" class="cluster">
<title>cluster_l2_g1</title>
</g>
<g id="clust5" class="cluster">
<title>cluster_l2_g2</title>
</g>
<!-- title -->
<g id="node1" class="node">
<title>title</title>
<path fill="lightgrey" stroke="transparent" d="M448.5,-196C448.5,-196 87.5,-196 87.5,-196 81.5,-196 75.5,-190 75.5,-184 75.5,-184 75.5,-172 75.5,-172 75.5,-166 81.5,-160 87.5,-160 87.5,-160 448.5,-160 448.5,-160 454.5,-160 460.5,-166 460.5,-172 460.5,-172 460.5,-184 460.5,-184 460.5,-190 454.5,-196 448.5,-196"/>
<text text-anchor="middle" x="268" y="-181.4" font-family="Arial Bold" font-size="12.00">obstacle_course_seed456</text>
<text text-anchor="middle" x="268" y="-168.4" font-family="Arial Bold" font-size="12.00">Complete the obstacle course by traversing obstacles and man...</text>
</g>
<!-- node_0 -->
<g id="node2" class="node">
<title>node_0</title>
<path fill="#ff6b6b" stroke="black" d="M595.5,-196C595.5,-196 494.5,-196 494.5,-196 488.5,-196 482.5,-190 482.5,-184 482.5,-184 482.5,-172 482.5,-172 482.5,-166 488.5,-160 494.5,-160 494.5,-160 595.5,-160 595.5,-160 601.5,-160 607.5,-166 607.5,-172 607.5,-172 607.5,-184 607.5,-184 607.5,-190 601.5,-196 595.5,-196"/>
<text text-anchor="middle" x="545" y="-175.8" font-family="Arial" font-size="9.00">obstacle_course_seed456</text>
</g>
<!-- node_1 -->
<g id="node3" class="node">
<title>node_1</title>
<path fill="#4ecdc4" stroke="black" d="M346,-124C346,-124 262,-124 262,-124 256,-124 250,-118 250,-112 250,-112 250,-100 250,-100 250,-94 256,-88 262,-88 262,-88 346,-88 346,-88 352,-88 358,-94 358,-100 358,-100 358,-112 358,-112 358,-118 352,-124 346,-124"/>
<text text-anchor="middle" x="304" y="-103.8" font-family="Arial" font-size="9.00">traverse_lowWall</text>
</g>
<!-- node_0&#45;&gt;node_1 -->
<g id="edge1" class="edge">
<title>node_0&#45;&gt;node_1</title>
<path fill="none" stroke="#999999" d="M482.29,-161.79C440.7,-151.54 390.03,-138.71 369,-132 363.82,-130.35 358.45,-128.5 353.12,-126.58"/>
<polygon fill="#999999" stroke="#999999" points="353.82,-124.23 346.4,-124.13 352.13,-128.83 353.82,-124.23"/>
</g>
<!-- node_4 -->
<g id="node6" class="node">
<title>node_4</title>
<path fill="#4ecdc4" stroke="black" d="M522,-124C522,-124 392,-124 392,-124 386,-124 380,-118 380,-112 380,-112 380,-100 380,-100 380,-94 386,-88 392,-88 392,-88 522,-88 522,-88 528,-88 534,-94 534,-100 534,-100 534,-112 534,-112 534,-118 528,-124 522,-124"/>
<text text-anchor="middle" x="457" y="-103.8" font-family="Arial" font-size="9.00">push_largeSphere_into_highWall</text>
</g>
<!-- node_0&#45;&gt;node_4 -->
<g id="edge4" class="edge">
<title>node_0&#45;&gt;node_4</title>
<path fill="none" stroke="#999999" d="M523.25,-159.7C511.42,-150.29 496.68,-138.56 484.11,-128.56"/>
<polygon fill="#999999" stroke="#999999" points="485.51,-126.54 478.5,-124.1 482.46,-130.38 485.51,-126.54"/>
</g>
<!-- node_7 -->
<g id="node9" class="node">
<title>node_7</title>
<path fill="#4ecdc4" stroke="black" d="M699.5,-124C699.5,-124 568.5,-124 568.5,-124 562.5,-124 556.5,-118 556.5,-112 556.5,-112 556.5,-100 556.5,-100 556.5,-94 562.5,-88 568.5,-88 568.5,-88 699.5,-88 699.5,-88 705.5,-88 711.5,-94 711.5,-100 711.5,-100 711.5,-112 711.5,-112 711.5,-118 705.5,-124 699.5,-124"/>
<text text-anchor="middle" x="634" y="-103.8" font-family="Arial" font-size="9.00">kick_smallSphere_awayFrom_h...</text>
</g>
<!-- node_0&#45;&gt;node_7 -->
<g id="edge7" class="edge">
<title>node_0&#45;&gt;node_7</title>
<path fill="none" stroke="#999999" d="M567,-159.7C578.96,-150.29 593.87,-138.56 606.58,-128.56"/>
<polygon fill="#999999" stroke="#999999" points="608.27,-130.36 612.25,-124.1 605.24,-126.51 608.27,-130.36"/>
</g>
<!-- node_10 -->
<g id="node12" class="node">
<title>node_10</title>
<path fill="#4ecdc4" stroke="black" d="M986,-124C986,-124 902,-124 902,-124 896,-124 890,-118 890,-112 890,-112 890,-100 890,-100 890,-94 896,-88 902,-88 902,-88 986,-88 986,-88 992,-88 998,-94 998,-100 998,-100 998,-112 998,-112 998,-118 992,-124 986,-124"/>
<text text-anchor="middle" x="944" y="-103.8" font-family="Arial" font-size="9.00">jump_on_blockCube</text>
</g>
<!-- node_0&#45;&gt;node_10 -->
<g id="edge10" class="edge">
<title>node_0&#45;&gt;node_10</title>
<path fill="none" stroke="#999999" d="M607.78,-165.99C683.04,-152.78 808.32,-130.8 882.85,-117.73"/>
<polygon fill="#999999" stroke="#999999" points="883.43,-120.11 889.9,-116.49 882.58,-115.29 883.43,-120.11"/>
</g>
<!-- node_2 -->
<g id="node4" class="node">
<title>node_2</title>
<path fill="#45b7d1" stroke="black" d="M242,-52C242,-52 158,-52 158,-52 152,-52 146,-46 146,-40 146,-40 146,-28 146,-28 146,-22 152,-16 158,-16 158,-16 242,-16 242,-16 248,-16 254,-22 254,-28 254,-28 254,-40 254,-40 254,-46 248,-52 242,-52"/>
<text text-anchor="middle" x="200" y="-31.8" font-family="Arial" font-size="9.00">walk_to_lowWall</text>
</g>
<!-- node_1&#45;&gt;node_2 -->
<g id="edge2" class="edge">
<title>node_1&#45;&gt;node_2</title>
<path fill="none" stroke="#999999" d="M278.56,-87.88C264.33,-78.3 246.48,-66.28 231.39,-56.13"/>
<polygon fill="#999999" stroke="#999999" points="232.71,-54.07 225.54,-52.19 229.98,-58.13 232.71,-54.07"/>
</g>
<!-- node_3 -->
<g id="node5" class="node">
<title>node_3</title>
<path fill="#45b7d1" stroke="black" d="M112,-52C112,-52 28,-52 28,-52 22,-52 16,-46 16,-40 16,-40 16,-28 16,-28 16,-22 22,-16 28,-16 28,-16 112,-16 112,-16 118,-16 124,-22 124,-28 124,-28 124,-40 124,-40 124,-46 118,-52 112,-52"/>
<text text-anchor="middle" x="70" y="-31.8" font-family="Arial" font-size="9.00">jump_over_lowWall</text>
</g>
<!-- node_1&#45;&gt;node_3 -->
<g id="edge3" class="edge">
<title>node_1&#45;&gt;node_3</title>
<path fill="none" stroke="#999999" d="M249.91,-92.16C216.53,-83.86 172.98,-72.32 135,-60 129.82,-58.32 124.46,-56.46 119.13,-54.53"/>
<polygon fill="#999999" stroke="#999999" points="119.84,-52.18 112.42,-52.06 118.15,-56.78 119.84,-52.18"/>
</g>
<!-- node_5 -->
<g id="node7" class="node">
<title>node_5</title>
<path fill="#45b7d1" stroke="black" d="M372,-52C372,-52 288,-52 288,-52 282,-52 276,-46 276,-40 276,-40 276,-28 276,-28 276,-22 282,-16 288,-16 288,-16 372,-16 372,-16 378,-16 384,-22 384,-28 384,-28 384,-40 384,-40 384,-46 378,-52 372,-52"/>
<text text-anchor="middle" x="330" y="-31.8" font-family="Arial" font-size="9.00">walk_to_largeSphere</text>
</g>
<!-- node_4&#45;&gt;node_5 -->
<g id="edge5" class="edge">
<title>node_4&#45;&gt;node_5</title>
<path fill="none" stroke="#999999" d="M425.93,-87.88C408.25,-78.13 385.98,-65.86 367.35,-55.59"/>
<polygon fill="#999999" stroke="#999999" points="368.5,-53.42 361.19,-52.19 366.13,-57.71 368.5,-53.42"/>
</g>
<!-- node_6 -->
<g id="node8" class="node">
<title>node_6</title>
<path fill="#45b7d1" stroke="black" d="M546,-52C546,-52 420,-52 420,-52 414,-52 408,-46 408,-40 408,-40 408,-28 408,-28 408,-22 414,-16 420,-16 420,-16 546,-16 546,-16 552,-16 558,-22 558,-28 558,-28 558,-40 558,-40 558,-46 552,-52 546,-52"/>
<text text-anchor="middle" x="483" y="-31.8" font-family="Arial" font-size="9.00">push_largeSphere_towards_hi...</text>
</g>
<!-- node_4&#45;&gt;node_6 -->
<g id="edge6" class="edge">
<title>node_4&#45;&gt;node_6</title>
<path fill="none" stroke="#999999" d="M463.43,-87.7C466.67,-78.97 470.65,-68.24 474.18,-58.75"/>
<polygon fill="#999999" stroke="#999999" points="476.51,-59.52 476.65,-52.1 471.91,-57.81 476.51,-59.52"/>
</g>
<!-- node_8 -->
<g id="node10" class="node">
<title>node_8</title>
<path fill="#45b7d1" stroke="black" d="M676,-52C676,-52 592,-52 592,-52 586,-52 580,-46 580,-40 580,-40 580,-28 580,-28 580,-22 586,-16 592,-16 592,-16 676,-16 676,-16 682,-16 688,-22 688,-28 688,-28 688,-40 688,-40 688,-46 682,-52 676,-52"/>
<text text-anchor="middle" x="634" y="-31.8" font-family="Arial" font-size="9.00">walk_to_smallSphere</text>
</g>
<!-- node_7&#45;&gt;node_8 -->
<g id="edge8" class="edge">
<title>node_7&#45;&gt;node_8</title>
<path fill="none" stroke="#999999" d="M634,-87.7C634,-79.14 634,-68.66 634,-59.3"/>
<polygon fill="#999999" stroke="#999999" points="636.45,-59.1 634,-52.1 631.55,-59.1 636.45,-59.1"/>
</g>
<!-- node_9 -->
<g id="node11" class="node">
<title>node_9</title>
<path fill="#45b7d1" stroke="black" d="M853.5,-52C853.5,-52 722.5,-52 722.5,-52 716.5,-52 710.5,-46 710.5,-40 710.5,-40 710.5,-28 710.5,-28 710.5,-22 716.5,-16 722.5,-16 722.5,-16 853.5,-16 853.5,-16 859.5,-16 865.5,-22 865.5,-28 865.5,-28 865.5,-40 865.5,-40 865.5,-46 859.5,-52 853.5,-52"/>
<text text-anchor="middle" x="788" y="-31.8" font-family="Arial" font-size="9.00">kick_smallSphere_awayFrom_h...</text>
</g>
<!-- node_7&#45;&gt;node_9 -->
<g id="edge9" class="edge">
<title>node_7&#45;&gt;node_9</title>
<path fill="none" stroke="#999999" d="M671.67,-87.88C693.47,-77.97 721.02,-65.44 743.84,-55.07"/>
<polygon fill="#999999" stroke="#999999" points="745.09,-57.2 750.45,-52.07 743.06,-52.73 745.09,-57.2"/>
</g>
<!-- node_11 -->
<g id="node13" class="node">
<title>node_11</title>
<path fill="#45b7d1" stroke="black" d="M1116,-52C1116,-52 1032,-52 1032,-52 1026,-52 1020,-46 1020,-40 1020,-40 1020,-28 1020,-28 1020,-22 1026,-16 1032,-16 1032,-16 1116,-16 1116,-16 1122,-16 1128,-22 1128,-28 1128,-28 1128,-40 1128,-40 1128,-46 1122,-52 1116,-52"/>
<text text-anchor="middle" x="1074" y="-31.8" font-family="Arial" font-size="9.00">walk_to_blockCube</text>
</g>
<!-- node_10&#45;&gt;node_11 -->
<g id="edge11" class="edge">
<title>node_10&#45;&gt;node_11</title>
<path fill="none" stroke="#999999" d="M975.8,-87.88C993.9,-78.13 1016.69,-65.86 1035.76,-55.59"/>
<polygon fill="#999999" stroke="#999999" points="1037.07,-57.67 1042.08,-52.19 1034.75,-53.35 1037.07,-57.67"/>
</g>
<!-- node_12 -->
<g id="node14" class="node">
<title>node_12</title>
<path fill="#45b7d1" stroke="black" d="M986,-52C986,-52 902,-52 902,-52 896,-52 890,-46 890,-40 890,-40 890,-28 890,-28 890,-22 896,-16 902,-16 902,-16 986,-16 986,-16 992,-16 998,-22 998,-28 998,-28 998,-40 998,-40 998,-46 992,-52 986,-52"/>
<text text-anchor="middle" x="944" y="-31.8" font-family="Arial" font-size="9.00">jump_on_blockCube</text>
</g>
<!-- node_10&#45;&gt;node_12 -->
<g id="edge12" class="edge">
<title>node_10&#45;&gt;node_12</title>
<path fill="none" stroke="#999999" d="M944,-87.7C944,-79.14 944,-68.66 944,-59.3"/>
<polygon fill="#999999" stroke="#999999" points="946.45,-59.1 944,-52.1 941.55,-59.1 946.45,-59.1"/>
</g>
</g>
</svg>
