<?xml version="1.0" encoding="UTF-8" standalone="no"?>
<!DOCTYPE svg PUBLIC "-//W3C//DTD SVG 1.1//EN"
 "http://www.w3.org/Graphics/SVG/1.1/DTD/svg11.dtd">
<!-- Generated by graphviz version 2.43.0 (0)
 -->
<!-- Title: %3 Pages: 1 -->
<svg width="3321pt" height="3317pt"
 viewBox="0.00 0.00 797.00 796.00" xmlns="http://www.w3.org/2000/svg" xmlns:xlink="http://www.w3.org/1999/xlink">
<g id="graph0" class="graph" transform="scale(4.17 4.17) rotate(0) translate(4 792)">
<title>%3</title>
<polygon fill="white" stroke="transparent" points="-4,4 -4,-792 793,-792 793,4 -4,4"/>
<!-- title -->
<g id="node1" class="node">
<title>title</title>
<path fill="lightgrey" stroke="transparent" d="M376.5,-788C376.5,-788 26.5,-788 26.5,-788 20.5,-788 14.5,-782 14.5,-776 14.5,-776 14.5,-764 14.5,-764 14.5,-758 20.5,-752 26.5,-752 26.5,-752 376.5,-752 376.5,-752 382.5,-752 388.5,-758 388.5,-764 388.5,-764 388.5,-776 388.5,-776 388.5,-782 382.5,-788 376.5,-788"/>
<text text-anchor="middle" x="201.5" y="-773.4" font-family="Arial Bold" font-size="12.00">obstacle_course_seed123</text>
<text text-anchor="middle" x="201.5" y="-760.4" font-family="Arial Bold" font-size="12.00">Complete the obstacle course by navigating over, pushing, ki...</text>
</g>
<!-- node_0 -->
<g id="node2" class="node">
<title>node_0</title>
<path fill="#ff6b6b" stroke="black" d="M535.5,-788C535.5,-788 429.5,-788 429.5,-788 423.5,-788 417.5,-782 417.5,-776 417.5,-776 417.5,-764 417.5,-764 417.5,-758 423.5,-752 429.5,-752 429.5,-752 535.5,-752 535.5,-752 541.5,-752 547.5,-758 547.5,-764 547.5,-764 547.5,-776 547.5,-776 547.5,-782 541.5,-788 535.5,-788"/>
<text text-anchor="middle" x="482.5" y="-767.5" font-family="Arial" font-size="10.00">obstacle_course_seed123</text>
</g>
<!-- node_1 -->
<g id="node3" class="node">
<title>node_1</title>
<path fill="#4ecdc4" stroke="black" d="M338.5,-694C338.5,-694 188.5,-694 188.5,-694 182.5,-694 176.5,-688 176.5,-682 176.5,-682 176.5,-670 176.5,-670 176.5,-664 182.5,-658 188.5,-658 188.5,-658 338.5,-658 338.5,-658 344.5,-658 350.5,-664 350.5,-670 350.5,-670 350.5,-682 350.5,-682 350.5,-688 344.5,-694 338.5,-694"/>
<text text-anchor="middle" x="263.5" y="-673.5" font-family="Arial" font-size="10.00">Navigate_and_Jump_Over_LowWall</text>
</g>
<!-- node_0&#45;&gt;node_1 -->
<g id="edge1" class="edge">
<title>node_0&#45;&gt;node_1</title>
<path fill="none" stroke="#999999" d="M441.82,-751.91C404.75,-736.34 349.99,-713.33 310.94,-696.93"/>
<polygon fill="#999999" stroke="#999999" points="311.73,-694.61 304.33,-694.15 309.84,-699.12 311.73,-694.61"/>
</g>
<!-- node_5 -->
<g id="node7" class="node">
<title>node_5</title>
<path fill="#4ecdc4" stroke="black" d="M461,-506C461,-506 320,-506 320,-506 314,-506 308,-500 308,-494 308,-494 308,-482 308,-482 308,-476 314,-470 320,-470 320,-470 461,-470 461,-470 467,-470 473,-476 473,-482 473,-482 473,-494 473,-494 473,-500 467,-506 461,-506"/>
<text text-anchor="middle" x="390.5" y="-485.5" font-family="Arial" font-size="10.00">Push_LargeSphere_Into_HighWall</text>
</g>
<!-- node_0&#45;&gt;node_5 -->
<g id="edge5" class="edge">
<title>node_0&#45;&gt;node_5</title>
<path fill="none" stroke="#999999" d="M476.88,-751.91C461.16,-704.07 416.69,-568.71 398.45,-513.2"/>
<polygon fill="#999999" stroke="#999999" points="400.67,-512.11 396.16,-506.23 396.02,-513.64 400.67,-512.11"/>
</g>
<!-- node_8 -->
<g id="node10" class="node">
<title>node_8</title>
<path fill="#4ecdc4" stroke="black" d="M590,-318C590,-318 445,-318 445,-318 439,-318 433,-312 433,-306 433,-306 433,-294 433,-294 433,-288 439,-282 445,-282 445,-282 590,-282 590,-282 596,-282 602,-288 602,-294 602,-294 602,-306 602,-306 602,-312 596,-318 590,-318"/>
<text text-anchor="middle" x="517.5" y="-297.5" font-family="Arial" font-size="10.00">Kick_SmallSphere_Away_From_...</text>
</g>
<!-- node_0&#45;&gt;node_8 -->
<g id="edge8" class="edge">
<title>node_0&#45;&gt;node_8</title>
<path fill="none" stroke="#999999" d="M487.97,-751.77C497.81,-719.17 517.5,-646.09 517.5,-583 517.5,-583 517.5,-583 517.5,-487 517.5,-428.97 517.5,-360.75 517.5,-325.24"/>
<polygon fill="#999999" stroke="#999999" points="519.95,-325.18 517.5,-318.18 515.05,-325.18 519.95,-325.18"/>
</g>
<!-- node_11 -->
<g id="node13" class="node">
<title>node_11</title>
<path fill="#4ecdc4" stroke="black" d="M725,-130C725,-130 572,-130 572,-130 566,-130 560,-124 560,-118 560,-118 560,-106 560,-106 560,-100 566,-94 572,-94 572,-94 725,-94 725,-94 731,-94 737,-100 737,-106 737,-106 737,-118 737,-118 737,-124 731,-130 725,-130"/>
<text text-anchor="middle" x="648.5" y="-109.5" font-family="Arial" font-size="10.00">Navigate_and_Jump_On_BlockCube</text>
</g>
<!-- node_0&#45;&gt;node_11 -->
<g id="edge11" class="edge">
<title>node_0&#45;&gt;node_11</title>
<path fill="none" stroke="#999999" d="M514.31,-751.99C562.26,-723.77 647.5,-662.43 647.5,-583 647.5,-583 647.5,-583 647.5,-299 647.5,-240.97 647.99,-172.75 648.29,-137.24"/>
<polygon fill="#999999" stroke="#999999" points="650.74,-137.2 648.35,-130.18 645.84,-137.16 650.74,-137.2"/>
</g>
<!-- node_2 -->
<g id="node4" class="node">
<title>node_2</title>
<path fill="#45b7d1" stroke="black" stroke-width="2" d="M77,-600C77,-600 12,-600 12,-600 6,-600 0,-594 0,-588 0,-588 0,-576 0,-576 0,-570 6,-564 12,-564 12,-564 77,-564 77,-564 83,-564 89,-570 89,-576 89,-576 89,-588 89,-588 89,-594 83,-600 77,-600"/>
<text text-anchor="middle" x="44.5" y="-579.5" font-family="Arial" font-size="10.00">walk_to_lowWall</text>
</g>
<!-- node_1&#45;&gt;node_2 -->
<g id="edge2" class="edge">
<title>node_1&#45;&gt;node_2</title>
<path fill="none" stroke="#999999" d="M222.82,-657.91C185.75,-642.34 130.99,-619.33 91.94,-602.93"/>
<polygon fill="#999999" stroke="#999999" points="92.73,-600.61 85.33,-600.15 90.84,-605.12 92.73,-600.61"/>
</g>
<!-- node_3 -->
<g id="node5" class="node">
<title>node_3</title>
<path fill="#45b7d1" stroke="black" stroke-width="2" d="M207,-600C207,-600 130,-600 130,-600 124,-600 118,-594 118,-588 118,-588 118,-576 118,-576 118,-570 124,-564 130,-564 130,-564 207,-564 207,-564 213,-564 219,-570 219,-576 219,-576 219,-588 219,-588 219,-594 213,-600 207,-600"/>
<text text-anchor="middle" x="168.5" y="-579.5" font-family="Arial" font-size="10.00">jump_over_lowWall</text>
</g>
<!-- node_1&#45;&gt;node_3 -->
<g id="edge3" class="edge">
<title>node_1&#45;&gt;node_3</title>
<path fill="none" stroke="#999999" d="M245.63,-657.7C230.37,-642.92 208.32,-621.56 191.7,-605.47"/>
<polygon fill="#999999" stroke="#999999" points="193.02,-603.34 186.29,-600.23 189.61,-606.86 193.02,-603.34"/>
</g>
<!-- node_4 -->
<g id="node6" class="node">
<title>node_4</title>
<path fill="#45b7d1" stroke="black" stroke-width="2" d="M195.5,-412C195.5,-412 115.5,-412 115.5,-412 109.5,-412 103.5,-406 103.5,-400 103.5,-400 103.5,-388 103.5,-388 103.5,-382 109.5,-376 115.5,-376 115.5,-376 195.5,-376 195.5,-376 201.5,-376 207.5,-382 207.5,-388 207.5,-388 207.5,-400 207.5,-400 207.5,-406 201.5,-412 195.5,-412"/>
<text text-anchor="middle" x="155.5" y="-391.5" font-family="Arial" font-size="10.00">stabilize_after_jump</text>
</g>
<!-- node_1&#45;&gt;node_4 -->
<g id="edge4" class="edge">
<title>node_1&#45;&gt;node_4</title>
<path fill="none" stroke="#999999" d="M259.8,-657.8C254.84,-635.74 245.28,-596.46 233.5,-564 214.15,-510.69 184.67,-451.04 168.04,-418.8"/>
<polygon fill="#999999" stroke="#999999" points="170.1,-417.44 164.7,-412.35 165.75,-419.69 170.1,-417.44"/>
</g>
<!-- tier_spacer_1_1 -->
<!-- node_1&#45;&gt;tier_spacer_1_1 -->
<!-- tier_spacer_2_1 -->
<!-- node_2&#45;&gt;tier_spacer_2_1 -->
<!-- tier_spacer_2_2 -->
<!-- node_4&#45;&gt;tier_spacer_2_2 -->
<!-- node_6 -->
<g id="node8" class="node">
<title>node_6</title>
<path fill="#45b7d1" stroke="black" stroke-width="2" d="M332,-412C332,-412 249,-412 249,-412 243,-412 237,-406 237,-400 237,-400 237,-388 237,-388 237,-382 243,-376 249,-376 249,-376 332,-376 332,-376 338,-376 344,-382 344,-388 344,-388 344,-400 344,-400 344,-406 338,-412 332,-412"/>
<text text-anchor="middle" x="290.5" y="-391.5" font-family="Arial" font-size="10.00">walk_to_largeSphere</text>
</g>
<!-- node_5&#45;&gt;node_6 -->
<g id="edge6" class="edge">
<title>node_5&#45;&gt;node_6</title>
<path fill="none" stroke="#999999" d="M371.69,-469.7C355.49,-454.79 332.01,-433.19 314.47,-417.05"/>
<polygon fill="#999999" stroke="#999999" points="316.04,-415.16 309.22,-412.23 312.72,-418.77 316.04,-415.16"/>
</g>
<!-- node_7 -->
<g id="node9" class="node">
<title>node_7</title>
<path fill="#45b7d1" stroke="black" stroke-width="2" d="M320.5,-224C320.5,-224 186.5,-224 186.5,-224 180.5,-224 174.5,-218 174.5,-212 174.5,-212 174.5,-200 174.5,-200 174.5,-194 180.5,-188 186.5,-188 186.5,-188 320.5,-188 320.5,-188 326.5,-188 332.5,-194 332.5,-200 332.5,-200 332.5,-212 332.5,-212 332.5,-218 326.5,-224 320.5,-224"/>
<text text-anchor="middle" x="253.5" y="-203.5" font-family="Arial" font-size="10.00">push_largeSphere_into_highWall</text>
</g>
<!-- node_5&#45;&gt;node_7 -->
<g id="edge7" class="edge">
<title>node_5&#45;&gt;node_7</title>
<path fill="none" stroke="#999999" d="M387.12,-469.95C382.36,-447.71 372.68,-407.89 358.5,-376 333.9,-320.66 293.75,-261.86 270.89,-230.29"/>
<polygon fill="#999999" stroke="#999999" points="272.66,-228.56 266.55,-224.35 268.7,-231.45 272.66,-228.56"/>
</g>
<!-- tier_spacer_1_2 -->
<!-- node_5&#45;&gt;tier_spacer_1_2 -->
<!-- tier_spacer_2_3 -->
<!-- node_7&#45;&gt;tier_spacer_2_3 -->
<!-- node_9 -->
<g id="node11" class="node">
<title>node_9</title>
<path fill="#45b7d1" stroke="black" stroke-width="2" d="M459.5,-224C459.5,-224 373.5,-224 373.5,-224 367.5,-224 361.5,-218 361.5,-212 361.5,-212 361.5,-200 361.5,-200 361.5,-194 367.5,-188 373.5,-188 373.5,-188 459.5,-188 459.5,-188 465.5,-188 471.5,-194 471.5,-200 471.5,-200 471.5,-212 471.5,-212 471.5,-218 465.5,-224 459.5,-224"/>
<text text-anchor="middle" x="416.5" y="-203.5" font-family="Arial" font-size="10.00">walk_to_smallSphere</text>
</g>
<!-- node_8&#45;&gt;node_9 -->
<g id="edge9" class="edge">
<title>node_8&#45;&gt;node_9</title>
<path fill="none" stroke="#999999" d="M498.5,-281.7C482.14,-266.79 458.43,-245.19 440.7,-229.05"/>
<polygon fill="#999999" stroke="#999999" points="442.24,-227.13 435.41,-224.23 438.94,-230.75 442.24,-227.13"/>
</g>
<!-- node_10 -->
<g id="node12" class="node">
<title>node_10</title>
<path fill="#45b7d1" stroke="black" stroke-width="2" d="M475,-36C475,-36 338,-36 338,-36 332,-36 326,-30 326,-24 326,-24 326,-12 326,-12 326,-6 332,0 338,0 338,0 475,0 475,0 481,0 487,-6 487,-12 487,-12 487,-24 487,-24 487,-30 481,-36 475,-36"/>
<text text-anchor="middle" x="406.5" y="-15.5" font-family="Arial" font-size="10.00">kick_smallSphere_away_from_...</text>
</g>
<!-- node_8&#45;&gt;node_10 -->
<g id="edge10" class="edge">
<title>node_8&#45;&gt;node_10</title>
<path fill="none" stroke="#999999" d="M513.65,-281.79C508.51,-259.72 498.6,-220.43 486.5,-188 466.58,-134.62 436.37,-75 419.34,-42.78"/>
<polygon fill="#999999" stroke="#999999" points="421.37,-41.37 415.92,-36.34 417.04,-43.67 421.37,-41.37"/>
</g>
<!-- tier_spacer_1_3 -->
<!-- node_8&#45;&gt;tier_spacer_1_3 -->
<!-- node_12 -->
<g id="node14" class="node">
<title>node_12</title>
<path fill="#45b7d1" stroke="black" stroke-width="2" d="M610.5,-36C610.5,-36 532.5,-36 532.5,-36 526.5,-36 520.5,-30 520.5,-24 520.5,-24 520.5,-12 520.5,-12 520.5,-6 526.5,0 532.5,0 532.5,0 610.5,0 610.5,0 616.5,0 622.5,-6 622.5,-12 622.5,-12 622.5,-24 622.5,-24 622.5,-30 616.5,-36 610.5,-36"/>
<text text-anchor="middle" x="571.5" y="-15.5" font-family="Arial" font-size="10.00">walk_to_blockCube</text>
</g>
<!-- node_11&#45;&gt;node_12 -->
<g id="edge12" class="edge">
<title>node_11&#45;&gt;node_12</title>
<path fill="none" stroke="#999999" d="M634.02,-93.7C621.76,-79.05 604.08,-57.93 590.66,-41.89"/>
<polygon fill="#999999" stroke="#999999" points="592.29,-40.02 585.92,-36.23 588.53,-43.17 592.29,-40.02"/>
</g>
<!-- node_13 -->
<g id="node15" class="node">
<title>node_13</title>
<path fill="#45b7d1" stroke="black" stroke-width="2" d="M777,-36C777,-36 664,-36 664,-36 658,-36 652,-30 652,-24 652,-24 652,-12 652,-12 652,-6 658,0 664,0 664,0 777,0 777,0 783,0 789,-6 789,-12 789,-12 789,-24 789,-24 789,-30 783,-36 777,-36"/>
<text text-anchor="middle" x="720.5" y="-15.5" font-family="Arial" font-size="10.00">jump_on_top_of_blockCube</text>
</g>
<!-- node_11&#45;&gt;node_13 -->
<g id="edge13" class="edge">
<title>node_11&#45;&gt;node_13</title>
<path fill="none" stroke="#999999" d="M662.04,-93.7C673.51,-79.05 690.03,-57.93 702.59,-41.89"/>
<polygon fill="#999999" stroke="#999999" points="704.63,-43.25 707.02,-36.23 700.77,-40.23 704.63,-43.25"/>
</g>
<!-- tier_spacer_1_1&#45;&gt;node_5 -->
<!-- tier_spacer_1_2&#45;&gt;node_8 -->
<!-- tier_spacer_1_3&#45;&gt;node_11 -->
<!-- tier_spacer_2_1&#45;&gt;node_4 -->
<!-- tier_spacer_2_2&#45;&gt;node_7 -->
<!-- tier_spacer_2_3&#45;&gt;node_10 -->
</g>
</svg>
