<?xml version="1.0" encoding="UTF-8" standalone="no"?>
<!DOCTYPE svg PUBLIC "-//W3C//DTD SVG 1.1//EN"
 "http://www.w3.org/Graphics/SVG/1.1/DTD/svg11.dtd">
<!-- Generated by graphviz version 2.43.0 (0)
 -->
<!-- Title: %3 Pages: 1 -->
<svg width="3000pt" height="521pt"
 viewBox="0.00 0.00 720.00 125.11" xmlns="http://www.w3.org/2000/svg" xmlns:xlink="http://www.w3.org/1999/xlink">
<g id="graph0" class="graph" transform="scale(2.56 2.56) rotate(0) translate(4 200)">
<title>%3</title>
<polygon fill="white" stroke="transparent" points="-4,4 -4,-200 1170,-200 1170,4 -4,4"/>
<g id="clust1" class="cluster">
<title>cluster_l1_g0</title>
</g>
<g id="clust2" class="cluster">
<title>cluster_l1_g1</title>
</g>
<g id="clust3" class="cluster">
<title>cluster_l2_g0</title>
</g>
<g id="clust4" class="cluster">
<title>cluster_l2_g1</title>
</g>
<g id="clust5" class="cluster">
<title>cluster_l2_g2</title>
</g>
<!-- title -->
<g id="node1" class="node">
<title>title</title>
<path fill="lightgrey" stroke="transparent" d="M463.5,-196C463.5,-196 126.5,-196 126.5,-196 120.5,-196 114.5,-190 114.5,-184 114.5,-184 114.5,-172 114.5,-172 114.5,-166 120.5,-160 126.5,-160 126.5,-160 463.5,-160 463.5,-160 469.5,-160 475.5,-166 475.5,-172 475.5,-172 475.5,-184 475.5,-184 475.5,-190 469.5,-196 463.5,-196"/>
<text text-anchor="middle" x="295" y="-181.4" font-family="Arial Bold" font-size="12.00">obstacle_course_seed42</text>
<text text-anchor="middle" x="295" y="-168.4" font-family="Arial Bold" font-size="12.00">The robot should first walk to the low wall and then jump ov...</text>
</g>
<!-- node_0 -->
<g id="node2" class="node">
<title>node_0</title>
<path fill="#ff6b6b" stroke="black" d="M605,-196C605,-196 509,-196 509,-196 503,-196 497,-190 497,-184 497,-184 497,-172 497,-172 497,-166 503,-160 509,-160 509,-160 605,-160 605,-160 611,-160 617,-166 617,-172 617,-172 617,-184 617,-184 617,-190 611,-196 605,-196"/>
<text text-anchor="middle" x="557" y="-175.8" font-family="Arial" font-size="9.00">obstacle_course_seed42</text>
</g>
<!-- node_1 -->
<g id="node3" class="node">
<title>node_1</title>
<path fill="#4ecdc4" stroke="black" d="M371,-124C371,-124 287,-124 287,-124 281,-124 275,-118 275,-112 275,-112 275,-100 275,-100 275,-94 281,-88 287,-88 287,-88 371,-88 371,-88 377,-88 383,-94 383,-100 383,-100 383,-112 383,-112 383,-118 377,-124 371,-124"/>
<text text-anchor="middle" x="329" y="-103.8" font-family="Arial" font-size="9.00">traverse_lowWall</text>
</g>
<!-- node_0&#45;&gt;node_1 -->
<g id="edge1" class="edge">
<title>node_0&#45;&gt;node_1</title>
<path fill="none" stroke="#999999" d="M496.98,-161.73C466.28,-153.56 428.43,-142.95 395,-132 389.84,-130.31 384.49,-128.46 379.17,-126.55"/>
<polygon fill="#999999" stroke="#999999" points="379.88,-124.2 372.47,-124.11 378.21,-128.8 379.88,-124.2"/>
</g>
<!-- node_4 -->
<g id="node6" class="node">
<title>node_4</title>
<path fill="#4ecdc4" stroke="black" d="M542.5,-124C542.5,-124 417.5,-124 417.5,-124 411.5,-124 405.5,-118 405.5,-112 405.5,-112 405.5,-100 405.5,-100 405.5,-94 411.5,-88 417.5,-88 417.5,-88 542.5,-88 542.5,-88 548.5,-88 554.5,-94 554.5,-100 554.5,-100 554.5,-112 554.5,-112 554.5,-118 548.5,-124 542.5,-124"/>
<text text-anchor="middle" x="480" y="-103.8" font-family="Arial" font-size="9.00">push_largeSphere_to_topple_...</text>
</g>
<!-- node_0&#45;&gt;node_4 -->
<g id="edge4" class="edge">
<title>node_0&#45;&gt;node_4</title>
<path fill="none" stroke="#999999" d="M537.97,-159.7C527.71,-150.37 514.95,-138.77 504.02,-128.83"/>
<polygon fill="#999999" stroke="#999999" points="505.64,-127 498.81,-124.1 502.35,-130.63 505.64,-127"/>
</g>
<!-- node_7 -->
<g id="node9" class="node">
<title>node_7</title>
<path fill="#4ecdc4" stroke="black" d="M680,-124C680,-124 588,-124 588,-124 582,-124 576,-118 576,-112 576,-112 576,-100 576,-100 576,-94 582,-88 588,-88 588,-88 680,-88 680,-88 686,-88 692,-94 692,-100 692,-100 692,-112 692,-112 692,-118 686,-124 680,-124"/>
<text text-anchor="middle" x="634" y="-103.8" font-family="Arial" font-size="9.00">kick_smallSphere_away</text>
</g>
<!-- node_0&#45;&gt;node_7 -->
<g id="edge7" class="edge">
<title>node_0&#45;&gt;node_7</title>
<path fill="none" stroke="#999999" d="M576.03,-159.7C586.29,-150.37 599.05,-138.77 609.98,-128.83"/>
<polygon fill="#999999" stroke="#999999" points="611.65,-130.63 615.19,-124.1 608.36,-127 611.65,-130.63"/>
</g>
<!-- node_10 -->
<g id="node12" class="node">
<title>node_10</title>
<path fill="#4ecdc4" stroke="black" d="M995,-124C995,-124 911,-124 911,-124 905,-124 899,-118 899,-112 899,-112 899,-100 899,-100 899,-94 905,-88 911,-88 911,-88 995,-88 995,-88 1001,-88 1007,-94 1007,-100 1007,-100 1007,-112 1007,-112 1007,-118 1001,-124 995,-124"/>
<text text-anchor="middle" x="953" y="-103.8" font-family="Arial" font-size="9.00">jump_on_blockCube</text>
</g>
<!-- node_0&#45;&gt;node_10 -->
<g id="edge10" class="edge">
<title>node_0&#45;&gt;node_10</title>
<path fill="none" stroke="#999999" d="M617.14,-166.37C691.45,-153.23 817.18,-131.01 891.91,-117.8"/>
<polygon fill="#999999" stroke="#999999" points="892.52,-120.18 898.98,-116.55 891.66,-115.35 892.52,-120.18"/>
</g>
<!-- node_2 -->
<g id="node4" class="node">
<title>node_2</title>
<path fill="#45b7d1" stroke="black" stroke-width="2" d="M242,-52C242,-52 158,-52 158,-52 152,-52 146,-46 146,-40 146,-40 146,-28 146,-28 146,-22 152,-16 158,-16 158,-16 242,-16 242,-16 248,-16 254,-22 254,-28 254,-28 254,-40 254,-40 254,-46 248,-52 242,-52"/>
<text text-anchor="middle" x="200" y="-31.8" font-family="Arial" font-size="9.00">walk_to_lowWall</text>
</g>
<!-- node_1&#45;&gt;node_2 -->
<g id="edge2" class="edge">
<title>node_1&#45;&gt;node_2</title>
<path fill="none" stroke="#999999" d="M297.44,-87.88C279.48,-78.13 256.86,-65.86 237.94,-55.59"/>
<polygon fill="#999999" stroke="#999999" points="239,-53.37 231.68,-52.19 236.66,-57.68 239,-53.37"/>
</g>
<!-- node_3 -->
<g id="node5" class="node">
<title>node_3</title>
<path fill="#45b7d1" stroke="black" stroke-width="2" d="M112,-52C112,-52 28,-52 28,-52 22,-52 16,-46 16,-40 16,-40 16,-28 16,-28 16,-22 22,-16 28,-16 28,-16 112,-16 112,-16 118,-16 124,-22 124,-28 124,-28 124,-40 124,-40 124,-46 118,-52 112,-52"/>
<text text-anchor="middle" x="70" y="-31.8" font-family="Arial" font-size="9.00">jump_over_lowWall</text>
</g>
<!-- node_1&#45;&gt;node_3 -->
<g id="edge3" class="edge">
<title>node_1&#45;&gt;node_3</title>
<path fill="none" stroke="#999999" d="M274.94,-94.57C235.73,-86.49 181.61,-74.29 135,-60 129.64,-58.36 124.08,-56.48 118.58,-54.53"/>
<polygon fill="#999999" stroke="#999999" points="119.08,-52.1 111.66,-52.01 117.4,-56.7 119.08,-52.1"/>
</g>
<!-- node_5 -->
<g id="node7" class="node">
<title>node_5</title>
<path fill="#45b7d1" stroke="black" stroke-width="2" d="M372,-52C372,-52 288,-52 288,-52 282,-52 276,-46 276,-40 276,-40 276,-28 276,-28 276,-22 282,-16 288,-16 288,-16 372,-16 372,-16 378,-16 384,-22 384,-28 384,-28 384,-40 384,-40 384,-46 378,-52 372,-52"/>
<text text-anchor="middle" x="330" y="-31.8" font-family="Arial" font-size="9.00">walk_to_largeSphere</text>
</g>
<!-- node_4&#45;&gt;node_5 -->
<g id="edge5" class="edge">
<title>node_4&#45;&gt;node_5</title>
<path fill="none" stroke="#999999" d="M443.31,-87.88C422.07,-77.97 395.24,-65.44 373.01,-55.07"/>
<polygon fill="#999999" stroke="#999999" points="373.95,-52.81 366.57,-52.07 371.88,-57.25 373.95,-52.81"/>
</g>
<!-- node_6 -->
<g id="node8" class="node">
<title>node_6</title>
<path fill="#45b7d1" stroke="black" stroke-width="2" d="M546,-52C546,-52 420,-52 420,-52 414,-52 408,-46 408,-40 408,-40 408,-28 408,-28 408,-22 414,-16 420,-16 420,-16 546,-16 546,-16 552,-16 558,-22 558,-28 558,-28 558,-40 558,-40 558,-46 552,-52 546,-52"/>
<text text-anchor="middle" x="483" y="-31.8" font-family="Arial" font-size="9.00">push_largeSphere_towards_hi...</text>
</g>
<!-- node_4&#45;&gt;node_6 -->
<g id="edge6" class="edge">
<title>node_4&#45;&gt;node_6</title>
<path fill="none" stroke="#999999" d="M480.74,-87.7C481.11,-79.14 481.56,-68.66 481.96,-59.3"/>
<polygon fill="#999999" stroke="#999999" points="484.41,-59.2 482.27,-52.1 479.52,-58.99 484.41,-59.2"/>
</g>
<!-- node_8 -->
<g id="node10" class="node">
<title>node_8</title>
<path fill="#45b7d1" stroke="black" stroke-width="2" d="M676,-52C676,-52 592,-52 592,-52 586,-52 580,-46 580,-40 580,-40 580,-28 580,-28 580,-22 586,-16 592,-16 592,-16 676,-16 676,-16 682,-16 688,-22 688,-28 688,-28 688,-40 688,-40 688,-46 682,-52 676,-52"/>
<text text-anchor="middle" x="634" y="-31.8" font-family="Arial" font-size="9.00">walk_to_smallSphere</text>
</g>
<!-- node_7&#45;&gt;node_8 -->
<g id="edge8" class="edge">
<title>node_7&#45;&gt;node_8</title>
<path fill="none" stroke="#999999" d="M634,-87.7C634,-79.14 634,-68.66 634,-59.3"/>
<polygon fill="#999999" stroke="#999999" points="636.45,-59.1 634,-52.1 631.55,-59.1 636.45,-59.1"/>
</g>
<!-- node_9 -->
<g id="node11" class="node">
<title>node_9</title>
<path fill="#45b7d1" stroke="black" stroke-width="2" d="M850,-52C850,-52 722,-52 722,-52 716,-52 710,-46 710,-40 710,-40 710,-28 710,-28 710,-22 716,-16 722,-16 722,-16 850,-16 850,-16 856,-16 862,-22 862,-28 862,-28 862,-40 862,-40 862,-46 856,-52 850,-52"/>
<text text-anchor="middle" x="786" y="-31.8" font-family="Arial" font-size="9.00">kick_smallSphere_away_from_...</text>
</g>
<!-- node_7&#45;&gt;node_9 -->
<g id="edge9" class="edge">
<title>node_7&#45;&gt;node_9</title>
<path fill="none" stroke="#999999" d="M671.18,-87.88C692.7,-77.97 719.89,-65.44 742.41,-55.07"/>
<polygon fill="#999999" stroke="#999999" points="743.6,-57.22 748.94,-52.07 741.55,-52.77 743.6,-57.22"/>
</g>
<!-- node_11 -->
<g id="node13" class="node">
<title>node_11</title>
<path fill="#45b7d1" stroke="black" stroke-width="2" d="M1138,-52C1138,-52 1054,-52 1054,-52 1048,-52 1042,-46 1042,-40 1042,-40 1042,-28 1042,-28 1042,-22 1048,-16 1054,-16 1054,-16 1138,-16 1138,-16 1144,-16 1150,-22 1150,-28 1150,-28 1150,-40 1150,-40 1150,-46 1144,-52 1138,-52"/>
<text text-anchor="middle" x="1096" y="-31.8" font-family="Arial" font-size="9.00">walk_to_blockCube</text>
</g>
<!-- node_10&#45;&gt;node_11 -->
<g id="edge11" class="edge">
<title>node_10&#45;&gt;node_11</title>
<path fill="none" stroke="#999999" d="M987.98,-87.88C1008.06,-78.05 1033.4,-65.64 1054.49,-55.32"/>
<polygon fill="#999999" stroke="#999999" points="1055.67,-57.47 1060.88,-52.19 1053.52,-53.07 1055.67,-57.47"/>
</g>
<!-- node_12 -->
<g id="node14" class="node">
<title>node_12</title>
<path fill="#45b7d1" stroke="black" stroke-width="2" d="M1007.5,-52C1007.5,-52 898.5,-52 898.5,-52 892.5,-52 886.5,-46 886.5,-40 886.5,-40 886.5,-28 886.5,-28 886.5,-22 892.5,-16 898.5,-16 898.5,-16 1007.5,-16 1007.5,-16 1013.5,-16 1019.5,-22 1019.5,-28 1019.5,-28 1019.5,-40 1019.5,-40 1019.5,-46 1013.5,-52 1007.5,-52"/>
<text text-anchor="middle" x="953" y="-31.8" font-family="Arial" font-size="9.00">jump_on_top_of_blockCube</text>
</g>
<!-- node_10&#45;&gt;node_12 -->
<g id="edge12" class="edge">
<title>node_10&#45;&gt;node_12</title>
<path fill="none" stroke="#999999" d="M953,-87.7C953,-79.14 953,-68.66 953,-59.3"/>
<polygon fill="#999999" stroke="#999999" points="955.45,-59.1 953,-52.1 950.55,-59.1 955.45,-59.1"/>
</g>
</g>
</svg>
