<?xml version="1.0" encoding="UTF-8" standalone="no"?>
<!DOCTYPE svg PUBLIC "-//W3C//DTD SVG 1.1//EN"
 "http://www.w3.org/Graphics/SVG/1.1/DTD/svg11.dtd">
<!-- Generated by graphviz version 2.43.0 (0)
 -->
<!-- Title: %3 Pages: 1 -->
<svg width="2283pt" height="183pt"
 viewBox="0.00 0.00 548.00 44.00" xmlns="http://www.w3.org/2000/svg" xmlns:xlink="http://www.w3.org/1999/xlink">
<g id="graph0" class="graph" transform="scale(4.17 4.17) rotate(0) translate(4 40)">
<title>%3</title>
<polygon fill="white" stroke="transparent" points="-4,4 -4,-40 544,-40 544,4 -4,4"/>
<!-- title -->
<g id="node1" class="node">
<title>title</title>
<path fill="lightgrey" stroke="transparent" d="M354,-36C354,-36 12,-36 12,-36 6,-36 0,-30 0,-24 0,-24 0,-12 0,-12 0,-6 6,0 12,0 12,0 354,0 354,0 360,0 366,-6 366,-12 366,-12 366,-24 366,-24 366,-30 360,-36 354,-36"/>
<text text-anchor="middle" x="183" y="-21.4" font-family="Arial Bold" font-size="12.00">swimming_diving_board_seed42</text>
<text text-anchor="middle" x="183" y="-8.4" font-family="Arial Bold" font-size="12.00">The robot should walk up the lower rectangular block, then t...</text>
</g>
<!-- node_0 -->
<g id="node2" class="node">
<title>node_0</title>
<path fill="#ff6b6b" stroke="black" stroke-width="2" d="M528,-36C528,-36 400,-36 400,-36 394,-36 388,-30 388,-24 388,-24 388,-12 388,-12 388,-6 394,0 400,0 400,0 528,0 528,0 534,0 540,-6 540,-12 540,-12 540,-24 540,-24 540,-30 534,-36 528,-36"/>
<text text-anchor="middle" x="464" y="-15.8" font-family="Arial" font-size="9.00">perform_swimming_diving_boa...</text>
</g>
</g>
</svg>
