<?xml version="1.0" encoding="UTF-8" standalone="no"?>
<!DOCTYPE svg PUBLIC "-//W3C//DTD SVG 1.1//EN"
 "http://www.w3.org/Graphics/SVG/1.1/DTD/svg11.dtd">
<!-- Generated by graphviz version 2.43.0 (0)
 -->
<!-- Title: %3 Pages: 1 -->
<svg width="2331pt" height="183pt"
 viewBox="0.00 0.00 559.50 44.00" xmlns="http://www.w3.org/2000/svg" xmlns:xlink="http://www.w3.org/1999/xlink">
<g id="graph0" class="graph" transform="scale(4.17 4.17) rotate(0) translate(4 40)">
<title>%3</title>
<polygon fill="white" stroke="transparent" points="-4,4 -4,-40 555.5,-40 555.5,4 -4,4"/>
<!-- title -->
<g id="node1" class="node">
<title>title</title>
<path fill="lightgrey" stroke="transparent" d="M359,-36C359,-36 12,-36 12,-36 6,-36 0,-30 0,-24 0,-24 0,-12 0,-12 0,-6 6,0 12,0 12,0 359,0 359,0 365,0 371,-6 371,-12 371,-12 371,-24 371,-24 371,-30 365,-36 359,-36"/>
<text text-anchor="middle" x="185.5" y="-21.4" font-family="Arial Bold" font-size="12.00">swimming_diving_board_seed456</text>
<text text-anchor="middle" x="185.5" y="-8.4" font-family="Arial Bold" font-size="12.00">The robot should first walk up the Block_Low, then proceed t...</text>
</g>
<!-- node_0 -->
<g id="node2" class="node">
<title>node_0</title>
<path fill="#ff6b6b" stroke="black" stroke-width="2" d="M539.5,-36C539.5,-36 405.5,-36 405.5,-36 399.5,-36 393.5,-30 393.5,-24 393.5,-24 393.5,-12 393.5,-12 393.5,-6 399.5,0 405.5,0 405.5,0 539.5,0 539.5,0 545.5,0 551.5,-6 551.5,-12 551.5,-12 551.5,-24 551.5,-24 551.5,-30 545.5,-36 539.5,-36"/>
<text text-anchor="middle" x="472.5" y="-15.8" font-family="Arial" font-size="9.00">swimming_diving_board_seed456</text>
</g>
</g>
</svg>
