<?xml version="1.0" encoding="UTF-8" standalone="no"?>
<!DOCTYPE svg PUBLIC "-//W3C//DTD SVG 1.1//EN"
 "http://www.w3.org/Graphics/SVG/1.1/DTD/svg11.dtd">
<!-- Generated by graphviz version 2.43.0 (0)
 -->
<!-- Title: %3 Pages: 1 -->
<svg width="3392pt" height="2650pt"
 viewBox="0.00 0.00 814.00 636.00" xmlns="http://www.w3.org/2000/svg" xmlns:xlink="http://www.w3.org/1999/xlink">
<g id="graph0" class="graph" transform="scale(4.17 4.17) rotate(0) translate(4 632)">
<title>%3</title>
<polygon fill="white" stroke="transparent" points="-4,4 -4,-632 810,-632 810,4 -4,4"/>
<!-- title -->
<g id="node1" class="node">
<title>title</title>
<path fill="lightgrey" stroke="transparent" d="M363,-628C363,-628 12,-628 12,-628 6,-628 0,-622 0,-616 0,-616 0,-604 0,-604 0,-598 6,-592 12,-592 12,-592 363,-592 363,-592 369,-592 375,-598 375,-604 375,-604 375,-616 375,-616 375,-622 369,-628 363,-628"/>
<text text-anchor="middle" x="187.5" y="-613.4" font-family="Arial Bold" font-size="12.00">swimming_diving_board_seed123</text>
<text text-anchor="middle" x="187.5" y="-600.4" font-family="Arial Bold" font-size="12.00">The robot should walk up two rectangular blocks (one 0.3m hi...</text>
</g>
<!-- node_0 -->
<g id="node2" class="node">
<title>node_0</title>
<path fill="#ff6b6b" stroke="black" d="M555,-628C555,-628 416,-628 416,-628 410,-628 404,-622 404,-616 404,-616 404,-604 404,-604 404,-598 410,-592 416,-592 416,-592 555,-592 555,-592 561,-592 567,-598 567,-604 567,-604 567,-616 567,-616 567,-622 561,-628 555,-628"/>
<text text-anchor="middle" x="485.5" y="-607.5" font-family="Arial" font-size="10.00">swimming_diving_board_seed123</text>
</g>
<!-- node_1 -->
<g id="node3" class="node">
<title>node_1</title>
<path fill="#4ecdc4" stroke="black" d="M214,-534C214,-534 143,-534 143,-534 137,-534 131,-528 131,-522 131,-522 131,-510 131,-510 131,-504 137,-498 143,-498 143,-498 214,-498 214,-498 220,-498 226,-504 226,-510 226,-510 226,-522 226,-522 226,-528 220,-534 214,-534"/>
<text text-anchor="middle" x="178.5" y="-513.5" font-family="Arial" font-size="10.00">walk_to_lowBlock</text>
</g>
<!-- node_0&#45;&gt;node_1 -->
<g id="edge1" class="edge">
<title>node_0&#45;&gt;node_1</title>
<path fill="none" stroke="#999999" d="M428.48,-591.91C372.6,-575.17 288.05,-549.83 233.04,-533.35"/>
<polygon fill="#999999" stroke="#999999" points="233.56,-530.94 226.15,-531.28 232.15,-535.64 233.56,-530.94"/>
</g>
<!-- node_2 -->
<g id="node4" class="node">
<title>node_2</title>
<path fill="#4ecdc4" stroke="black" d="M341.5,-534C341.5,-534 267.5,-534 267.5,-534 261.5,-534 255.5,-528 255.5,-522 255.5,-522 255.5,-510 255.5,-510 255.5,-504 261.5,-498 267.5,-498 267.5,-498 341.5,-498 341.5,-498 347.5,-498 353.5,-504 353.5,-510 353.5,-510 353.5,-522 353.5,-522 353.5,-528 347.5,-534 341.5,-534"/>
<text text-anchor="middle" x="304.5" y="-513.5" font-family="Arial" font-size="10.00">walk_up_lowBlock</text>
</g>
<!-- node_0&#45;&gt;node_2 -->
<g id="edge2" class="edge">
<title>node_0&#45;&gt;node_2</title>
<path fill="none" stroke="#999999" d="M451.88,-591.91C421.5,-576.47 376.73,-553.71 344.51,-537.34"/>
<polygon fill="#999999" stroke="#999999" points="345.6,-535.14 338.25,-534.15 343.38,-539.51 345.6,-535.14"/>
</g>
<!-- node_3 -->
<g id="node5" class="node">
<title>node_3</title>
<path fill="#4ecdc4" stroke="black" d="M313,-368C313,-368 236,-368 236,-368 230,-368 224,-362 224,-356 224,-356 224,-344 224,-344 224,-338 230,-332 236,-332 236,-332 313,-332 313,-332 319,-332 325,-338 325,-344 325,-344 325,-356 325,-356 325,-362 319,-368 313,-368"/>
<text text-anchor="middle" x="274.5" y="-347.5" font-family="Arial" font-size="10.00">walk_up_highBlock</text>
</g>
<!-- node_0&#45;&gt;node_3 -->
<g id="edge3" class="edge">
<title>node_0&#45;&gt;node_3</title>
<path fill="none" stroke="#999999" d="M471.33,-591.67C434.32,-546.41 334.74,-424.66 293.15,-373.81"/>
<polygon fill="#999999" stroke="#999999" points="294.94,-372.12 288.61,-368.25 291.15,-375.22 294.94,-372.12"/>
</g>
<!-- node_4 -->
<g id="node6" class="node">
<title>node_4</title>
<path fill="#4ecdc4" stroke="black" d="M459,-368C459,-368 366,-368 366,-368 360,-368 354,-362 354,-356 354,-356 354,-344 354,-344 354,-338 360,-332 366,-332 366,-332 459,-332 459,-332 465,-332 471,-338 471,-344 471,-344 471,-356 471,-356 471,-362 465,-368 459,-368"/>
<text text-anchor="middle" x="412.5" y="-347.5" font-family="Arial" font-size="10.00">walk_onto_divingBoard</text>
</g>
<!-- node_0&#45;&gt;node_4 -->
<g id="edge4" class="edge">
<title>node_0&#45;&gt;node_4</title>
<path fill="none" stroke="#999999" d="M480.6,-591.67C467.9,-546.78 433.9,-426.63 419.31,-375.06"/>
<polygon fill="#999999" stroke="#999999" points="421.65,-374.32 417.38,-368.25 416.93,-375.66 421.65,-374.32"/>
</g>
<!-- node_5 -->
<g id="node7" class="node">
<title>node_5</title>
<path fill="#4ecdc4" stroke="black" d="M420,-202C420,-202 289,-202 289,-202 283,-202 277,-196 277,-190 277,-190 277,-178 277,-178 277,-172 283,-166 289,-166 289,-166 420,-166 420,-166 426,-166 432,-172 432,-178 432,-178 432,-190 432,-190 432,-196 426,-202 420,-202"/>
<text text-anchor="middle" x="354.5" y="-181.5" font-family="Arial" font-size="10.00">walk_along_divingBoard_to_s...</text>
</g>
<!-- node_0&#45;&gt;node_5 -->
<g id="edge5" class="edge">
<title>node_0&#45;&gt;node_5</title>
<path fill="none" stroke="#999999" d="M490.45,-591.78C498.97,-560.6 515.5,-492.57 515.5,-434 515.5,-434 515.5,-434 515.5,-349 515.5,-281.41 445.01,-231.46 397.31,-205.4"/>
<polygon fill="#999999" stroke="#999999" points="398.36,-203.19 391.03,-202.04 396.05,-207.5 398.36,-203.19"/>
</g>
<!-- node_6 -->
<g id="node8" class="node">
<title>node_6</title>
<path fill="#4ecdc4" stroke="black" d="M610,-202C610,-202 473,-202 473,-202 467,-202 461,-196 461,-190 461,-190 461,-178 461,-178 461,-172 467,-166 473,-166 473,-166 610,-166 610,-166 616,-166 622,-172 622,-178 622,-178 622,-190 622,-190 622,-196 616,-202 610,-202"/>
<text text-anchor="middle" x="541.5" y="-181.5" font-family="Arial" font-size="10.00">kick_smallCone_into_swimmin...</text>
</g>
<!-- node_0&#45;&gt;node_6 -->
<g id="edge6" class="edge">
<title>node_0&#45;&gt;node_6</title>
<path fill="none" stroke="#999999" d="M501.41,-591.6C527.01,-561.74 574.5,-497.74 574.5,-434 574.5,-434 574.5,-434 574.5,-349 574.5,-298.24 559.12,-240.34 549.36,-208.72"/>
<polygon fill="#999999" stroke="#999999" points="551.68,-207.95 547.25,-202.01 547.01,-209.42 551.68,-207.95"/>
</g>
<!-- node_7 -->
<g id="node9" class="node">
<title>node_7</title>
<path fill="#4ecdc4" stroke="black" d="M558,-36C558,-36 431,-36 431,-36 425,-36 419,-30 419,-24 419,-24 419,-12 419,-12 419,-6 425,0 431,0 431,0 558,0 558,0 564,0 570,-6 570,-12 570,-12 570,-24 570,-24 570,-30 564,-36 558,-36"/>
<text text-anchor="middle" x="494.5" y="-15.5" font-family="Arial" font-size="10.00">dive_from_divingBoard_into_...</text>
</g>
<!-- node_0&#45;&gt;node_7 -->
<g id="edge7" class="edge">
<title>node_0&#45;&gt;node_7</title>
<path fill="none" stroke="#999999" d="M525.67,-591.83C578.99,-566.02 666.5,-511.8 666.5,-434 666.5,-434 666.5,-434 666.5,-183 666.5,-113.76 592.58,-64.82 541.66,-39.32"/>
<polygon fill="#999999" stroke="#999999" points="542.62,-37.07 535.26,-36.18 540.47,-41.46 542.62,-37.07"/>
</g>
<!-- node_8 -->
<g id="node10" class="node">
<title>node_8</title>
<path fill="#4ecdc4" stroke="black" d="M794,-36C794,-36 657,-36 657,-36 651,-36 645,-30 645,-24 645,-24 645,-12 645,-12 645,-6 651,0 657,0 657,0 794,0 794,0 800,0 806,-6 806,-12 806,-12 806,-24 806,-24 806,-30 800,-36 794,-36"/>
<text text-anchor="middle" x="725.5" y="-15.5" font-family="Arial" font-size="10.00">perform_swimming_motion_in_...</text>
</g>
<!-- node_0&#45;&gt;node_8 -->
<g id="edge8" class="edge">
<title>node_0&#45;&gt;node_8</title>
<path fill="none" stroke="#999999" d="M550.76,-591.99C621.83,-569.07 725.5,-520.76 725.5,-434 725.5,-434 725.5,-434 725.5,-183 725.5,-133.44 725.5,-75.47 725.5,-43.42"/>
<polygon fill="#999999" stroke="#999999" points="727.95,-43.24 725.5,-36.24 723.05,-43.24 727.95,-43.24"/>
</g>
<!-- tier_spacer_1_1 -->
<!-- node_1&#45;&gt;tier_spacer_1_1 -->
<!-- tier_spacer_1_2 -->
<!-- node_3&#45;&gt;tier_spacer_1_2 -->
<!-- tier_spacer_1_3 -->
<!-- node_5&#45;&gt;tier_spacer_1_3 -->
<!-- tier_spacer_1_1&#45;&gt;node_3 -->
<!-- tier_spacer_1_2&#45;&gt;node_5 -->
<!-- tier_spacer_1_3&#45;&gt;node_7 -->
</g>
</svg>
