<?xml version="1.0" encoding="UTF-8" standalone="no"?>
<!DOCTYPE svg PUBLIC "-//W3C//DTD SVG 1.1//EN"
 "http://www.w3.org/Graphics/SVG/1.1/DTD/svg11.dtd">
<!-- Generated by graphviz version 2.43.0 (0)
 -->
<!-- Title: %3 Pages: 1 -->
<svg width="3000pt" height="322pt"
 viewBox="0.00 0.00 720.00 77.27" xmlns="http://www.w3.org/2000/svg" xmlns:xlink="http://www.w3.org/1999/xlink">
<g id="graph0" class="graph" transform="scale(2.44 2.44) rotate(0) translate(4 128)">
<title>%3</title>
<polygon fill="white" stroke="transparent" points="-4,4 -4,-128 1226,-128 1226,4 -4,4"/>
<g id="clust1" class="cluster">
<title>cluster_l1_g0</title>
</g>
<g id="clust2" class="cluster">
<title>cluster_l1_g1</title>
</g>
<g id="clust3" class="cluster">
<title>cluster_l1_g2</title>
</g>
<!-- title -->
<g id="node1" class="node">
<title>title</title>
<path fill="lightgrey" stroke="transparent" d="M454.5,-124C454.5,-124 103.5,-124 103.5,-124 97.5,-124 91.5,-118 91.5,-112 91.5,-112 91.5,-100 91.5,-100 91.5,-94 97.5,-88 103.5,-88 103.5,-88 454.5,-88 454.5,-88 460.5,-88 466.5,-94 466.5,-100 466.5,-100 466.5,-112 466.5,-112 466.5,-118 460.5,-124 454.5,-124"/>
<text text-anchor="middle" x="279" y="-109.4" font-family="Arial Bold" font-size="12.00">swimming_diving_board_seed123</text>
<text text-anchor="middle" x="279" y="-96.4" font-family="Arial Bold" font-size="12.00">The robot should walk up two rectangular blocks (one 0.3m hi...</text>
</g>
<!-- node_0 -->
<g id="node2" class="node">
<title>node_0</title>
<path fill="#ff6b6b" stroke="black" d="M635,-124C635,-124 501,-124 501,-124 495,-124 489,-118 489,-112 489,-112 489,-100 489,-100 489,-94 495,-88 501,-88 501,-88 635,-88 635,-88 641,-88 647,-94 647,-100 647,-100 647,-112 647,-112 647,-118 641,-124 635,-124"/>
<text text-anchor="middle" x="568" y="-103.8" font-family="Arial" font-size="9.00">swimming_diving_board_seed123</text>
</g>
<!-- node_1 -->
<g id="node3" class="node">
<title>node_1</title>
<path fill="#4ecdc4" stroke="black" d="M372,-52C372,-52 288,-52 288,-52 282,-52 276,-46 276,-40 276,-40 276,-28 276,-28 276,-22 282,-16 288,-16 288,-16 372,-16 372,-16 378,-16 384,-22 384,-28 384,-28 384,-40 384,-40 384,-46 378,-52 372,-52"/>
<text text-anchor="middle" x="330" y="-31.8" font-family="Arial" font-size="9.00">walk_to_lowBlock</text>
</g>
<!-- node_0&#45;&gt;node_1 -->
<g id="edge1" class="edge">
<title>node_0&#45;&gt;node_1</title>
<path fill="none" stroke="#999999" d="M495.09,-87.97C464.01,-80.22 427.5,-70.44 395,-60 389.82,-58.34 384.45,-56.48 379.12,-54.56"/>
<polygon fill="#999999" stroke="#999999" points="379.83,-52.21 372.41,-52.1 378.14,-56.81 379.83,-52.21"/>
</g>
<!-- node_2 -->
<g id="node4" class="node">
<title>node_2</title>
<path fill="#4ecdc4" stroke="black" d="M242,-52C242,-52 158,-52 158,-52 152,-52 146,-46 146,-40 146,-40 146,-28 146,-28 146,-22 152,-16 158,-16 158,-16 242,-16 242,-16 248,-16 254,-22 254,-28 254,-28 254,-40 254,-40 254,-46 248,-52 242,-52"/>
<text text-anchor="middle" x="200" y="-31.8" font-family="Arial" font-size="9.00">walk_up_lowBlock</text>
</g>
<!-- node_0&#45;&gt;node_2 -->
<g id="edge2" class="edge">
<title>node_0&#45;&gt;node_2</title>
<path fill="none" stroke="#999999" d="M488.54,-89.74C484.98,-89.14 481.45,-88.55 478,-88 383.72,-72.91 357.54,-83.52 265,-60 259.1,-58.5 253.02,-56.63 247.04,-54.58"/>
<polygon fill="#999999" stroke="#999999" points="247.5,-52.15 240.09,-52.11 245.86,-56.76 247.5,-52.15"/>
</g>
<!-- node_3 -->
<g id="node5" class="node">
<title>node_3</title>
<path fill="#4ecdc4" stroke="black" d="M112,-52C112,-52 28,-52 28,-52 22,-52 16,-46 16,-40 16,-40 16,-28 16,-28 16,-22 22,-16 28,-16 28,-16 112,-16 112,-16 118,-16 124,-22 124,-28 124,-28 124,-40 124,-40 124,-46 118,-52 112,-52"/>
<text text-anchor="middle" x="70" y="-31.8" font-family="Arial" font-size="9.00">walk_up_highBlock</text>
</g>
<!-- node_0&#45;&gt;node_3 -->
<g id="edge3" class="edge">
<title>node_0&#45;&gt;node_3</title>
<path fill="none" stroke="#999999" d="M488.57,-89.53C485,-88.98 481.47,-88.47 478,-88 326.42,-67.56 284.12,-94.02 135,-60 128.68,-58.56 122.16,-56.62 115.79,-54.47"/>
<polygon fill="#999999" stroke="#999999" points="116.38,-52.08 108.97,-52.05 114.75,-56.7 116.38,-52.08"/>
</g>
<!-- node_4 -->
<g id="node6" class="node">
<title>node_4</title>
<path fill="#4ecdc4" stroke="black" d="M851.5,-52C851.5,-52 762.5,-52 762.5,-52 756.5,-52 750.5,-46 750.5,-40 750.5,-40 750.5,-28 750.5,-28 750.5,-22 756.5,-16 762.5,-16 762.5,-16 851.5,-16 851.5,-16 857.5,-16 863.5,-22 863.5,-28 863.5,-28 863.5,-40 863.5,-40 863.5,-46 857.5,-52 851.5,-52"/>
<text text-anchor="middle" x="807" y="-31.8" font-family="Arial" font-size="9.00">walk_onto_divingBoard</text>
</g>
<!-- node_0&#45;&gt;node_4 -->
<g id="edge4" class="edge">
<title>node_0&#45;&gt;node_4</title>
<path fill="none" stroke="#999999" d="M638.73,-87.99C669.7,-80.13 706.35,-70.27 739,-60 744.52,-58.26 750.25,-56.34 755.94,-54.36"/>
<polygon fill="#999999" stroke="#999999" points="756.8,-56.66 762.58,-52.02 755.17,-52.04 756.8,-56.66"/>
</g>
<!-- node_5 -->
<g id="node7" class="node">
<title>node_5</title>
<path fill="#4ecdc4" stroke="black" d="M716,-52C716,-52 592,-52 592,-52 586,-52 580,-46 580,-40 580,-40 580,-28 580,-28 580,-22 586,-16 592,-16 592,-16 716,-16 716,-16 722,-16 728,-22 728,-28 728,-28 728,-40 728,-40 728,-46 722,-52 716,-52"/>
<text text-anchor="middle" x="654" y="-31.8" font-family="Arial" font-size="9.00">walk_along_divingBoard_to_s...</text>
</g>
<!-- node_0&#45;&gt;node_5 -->
<g id="edge5" class="edge">
<title>node_0&#45;&gt;node_5</title>
<path fill="none" stroke="#999999" d="M589.26,-87.7C600.82,-78.29 615.22,-66.56 627.51,-56.56"/>
<polygon fill="#999999" stroke="#999999" points="629.1,-58.42 632.99,-52.1 626.01,-54.62 629.1,-58.42"/>
</g>
<!-- node_6 -->
<g id="node8" class="node">
<title>node_6</title>
<path fill="#4ecdc4" stroke="black" d="M546,-52C546,-52 420,-52 420,-52 414,-52 408,-46 408,-40 408,-40 408,-28 408,-28 408,-22 414,-16 420,-16 420,-16 546,-16 546,-16 552,-16 558,-22 558,-28 558,-28 558,-40 558,-40 558,-46 552,-52 546,-52"/>
<text text-anchor="middle" x="483" y="-31.8" font-family="Arial" font-size="9.00">kick_smallCone_into_swimmin...</text>
</g>
<!-- node_0&#45;&gt;node_6 -->
<g id="edge6" class="edge">
<title>node_0&#45;&gt;node_6</title>
<path fill="none" stroke="#999999" d="M546.99,-87.7C535.56,-78.29 521.33,-66.56 509.18,-56.56"/>
<polygon fill="#999999" stroke="#999999" points="510.73,-54.66 503.77,-52.1 507.62,-58.45 510.73,-54.66"/>
</g>
<!-- node_7 -->
<g id="node9" class="node">
<title>node_7</title>
<path fill="#4ecdc4" stroke="black" d="M1194,-52C1194,-52 1074,-52 1074,-52 1068,-52 1062,-46 1062,-40 1062,-40 1062,-28 1062,-28 1062,-22 1068,-16 1074,-16 1074,-16 1194,-16 1194,-16 1200,-16 1206,-22 1206,-28 1206,-28 1206,-40 1206,-40 1206,-46 1200,-52 1194,-52"/>
<text text-anchor="middle" x="1134" y="-31.8" font-family="Arial" font-size="9.00">dive_from_divingBoard_into_...</text>
</g>
<!-- node_0&#45;&gt;node_7 -->
<g id="edge7" class="edge">
<title>node_0&#45;&gt;node_7</title>
<path fill="none" stroke="#999999" d="M647.33,-102.46C743.6,-98.27 910.48,-87.42 1051,-60 1059.19,-58.4 1067.73,-56.32 1076.08,-54.04"/>
<polygon fill="#999999" stroke="#999999" points="1076.96,-56.34 1083.04,-52.09 1075.64,-51.62 1076.96,-56.34"/>
</g>
<!-- node_8 -->
<g id="node10" class="node">
<title>node_8</title>
<path fill="#4ecdc4" stroke="black" d="M1028,-52C1028,-52 900,-52 900,-52 894,-52 888,-46 888,-40 888,-40 888,-28 888,-28 888,-22 894,-16 900,-16 900,-16 1028,-16 1028,-16 1034,-16 1040,-22 1040,-28 1040,-28 1040,-40 1040,-40 1040,-46 1034,-52 1028,-52"/>
<text text-anchor="middle" x="964" y="-31.8" font-family="Arial" font-size="9.00">perform_swimming_motion_in_...</text>
</g>
<!-- node_0&#45;&gt;node_8 -->
<g id="edge8" class="edge">
<title>node_0&#45;&gt;node_8</title>
<path fill="none" stroke="#999999" d="M647.27,-96.45C710,-88.96 799.63,-76.67 877,-60 885.16,-58.24 893.68,-56.14 902.06,-53.9"/>
<polygon fill="#999999" stroke="#999999" points="902.94,-56.2 909.06,-52 901.66,-51.47 902.94,-56.2"/>
</g>
</g>
</svg>
